<svg width="30" height="30" viewBox="0 0 30 30" fill="none" xmlns="http://www.w3.org/2000/svg">
<path d="M15 30C23.2711 30 30 23.2711 30 15C30 6.72889 23.2711 -2.49561e-06 15 -3.21869e-06C6.72889 -3.94177e-06 1.27077e-07 6.72888 -5.96007e-07 15C-1.31909e-06 23.2711 6.72889 30 15 30ZM15 1.11111C22.6583 1.11111 28.8889 7.34167 28.8889 15C28.8889 22.6583 22.6583 28.8889 15 28.8889C7.34167 28.8889 1.11111 22.6583 1.11111 15C1.11111 7.34166 7.34167 1.11111 15 1.11111Z" fill="#3D3D3D"/>
<path d="M13.726 20.1627L9.11881 15.5555L22.7777 15.5555C23.0844 15.5555 23.3333 15.3071 23.3333 14.9999C23.3333 14.6927 23.0844 14.4444 22.7777 14.4444L9.11881 14.4444L13.726 9.83713L12.9405 9.05157L6.99214 14.9999L12.9405 20.9482L13.726 20.1627Z" fill="#3D3D3D"/>
</svg>
