<svg width="30" height="30" viewBox="0 0 30 30" fill="none" xmlns="http://www.w3.org/2000/svg">
<path d="M15 0C6.72889 0 0 6.72889 0 15C0 23.2711 6.72889 30 15 30C23.2711 30 30 23.2711 30 15C30 6.72889 23.2711 0 15 0ZM15 28.8889C7.34167 28.8889 1.11111 22.6583 1.11111 15C1.11111 7.34167 7.34167 1.11111 15 1.11111C22.6583 1.11111 28.8889 7.34167 28.8889 15C28.8889 22.6583 22.6583 28.8889 15 28.8889Z" fill="#6059F7"/>
<path d="M16.274 9.83731L20.8812 14.4445H7.2223C6.91564 14.4445 6.66675 14.6929 6.66675 15.0001C6.66675 15.3073 6.91564 15.5556 7.2223 15.5556H20.8812L16.274 20.1629L17.0595 20.9484L23.0079 15.0001L17.0595 9.05176L16.274 9.83731Z" fill="#6059F7"/>
</svg>
