<svg width="66" height="22" viewBox="0 0 66 22" fill="none" xmlns="http://www.w3.org/2000/svg">
<path d="M0.311328 21.3891C0.175911 21.3891 0.108203 21.3218 0.0404947 21.2544C-0.0272136 21.1198 -0.0272136 20.9178 0.175911 20.7832C11.6863 13.7148 27.1238 13.5128 38.7697 20.312C39.6499 14.5899 42.9676 9.13717 47.978 5.23272C53.1915 1.26095 59.5561 -0.62396 65.5145 0.183857C65.7176 0.183857 65.853 0.385813 65.7853 0.587768C65.7853 0.789722 65.5822 0.924357 65.379 0.857039C59.6238 0.116539 53.3947 1.86681 48.3842 5.77126C43.3738 9.67572 40.0561 15.1958 39.379 20.9178C39.379 21.0525 39.3113 21.1198 39.1759 21.1871C39.0405 21.2544 38.9728 21.2544 38.8374 21.1871C27.327 14.186 11.8895 14.3207 0.514453 21.3218C0.446745 21.3891 0.379036 21.3891 0.311328 21.3891Z" fill="#3D3D3D"/>
</svg>
