<svg width="250" height="294" viewBox="0 0 250 294" fill="none" xmlns="http://www.w3.org/2000/svg">
<path d="M250 26.5223V199.486C250 199.486 190.293 253.288 125 199.486C67.8571 152.314 12.8205 187.835 0 197.307V26.5223C0 11.935 11.4469 0 25.5494 0H224.267C238.553 0.0947225 250 11.935 250 26.5223Z" fill="#36C3FE"/>
<g style="mix-blend-mode:multiply" opacity="0.5">
<path d="M250 197.51V199.672C250 199.672 190.771 253.056 126 199.672C182.777 152.961 237.373 188.111 250 197.51Z" fill="#36C3FE"/>
</g>
<g style="mix-blend-mode:multiply" opacity="0.5">
<path d="M221.933 90.4024L219.065 88.984C219.065 86.9036 218.258 85.1069 216.914 83.783C217.452 82.5537 217.72 81.1352 217.362 79.6222C216.824 77.069 214.852 74.9886 212.432 74.4212C210.729 74.043 209.116 74.4212 207.861 75.2723C205.889 73.381 203.289 72.3408 200.421 72.3408C194.953 72.3408 190.382 76.407 189.396 81.8917C186.08 82.3645 183.48 85.3905 183.48 88.984C183.48 89.0785 183.48 89.2676 183.48 89.3622L180.433 90.4024C179.357 90.7807 179.626 92.3882 180.702 92.3882H184.287H218.258H221.395H221.485C222.561 92.2937 222.83 90.8752 221.933 90.4024Z" fill="#36C3FE"/>
</g>
<g style="mix-blend-mode:multiply" opacity="0.5">
<path d="M87.0345 38.2983L80.1327 36.5016C78.9675 33.6647 76.4577 31.5843 73.4102 31.2061C73.4102 31.2061 73.4102 31.2061 73.4102 31.1115C73.4102 27.329 70.4523 24.2084 66.8669 24.2084C66.1498 24.2084 65.4328 24.3029 64.7157 24.5866C63.8194 20.7095 60.5925 17.7781 56.559 17.7781C51.9877 17.7781 48.2231 21.7497 48.2231 26.5725C48.2231 26.667 48.2231 26.7616 48.2231 26.8561C47.5956 26.667 46.9682 26.5725 46.3408 26.5725C43.1139 26.5725 40.3353 28.4637 38.9012 31.3006C38.3634 31.3006 37.6463 31.2061 37.0188 31.2061C33.4335 31.2061 30.4756 33.5701 29.2207 36.8799C26.8902 37.3527 24.6494 37.92 22.5878 38.2983C21.6018 38.4874 21.7811 40.0004 22.7671 40.0004H27.1591H28.6829H80.8498H84.7937H86.8552C87.7516 40.0004 87.9309 38.582 87.0345 38.2983Z" fill="#36C3FE"/>
</g>
<path d="M206.337 50.0239H185.183C184.735 50.0239 184.377 49.6457 184.377 49.1729C184.377 48.7 184.735 48.3218 185.183 48.3218H206.337C206.785 48.3218 207.144 48.7 207.144 49.1729C207.144 49.6457 206.785 50.0239 206.337 50.0239Z" fill="white"/>
<path d="M72.1553 93.145H48.6712C48.223 93.145 47.8645 92.7668 47.8645 92.2939C47.8645 91.8211 48.223 91.4429 48.6712 91.4429H72.1553C72.6034 91.4429 72.962 91.8211 72.962 92.2939C72.962 92.7668 72.6034 93.145 72.1553 93.145Z" fill="white"/>
<path d="M60.4131 70.3555H15.0584C14.6102 70.3555 14.2517 69.9772 14.2517 69.5044C14.2517 69.0316 14.6102 68.6533 15.0584 68.6533H60.4131C60.8613 68.6533 61.2198 69.0316 61.2198 69.5044C61.2198 69.9772 60.8613 70.3555 60.4131 70.3555Z" fill="white"/>
<path d="M138.409 18.3452H114.297C113.849 18.3452 113.49 17.967 113.49 17.4941C113.49 17.0213 113.849 16.6431 114.297 16.6431H138.409C138.857 16.6431 139.215 17.0213 139.215 17.4941C139.215 17.967 138.857 18.3452 138.409 18.3452Z" fill="white"/>
<path d="M171.918 80.3789H163.044C162.596 80.3789 162.237 80.0006 162.237 79.5278C162.237 79.055 162.596 78.6768 163.044 78.6768H171.918C172.366 78.6768 172.724 79.055 172.724 79.5278C172.724 80.0006 172.366 80.3789 171.918 80.3789Z" fill="white"/>
<path d="M57.5449 55.603H35.9432C35.495 55.603 35.1365 55.2248 35.1365 54.752C35.1365 54.2791 35.495 53.9009 35.9432 53.9009H57.5449C57.9931 53.9009 58.3516 54.2791 58.3516 54.752C58.3516 55.2248 57.9931 55.603 57.5449 55.603Z" fill="white"/>
<path d="M218.631 25.2483H191.024C190.576 25.2483 190.217 24.87 190.217 24.3972C190.217 23.9244 190.576 23.5461 191.024 23.5461H218.541C218.989 23.5461 219.348 23.9244 219.348 24.3972C219.438 24.87 219.079 25.2483 218.631 25.2483Z" fill="white"/>
<path d="M210.729 66.0054H181.508C181.06 66.0054 180.702 65.6271 180.702 65.1543C180.702 64.6815 181.06 64.3032 181.508 64.3032H210.729C211.177 64.3032 211.536 64.6815 211.536 65.1543C211.536 65.6271 211.177 66.0054 210.729 66.0054Z" fill="white"/>
<path d="M106.048 93.7849L106.132 93.3415C106.216 93.3415 106.384 93.4302 106.468 93.4302H106.553C106.805 93.4302 107.141 93.3415 107.309 93.0755L107.393 92.9868L124.381 81.0156L142.21 93.1642C142.462 93.3415 142.798 93.4302 143.135 93.2528C143.471 93.1642 143.723 92.8981 143.808 92.5434L165 31.8892V31.8005V31.6232C165 31.5345 165 31.4458 165 31.3572V31.2685C165 31.1798 164.916 31.0911 164.916 31.0025L164.832 30.9138C164.748 30.8251 164.748 30.7364 164.58 30.7364C164.58 30.7364 164.58 30.7364 164.495 30.7364C164.411 30.6478 164.327 30.6478 164.243 30.5591H164.159C164.075 30.5591 163.991 30.5591 163.907 30.5591H163.823H163.739L75.8571 49.713C75.4366 49.8017 75.1002 50.1564 75.0161 50.6885C74.932 51.1319 75.1843 51.6639 75.6048 51.8413L100.918 65.9407L105.375 92.1V92.1887C105.375 92.3661 105.375 92.4547 105.375 92.5434C105.375 92.6321 105.375 92.6321 105.375 92.6321C105.375 92.7208 105.459 92.8094 105.459 92.9868L105.543 93.1642C105.627 93.2528 105.627 93.2528 105.712 93.3415H105.796C105.88 93.4302 105.964 93.4302 106.048 93.4302V93.7849ZM108.571 89.4398L113.196 73.3008L122.447 79.6854L108.571 89.4398ZM142.294 90.5926L114.458 71.5273L161.72 34.9042L142.294 90.5926ZM79.3051 51.3092L156.338 34.5495L101.927 63.9012L79.3051 51.3092ZM103.189 65.852L147.76 41.7322L148.181 42.4416L111.851 70.6405C111.851 70.6405 111.767 70.6405 111.767 70.7292L111.682 70.8179L111.598 70.9065L111.514 70.9952C111.514 71.0839 111.43 71.1726 111.43 71.1726L111.346 71.3499L106.805 87.2229L103.189 65.852Z" fill="white"/>
</svg>
