<svg width="40" height="40" viewBox="0 0 40 40" fill="none" xmlns="http://www.w3.org/2000/svg">
<path d="M34.1422 5.85781C30.3646 2.08031 25.3422 0 20 0C14.6578 0 9.63539 2.08031 5.85781 5.85781C2.08023 9.63531 0 14.6578 0 20C0 25.3422 2.08031 30.3646 5.85781 34.1422C9.63531 37.9198 14.6578 40 20 40C25.3422 40 30.3646 37.9197 34.1422 34.1422C37.9198 30.3647 40 25.3422 40 20C40 14.6578 37.9197 9.63539 34.1422 5.85781ZM33.2583 33.2583C29.7169 36.7997 25.0083 38.75 20 38.75C14.9917 38.75 10.2831 36.7997 6.74172 33.2583C3.20031 29.7169 1.25 25.0083 1.25 20C1.25 14.9917 3.20031 10.2831 6.74172 6.74172C10.2831 3.20031 14.9917 1.25 20 1.25C25.0083 1.25 29.7169 3.20031 33.2583 6.74172C36.7997 10.2831 38.75 14.9917 38.75 20C38.75 25.0083 36.7997 29.7169 33.2583 33.2583Z" fill="#6059F7"/>
<path d="M3.75 20C3.75 11.0398 11.0398 3.75 20 3.75C23.2319 3.75 26.3536 4.69617 29.0277 6.48625C29.3145 6.67828 29.7027 6.60141 29.8948 6.31453C30.0868 6.02773 30.0099 5.63953 29.723 5.4475C26.8425 3.51922 23.4803 2.5 20 2.5C15.3255 2.5 10.9309 4.32031 7.62563 7.62563C4.32031 10.9309 2.5 15.3255 2.5 20C2.5 24.3125 4.08234 28.4556 6.95562 31.6663C7.07906 31.8042 7.25 31.8745 7.42156 31.8745C7.56992 31.8745 7.71891 31.822 7.83813 31.7152C8.09531 31.4849 8.11727 31.0898 7.88703 30.8327C5.2193 27.8516 3.75 24.0045 3.75 20Z" fill="#6059F7"/>
<path d="M34.5527 10.2771C34.3606 9.99024 33.9724 9.91337 33.6856 10.1054C33.3988 10.2974 33.3219 10.6856 33.5139 10.9724C35.3039 13.6465 36.2501 16.7682 36.2501 20C36.2501 28.9602 28.9603 36.25 20.0001 36.25C16.2827 36.25 12.6488 34.9626 9.76812 32.6249C9.50007 32.4074 9.10648 32.4484 8.88898 32.7164C8.67148 32.9845 8.71242 33.3781 8.98047 33.5956C12.0832 36.1134 15.9967 37.5 20.0001 37.5C24.6745 37.5 29.0691 35.6797 32.3744 32.3744C35.6798 29.0691 37.5001 24.6745 37.5001 20C37.5001 16.5198 36.4809 13.1576 34.5527 10.2771Z" fill="#6059F7"/>
<path d="M30.8327 7.8871C31.2529 8.26312 31.6581 8.66554 32.0369 9.08304C32.1603 9.21898 32.3298 9.28804 32.5 9.28804C32.6497 9.28804 32.8001 9.23445 32.9198 9.12585C33.1754 8.8939 33.1946 8.49859 32.9626 8.24296C32.5548 7.79359 32.1186 7.36046 31.6663 6.95562C31.4091 6.72546 31.014 6.74734 30.7838 7.00453C30.5536 7.26171 30.5754 7.65687 30.8327 7.8871Z" fill="#6059F7"/>
<path d="M20 8.125C20.3452 8.125 20.625 7.84516 20.625 7.5V5.625C20.625 5.27984 20.3452 5 20 5C19.6548 5 19.375 5.27984 19.375 5.625V7.5C19.375 7.84516 19.6548 8.125 20 8.125Z" fill="#6059F7"/>
<path d="M19.375 32.5V34.375C19.375 34.7202 19.6548 35 20 35C20.3452 35 20.625 34.7202 20.625 34.375V32.5C20.625 32.1548 20.3452 31.875 20 31.875C19.6548 31.875 19.375 32.1548 19.375 32.5Z" fill="#6059F7"/>
<path d="M8.125 20C8.125 19.6548 7.84516 19.375 7.5 19.375H5.625C5.27984 19.375 5 19.6548 5 20C5 20.3452 5.27984 20.625 5.625 20.625H7.5C7.84516 20.625 8.125 20.3452 8.125 20Z" fill="#6059F7"/>
<path d="M31.875 20C31.875 20.3452 32.1548 20.625 32.5 20.625H34.375C34.7202 20.625 35 20.3452 35 20C35 19.6548 34.7202 19.375 34.375 19.375H32.5C32.1548 19.375 31.875 19.6548 31.875 20Z" fill="#6059F7"/>
<path d="M14.2913 8.86219L13.3538 7.23836C13.1813 6.93938 12.799 6.83711 12.5001 7.00961C12.2012 7.18219 12.0988 7.56445 12.2713 7.86336L13.2088 9.48719C13.3246 9.68766 13.5347 9.79977 13.7507 9.79977C13.8567 9.79977 13.9642 9.77274 14.0627 9.71594C14.3615 9.54336 14.4639 9.16109 14.2913 8.86219Z" fill="#6059F7"/>
<path d="M26.7913 30.5128C26.6188 30.2139 26.2364 30.1116 25.9376 30.284C25.6387 30.4566 25.5363 30.8389 25.7088 31.1378L26.6463 32.7616C26.7621 32.9621 26.9722 33.0742 27.1882 33.0742C27.2942 33.0742 27.4017 33.0472 27.5002 32.9904C27.7991 32.8178 27.9015 32.4355 27.7289 32.1366L26.7913 30.5128Z" fill="#6059F7"/>
<path d="M7.55141 27.8126C7.65742 27.8126 7.76493 27.7856 7.86336 27.7288L9.48719 26.7913C9.7861 26.6187 9.88852 26.2364 9.71594 25.9375C9.54336 25.6386 9.16102 25.5363 8.86219 25.7088L7.23836 26.6463C6.93946 26.8188 6.83704 27.2011 7.00961 27.5C7.12532 27.7005 7.33539 27.8126 7.55141 27.8126Z" fill="#6059F7"/>
<path d="M30.8258 14.3751C30.9318 14.3751 31.0393 14.348 31.1378 14.2912L32.7616 13.3537C33.0605 13.1812 33.1629 12.7989 32.9904 12.5C32.8178 12.2011 32.4355 12.0988 32.1366 12.2712L30.5128 13.2087C30.2139 13.3813 30.1114 13.7636 30.284 14.0625C30.3998 14.263 30.6099 14.3751 30.8258 14.3751Z" fill="#6059F7"/>
<path d="M27.5001 7.00961C27.2012 6.83696 26.8189 6.93938 26.6463 7.23836L25.7088 8.86219C25.5363 9.1611 25.6387 9.54336 25.9376 9.71594C26.036 9.77282 26.1434 9.79977 26.2495 9.79977C26.4656 9.79977 26.6756 9.68766 26.7914 9.48719L27.7289 7.86336C27.9014 7.56446 27.799 7.18219 27.5001 7.00961Z" fill="#6059F7"/>
<path d="M14.0626 30.2841C13.7637 30.1115 13.3814 30.2139 13.2088 30.5128L12.2713 32.1366C12.0988 32.4355 12.2012 32.8178 12.5001 32.9904C12.5985 33.0473 12.7059 33.0742 12.812 33.0742C13.0281 33.0742 13.2381 32.9621 13.3539 32.7616L14.2914 31.1378C14.4639 30.8389 14.3615 30.4566 14.0626 30.2841Z" fill="#6059F7"/>
<path d="M30.5128 26.7913L32.1366 27.7288C32.235 27.7856 32.3424 27.8126 32.4485 27.8126C32.6646 27.8126 32.8746 27.7005 32.9904 27.5C33.163 27.2011 33.0606 26.8188 32.7617 26.6463L31.1378 25.7088C30.8389 25.5361 30.4567 25.6386 30.2841 25.9375C30.1114 26.2364 30.2138 26.6187 30.5128 26.7913Z" fill="#6059F7"/>
<path d="M9.48719 13.2088L7.86336 12.2713C7.56446 12.0986 7.18219 12.2011 7.00961 12.5C6.83704 12.7989 6.93946 13.1812 7.23836 13.3538L8.86219 14.2913C8.96063 14.3481 9.06805 14.3751 9.17414 14.3751C9.39016 14.3751 9.60024 14.263 9.71602 14.0625C9.88852 13.7636 9.7861 13.3813 9.48719 13.2088Z" fill="#6059F7"/>
<path d="M24.3509 28.1602C24.457 28.1602 24.5645 28.1332 24.6629 28.0764C24.9618 27.9038 25.0642 27.5216 24.8916 27.2227L21.4245 21.2173C21.705 20.8894 21.875 20.4643 21.875 20C21.875 19.1852 21.3524 18.4905 20.625 18.2325V10C20.625 9.65484 20.3452 9.375 20 9.375C19.6548 9.375 19.375 9.65484 19.375 10V18.2325C18.6476 18.4905 18.125 19.1852 18.125 20C18.125 21.0339 18.9661 21.875 20 21.875C20.117 21.875 20.2313 21.8637 20.3424 21.8431L23.8091 27.8477C23.9249 28.0481 24.135 28.1602 24.3509 28.1602ZM19.375 20C19.375 19.6554 19.6554 19.375 20 19.375C20.3446 19.375 20.625 19.6554 20.625 20C20.625 20.3446 20.3446 20.625 20 20.625C19.6554 20.625 19.375 20.3446 19.375 20Z" fill="#6059F7"/>
</svg>
