<svg width="120" height="44" viewBox="0 0 120 44" fill="none" xmlns="http://www.w3.org/2000/svg">
<path d="M111.21 42.9825H99.2256C99.0494 42.9825 98.9319 42.8649 98.9319 42.6885C98.9319 42.5121 99.0494 42.3945 99.2256 42.3945H111.21C115.44 42.3945 118.906 38.9253 118.906 34.6918C118.906 30.4582 115.44 26.989 111.21 26.989C109.154 26.989 107.157 27.8122 105.747 29.2822C105.688 29.341 105.57 29.3998 105.453 29.341C105.335 29.2822 105.277 29.2234 105.277 29.1058C104.63 22.873 99.4606 18.1691 93.2333 18.1691C90.5309 18.1691 87.8285 19.1099 85.6548 20.8739C85.596 20.9327 85.5373 20.9327 85.4198 20.9327C85.3611 20.9327 85.2435 20.8739 85.2435 20.8151C82.6586 17.4047 78.7225 15.4643 74.5514 15.4643H74.1402C73.9639 15.4643 73.8464 15.3467 73.8464 15.1703C73.7289 10.9367 70.3802 7.64395 66.1504 7.64395C63.9767 7.64395 61.9793 8.52594 60.5106 10.1135C60.4518 10.1723 60.3343 10.2311 60.2756 10.2311C60.1581 10.2311 60.0993 10.1723 60.0406 10.1135C55.8107 4.11597 48.8197 0.529196 41.4762 0.529196C30.3728 0.529196 20.9143 8.46714 19.0344 19.4627C19.0344 19.5803 18.9757 19.6391 18.8582 19.6979C18.7994 19.7567 18.6819 19.7567 18.5644 19.6979C16.8607 18.6983 14.8045 18.2279 12.6896 18.2279C5.99231 18.2279 0.587481 23.6374 0.587481 30.3406C0.587481 37.0437 5.99231 42.4533 12.6896 42.4533H63.9767C64.153 42.4533 64.2705 42.5709 64.2705 42.7473C64.2705 42.9237 64.153 43.0413 63.9767 43.0413H12.6896C5.69857 43.0413 0 37.3377 0 30.3406C0 23.3434 5.69857 17.6399 12.6896 17.6399C14.7458 17.6399 16.7432 18.1103 18.4469 18.9923C20.5618 7.93795 30.1378 0 41.4174 0C48.8784 0 55.8695 3.58677 60.2756 9.52553C61.8618 7.93794 63.918 7.11475 66.0917 7.11475C70.4978 7.11475 74.0814 10.5251 74.3751 14.9351H74.4926C78.7812 14.9351 82.7761 16.8755 85.4785 20.2859C87.711 18.5807 90.4134 17.6399 93.1745 17.6399C99.5193 17.6399 104.807 22.285 105.747 28.5178C107.274 27.2242 109.213 26.4598 111.21 26.4598C115.793 26.4598 119.494 30.1642 119.494 34.7506C119.494 39.3369 115.793 42.9825 111.21 42.9825Z" fill="#3D3D3D"/>
</svg>
