<svg width="25" height="25" viewBox="0 0 25 25" fill="none" xmlns="http://www.w3.org/2000/svg">
<g clip-path="url(#clip0)">
<path d="M12.5 25C5.60736 25 0 19.3926 0 12.5C0 5.60736 5.60736 0 12.5 0C14.8349 0 17.1124 0.648004 19.0866 1.87425C19.4317 2.08835 19.5374 2.54175 19.3233 2.88683C19.1088 3.23186 18.6554 3.33836 18.3107 3.12349C16.5697 2.04197 14.5604 1.47063 12.5 1.47063C6.41832 1.47063 1.47057 6.41855 1.47057 12.5001C1.47057 18.5816 6.41832 23.5294 12.5 23.5294C18.5815 23.5294 23.5294 18.5815 23.5294 12.5C23.5294 11.2776 23.331 10.0774 22.9397 8.93269C22.8083 8.54857 23.0136 8.13038 23.3977 7.99902C23.7826 7.86842 24.2 8.07294 24.3314 8.45707C24.7749 9.75532 25 11.1156 25 12.5001C25 19.3926 19.3926 25 12.5 25Z" fill="#3D3D3D"/>
<path d="M12.5 16.741C12.3135 16.741 12.1331 16.6702 11.9966 16.5415L6.11423 11.0157C5.81821 10.7377 5.80364 10.2724 6.0817 9.97633C6.35976 9.6807 6.82504 9.66536 7.12106 9.94419L12.4376 14.9384L22.0982 3.47012C22.3594 3.15953 22.8236 3.11972 23.1342 3.38163C23.4447 3.64321 23.4845 4.10695 23.2226 4.41754L13.0622 16.4795C12.9323 16.6338 12.7443 16.728 12.5428 16.7399C12.5287 16.7406 12.5142 16.741 12.5 16.741Z" fill="#F7B517"/>
</g>
<defs>
<clipPath id="clip0">
<rect width="25" height="25" fill="white"/>
</clipPath>
</defs>
</svg>
