<svg width="8" height="8" viewBox="0 0 8 8" fill="none" xmlns="http://www.w3.org/2000/svg">
<path d="M7.59375 0.09375H0.40625C0.233398 0.09375 0.09375 0.233398 0.09375 0.40625V7.59375C0.09375 7.7666 0.233398 7.90625 0.40625 7.90625H7.59375C7.7666 7.90625 7.90625 7.7666 7.90625 7.59375V0.40625C7.90625 0.233398 7.7666 0.09375 7.59375 0.09375ZM6.69141 2.37402H6.06738C5.57812 2.37402 5.4834 2.60645 5.4834 2.94824V3.70117H6.65137L6.49902 4.87988H5.4834V7.90625H4.26562V4.88086H3.24707V3.70117H4.26562V2.83203C4.26562 1.82324 4.88184 1.27344 5.78223 1.27344C6.21387 1.27344 6.58398 1.30566 6.69238 1.32031V2.37402H6.69141Z" fill="#6059F7"/>
</svg>
