<svg width="350" height="331" viewBox="0 0 350 331" fill="none" xmlns="http://www.w3.org/2000/svg">
<g clip-path="url(#clip0)">
<path d="M152.336 69.3348C149.221 65.9183 147.01 61.5974 145.905 57.0756C144.598 51.4484 146.005 47.3285 147.914 41.9023C148.819 39.3902 149.924 36.9785 151.632 34.9688C154.747 31.1504 159.37 28.8392 164.193 28.0353C169.016 27.2315 172.935 26.8295 177.658 28.1358C181.878 29.2412 185.998 29.9446 189.415 32.6577C197.252 38.8877 200.367 50.1421 197.453 59.6882C196.047 64.3105 193.334 68.4304 189.817 71.7464C189.817 71.7464 184.089 65.9183 171.026 64.9134C157.963 63.9086 152.336 69.3348 152.336 69.3348Z" fill="#F7B517"/>
<path d="M192.831 79.1823C197.755 84.3071 200.166 93.6522 201.171 100.787C201.272 101.591 201.372 102.495 200.87 103.098C200.367 103.801 199.463 104.002 198.659 104.103C189.214 105.509 179.567 105.911 170.121 105.108C170.021 101.088 168.715 97.1692 166.403 93.9537C166.002 97.4706 165.6 100.988 164.896 104.505C156.154 105.811 150.125 106.213 141.684 103.801C142.086 95.8629 142.689 86.5177 146.909 79.7852C151.833 72.0479 156.757 70.1387 165.6 69.1338C182.682 67.3251 187.907 74.0576 192.831 79.1823Z" fill="#F7B517"/>
<path d="M218.153 163.69C217.952 163.69 217.751 163.59 217.751 163.389C216.948 161.781 216.144 160.575 215.34 159.671C212.225 156.355 207.401 155.652 203.884 155.551C199.765 155.451 195.946 155.35 191.625 155.149C188.611 154.948 184.491 154.245 182.481 152.537C180.17 150.627 180.069 148.618 179.969 145.804V145.603C179.969 145.302 180.17 145.101 180.471 145.101C180.773 145.101 180.974 145.302 180.974 145.603V145.804C181.074 148.417 181.175 150.225 183.185 151.833C185.094 153.441 189.515 154.044 191.726 154.245C196.047 154.446 199.865 154.546 203.985 154.647C207.703 154.747 212.828 155.551 216.144 159.068C217.048 160.073 217.952 161.379 218.756 162.987C218.857 163.188 218.756 163.489 218.555 163.69C218.354 163.69 218.254 163.69 218.153 163.69Z" fill="#3D3D3D"/>
<path d="M142.187 153.642C141.885 153.642 141.684 153.441 141.684 153.139C141.684 152.838 141.885 152.637 142.187 152.637C144.096 152.436 145.904 152.436 147.613 152.537C149.321 152.537 151.13 152.537 152.938 152.436C154.044 152.336 156.355 152.135 157.36 151.532C159.369 150.326 159.269 146.407 159.168 145.302C159.168 145 159.369 144.799 159.671 144.799C159.972 144.799 160.173 145 160.173 145.302C160.274 147.01 160.274 151.029 157.862 152.436C156.656 153.139 154.245 153.441 153.039 153.541C151.13 153.742 149.321 153.742 147.613 153.642C145.904 153.441 144.196 153.441 142.187 153.642C142.287 153.642 142.287 153.642 142.187 153.642Z" fill="#3D3D3D"/>
<path d="M115.156 171.83C115.056 171.83 114.955 171.83 114.855 171.729C114.654 171.528 114.553 171.227 114.754 171.026C120.783 162.183 129.726 151.833 138.368 152.938C138.67 152.938 138.871 153.24 138.77 153.541C138.77 153.843 138.469 154.044 138.167 153.943C130.028 152.838 121.386 162.886 115.558 171.528C115.457 171.729 115.357 171.83 115.156 171.83Z" fill="#3D3D3D"/>
<path d="M95.9634 219.259C95.6619 219.259 95.4609 219.058 95.4609 218.756C95.6619 213.431 97.1692 208.105 98.4755 203.985C99.3799 201.272 100.485 198.358 101.792 195.142C101.892 194.841 102.193 194.74 102.495 194.841C102.796 194.941 102.897 195.243 102.796 195.544C101.49 198.659 100.385 201.674 99.4803 204.286C98.174 208.306 96.6668 213.632 96.4658 218.756C96.4658 219.058 96.2648 219.259 95.9634 219.259Z" fill="#3D3D3D"/>
<path d="M248.5 231.92C248.399 231.92 248.198 231.819 248.098 231.719C247.897 231.518 247.897 231.216 248.198 231.015C249.706 229.709 250.811 228.403 251.514 226.896C253.122 223.379 252.318 219.259 251.414 215.742C249.103 207.2 245.385 199.061 240.361 191.625C240.16 191.424 240.26 191.123 240.461 190.922C240.662 190.721 240.963 190.821 241.164 191.022C246.289 198.559 250.007 206.799 252.318 215.44C253.323 219.158 254.127 223.58 252.419 227.297C251.715 228.905 250.51 230.312 248.902 231.719C248.701 231.92 248.6 231.92 248.5 231.92Z" fill="#3D3D3D"/>
<path d="M225.489 174.744C225.388 174.744 225.187 174.643 225.087 174.543C223.178 172.634 220.866 169.92 219.158 166.705C211.019 169.318 201.372 170.121 189.716 168.916C176.151 167.609 162.686 164.394 149.723 161.279C144.699 160.073 139.373 158.264 137.765 153.642C137.665 153.34 137.765 153.139 138.067 153.039C138.368 152.938 138.569 153.039 138.67 153.34C140.177 157.46 145 159.169 149.924 160.374C162.887 163.489 176.251 166.705 189.817 168.011C201.573 169.117 211.22 168.413 219.259 165.7C219.46 165.6 219.761 165.7 219.862 166.002C221.469 169.318 223.881 172.031 225.79 173.94C225.991 174.141 225.991 174.442 225.79 174.643C225.79 174.643 225.589 174.744 225.489 174.744Z" fill="#3D3D3D"/>
<path d="M186.501 135.555C186.4 135.555 186.199 135.555 186.099 135.454C185.898 135.253 185.898 134.952 186.099 134.751C190.319 130.53 193.032 126.209 194.339 121.487C195.544 117.166 195.544 112.644 195.544 108.223C195.544 107.921 195.745 107.72 196.047 107.72C196.348 107.72 196.549 107.921 196.549 108.223C196.549 112.744 196.549 117.367 195.243 121.788C193.937 126.611 191.123 131.133 186.702 135.454C186.802 135.454 186.702 135.555 186.501 135.555Z" fill="#3D3D3D"/>
<path d="M169.92 145.402C166.906 145.402 163.791 144.498 160.776 142.689C156.656 140.277 153.24 136.66 149.622 132.64C148.718 131.636 147.713 130.53 146.909 129.324C144.096 125.506 142.187 120.482 141.383 114.352C141.081 111.84 140.88 109.127 140.78 105.911C140.78 105.61 140.981 105.409 141.282 105.409C141.584 105.409 141.785 105.61 141.785 105.911C141.785 109.127 141.986 111.74 142.388 114.151C143.191 120.08 145 125.004 147.713 128.621C148.618 129.827 149.522 130.832 150.426 131.837C154.044 135.856 157.36 139.373 161.379 141.684C166.002 144.397 170.825 145 174.744 143.292C176.352 142.589 177.859 141.584 179.165 140.579C179.366 140.378 179.668 140.478 179.869 140.679C180.069 140.88 179.969 141.182 179.768 141.383C178.462 142.388 176.854 143.493 175.146 144.196C173.337 145 171.629 145.402 169.92 145.402Z" fill="#3D3D3D"/>
<path d="M140.78 118.372C140.679 118.372 140.679 118.372 140.78 118.372C139.976 118.271 139.172 117.97 138.469 117.668C136.861 116.864 135.354 115.558 134.148 113.85C132.842 112.041 132.239 110.333 132.339 108.625C132.44 106.514 133.645 104.605 135.454 104.002C137.062 103.5 138.971 103.902 140.277 105.208C140.478 105.409 140.478 105.71 140.277 105.911C140.077 106.112 139.775 106.112 139.574 105.911C138.469 104.907 136.961 104.505 135.756 104.907C134.349 105.409 133.344 106.916 133.344 108.625C133.344 110.031 133.846 111.639 134.952 113.247C136.057 114.855 137.464 116.06 138.871 116.764C139.474 117.065 140.177 117.266 140.88 117.367C141.182 117.367 141.383 117.668 141.282 117.97C141.182 118.171 140.981 118.372 140.78 118.372Z" fill="#3D3D3D"/>
<path d="M139.674 116.362C139.574 116.362 139.473 116.362 139.473 116.261C138.469 115.658 137.464 114.754 136.76 113.548C135.956 112.342 135.655 111.137 135.755 110.031C135.856 108.625 136.861 107.318 138.067 107.017C138.368 106.916 138.569 107.117 138.67 107.419C138.77 107.72 138.569 107.921 138.268 108.022C137.363 108.323 136.76 109.328 136.66 110.132C136.559 111.036 136.861 112.041 137.464 113.046C138.067 114.051 138.871 114.955 139.775 115.357C139.976 115.457 140.076 115.759 139.976 116.06C139.976 116.261 139.875 116.362 139.674 116.362Z" fill="#3D3D3D"/>
<path d="M199.162 118.472C198.961 118.472 198.86 118.372 198.76 118.171C198.659 117.97 198.76 117.668 198.961 117.467C200.368 116.663 201.674 115.457 202.679 113.749C203.684 112.041 204.186 110.534 204.085 109.026C203.985 107.318 202.88 105.911 201.473 105.509C200.267 105.208 198.76 105.71 197.654 106.715C197.453 106.916 197.152 106.916 196.951 106.715C196.75 106.514 196.75 106.213 196.951 106.012C198.257 104.605 200.066 104.002 201.674 104.505C203.483 105.007 204.889 106.816 204.99 108.926C205.09 110.634 204.588 112.342 203.483 114.252C202.377 116.06 200.97 117.467 199.363 118.271C199.363 118.472 199.262 118.472 199.162 118.472Z" fill="#3D3D3D"/>
<path d="M198.056 117.266C197.855 117.266 197.755 117.166 197.654 117.065C197.554 116.864 197.554 116.563 197.855 116.362C198.76 115.859 199.463 114.955 200.066 113.85C200.669 112.744 200.87 111.74 200.769 110.835C200.669 109.931 199.966 109.026 199.061 108.825C198.76 108.725 198.659 108.524 198.659 108.223C198.76 107.921 198.961 107.821 199.262 107.821C200.468 108.122 201.573 109.227 201.774 110.735C201.975 111.84 201.674 113.046 200.97 114.352C200.267 115.558 199.463 116.563 198.458 117.266C198.257 117.166 198.157 117.266 198.056 117.266Z" fill="#3D3D3D"/>
<path d="M173.036 125.807C172.935 125.807 172.835 125.807 172.835 125.807L168.011 125.004C167.71 125.004 167.509 124.702 167.609 124.401C167.609 124.099 167.911 123.898 168.212 123.999L172.835 124.803C171.93 120.482 171.026 116.462 169.418 112.142C169.318 111.84 169.418 111.639 169.72 111.539C170.021 111.438 170.222 111.539 170.322 111.84C171.93 116.261 172.835 120.381 173.739 124.803C173.94 125.607 173.438 125.807 173.337 125.908C173.237 125.807 173.136 125.807 173.036 125.807Z" fill="#3D3D3D"/>
<path d="M189.917 72.1484C189.817 72.1484 189.616 72.0479 189.515 71.9474C189.314 71.7464 189.314 71.445 189.515 71.244C193.032 67.928 195.645 63.8081 197.052 59.3867C199.966 49.7402 196.75 38.8878 189.113 32.8587C186.099 30.447 182.28 28.7388 177.557 27.4325C172.332 26.0257 167.509 25.6237 163.289 26.4276C158.164 27.2315 153.843 29.6431 151.029 33.1601C149.522 34.9688 148.417 37.1795 147.412 39.9931C145.503 45.5198 145.201 51.5489 146.508 56.9751C147.613 61.4969 149.723 65.6168 152.838 69.0333C153.039 69.2343 153.039 69.5358 152.838 69.7367C152.637 69.9377 152.336 69.9377 152.135 69.7367C149.02 66.2197 146.708 61.8989 145.603 57.2766C144.297 51.6494 144.598 45.4193 146.608 39.7921C147.613 36.8781 148.819 34.5669 150.426 32.6577C153.441 28.9397 157.963 26.4276 163.289 25.6237C167.71 24.9203 172.634 25.2218 178.06 26.7291C182.984 28.0354 186.903 29.8441 190.018 32.3562C197.956 38.5863 201.272 49.9411 198.257 59.9897C196.851 64.5115 194.138 68.8324 190.52 72.2489C190.118 72.1484 190.018 72.1484 189.917 72.1484Z" fill="#3D3D3D"/>
<path d="M179.868 106.112C176.552 106.112 173.337 106.012 170.021 105.71C169.719 105.71 169.519 105.509 169.519 105.208C169.418 101.792 168.413 98.4755 166.705 95.5614C166.403 98.6765 165.901 101.691 165.399 104.806C165.399 105.007 165.198 105.208 164.997 105.208C156.254 106.514 147.01 105.911 138.469 103.5C138.268 103.399 138.067 103.198 138.067 102.997C138.469 95.7624 138.971 86.7187 143.392 79.7852C148.316 72.0479 154.245 69.9377 163.489 68.9328C180.27 66.9231 187.606 73.0527 193.233 78.9814C199.061 85.111 201.071 96.3653 201.674 100.887C201.774 101.792 201.875 102.796 201.272 103.6C200.669 104.404 199.664 104.706 198.76 104.806C192.429 105.61 186.199 106.112 179.868 106.112ZM170.523 104.806C179.868 105.509 189.314 105.108 198.559 103.701C199.262 103.6 200.066 103.399 200.468 102.897C200.87 102.394 200.769 101.691 200.669 100.887C200.066 96.4658 198.157 85.4124 192.53 79.4838C187.103 73.7561 179.969 67.8275 163.69 69.7367C154.546 70.8421 149.02 72.7513 144.297 80.1872C140.076 86.8192 139.574 95.4609 139.172 102.495C147.311 104.806 156.054 105.409 164.494 104.203C165.097 100.787 165.6 97.3702 165.901 94.0541C165.901 93.8532 166.102 93.6522 166.303 93.6522C166.504 93.5517 166.705 93.6522 166.805 93.8532C169.016 96.9682 170.322 100.887 170.523 104.806Z" fill="#3D3D3D"/>
<path d="M65.8179 326.476C61.9995 325.371 58.583 323.261 55.8699 320.347C54.5636 318.94 53.4583 317.232 52.8553 315.423C52.3529 313.514 52.4534 311.404 53.4583 309.796C54.6641 307.987 56.7743 306.982 58.784 306.279C60.1908 305.776 61.698 305.375 63.2053 305.073C63.2053 305.073 76.4694 302.661 91.3412 303.968C91.3412 303.968 79.8859 315.122 93.2504 323.462L70.1388 327.381L65.8179 326.476Z" fill="#36C3FE"/>
<path d="M69.6362 327.883C69.4352 327.883 69.2342 327.883 69.0332 327.883C67.2245 327.783 65.2148 327.481 63.3056 326.979C59.3867 325.773 55.8697 323.663 53.1566 320.648C51.5488 318.94 50.544 317.232 50.0415 315.524C49.4386 313.413 49.6396 311.102 50.7449 309.494C52.0512 307.485 54.4629 306.48 56.3721 305.776C57.6784 305.374 59.0852 304.973 60.8939 304.571C63.808 303.867 66.923 303.465 70.3395 303.264C72.4497 303.164 74.5599 303.063 76.8711 303.063C80.0866 303.063 83.2016 303.164 85.6133 303.264L99.2793 303.867C99.5807 303.867 99.7817 304.068 99.7817 304.37C99.7817 304.671 99.5807 304.872 99.2793 304.872L85.6133 304.269C83.2016 304.169 80.0866 304.068 76.8711 304.068C74.6604 304.068 72.5502 304.169 70.5405 304.269C67.124 304.47 64.1095 304.973 61.1954 305.575C59.4871 305.977 58.0804 306.379 56.774 306.781C54.8648 307.384 52.7546 308.289 51.6493 310.097C50.7449 311.504 50.544 313.413 51.0464 315.323C51.5488 316.93 52.4532 318.438 53.9605 320.045C56.5731 322.859 59.8891 324.869 63.7075 326.074C65.5163 326.677 67.4255 326.979 69.1337 326.979C70.842 326.979 72.5502 326.878 73.957 326.677C75.0623 326.577 76.1677 326.376 77.1725 326.175C78.4788 325.974 79.6847 325.773 80.991 325.572C84.106 325.07 86.7186 324.567 89.1303 324.065C92.1448 323.462 94.7575 322.758 97.3701 321.955C99.4803 321.352 101.49 320.648 103.6 319.844C103.902 319.744 104.103 319.844 104.203 320.146C104.304 320.447 104.203 320.648 103.902 320.749C101.892 321.553 99.7817 322.256 97.6715 322.959C95.1594 323.763 92.4463 324.467 89.4317 325.07C87.0201 325.572 84.4075 326.074 81.2924 326.577C79.9861 326.778 78.7803 326.979 77.474 327.18C76.3687 327.381 75.2633 327.481 74.158 327.682C72.7512 327.783 71.2439 327.883 69.6362 327.883Z" fill="#3D3D3D"/>
<path d="M282.162 328.687C285.981 327.582 289.397 325.472 292.11 322.558C293.417 321.151 294.522 319.442 295.125 317.634C295.627 315.725 295.527 313.614 294.522 312.007C293.316 310.198 291.206 309.193 289.196 308.49C287.79 307.987 286.282 307.585 284.775 307.284C284.775 307.284 271.511 304.872 256.639 306.178C256.639 306.178 268.095 317.332 254.73 325.673L277.842 329.591L282.162 328.687Z" fill="#36C3FE"/>
<path d="M278.344 330.194C276.736 330.194 275.229 329.993 273.923 329.893C272.817 329.792 271.712 329.591 270.607 329.39C269.3 329.19 268.094 328.989 266.788 328.788C263.673 328.285 261.06 327.783 258.649 327.28C255.634 326.677 252.921 325.974 250.409 325.17C248.299 324.567 246.189 323.763 244.179 322.959C243.878 322.859 243.777 322.558 243.878 322.357C243.978 322.055 244.279 321.955 244.48 322.055C246.49 322.859 248.6 323.562 250.711 324.165C253.223 324.969 255.936 325.572 258.95 326.275C261.362 326.778 263.975 327.28 267.09 327.783C268.396 327.984 269.602 328.185 270.908 328.386C272.013 328.587 273.018 328.687 274.124 328.888C275.53 329.089 277.239 329.29 278.947 329.19C280.756 329.19 282.564 328.788 284.373 328.285C288.191 327.18 291.507 325.07 294.12 322.256C295.627 320.648 296.532 319.141 297.034 317.533C297.537 315.624 297.336 313.715 296.431 312.308C295.326 310.6 293.216 309.695 291.307 308.992C290 308.59 288.593 308.188 286.885 307.786C284.072 307.083 280.957 306.681 277.54 306.48C275.53 306.379 273.32 306.279 271.109 306.279C267.893 306.279 264.778 306.379 262.467 306.48L248.801 307.083C248.5 307.083 248.299 306.882 248.299 306.58C248.299 306.279 248.5 306.078 248.801 306.078L262.467 305.475C264.879 305.375 267.994 305.274 271.209 305.274C273.42 305.274 275.631 305.375 277.741 305.475C281.158 305.676 284.273 306.178 287.187 306.781C288.895 307.183 290.302 307.585 291.708 307.987C293.618 308.691 296.029 309.695 297.336 311.705C298.34 313.313 298.642 315.624 298.039 317.734C297.537 319.442 296.532 321.151 294.924 322.859C292.211 325.773 288.694 327.984 284.775 329.19C282.866 329.792 280.957 330.094 279.047 330.094C278.746 330.194 278.545 330.194 278.344 330.194Z" fill="#3D3D3D"/>
<path d="M271.41 286.986C271.209 286.986 271.009 286.885 270.908 286.684C270.808 286.383 270.908 286.182 271.209 286.081C278.645 283.469 285.78 280.655 291.307 275.832C297.537 270.305 300.451 262.568 298.843 255.936C297.537 250.51 293.115 245.686 287.086 243.174C284.474 242.069 281.459 241.365 278.243 241.064C275.43 240.762 272.516 240.762 269.2 241.064C262.97 241.566 256.338 242.973 248.801 245.284C248.5 245.385 248.299 245.184 248.198 244.983C248.098 244.681 248.299 244.48 248.5 244.38C256.137 242.069 262.869 240.662 269.2 240.059C272.616 239.758 275.631 239.758 278.444 240.059C281.76 240.361 284.875 241.164 287.589 242.27C293.919 244.983 298.541 250.007 299.948 255.735C301.657 262.668 298.541 270.808 292.01 276.636C286.383 281.66 279.148 284.474 271.611 287.086C271.511 286.885 271.41 286.986 271.41 286.986Z" fill="#3D3D3D"/>
<path d="M108.122 322.256C107.72 322.256 107.318 322.156 106.916 321.955C106.112 321.553 105.811 320.749 105.61 319.945C104.706 316.93 103.902 313.815 103.098 310.801C102.294 307.786 101.49 304.671 100.586 301.657C100.385 301.255 100.385 300.652 100.586 300.25C101.49 298.542 105.309 297.838 110.333 297.135C111.74 296.934 112.945 296.733 113.85 296.532C122.291 294.522 129.827 292.412 136.76 290.101C144.297 287.689 152.235 284.574 161.279 280.856C161.58 280.756 161.781 280.856 161.982 281.158C162.083 281.459 161.982 281.66 161.681 281.861C152.637 285.679 144.598 288.694 137.162 291.206C130.128 293.517 122.592 295.627 114.151 297.637C113.247 297.838 112.041 298.039 110.534 298.24C107.218 298.743 102.294 299.546 101.49 300.853C101.39 300.953 101.39 301.154 101.49 301.456C102.495 304.47 103.299 307.686 104.002 310.7C104.806 313.715 105.61 316.83 106.514 319.844C106.715 320.447 106.916 321.05 107.318 321.251C107.62 321.452 108.122 321.452 108.625 321.352C157.46 317.131 205.995 307.384 252.72 292.311C253.022 292.211 253.223 292.412 253.323 292.613C253.424 292.914 253.223 293.115 253.022 293.216C206.196 308.188 157.661 318.036 108.725 322.256C108.524 322.256 108.323 322.256 108.122 322.256Z" fill="#3D3D3D"/>
<path d="M239.255 325.773C239.054 325.773 238.753 325.773 238.652 325.773C216.646 323.864 194.439 320.749 172.734 316.629C172.433 316.528 172.332 316.327 172.332 316.026C172.433 315.725 172.633 315.624 172.935 315.624C194.64 319.744 216.847 322.859 238.753 324.768C239.255 324.768 239.758 324.869 240.059 324.668C240.461 324.467 240.662 323.864 240.863 323.261C241.767 320.347 242.571 317.131 243.375 314.117C244.179 311.102 244.983 307.887 245.887 304.973C246.088 304.571 245.988 304.47 245.887 304.269C245.184 302.963 240.16 302.159 236.944 301.657L236.442 301.556C236.14 301.556 235.939 301.255 236.04 300.953C236.14 300.652 236.341 300.451 236.643 300.551L237.145 300.652C242.069 301.456 245.988 302.159 246.892 303.767C247.093 304.269 247.093 304.772 246.892 305.274C245.988 308.188 245.184 311.303 244.38 314.318C243.576 317.332 242.772 320.548 241.868 323.462C241.667 324.266 241.365 325.07 240.561 325.472C240.059 325.773 239.657 325.773 239.255 325.773Z" fill="#3D3D3D"/>
<path d="M99.0783 298.24H98.9779C91.2405 295.828 83.4027 293.216 75.7658 290.503C68.2294 287.89 60.9945 285.077 55.3673 280.052C55.1663 279.851 55.1663 279.55 55.3673 279.349C55.5683 279.148 55.8697 279.148 56.0707 279.349C61.5974 284.273 68.7318 286.986 76.1677 289.598C83.8046 292.311 91.542 294.924 99.2793 297.336C99.5808 297.436 99.6813 297.738 99.5808 297.939C99.5808 298.14 99.3798 298.24 99.0783 298.24Z" fill="#3D3D3D"/>
<path d="M48.1324 268.195C47.9315 268.195 47.7305 268.094 47.63 267.793C46.8261 264.778 46.8261 261.965 47.5295 259.151C48.9363 253.424 53.5586 248.399 59.8892 245.686C62.6023 244.581 65.7174 243.777 69.0334 243.476C71.8469 243.174 74.8615 243.174 78.278 243.476C83.5032 243.878 89.0299 244.983 95.1595 246.691C95.461 246.792 95.5615 246.993 95.461 247.294C95.3605 247.595 95.1595 247.696 94.8581 247.595C88.8289 245.887 83.4028 244.882 78.1775 244.48C74.8615 244.179 71.847 244.179 69.1339 244.48C65.9183 244.782 62.9038 245.485 60.2912 246.591C54.262 249.103 49.8407 253.926 48.5344 259.352C47.9315 261.965 47.9315 264.678 48.6349 267.492C48.7354 267.793 48.5344 267.994 48.2329 268.094L48.1324 268.195Z" fill="#3D3D3D"/>
<path d="M230.915 175.246L187.505 201.774L189.515 275.731L235.738 254.027L236.14 178.864C236.241 175.849 233.327 173.739 230.915 175.246Z" fill="#6591FE"/>
<path d="M165.298 205.894C165.298 205.894 174.442 209.512 182.983 204.688L183.687 279.047C183.687 279.047 171.528 282.866 166.102 280.454L165.298 205.894Z" fill="#6059F7"/>
<path d="M112.443 173.437L157.963 201.875L157.259 275.731L107.519 252.419V246.088L108.223 244.38L107.117 242.169L108.926 241.164L109.026 239.657L107.72 237.547L109.73 235.537L106.715 231.518C107.72 231.518 111.036 231.417 110.735 230.513C109.73 227.498 107.318 225.288 107.318 225.288V176.854C107.419 173.94 110.232 172.031 112.443 173.437Z" fill="#6591FE"/>
<path d="M187.506 202.277C187.305 202.277 187.204 202.176 187.104 202.076C187.003 201.875 187.003 201.573 187.305 201.372L201.473 192.63C201.674 192.53 201.975 192.53 202.176 192.831C202.277 193.032 202.277 193.334 201.975 193.534L187.807 202.277C187.706 202.277 187.606 202.277 187.506 202.277Z" fill="#3D3D3D"/>
<path d="M189.515 276.334C189.314 276.334 189.113 276.234 189.013 276.033C188.912 275.832 189.013 275.53 189.214 275.329L238.251 251.816L238.652 176.954C238.652 175.548 237.949 174.241 236.844 173.638C235.939 173.136 234.935 173.136 234.03 173.739L217.953 183.687C217.752 183.787 217.45 183.787 217.249 183.486C217.149 183.285 217.149 182.984 217.45 182.783L233.528 172.835C234.734 172.131 236.14 172.031 237.346 172.734C238.753 173.538 239.657 175.146 239.657 176.954L239.255 252.117C239.255 252.318 239.155 252.519 238.954 252.519L189.716 276.234C189.716 276.234 189.616 276.334 189.515 276.334Z" fill="#3D3D3D"/>
<path d="M172.131 281.861C168.715 281.861 165.198 281.158 162.485 278.746C162.384 278.645 162.284 278.545 162.284 278.344L161.781 237.246C161.781 236.944 161.982 236.743 162.284 236.743C162.585 236.743 162.786 236.944 162.786 237.246L163.289 278.143C169.619 283.368 181.074 279.449 183.084 278.645L182.28 205.492C173.538 210.115 164.896 206.497 162.384 205.191L162.585 224.383C162.585 224.685 162.384 224.886 162.083 224.886C161.781 224.886 161.58 224.685 161.58 224.383L161.379 204.387C161.379 204.186 161.48 203.985 161.681 203.985C161.882 203.884 162.083 203.884 162.183 203.985C162.284 204.085 172.433 210.315 182.582 204.286C182.783 204.186 182.883 204.186 183.084 204.286C183.285 204.387 183.386 204.588 183.386 204.688L184.19 279.047C184.19 279.248 184.089 279.449 183.888 279.55C183.486 279.65 177.959 281.861 172.131 281.861Z" fill="#3D3D3D"/>
<path d="M123.295 260.056C123.195 260.056 123.195 260.056 123.094 260.056L104.203 251.012C104.002 250.912 103.902 250.711 103.902 250.51V247.495C103.902 247.194 104.103 246.993 104.404 246.993C104.705 246.993 104.906 247.194 104.906 247.495V250.208L123.496 259.151C123.697 259.252 123.898 259.553 123.697 259.855C123.697 259.955 123.496 260.056 123.295 260.056Z" fill="#3D3D3D"/>
<path d="M157.36 276.334C157.259 276.334 157.259 276.334 157.159 276.334L134.751 265.582C134.55 265.482 134.349 265.18 134.55 264.879C134.751 264.578 134.952 264.477 135.253 264.678L157.661 275.43C157.862 275.53 158.063 275.832 157.862 276.133C157.661 276.234 157.46 276.334 157.36 276.334Z" fill="#3D3D3D"/>
<path d="M104.404 219.661C104.103 219.661 103.902 219.46 103.902 219.158V174.844C103.902 173.136 104.705 171.629 106.112 170.825C107.318 170.222 108.624 170.222 109.73 170.925L158.264 201.372C158.465 201.473 158.566 201.875 158.465 202.076C158.365 202.277 157.963 202.377 157.762 202.277L109.227 171.83C108.423 171.327 107.519 171.327 106.615 171.729C105.61 172.332 104.906 173.538 104.906 174.844V219.158C104.906 219.46 104.705 219.661 104.404 219.661Z" fill="#3D3D3D"/>
<path d="M106.313 246.691C106.213 246.691 106.012 246.691 105.811 246.691C103.299 246.49 100.887 245.284 98.7771 244.28C98.0737 243.978 97.2698 243.576 96.5664 242.873C95.863 242.069 95.5615 241.064 95.863 240.16C95.9635 239.758 96.3654 239.356 96.7673 239.054C96.064 238.552 95.3606 237.949 94.9586 237.145C94.2552 235.839 94.2552 233.829 95.662 232.925C96.0639 232.623 96.5664 232.523 97.0688 232.422C96.3654 231.819 95.7625 231.015 95.461 230.111C95.1596 229.207 95.2601 228.202 95.7625 227.498C96.1644 226.896 96.6669 226.494 97.3703 226.393C97.4707 226.393 97.5712 226.393 97.6717 226.393C97.7722 226.393 97.7722 226.393 97.8727 226.393C96.7673 225.288 95.7625 223.781 95.863 222.374C95.9635 221.771 96.2649 220.967 97.3703 220.465C98.4756 220.163 100.385 220.665 100.787 221.067C100.988 221.268 100.988 221.57 100.787 221.771C100.586 221.972 100.284 221.972 100.083 221.771C99.8824 221.57 98.2746 221.168 97.6717 221.369C97.1693 221.67 96.8678 221.972 96.7673 222.474C96.6669 223.58 97.7722 225.087 98.8775 226.092C98.978 226.192 99.0785 226.393 99.0785 226.594C98.8775 227.298 98.1741 227.398 97.7722 227.498H97.5712C97.1693 227.599 96.8678 227.9 96.6669 228.202C96.3654 228.704 96.2649 229.408 96.4659 230.011C96.8678 231.116 97.8727 232.02 98.7771 232.824C98.978 232.925 98.978 233.226 98.8775 233.427C98.7771 233.628 98.5761 233.729 98.3751 233.729C97.4707 233.729 96.7673 233.628 96.1644 234.03C95.2601 234.633 95.2601 235.939 95.7625 236.944C96.3654 238.049 97.4707 238.753 98.4756 239.356C98.6766 239.456 98.777 239.858 98.6766 240.059C98.5761 240.26 98.1741 240.361 97.9732 240.26C97.7722 240.16 97.5712 240.16 97.3703 240.26C97.0688 240.361 96.8678 240.562 96.7673 240.863C96.5664 241.466 96.8678 242.169 97.2698 242.571C97.7722 243.074 98.4756 243.476 99.179 243.777C101.289 244.782 103.5 245.887 105.912 246.088C106.514 246.189 107.318 246.088 107.62 245.586C107.921 245.184 107.72 244.48 107.318 244.079C106.916 243.576 105.409 242.571 104.706 242.37C104.505 242.27 104.304 242.069 104.404 241.767C104.505 241.466 104.706 241.365 104.907 241.365C105.108 241.365 105.409 241.466 105.711 241.466C106.615 241.667 108.223 241.868 108.424 241.365C108.725 240.763 108.424 239.456 108.022 239.155C107.318 238.652 105.409 237.447 104.806 237.346C104.505 237.246 104.404 237.045 104.404 236.743C104.404 236.442 104.706 236.341 104.907 236.341C105.208 236.341 105.711 236.542 106.313 236.643C106.816 236.743 107.519 236.944 107.821 236.944C108.424 236.944 108.725 236.743 108.926 236.14C109.027 235.839 108.926 235.537 108.725 235.035C107.72 233.226 104.706 230.915 103.5 230.614C103.299 230.513 103.098 230.312 103.098 230.011C103.098 229.709 103.299 229.609 103.6 229.609C104.605 229.609 105.61 230.111 106.615 230.614C107.519 231.015 108.424 231.417 108.926 231.417C109.027 231.417 109.328 231.317 109.428 231.216C109.73 230.413 109.529 230.011 109.428 229.709C109.428 229.609 109.428 229.609 109.328 229.508C108.826 227.498 107.218 225.489 105.309 224.584C105.108 224.484 105.007 224.182 105.108 223.881C105.208 223.68 105.51 223.58 105.811 223.68C107.921 224.785 109.73 226.996 110.333 229.307V229.408C110.433 229.709 110.735 230.413 110.333 231.618C110.132 232.221 109.027 232.422 109.027 232.422C108.524 232.523 108.022 232.322 107.519 232.121C108.323 232.925 109.127 233.729 109.529 234.532C109.931 235.236 110.031 235.939 109.83 236.442C109.428 237.547 108.625 237.848 107.921 237.848C108.122 238.049 108.323 238.15 108.524 238.25C109.428 238.954 109.629 240.763 109.228 241.667C108.926 242.37 108.022 242.571 107.117 242.571C107.419 242.772 107.72 243.074 107.921 243.275C108.524 243.978 108.826 245.083 108.223 245.988C108.122 246.39 107.318 246.691 106.313 246.691Z" fill="#3D3D3D"/>
<path d="M240.562 217.651C238.452 218.053 237.145 219.359 235.236 220.364C233.327 221.369 231.518 223.479 231.016 225.589C230.915 225.891 230.614 226.494 231.016 227.599C231.116 227.8 231.719 228.001 231.92 228.001C233.226 228.101 235.638 226.293 237.346 226.192C235.638 226.594 232.925 228.202 232.02 229.709C231.82 230.011 230.614 230.614 231.619 232.322C231.92 232.824 232.221 233.427 233.226 233.427C233.829 233.427 235.638 232.824 236.241 232.824C235.437 233.025 233.427 234.231 232.824 234.733C232.221 235.236 231.92 236.844 232.322 237.547C232.824 238.652 235.236 237.949 236.341 237.748C235.638 238.049 234.03 239.054 233.528 239.657C233.025 240.26 232.824 241.064 233.226 241.767C233.628 242.471 234.633 242.571 235.437 242.471C237.849 242.27 240.16 241.164 242.27 240.16C242.973 239.858 243.777 239.456 244.28 238.853C244.883 238.25 245.184 237.447 244.883 236.643C244.581 235.839 243.677 235.336 242.973 235.839C244.079 235.135 245.184 234.331 245.887 233.226C246.49 232.121 246.39 230.413 245.385 229.709C244.682 229.207 243.777 229.307 242.873 229.307C243.878 228.503 244.883 227.599 245.285 226.293C245.686 225.087 245.084 223.379 243.777 223.178C243.275 223.077 242.672 223.077 242.571 222.675C244.38 221.168 246.088 218.254 243.576 217.048C242.672 216.847 240.863 217.35 240.562 217.651Z" fill="white"/>
<path d="M234.834 243.074C233.829 243.074 233.025 242.772 232.623 242.169C232.02 241.265 232.322 240.16 232.925 239.456C233.126 239.255 233.427 239.054 233.729 238.753C232.824 238.753 231.92 238.652 231.618 237.848C231.216 236.944 231.417 235.035 232.322 234.432C232.422 234.331 232.623 234.131 232.925 234.03C231.819 233.93 231.417 233.226 231.116 232.724C230.011 230.915 231.016 229.91 231.417 229.609L231.518 229.508C231.719 229.207 232.02 228.905 232.322 228.604C232.121 228.604 232.02 228.604 231.819 228.604C231.819 228.604 230.714 228.403 230.513 227.8C230.111 226.695 230.312 225.991 230.513 225.589V225.489C231.116 223.278 232.925 220.967 235.035 219.862C235.738 219.56 236.241 219.158 236.844 218.756C237.949 218.053 238.954 217.349 240.361 217.048C240.964 216.646 242.672 216.144 243.576 216.445C244.782 217.048 245.083 217.852 245.184 218.455C245.385 219.862 244.28 221.469 243.174 222.474C243.275 222.474 243.375 222.474 243.375 222.474C243.476 222.474 243.576 222.474 243.677 222.474C244.28 222.575 244.882 222.977 245.284 223.58C245.787 224.383 245.887 225.388 245.586 226.192C245.284 227.097 244.681 227.9 243.978 228.503C244.481 228.604 244.983 228.704 245.385 229.006C246.792 229.91 246.792 231.92 246.088 233.226C245.686 234.03 244.983 234.633 244.28 235.135C244.681 235.336 245.083 235.738 245.184 236.241C245.485 237.145 245.184 238.15 244.481 238.954C243.878 239.657 243.074 240.059 242.27 240.361C240.16 241.365 237.748 242.571 235.236 242.772C235.135 243.074 234.934 243.074 234.834 243.074ZM236.14 237.447C236.341 237.447 236.542 237.547 236.643 237.848C236.743 238.049 236.542 238.351 236.341 238.451C235.638 238.753 234.131 239.758 233.729 240.16C233.427 240.562 233.226 241.164 233.427 241.667C233.729 242.169 234.532 242.169 235.135 242.169C237.547 241.968 239.657 240.863 241.868 239.858C242.571 239.557 243.275 239.155 243.777 238.652C244.179 238.25 244.481 237.547 244.28 236.944C244.179 236.643 243.978 236.442 243.677 236.341C243.576 236.341 243.275 236.241 243.074 236.341C242.873 236.442 242.571 236.442 242.37 236.14C242.27 235.939 242.27 235.638 242.571 235.437C243.576 234.834 244.681 234.03 245.284 233.025C245.787 232.121 245.787 230.714 244.882 230.111C244.38 229.709 243.576 229.709 242.672 229.81C242.471 229.81 242.27 229.709 242.169 229.508C242.069 229.307 242.169 229.106 242.27 228.905C243.174 228.202 244.179 227.298 244.581 226.092C244.782 225.489 244.681 224.785 244.38 224.283C244.179 223.981 243.978 223.68 243.476 223.58H243.275C242.772 223.479 242.069 223.379 241.968 222.675C241.968 222.474 241.968 222.273 242.169 222.173C243.275 221.268 244.38 219.761 244.28 218.555C244.179 218.053 243.878 217.651 243.275 217.349C242.672 217.149 241.165 217.651 240.964 217.852C240.863 217.852 240.763 217.952 240.763 217.952C239.456 218.153 238.552 218.756 237.447 219.46C236.844 219.862 236.241 220.264 235.537 220.565C233.729 221.469 232.02 223.58 231.518 225.489C231.518 225.589 231.518 225.589 231.417 225.69C231.317 225.991 231.216 226.393 231.417 227.197C231.518 227.298 231.819 227.398 231.92 227.398C232.422 227.498 233.327 226.996 234.231 226.594C235.236 226.092 236.341 225.589 237.246 225.589C237.547 225.589 237.748 225.79 237.748 225.991C237.748 226.293 237.648 226.494 237.346 226.594C235.738 226.996 233.126 228.604 232.322 229.91C232.221 230.011 232.221 230.111 232.121 230.212C231.719 230.513 231.317 231.015 231.92 232.02C232.221 232.623 232.422 232.925 233.126 232.925C233.427 232.925 234.131 232.724 234.633 232.623C235.236 232.422 235.738 232.322 236.04 232.322C236.341 232.322 236.542 232.523 236.542 232.724C236.542 233.025 236.442 233.226 236.14 233.327C235.437 233.528 233.528 234.633 232.925 235.135C232.523 235.437 232.221 236.844 232.523 237.346C232.724 237.848 234.432 237.547 235.236 237.447C235.638 237.547 235.939 237.447 236.14 237.447Z" fill="#3D3D3D"/>
<path d="M184.792 114.252C182.28 114.252 180.371 112.041 180.27 111.941C180.069 111.74 180.17 111.438 180.371 111.237C180.572 111.036 180.873 111.137 181.074 111.338C181.074 111.338 182.984 113.548 185.194 113.347C186.701 113.146 188.108 111.84 189.314 109.428C189.415 109.227 189.716 109.127 190.018 109.227C190.218 109.328 190.319 109.629 190.218 109.931C188.812 112.644 187.204 114.151 185.295 114.352C185.094 114.252 184.893 114.252 184.792 114.252Z" fill="#3D3D3D"/>
<path d="M157.058 114.453C156.757 114.453 156.556 114.453 156.255 114.352C153.24 113.85 151.23 110.936 151.13 110.835C150.929 110.634 151.029 110.333 151.23 110.132C151.431 109.931 151.733 110.031 151.934 110.232C151.934 110.232 153.742 112.945 156.355 113.347C157.661 113.548 158.968 113.146 160.173 112.141C160.374 111.941 160.676 112.041 160.877 112.242C161.078 112.443 160.977 112.744 160.776 112.945C159.671 113.95 158.365 114.453 157.058 114.453Z" fill="#3D3D3D"/>
<path d="M183.687 123.094C177.859 123.094 173.136 118.372 173.136 112.543C173.136 110.634 173.638 108.825 174.543 107.218C174.643 107.017 174.945 106.916 175.246 107.017C175.447 107.117 175.548 107.419 175.447 107.72C174.643 109.127 174.141 110.835 174.141 112.543C174.141 117.769 178.462 122.09 183.687 122.09C188.912 122.09 193.233 117.769 193.233 112.543C193.233 110.433 192.53 108.524 191.324 106.816C191.123 106.615 191.223 106.313 191.424 106.112C191.625 105.911 191.927 106.012 192.128 106.213C193.534 108.022 194.238 110.232 194.238 112.543C194.238 118.372 189.515 123.094 183.687 123.094Z" fill="#3D3D3D"/>
<path d="M155.551 123.094C149.723 123.094 145 118.372 145 112.543C145 110.232 145.704 108.022 147.11 106.213C147.311 106.012 147.613 105.911 147.814 106.112C148.015 106.313 148.115 106.615 147.914 106.816C146.708 108.524 146.005 110.433 146.005 112.543C146.005 117.769 150.326 122.09 155.551 122.09C160.776 122.09 165.097 117.769 165.097 112.543C165.097 110.433 164.394 108.524 163.188 106.816C162.987 106.615 163.088 106.313 163.289 106.112C163.49 105.911 163.791 106.012 163.992 106.213C165.399 108.022 166.102 110.232 166.102 112.543C166.102 118.372 161.379 123.094 155.551 123.094Z" fill="#3D3D3D"/>
<path d="M173.136 111.539C173.036 111.539 172.835 111.539 172.734 111.438C171.227 109.931 167.107 110.835 165.7 111.338C165.399 111.438 165.198 111.237 165.097 111.036C164.997 110.835 165.198 110.534 165.399 110.433C165.6 110.333 171.227 108.524 173.438 110.735C173.639 110.936 173.639 111.237 173.438 111.438C173.337 111.539 173.237 111.539 173.136 111.539Z" fill="#3D3D3D"/>
<path d="M145.905 110.031C145.804 110.031 145.704 110.031 145.704 109.931L142.187 107.921C141.986 107.821 141.885 107.519 141.986 107.218C142.086 107.017 142.388 106.916 142.689 107.017L146.206 109.026C146.407 109.127 146.508 109.428 146.407 109.73C146.307 109.931 146.106 110.031 145.905 110.031Z" fill="#3D3D3D"/>
<path d="M193.132 108.725C192.931 108.725 192.831 108.624 192.731 108.524C192.63 108.323 192.63 108.022 192.931 107.821L195.645 106.112C195.846 106.012 196.147 106.012 196.348 106.313C196.448 106.514 196.448 106.816 196.147 107.017L193.434 108.725C193.333 108.624 193.233 108.725 193.132 108.725Z" fill="#3D3D3D"/>
<path d="M138.469 187.405C138.167 187.405 137.966 187.204 137.966 186.902V178.06L133.846 182.18C133.645 182.381 133.344 182.381 133.143 182.18C132.942 181.979 132.942 181.677 133.143 181.476L138.167 176.452C138.268 176.352 138.569 176.251 138.67 176.352C138.871 176.452 138.971 176.653 138.971 176.854V186.902C138.971 187.204 138.77 187.405 138.469 187.405Z" fill="#3D3D3D"/>
<path d="M204.789 189.415C204.487 189.415 204.286 189.214 204.286 188.912V181.878C204.286 181.677 204.387 181.476 204.588 181.376C204.789 181.275 204.99 181.376 205.09 181.476L208.105 184.491C208.306 184.692 208.306 184.993 208.105 185.194C207.904 185.395 207.602 185.395 207.401 185.194L205.291 183.084V188.912C205.291 189.214 205.09 189.415 204.789 189.415Z" fill="#3D3D3D"/>
<path d="M169.418 134.349C165.801 134.349 162.183 132.942 159.37 130.631C159.169 130.43 159.169 130.128 159.269 129.927C159.47 129.726 159.772 129.726 159.973 129.827C162.485 132.038 165.901 133.243 169.318 133.243C172.634 133.243 176.05 132.038 178.663 129.827C178.864 129.626 179.165 129.626 179.366 129.927C179.567 130.128 179.567 130.43 179.266 130.631C176.653 133.042 173.036 134.349 169.418 134.349Z" fill="#3D3D3D"/>
<path d="M169.82 131.837C169.016 131.837 168.313 131.535 167.609 131.334C167.308 131.234 167.107 131.133 166.805 131.033C166.002 130.731 164.896 130.731 164.494 131.334C164.293 131.535 163.992 131.636 163.791 131.435C163.59 131.234 163.489 130.932 163.69 130.731C164.494 129.726 166.002 129.726 167.107 130.028C167.408 130.128 167.609 130.229 167.911 130.329C168.614 130.631 169.318 130.832 169.92 130.832C170.423 130.832 170.825 130.631 171.327 130.43C171.629 130.329 171.83 130.229 172.131 130.128C173.236 129.827 174.342 129.927 174.945 130.631C175.146 130.832 175.146 131.133 174.945 131.334C174.744 131.535 174.442 131.535 174.241 131.334C173.839 130.932 173.035 130.932 172.533 131.133C172.332 131.234 172.031 131.334 171.83 131.435C171.327 131.636 170.724 131.837 170.121 131.937C169.92 131.837 169.82 131.837 169.82 131.837Z" fill="#3D3D3D"/>
<path d="M169.318 137.062C167.609 137.062 165.901 136.559 164.494 135.454C164.293 135.253 164.293 134.952 164.394 134.751C164.595 134.55 164.896 134.55 165.097 134.65C167.509 136.559 171.327 136.459 173.639 134.55C173.839 134.349 174.141 134.349 174.342 134.65C174.543 134.851 174.543 135.153 174.241 135.354C172.935 136.459 171.126 137.062 169.318 137.062Z" fill="#3D3D3D"/>
<path d="M262.065 87.6231C256.539 87.6231 250.912 85.5129 246.591 81.393C243.576 78.4789 241.466 74.761 240.461 70.6411C240.361 70.3396 240.562 70.1386 240.863 70.0382C241.165 69.9377 241.366 70.1386 241.466 70.4401C242.37 74.359 244.38 77.876 247.294 80.6896C255.634 88.8289 269.099 88.6279 277.239 80.2877C277.54 79.9862 277.842 79.6847 278.043 79.3833C278.244 79.1823 278.545 79.1823 278.746 79.2828C278.947 79.4838 278.947 79.7852 278.847 79.9862C278.545 80.2877 278.244 80.6896 277.942 80.9911C273.621 85.4124 267.894 87.6231 262.065 87.6231Z" fill="#36C3FE"/>
<path d="M282.564 73.2537C282.464 73.2537 282.464 73.2537 282.363 73.2537C282.062 73.1532 281.962 72.8518 282.062 72.6508C284.876 64.8129 282.765 56.0707 276.837 50.3431C272.817 46.4241 267.391 44.314 261.764 44.314C256.137 44.4144 250.811 46.7256 246.892 50.745C243.476 54.262 241.466 58.6833 240.964 63.5066C240.964 63.8081 240.662 64.0091 240.461 64.0091C240.16 64.0091 239.959 63.7076 239.959 63.5066C240.461 58.4824 242.672 53.7596 246.088 50.1421C250.208 45.9217 255.735 43.5101 261.664 43.4096C267.592 43.3091 273.219 45.5198 277.44 49.6397C283.67 55.6688 285.78 64.8129 282.866 73.0527C282.966 73.1532 282.765 73.2537 282.564 73.2537Z" fill="#36C3FE"/>
<path d="M289.096 79.8857C286.081 79.8857 282.765 79.6848 279.047 79.3833C277.942 79.2828 276.736 79.1823 275.631 78.9814C270.707 78.3784 265.683 77.4741 260.458 76.3687C253.725 74.962 247.495 73.1532 241.667 71.1435L240.763 70.8421C227.499 66.1193 220.063 60.894 220.866 56.9751C221.67 53.1567 230.413 51.4484 244.28 52.5538C244.481 52.5538 244.581 52.6542 244.681 52.8552C244.782 53.0562 244.782 53.2571 244.681 53.3576C243.476 55.0659 242.571 56.9751 241.868 58.9848C241.767 59.1858 241.566 59.3867 241.365 59.2863C235.638 59.0853 235.437 60.0901 235.437 60.0901C235.437 60.0901 235.236 61.095 240.662 63.3057C241.265 63.5066 241.868 63.8081 242.471 64.0091C247.596 65.9183 254.429 67.8275 261.965 69.4353C267.693 70.6411 273.219 71.6459 278.043 72.1484C279.55 72.3493 281.057 72.4498 282.363 72.5503C288.393 72.9522 289.9 72.1484 290 71.8469C290.101 71.5455 288.995 70.2391 283.469 68.129C283.268 68.0285 283.167 67.8275 283.167 67.6265C283.368 65.5163 283.268 63.4062 282.966 61.3964C282.966 61.1955 282.966 60.9945 283.167 60.894C283.268 60.7935 283.469 60.6931 283.67 60.7935C297.738 65.7173 305.576 71.043 304.671 75.0624C303.867 78.278 298.341 79.8857 289.096 79.8857ZM236.442 53.2571C227.9 53.2571 222.374 54.6639 221.871 57.1761C221.168 60.4921 228.704 65.4159 241.064 69.8372L241.968 70.1387C247.696 72.1484 254.027 73.8566 260.659 75.3639C265.783 76.4692 270.808 77.3736 275.731 77.9765C276.937 78.077 278.043 78.278 279.148 78.3784C293.015 79.6848 302.762 78.3784 303.566 74.962C304.269 71.6459 296.431 66.5212 284.072 62.0998C284.373 63.9086 284.373 65.6168 284.273 67.4256C290.804 69.9377 291.307 71.3445 291.106 72.1484C290.905 73.0527 289.799 74.0576 282.363 73.6556C280.957 73.5552 279.55 73.4547 277.942 73.2537C273.119 72.7513 267.592 71.7464 261.764 70.5406C254.228 68.9328 247.294 66.9231 242.169 65.0139C241.466 64.8129 240.863 64.5115 240.26 64.3105C234.733 61.9994 234.331 60.6931 234.432 59.9897C234.633 59.2863 235.437 58.2814 241.064 58.3819C241.667 56.6736 242.37 55.0659 243.375 53.5586C240.863 53.3576 238.552 53.2571 236.442 53.2571Z" fill="#36C3FE"/>
<path d="M11.7569 240.562C11.6564 240.562 11.5559 240.562 11.5559 240.461C11.3549 240.361 11.2544 240.16 11.2544 239.959L11.4554 226.494L0.301556 217.751C0.100586 217.651 0.100586 217.45 0.100586 217.249C0.100586 217.048 0.301556 216.948 0.502527 216.847L13.5656 214.737L17.384 200.97C17.4845 200.769 17.585 200.669 17.786 200.568C17.9869 200.568 18.1879 200.669 18.2884 200.769L26.2267 212.727L39.2898 210.617C39.4908 210.617 39.6918 210.717 39.7922 210.818C39.8927 211.019 39.8927 211.22 39.7922 211.32L31.8539 223.077L36.1748 235.839C36.2753 236.04 36.1748 236.241 36.0743 236.341C35.9738 236.442 35.7728 236.542 35.5719 236.442L22.8102 232.121L12.0583 240.16C11.9578 240.562 11.8574 240.562 11.7569 240.562ZM1.70835 217.751L12.1588 225.991C12.2593 226.092 12.3598 226.192 12.3598 226.393L12.1588 239.155L22.3078 231.518C22.4083 231.417 22.6093 231.417 22.8102 231.417L34.8685 235.537L30.7486 223.479C30.7486 223.379 30.7486 223.178 30.8491 223.077L38.285 212.024L26.0258 213.933C25.8248 213.933 25.6238 213.833 25.5233 213.732L18.0874 202.478L14.47 215.541C14.3695 215.742 14.269 215.842 14.068 215.943L1.70835 217.751Z" fill="#F7B517"/>
<path d="M316.126 234.733C315.524 234.733 315.021 234.633 314.519 234.332C313.614 233.93 312.911 233.126 312.61 232.221L303.566 205.894C303.264 204.99 303.264 203.885 303.767 203.081C304.169 202.176 304.973 201.473 305.877 201.171L308.892 200.167C309.193 200.066 309.394 200.167 309.494 200.468C309.595 200.769 309.394 200.97 309.193 201.071L306.178 202.076C305.475 202.277 304.973 202.779 304.571 203.483C304.269 204.186 304.169 204.889 304.47 205.593L313.514 231.92C313.715 232.623 314.217 233.126 314.921 233.528C315.624 233.829 316.327 233.93 317.031 233.628L347.176 223.379C347.88 223.178 348.382 222.675 348.784 221.972C349.086 221.268 349.186 220.565 348.885 219.862L339.841 193.535C339.64 192.831 339.138 192.329 338.434 191.927C337.731 191.625 337.027 191.525 336.324 191.826L333.209 192.932C332.908 193.032 332.707 192.831 332.606 192.63C332.506 192.429 332.707 192.128 332.908 192.027L336.023 190.922C336.927 190.62 338.032 190.62 338.836 191.123C339.64 191.625 340.444 192.329 340.745 193.233L349.789 219.56C350.492 221.469 349.387 223.68 347.478 224.283L317.332 234.532C317.031 234.633 316.528 234.733 316.126 234.733Z" fill="#6059F7"/>
<path d="M313.815 199.463C313.614 199.463 313.413 199.363 313.313 199.162C313.212 198.86 313.413 198.659 313.614 198.559L328.386 193.535C328.687 193.434 328.888 193.534 328.989 193.836C329.089 194.137 328.888 194.338 328.687 194.439L313.916 199.463C314.016 199.363 313.916 199.463 313.815 199.463Z" fill="#6059F7"/>
<path d="M312.007 204.186C310.801 204.186 309.796 203.483 309.394 202.277L308.088 198.458C307.887 197.755 307.887 196.951 308.188 196.348C308.49 195.645 309.093 195.142 309.796 194.941C310.499 194.74 311.303 194.74 311.906 195.042C312.61 195.343 313.112 195.946 313.313 196.65L314.619 200.468C315.122 201.875 314.318 203.483 312.911 203.985C312.61 204.085 312.308 204.186 312.007 204.186ZM310.7 195.745C310.499 195.745 310.298 195.745 310.098 195.846C309.696 196.047 309.294 196.348 309.093 196.75C308.892 197.152 308.892 197.654 308.992 198.157L310.298 201.975C310.6 202.88 311.605 203.382 312.61 203.081C313.514 202.779 314.016 201.774 313.715 200.769L312.409 196.951C312.208 196.549 311.906 196.147 311.504 195.946C311.203 195.846 311.002 195.745 310.7 195.745Z" fill="#6059F7"/>
<path d="M331.501 197.453C331.099 197.453 330.697 197.353 330.295 197.152C329.592 196.851 329.089 196.248 328.888 195.544L327.582 191.726C327.08 190.319 327.883 188.711 329.29 188.209C329.994 188.008 330.798 188.008 331.4 188.309C332.104 188.611 332.606 189.214 332.807 189.917L334.114 193.735C334.315 194.439 334.315 195.243 334.013 195.846C333.712 196.549 333.109 197.051 332.405 197.252C332.104 197.453 331.802 197.453 331.501 197.453ZM330.195 189.113C329.994 189.113 329.793 189.113 329.592 189.214C328.687 189.515 328.185 190.52 328.486 191.525L329.793 195.343C329.994 195.745 330.295 196.147 330.697 196.348C331.099 196.549 331.601 196.549 332.104 196.449C332.506 196.248 332.908 195.946 333.109 195.544C333.31 195.142 333.31 194.64 333.209 194.137L331.903 190.319C331.702 189.917 331.4 189.515 330.998 189.314C330.697 189.214 330.496 189.113 330.195 189.113Z" fill="#6059F7"/>
<path d="M318.438 209.813C318.84 209.612 319.242 209.411 319.543 209.311C319.844 209.21 320.246 209.11 320.648 209.009L324.467 220.264C324.668 220.766 324.768 221.268 324.969 221.771C325.271 221.67 325.974 221.369 326.276 221.268L327.883 220.766C328.084 221.067 328.185 221.369 328.285 221.771C328.386 222.072 328.486 222.474 328.486 222.776L319.945 225.69C319.744 225.388 319.644 225.087 319.543 224.785C319.443 224.484 319.342 224.082 319.342 223.781L321.452 223.077C321.754 222.977 322.457 222.776 322.759 222.675C322.558 222.173 322.357 221.67 322.256 221.168L320.447 215.943C320.246 215.34 319.945 214.134 319.644 213.129C319.141 214.536 318.136 215.842 317.232 216.747C316.629 216.646 316.026 216.244 315.725 215.641C317.433 213.531 318.337 211.421 318.438 209.813ZM335.42 205.09C335.621 205.794 335.42 206.296 334.716 206.497L330.797 207.803L329.893 208.105L330.295 209.21L330.797 210.818L330.898 211.421C331.4 210.918 332.003 210.617 332.807 210.316C335.621 209.411 338.032 210.517 339.037 213.431C340.343 217.149 338.233 219.661 335.621 220.565C333.812 221.168 332.104 221.067 330.898 220.565C330.797 220.063 330.998 219.158 331.4 218.656C332.506 218.957 333.611 219.058 334.917 218.656C336.425 218.153 337.429 216.646 336.726 214.335C335.922 212.024 334.214 211.823 332.908 212.325C332.003 212.627 331.199 213.23 330.697 214.134C330.194 214.234 329.592 214.034 329.29 213.732L327.28 206.799L327.381 206.598L335.118 203.985C335.118 204.487 335.319 204.889 335.42 205.09Z" stroke="#6059F7" stroke-miterlimit="10" stroke-linecap="round" stroke-linejoin="round"/>
<path d="M209.612 27.7339C209.311 27.7339 209.11 27.5329 209.11 27.2315C209.11 20.097 203.382 14.3694 196.248 14.3694C195.946 14.3694 195.745 14.1684 195.745 13.867C195.745 13.5655 195.946 13.3645 196.248 13.3645C203.382 13.3645 209.11 7.63687 209.11 0.502426C209.11 0.20097 209.311 0 209.612 0C209.914 0 210.115 0.20097 210.115 0.502426C210.115 7.63687 215.842 13.3645 222.977 13.3645C223.278 13.3645 223.479 13.5655 223.479 13.867C223.479 14.1684 223.278 14.3694 222.977 14.3694C215.842 14.3694 210.115 20.097 210.115 27.2315C210.115 27.5329 209.914 27.7339 209.612 27.7339ZM199.965 13.867C204.688 15.1733 208.306 18.8912 209.612 23.5135C210.918 18.7907 214.636 15.1733 219.259 13.867C214.536 12.5606 210.918 8.8427 209.612 4.22038C208.306 8.8427 204.588 12.5606 199.965 13.867Z" fill="#6591FE"/>
<path d="M71.2439 85.6134C70.9425 85.6134 70.7415 85.4124 70.7415 85.1109C70.7415 77.9765 65.0138 72.2488 57.8794 72.2488C57.5779 72.2488 57.377 72.0479 57.377 71.7464C57.377 71.445 57.5779 71.244 57.8794 71.244C65.0138 71.244 70.7415 65.5163 70.7415 58.3819C70.7415 58.0804 70.9425 57.8795 71.2439 57.8795C71.5454 57.8795 71.7463 58.0804 71.7463 58.3819C71.7463 65.5163 77.474 71.244 84.6084 71.244C84.9099 71.244 85.1109 71.445 85.1109 71.7464C85.1109 72.0479 84.9099 72.2488 84.6084 72.2488C77.474 72.2488 71.7463 77.9765 71.7463 85.1109C71.7463 85.3119 71.5454 85.6134 71.2439 85.6134ZM61.5973 71.6459C66.3201 72.9522 69.9376 76.6702 71.2439 81.2925C72.5502 76.5697 76.2682 72.9522 80.8905 71.6459C76.1677 70.3396 72.5502 66.6217 71.2439 61.9994C69.9376 66.7222 66.3201 70.4401 61.5973 71.6459Z" fill="#F7B517"/>
<path d="M271.612 203.884C271.31 203.884 271.109 203.683 271.109 203.382C271.109 196.248 265.382 190.52 258.247 190.52C257.946 190.52 257.745 190.319 257.745 190.017C257.745 189.716 257.946 189.515 258.247 189.515C265.382 189.515 271.109 183.787 271.109 176.653C271.109 176.351 271.31 176.151 271.612 176.151C271.913 176.151 272.114 176.351 272.114 176.653C272.114 183.787 277.842 189.515 284.976 189.515C285.278 189.515 285.479 189.716 285.479 190.017C285.479 190.319 285.278 190.52 284.976 190.52C277.842 190.52 272.114 196.248 272.114 203.382C272.114 203.683 271.913 203.884 271.612 203.884ZM261.965 190.017C266.688 191.324 270.305 195.042 271.612 199.664C272.918 194.941 276.636 191.324 281.258 190.017C276.535 188.711 272.918 184.993 271.612 180.371C270.305 184.993 266.688 188.711 261.965 190.017Z" fill="#F7B517"/>
<path d="M106.816 143.995C106.514 143.995 106.313 143.794 106.313 143.493C106.313 133.645 98.3751 125.707 88.5276 125.707C88.2261 125.707 88.0251 125.506 88.0251 125.205C88.0251 124.903 88.2261 124.702 88.5276 124.702C98.3751 124.702 106.313 116.764 106.313 106.916C106.313 106.615 106.514 106.414 106.816 106.414C107.117 106.414 107.318 106.615 107.318 106.916C107.318 116.764 115.257 124.702 125.104 124.702C125.406 124.702 125.607 124.903 125.607 125.205C125.607 125.506 125.406 125.707 125.104 125.707C115.257 125.707 107.318 133.645 107.318 143.493C107.318 143.794 107.117 143.995 106.816 143.995ZM92.8484 125.205C99.7819 126.812 105.208 132.239 106.816 139.172C108.424 132.239 113.85 126.812 120.783 125.205C113.85 123.597 108.424 118.171 106.816 111.237C105.208 118.171 99.7819 123.597 92.8484 125.205Z" fill="#36C3FE"/>
<path d="M318.337 118.573C318.036 118.573 317.835 118.372 317.835 118.07C317.835 108.223 309.896 100.284 300.049 100.284C299.747 100.284 299.546 100.083 299.546 99.7818C299.546 99.4804 299.747 99.2794 300.049 99.2794C309.896 99.2794 317.835 91.3411 317.835 81.4935C317.835 81.1921 318.036 80.9911 318.337 80.9911C318.639 80.9911 318.84 81.1921 318.84 81.4935C318.84 91.3411 326.778 99.2794 336.625 99.2794C336.927 99.2794 337.128 99.4804 337.128 99.7818C337.128 100.083 336.927 100.284 336.625 100.284C326.778 100.284 318.84 108.223 318.84 118.07C318.84 118.271 318.639 118.573 318.337 118.573ZM304.47 99.7818C311.404 101.39 316.83 106.816 318.438 113.749C320.045 106.816 325.472 101.39 332.405 99.7818C325.472 98.1741 320.045 92.7479 318.438 85.8144C316.729 92.6474 311.303 98.1741 304.47 99.7818Z" fill="#F7B517"/>
<path d="M41.8019 118.472C35.3709 118.472 29.2413 115.156 25.7243 109.428C20.3986 100.586 23.2122 89.0299 32.0549 83.7042C36.3758 81.0916 41.4 80.3882 46.2233 81.594C51.0466 82.7998 55.1665 85.8144 57.7791 90.1352C62.6024 98.1741 60.7937 108.625 53.4582 114.453L49.3383 116.965C46.9267 117.97 44.4146 118.472 41.8019 118.472ZM41.8019 81.9959C38.5864 81.9959 35.4714 82.9003 32.6578 84.6086C24.3175 89.6328 21.6044 100.586 26.6287 108.926C31.251 116.563 40.7971 119.577 48.9364 115.96L52.9558 113.548C59.8893 108.022 61.5975 98.1741 56.9752 90.5372C54.5636 86.5178 50.6446 83.6037 46.0223 82.4984C44.6155 82.1969 43.2087 81.9959 41.8019 81.9959ZM41.9024 114.754C36.7777 114.754 31.8539 112.142 29.0403 107.519C26.9301 104.103 26.3272 100.083 27.3321 96.1644C28.3369 92.2454 30.7486 89.0299 34.1651 86.9197C37.5816 84.8095 41.601 84.2066 45.5199 85.2115C49.4388 86.2163 52.6544 88.628 54.7645 92.0445C56.8747 95.461 57.4776 99.4804 56.4728 103.399C55.4679 107.318 53.0563 110.534 49.6398 112.644C47.1277 114.051 44.5151 114.754 41.9024 114.754ZM41.8019 85.8144C39.2898 85.8144 36.7777 86.5178 34.567 87.8241C31.3515 89.7333 29.1408 92.8483 28.2365 96.4658C27.3321 100.083 27.935 103.801 29.8442 107.017C33.8636 113.649 42.4049 115.759 49.0369 111.74C52.2524 109.83 54.4631 106.715 55.3675 103.098C56.2718 99.4804 55.6689 95.7624 53.7597 92.5469C51.8505 89.3314 48.7354 87.1207 45.118 86.2163C44.1131 85.9149 42.9073 85.8144 41.8019 85.8144Z" fill="#6591FE"/>
<path d="M63.2053 143.694C62.2005 143.694 61.0951 143.191 60.5927 142.187L50.8456 126.109C50.2427 125.205 50.2427 124.099 50.7452 123.195C49.7403 123.195 48.7355 122.592 48.233 121.688L47.4292 120.482C47.0272 119.778 46.9267 118.975 47.0272 118.171C47.2282 117.367 47.7306 116.663 48.434 116.261L53.2573 113.347C54.6641 112.443 56.5733 112.945 57.4777 114.352L58.1811 115.558C58.583 116.261 58.784 117.065 58.583 117.869C58.4825 118.07 58.4825 118.271 58.382 118.472C59.3869 118.472 60.2913 119.075 60.8942 119.979L70.6412 136.057C71.0432 136.76 71.1436 137.564 71.0432 138.368C70.8422 139.172 70.3398 139.875 69.6364 140.277L64.8131 143.191C64.3107 143.493 63.8082 143.694 63.2053 143.694ZM52.4534 122.793C51.4486 123.396 51.1471 124.702 51.75 125.607L61.4971 141.684C62.1 142.689 63.4063 142.99 64.3107 142.388L69.134 139.474C69.6364 139.172 69.9378 138.77 70.0383 138.167C70.1388 137.665 70.0383 137.062 69.8373 136.559L60.0903 120.482C59.4874 119.477 58.1811 119.175 57.2767 119.778C57.0757 119.879 56.7743 119.879 56.5733 119.577C56.5733 119.477 56.4728 119.376 56.4728 119.276C56.4728 119.075 56.5733 118.975 56.6738 118.874C57.1762 118.573 57.4777 118.171 57.5782 117.568C57.6786 117.065 57.5782 116.462 57.3772 115.96L56.6738 114.754C56.0709 113.749 54.7646 113.448 53.8602 114.051L49.0369 116.965C48.5345 117.266 48.233 117.668 48.1325 118.271C48.0321 118.774 48.1325 119.376 48.3335 119.879L49.1374 121.085C49.7403 122.09 51.0466 122.391 51.951 121.788C52.152 121.688 52.4534 121.688 52.6544 121.989C52.6544 122.09 52.7549 122.19 52.7549 122.291C52.6544 122.491 52.5539 122.692 52.4534 122.793Z" fill="#6591FE"/>
<path d="M125.807 56.9751C125.707 56.9751 125.506 56.8746 125.406 56.8746L115.759 47.228H95.5614C92.0444 47.228 89.1304 44.3139 89.1304 40.797V19.4941C89.1304 15.9771 92.0444 13.063 95.5614 13.063H128.722C132.239 13.063 135.153 15.9771 135.153 19.4941V40.6965C135.153 44.2135 132.239 47.1275 128.722 47.1275H126.209V56.3722C126.209 56.5731 126.109 56.7741 125.908 56.8746C125.908 56.9751 125.807 56.9751 125.807 56.9751ZM95.5614 13.9674C92.5469 13.9674 90.1352 16.3791 90.1352 19.3936V40.6965C90.1352 43.711 92.5469 46.1227 95.5614 46.1227H115.96C116.06 46.1227 116.261 46.2232 116.362 46.2232L125.305 55.1664V46.6251C125.305 46.3237 125.506 46.1227 125.807 46.1227H128.822C131.837 46.1227 134.248 43.711 134.248 40.6965V19.3936C134.248 16.3791 131.837 13.9674 128.822 13.9674H95.5614Z" fill="#36C3FE"/>
<path d="M100.284 34.5669C97.9732 34.5669 96.064 32.6576 96.064 30.3465C96.064 28.0353 97.9732 26.1261 100.284 26.1261C102.596 26.1261 104.505 28.0353 104.505 30.3465C104.505 32.6576 102.495 34.5669 100.284 34.5669ZM100.284 27.2314C98.5761 27.2314 97.0688 28.6382 97.0688 30.447C97.0688 32.2557 98.4756 33.6625 100.284 33.6625C101.993 33.6625 103.5 32.2557 103.5 30.447C103.5 28.6382 101.993 27.2314 100.284 27.2314Z" fill="#36C3FE"/>
<path d="M112.142 34.5669C109.83 34.5669 107.921 32.6576 107.921 30.3465C107.921 28.0353 109.83 26.1261 112.142 26.1261C114.453 26.1261 116.362 28.0353 116.362 30.3465C116.362 32.6576 114.453 34.5669 112.142 34.5669ZM112.142 27.2314C110.433 27.2314 108.926 28.6382 108.926 30.447C108.926 32.2557 110.333 33.6625 112.142 33.6625C113.85 33.6625 115.357 32.2557 115.357 30.447C115.357 28.6382 113.85 27.2314 112.142 27.2314Z" fill="#36C3FE"/>
<path d="M123.999 34.5669C121.688 34.5669 119.779 32.6576 119.779 30.3465C119.779 28.0353 121.688 26.1261 123.999 26.1261C126.31 26.1261 128.219 28.0353 128.219 30.3465C128.219 32.6576 126.31 34.5669 123.999 34.5669ZM123.999 27.2314C122.291 27.2314 120.783 28.6382 120.783 30.447C120.783 32.2557 122.19 33.6625 123.999 33.6625C125.808 33.6625 127.214 32.2557 127.214 30.447C127.214 28.6382 125.808 27.2314 123.999 27.2314Z" fill="#36C3FE"/>
<path d="M71.6459 204.789C70.5405 204.789 69.5357 204.588 68.5308 204.186L51.4483 197.152C47.3285 195.444 45.3187 190.62 47.027 186.501L54.061 169.418C54.8648 167.408 56.4726 165.801 58.4823 164.997C60.492 164.193 62.7027 164.193 64.7124 164.997L81.7949 172.031C83.8046 172.835 85.4124 174.442 86.2162 176.452C87.0201 178.462 87.0201 180.672 86.2162 182.682L79.1823 199.765C78.3784 201.774 76.7706 203.382 74.7609 204.186C73.7561 204.588 72.7512 204.789 71.6459 204.789ZM48.0318 186.902C46.5246 190.52 48.2328 194.74 51.9508 196.248L69.0333 203.282C70.842 203.985 72.7512 203.985 74.4595 203.282C76.2682 202.578 77.5745 201.171 78.3784 199.363L85.4123 182.28C86.1157 180.471 86.1157 178.562 85.4123 176.854C84.709 175.045 83.3022 173.739 81.4934 172.935L64.4109 165.901C62.6022 165.198 60.693 165.198 58.9847 165.901C57.176 166.604 55.8697 168.011 55.1663 169.82L48.0318 186.902Z" fill="#6059F7"/>
<path d="M65.0138 194.238C64.3104 194.137 63.7075 193.936 62.9036 193.635C62.2002 193.334 61.5973 193.032 61.0949 192.731C60.8939 192.63 60.7935 192.329 60.8939 192.128L62.9036 187.304C63.0041 187.003 63.1046 186.702 63.3056 186.4C63.4061 186.199 63.4061 186.099 63.5066 185.898C63.4061 185.797 63.2051 185.797 63.1046 185.697C62.8032 185.596 62.4012 185.395 62.0998 185.295L57.6784 183.486C57.4774 183.386 57.377 183.185 57.377 182.984C57.4774 182.481 57.6784 181.878 57.9799 181.074C58.2813 180.371 58.4823 179.869 58.8842 179.366C58.9847 179.165 59.2862 179.065 59.4871 179.165L63.9085 180.974C64.2099 181.074 64.5114 181.275 64.9133 181.376C65.0138 181.476 65.2148 181.476 65.3153 181.577C65.4158 181.376 65.4158 181.275 65.5163 181.074C65.6167 180.773 65.7172 180.371 65.9182 180.17L67.9279 175.447C68.0284 175.246 68.2294 175.146 68.5308 175.146C69.1337 175.246 69.7366 175.447 70.5405 175.749C71.2439 176.05 71.8468 176.352 72.3492 176.653C72.5502 176.754 72.6507 177.055 72.5502 177.256L70.5405 181.979C70.44 182.28 70.2391 182.582 70.1386 182.883C70.0381 183.084 70.0381 183.185 69.9376 183.386C70.1386 183.486 70.2391 183.486 70.44 183.586C70.7415 183.687 71.1434 183.888 71.4449 183.988L75.8662 185.797C76.0672 185.898 76.1677 186.099 76.1677 186.4C76.0672 187.003 75.8662 187.505 75.5648 188.309C75.2633 189.113 74.9619 189.616 74.6604 190.118C74.5599 190.319 74.2585 190.419 74.0575 190.319L69.6362 188.51C69.3347 188.41 69.0332 188.209 68.7318 188.108C68.5308 188.008 68.4303 188.008 68.2294 187.907C68.1289 188.108 68.1289 188.209 68.0284 188.41C67.9279 188.711 67.8274 189.013 67.6264 189.314L65.6167 194.137C65.4158 194.037 65.2148 194.238 65.0138 194.238ZM61.9993 192.027C62.4012 192.228 62.8032 192.429 63.3056 192.63C63.808 192.831 64.3104 193.032 64.7124 193.133L66.5211 188.711C66.6216 188.41 66.7221 188.108 66.8226 187.807C66.923 187.505 67.124 187.103 67.2245 186.802C67.325 186.702 67.325 186.601 67.526 186.501C67.6264 186.4 67.8274 186.4 67.9279 186.501C68.2294 186.601 68.6313 186.802 68.9328 186.903C69.2342 187.003 69.5357 187.204 69.8371 187.304L73.8565 189.013C74.0575 188.711 74.2585 188.309 74.4594 187.807C74.6604 187.304 74.7609 186.903 74.8614 186.501L70.842 184.792C70.5405 184.692 70.2391 184.591 69.9376 184.39C69.6361 184.29 69.2342 184.189 68.9328 183.988C68.8323 183.888 68.7318 183.888 68.6313 183.687C68.5308 183.587 68.5308 183.386 68.6313 183.285C68.7318 182.984 68.9328 182.682 69.0332 182.28C69.1337 181.979 69.3347 181.677 69.4352 181.376L71.2439 177.055C70.842 176.854 70.44 176.653 69.9376 176.452C69.4352 176.251 68.9328 176.05 68.5308 175.95L66.7221 180.27C66.6216 180.572 66.5211 180.873 66.3201 181.175C66.2197 181.476 66.0187 181.878 65.9182 182.18C65.8177 182.481 65.5163 182.582 65.2148 182.481C64.9133 182.381 64.6119 182.18 64.3104 182.079C64.009 181.979 63.7075 181.778 63.4061 181.677L59.3867 179.969C59.1857 180.371 58.9847 180.672 58.7837 181.175C58.5828 181.677 58.3818 182.079 58.2813 182.481L62.3007 184.189C62.6022 184.29 62.9036 184.491 63.3056 184.591C63.607 184.692 63.9085 184.792 64.2099 184.993C64.5114 185.094 64.6119 185.395 64.5114 185.697C64.4109 185.998 64.2099 186.4 64.1095 186.702C64.009 187.003 63.808 187.304 63.7075 187.505L61.9993 192.027Z" fill="#6059F7"/>
<path d="M247.897 148.517C246.792 148.517 245.787 148.316 244.782 147.914C242.772 147.11 241.164 145.503 240.361 143.493L233.327 126.41C231.618 122.291 233.628 117.467 237.748 115.759L254.83 108.725C258.95 107.017 263.774 109.026 265.482 113.146L272.516 130.229C274.224 134.349 272.214 139.172 268.094 140.88L251.012 147.914C250.007 148.316 248.902 148.517 247.897 148.517ZM257.845 109.026C256.941 109.026 256.036 109.227 255.132 109.529L238.049 116.563C234.432 118.07 232.623 122.291 234.13 125.908L241.164 142.99C241.868 144.799 243.275 146.105 245.083 146.909C246.892 147.613 248.801 147.613 250.51 146.909L267.592 139.875C271.209 138.368 273.018 134.148 271.511 130.53L264.477 113.448C263.372 110.735 260.659 109.026 257.845 109.026Z" fill="#6591FE"/>
<path d="M254.73 138.167C254.529 138.167 254.429 138.167 254.328 138.167C254.228 138.167 254.127 138.067 254.027 138.067C253.625 137.665 253.122 136.961 252.821 136.358C252.62 135.756 252.419 134.952 252.419 134.349C252.419 134.248 252.419 134.148 252.519 134.047C252.921 133.545 253.725 132.942 254.529 132.64C255.232 132.339 256.338 132.138 257.041 132.239C257.142 132.239 257.242 132.339 257.242 132.339C257.644 132.741 258.147 133.444 258.347 134.047C258.548 134.65 258.749 135.454 258.749 136.057C258.749 136.157 258.749 136.258 258.649 136.358C258.247 136.961 257.343 137.564 256.639 137.866C256.137 138.067 255.333 138.167 254.73 138.167ZM254.63 137.162C255.031 137.162 255.735 137.062 256.438 136.76C257.041 136.459 257.644 136.057 257.946 135.756C257.946 135.354 257.845 134.751 257.644 134.349C257.443 133.947 257.142 133.444 256.84 133.143C256.338 133.143 255.634 133.243 255.031 133.545C254.429 133.746 253.826 134.148 253.524 134.55C253.524 134.952 253.625 135.555 253.826 135.957C254.027 136.459 254.328 136.861 254.63 137.162ZM245.485 133.746C245.284 133.746 245.184 133.645 245.083 133.545C244.682 132.942 244.38 132.239 244.179 131.837C243.878 131.133 243.677 130.53 243.576 129.927C243.576 129.726 243.677 129.425 243.878 129.324L260.056 122.592C260.257 122.491 260.558 122.592 260.659 122.793C260.96 123.295 261.262 123.898 261.563 124.602C261.764 125.004 262.065 125.807 262.166 126.511C262.166 126.712 262.065 127.013 261.864 127.013L245.686 133.746C245.586 133.746 245.586 133.746 245.485 133.746ZM244.682 130.128C244.782 130.53 244.983 130.932 245.083 131.435C245.284 131.937 245.485 132.339 245.686 132.64L261.061 126.31C260.96 125.908 260.86 125.506 260.659 125.004C260.458 124.501 260.257 124.099 260.056 123.798L244.682 130.128ZM249.103 124.401C248.902 124.401 248.701 124.401 248.6 124.3C248.5 124.3 248.5 124.2 248.399 124.2C247.998 123.798 247.495 123.094 247.294 122.491C247.093 121.889 246.892 121.085 246.892 120.482C246.892 120.381 246.892 120.281 246.993 120.18C247.395 119.678 248.198 119.075 249.002 118.774C249.706 118.472 250.811 118.271 251.515 118.372C251.615 118.372 251.715 118.472 251.816 118.472C252.218 118.874 252.72 119.577 253.022 120.18C253.223 120.783 253.424 121.587 253.424 122.19C253.424 122.291 253.424 122.391 253.323 122.391C252.921 122.994 252.017 123.597 251.314 123.898C250.51 124.2 249.706 124.401 249.103 124.401ZM248.902 123.396C249.304 123.396 250.007 123.295 250.711 122.994C251.314 122.692 252.017 122.291 252.218 121.989C252.218 121.587 252.117 120.984 251.916 120.582C251.715 120.18 251.414 119.678 251.113 119.376C250.61 119.376 249.907 119.477 249.304 119.778C248.701 119.979 248.098 120.381 247.797 120.783C247.797 121.185 247.897 121.788 248.098 122.19C248.299 122.592 248.6 123.094 248.902 123.396Z" fill="#6591FE"/>
<path d="M1.30631 174.04C1.10534 174.04 1.00485 174.04 0.904367 174.04C0.803882 174.04 0.703396 173.94 0.602911 173.94L0.20097 173.638C0.100485 173.538 0 173.437 0 173.236L1.60776 135.354C1.60776 135.153 1.70825 134.952 1.90922 134.952C3.21553 134.349 5.32572 133.645 6.73251 133.243C8.23979 132.841 10.35 132.339 11.6563 132.239C11.8573 132.239 12.0582 132.339 12.1587 132.439L33.1601 163.992C33.2606 164.193 33.2606 164.494 33.0596 164.595C31.9543 165.7 29.8441 166.604 28.3368 167.006C25.3223 167.81 23.614 167.006 21.5038 163.69L19.7956 160.877C19.1927 161.078 18.5898 161.279 18.1878 161.379L10.8524 163.489C10.35 163.59 9.74707 163.791 9.14415 163.992L9.04367 171.729C9.04367 171.93 8.94318 172.031 8.74221 172.131C7.63688 172.734 6.43105 173.136 5.22523 173.437C4.11989 173.739 2.51213 174.04 1.30631 174.04ZM1.10534 173.036C2.21067 173.036 3.81844 172.835 4.92378 172.433C5.92863 172.131 7.03396 171.83 7.93833 171.327L8.03882 163.489C8.03882 163.288 8.23979 163.087 8.44076 162.987C9.14415 162.887 9.84755 162.686 10.4505 162.485L17.7859 160.374C18.2883 160.274 19.0922 159.972 19.7956 159.771C19.9966 159.671 20.298 159.771 20.3985 159.972L22.3077 163.087C24.3174 166.303 25.7242 166.604 27.9349 166.002C29.3417 165.6 30.9494 164.796 31.8538 164.092L11.2543 133.143C9.94804 133.243 8.03882 133.746 6.83299 134.047C5.62717 134.349 3.71795 135.052 2.51213 135.555L1.10534 173.036ZM8.64173 157.058C8.54124 157.058 8.44076 157.058 8.34027 156.958C8.23979 156.857 8.1393 156.757 8.1393 156.556L8.23979 152.235V150.728C8.23979 147.814 8.23979 144.196 7.93833 141.684C7.93833 141.483 8.03882 141.182 8.34027 141.182L8.64173 141.081C8.8427 140.981 9.14415 141.081 9.24464 141.282C10.8524 144.096 13.264 148.216 15.0728 151.13L16.8815 154.044C16.982 154.144 16.982 154.345 16.8815 154.446C16.781 154.546 16.6805 154.747 16.5801 154.747C16.2786 154.848 15.8767 154.948 15.5752 155.049C15.2738 155.149 14.9723 155.149 14.7713 155.25L10.9529 156.355C10.6514 156.455 10.35 156.556 10.0485 156.656C9.64658 156.757 9.24464 156.857 8.94318 156.958C8.74221 157.058 8.74221 157.058 8.64173 157.058ZM9.04367 143.091C9.14415 145.503 9.24464 148.316 9.24464 150.728V152.235L9.14415 155.853C9.24464 155.853 9.44561 155.752 9.54609 155.752C9.84755 155.652 10.2495 155.551 10.5509 155.451L14.3694 154.345C14.6708 154.245 14.9723 154.245 15.2738 154.144C15.3742 154.144 15.4747 154.044 15.6757 154.044L14.2689 151.632C12.6611 149.221 10.6514 145.804 9.04367 143.091Z" fill="#36C3FE"/>
<path d="M317.031 171.428C316.629 171.428 316.227 171.327 315.825 171.227L313.815 170.423C313.011 170.121 312.408 169.519 312.107 168.715C311.805 167.911 311.805 167.107 312.107 166.303L312.509 165.298C311.705 164.595 310.901 163.891 310.198 162.987L309.193 163.389C307.585 164.092 305.676 163.288 305.073 161.681L304.269 159.671C303.968 158.867 303.968 158.063 304.269 157.259C304.571 156.455 305.173 155.853 305.977 155.551L306.982 155.149C306.882 154.044 306.882 152.938 306.982 151.934L305.977 151.532C305.173 151.23 304.571 150.627 304.269 149.823C303.968 149.02 303.968 148.216 304.269 147.412L305.073 145.402C305.776 143.794 307.585 142.99 309.193 143.694L310.198 144.096C310.901 143.292 311.604 142.488 312.509 141.785L312.107 140.78C311.805 139.976 311.805 139.172 312.107 138.368C312.408 137.564 313.011 136.961 313.815 136.66L315.825 135.856C316.629 135.555 317.433 135.555 318.237 135.856C319.04 136.157 319.643 136.76 319.945 137.564L320.347 138.569C321.452 138.469 322.557 138.469 323.562 138.569L323.964 137.564C324.668 135.956 326.476 135.153 328.084 135.856L330.094 136.66C330.898 136.961 331.501 137.564 331.802 138.368C332.103 139.172 332.103 139.976 331.802 140.78L331.4 141.785C332.204 142.488 333.008 143.191 333.711 144.096L334.716 143.694C335.52 143.392 336.324 143.392 337.128 143.694C337.932 143.995 338.535 144.598 338.836 145.402L339.64 147.412C340.343 149.02 339.539 150.929 337.932 151.532L336.927 151.934C337.027 153.039 337.027 154.144 336.927 155.149L337.932 155.551C338.735 155.853 339.338 156.455 339.64 157.259C339.941 158.063 339.941 158.867 339.64 159.671L338.836 161.681C338.535 162.485 337.932 163.087 337.128 163.389C336.324 163.69 335.52 163.69 334.716 163.389L333.711 162.987C333.008 163.791 332.304 164.595 331.4 165.298L331.802 166.303C332.505 167.911 331.702 169.82 330.094 170.423L328.084 171.227C326.476 171.93 324.567 171.126 323.964 169.519L323.562 168.514C322.457 168.614 321.352 168.614 320.347 168.514L319.945 169.519C319.643 170.322 319.04 170.925 318.237 171.227C317.835 171.327 317.433 171.428 317.031 171.428ZM310.298 161.781C310.499 161.781 310.6 161.882 310.7 161.982C311.504 162.987 312.408 163.891 313.313 164.595C313.514 164.695 313.514 164.997 313.514 165.198L312.911 166.604C312.71 167.107 312.71 167.71 312.911 168.212C313.112 168.715 313.514 169.117 314.117 169.418L316.126 170.222C316.629 170.423 317.232 170.423 317.734 170.222C318.237 170.021 318.638 169.619 318.94 169.016L319.543 167.609C319.643 167.408 319.844 167.308 320.045 167.308C321.251 167.509 322.557 167.509 323.763 167.308C323.964 167.308 324.165 167.408 324.266 167.609L324.869 169.016C325.371 170.121 326.577 170.624 327.682 170.222L329.692 169.418C330.797 168.916 331.3 167.71 330.898 166.604L330.295 165.198C330.194 164.997 330.295 164.695 330.496 164.595C331.501 163.791 332.405 162.886 333.108 161.982C333.209 161.781 333.51 161.781 333.711 161.781L335.118 162.384C335.62 162.585 336.223 162.585 336.726 162.384C337.228 162.183 337.63 161.781 337.932 161.178L338.735 159.169C338.936 158.666 338.936 158.063 338.735 157.561C338.535 157.058 338.133 156.656 337.53 156.355L336.123 155.752C335.922 155.652 335.821 155.451 335.821 155.25C336.022 154.044 336.022 152.738 335.821 151.532C335.821 151.331 335.922 151.13 336.123 151.029L337.53 150.426C338.635 149.924 339.137 148.718 338.735 147.613L337.932 145.603C337.731 145.101 337.329 144.699 336.726 144.397C336.223 144.196 335.62 144.196 335.118 144.397L333.711 145C333.51 145.101 333.209 145 333.108 144.799C332.304 143.794 331.4 142.89 330.496 142.187C330.295 142.086 330.295 141.785 330.295 141.584L330.898 140.177C331.099 139.674 331.099 139.072 330.898 138.569C330.697 138.067 330.295 137.665 329.692 137.363L327.682 136.559C326.577 136.057 325.27 136.66 324.869 137.765L324.266 139.172C324.165 139.373 323.964 139.473 323.763 139.473C322.557 139.272 321.251 139.272 320.045 139.473C319.844 139.473 319.643 139.373 319.543 139.172L318.94 137.765C318.739 137.263 318.337 136.861 317.734 136.559C317.232 136.358 316.629 136.358 316.126 136.559L314.117 137.363C313.614 137.564 313.212 137.966 312.911 138.569C312.71 139.072 312.71 139.674 312.911 140.177L313.514 141.584C313.614 141.785 313.514 142.086 313.313 142.187C312.308 142.99 311.404 143.895 310.7 144.799C310.6 145 310.298 145 310.097 145L308.69 144.397C307.585 143.895 306.279 144.498 305.877 145.603L305.073 147.613C304.872 148.115 304.872 148.718 305.073 149.221C305.274 149.723 305.676 150.125 306.279 150.426L307.686 151.029C307.887 151.13 307.987 151.331 307.987 151.532C307.786 152.738 307.786 154.044 307.987 155.25C307.987 155.451 307.887 155.652 307.686 155.752L306.279 156.355C305.776 156.556 305.374 156.958 305.073 157.561C304.872 158.063 304.872 158.666 305.073 159.169L305.877 161.178C306.379 162.284 307.585 162.786 308.69 162.384L310.097 161.781C310.198 161.781 310.298 161.781 310.298 161.781ZM321.954 163.791C317.835 163.791 313.916 161.379 312.308 157.36C311.203 154.747 311.203 151.934 312.308 149.321C313.413 146.708 315.423 144.699 317.935 143.694C323.261 141.483 329.39 143.995 331.601 149.321C333.812 154.647 331.3 160.776 325.974 162.987C324.668 163.489 323.361 163.791 321.954 163.791ZM321.954 143.895C320.749 143.895 319.543 144.096 318.337 144.598C316.026 145.603 314.217 147.412 313.212 149.723C312.207 152.034 312.207 154.647 313.212 156.958C315.222 161.781 320.749 164.092 325.572 162.083C330.395 160.073 332.706 154.546 330.697 149.723C329.189 146.105 325.672 143.895 321.954 143.895Z" fill="#36C3FE"/>
</g>
<defs>
<clipPath id="clip0">
<rect width="350" height="330.194" fill="white"/>
</clipPath>
</defs>
</svg>
