<svg width="350" height="353" viewBox="0 0 350 353" fill="none" xmlns="http://www.w3.org/2000/svg">
<g clip-path="url(#clip0)">
<path d="M234.737 341.984C234.737 341.984 222.104 351.095 174.217 351.976C136.514 352.662 118.495 341.592 118.495 341.592L120.355 322.098L209.177 305.641V291.24H213.486L224.748 290.75L231.603 287.322L229.84 285.362L218.676 270.668L214.857 274.587L212.115 275.664L209.275 275.566L125.252 277.819C125.154 270.57 125.741 260.872 125.448 253.525C124.762 233.835 122.216 218.651 120.845 196.315C119.082 167.612 124.762 160.069 124.762 159.776L138.766 155.171L143.565 160.265C143.565 160.265 140.137 157.914 138.276 160.853C136.22 164.086 140.725 168.102 140.725 168.102C140.725 168.102 138.178 168.2 137.199 169.67C136.807 170.257 137.199 172.413 137.199 172.413L156.1 187.107L161.975 192.201L179.211 173.588L172.65 164.38L184.107 159.776L192.333 154.682L198.209 149.196L199.678 150.077L226.119 158.698L223.867 164.086L221.125 173.588L220.537 183.678L221.712 193.768L225.336 211.793L180.288 172.511L160.408 194.062L230.036 285.558L235.129 289.673L234.737 341.984Z" fill="#36C3FE"/>
<path d="M311.122 260.97C310.828 260.97 310.632 260.774 310.632 260.48C310.632 253.525 305.05 247.941 298.097 247.941C297.804 247.941 297.608 247.745 297.608 247.451C297.608 247.157 297.804 246.961 298.097 246.961C305.05 246.961 310.632 241.378 310.632 234.422C310.632 234.128 310.828 233.932 311.122 233.932C311.416 233.932 311.612 234.128 311.612 234.422C311.612 241.378 317.292 246.961 324.147 246.961C324.44 246.961 324.636 247.157 324.636 247.451C324.636 247.745 324.44 247.941 324.147 247.941C317.194 247.941 311.612 253.525 311.612 260.48C311.612 260.774 311.416 260.97 311.122 260.97ZM301.721 247.451C306.323 248.725 309.849 252.349 311.122 256.856C312.395 252.251 316.018 248.725 320.523 247.451C315.92 246.178 312.395 242.553 311.122 238.047C309.849 242.553 306.323 246.178 301.721 247.451Z" fill="#F7B517"/>
<path d="M324.245 130.387C323.951 130.387 323.755 130.191 323.755 129.897C323.755 122.942 318.173 117.358 311.22 117.358C310.926 117.358 310.73 117.162 310.73 116.868C310.73 116.574 310.926 116.379 311.22 116.379C318.173 116.379 323.755 110.795 323.755 103.839C323.755 103.546 323.951 103.35 324.245 103.35C324.538 103.35 324.734 103.546 324.734 103.839C324.734 110.795 330.414 116.379 337.269 116.379C337.563 116.379 337.759 116.574 337.759 116.868C337.759 117.162 337.563 117.358 337.269 117.358C330.316 117.358 324.734 122.942 324.734 129.897C324.734 130.191 324.44 130.387 324.245 130.387ZM314.745 116.868C319.348 118.142 322.874 121.766 324.147 126.273C325.42 121.668 329.043 118.142 333.548 116.868C328.945 115.595 325.42 111.97 324.147 107.464C322.971 111.97 319.348 115.595 314.745 116.868Z" fill="#6591FE"/>
<path d="M135.535 27.0374C135.241 27.0374 135.045 26.8415 135.045 26.5476C135.045 19.5923 129.463 14.0085 122.51 14.0085C122.216 14.0085 122.02 13.8126 122.02 13.5187C122.02 13.2248 122.216 13.0289 122.51 13.0289C129.463 13.0289 135.045 7.44509 135.045 0.489808C135.045 0.195923 135.241 0 135.535 0C135.828 0 136.024 0.195923 136.024 0.489808C136.024 7.44509 141.606 13.0289 148.559 13.0289C148.853 13.0289 149.049 13.2248 149.049 13.5187C149.049 13.8126 148.853 14.0085 148.559 14.0085C141.606 14.0085 136.024 19.5923 136.024 26.5476C136.024 26.8415 135.828 27.0374 135.535 27.0374ZM126.133 13.5187C130.736 14.7922 134.261 18.4168 135.535 22.923C136.808 18.3188 140.431 14.7922 144.936 13.5187C140.333 12.2452 136.808 8.62063 135.535 4.11439C134.261 8.62063 130.638 12.2452 126.133 13.5187Z" fill="#6591FE"/>
<path d="M112.423 141.065C112.129 141.065 111.933 140.869 111.933 140.575C111.933 134.893 107.331 130.387 101.749 130.387C101.455 130.387 101.259 130.191 101.259 129.897C101.259 129.603 101.455 129.407 101.749 129.407C107.429 129.407 111.933 124.803 111.933 119.219C111.933 118.926 112.129 118.73 112.423 118.73C112.717 118.73 112.913 118.926 112.913 119.219C112.913 124.901 117.515 129.407 123.097 129.407C123.391 129.407 123.587 129.603 123.587 129.897C123.587 130.191 123.391 130.387 123.097 130.387C117.417 130.387 112.913 134.991 112.913 140.575C112.913 140.869 112.717 141.065 112.423 141.065ZM104.98 129.897C108.506 130.975 111.346 133.816 112.423 137.342C113.5 133.816 116.34 130.975 119.866 129.897C116.34 128.82 113.5 125.979 112.423 122.452C111.346 125.979 108.506 128.82 104.98 129.897Z" fill="#6059F7"/>
<path d="M217.599 146.747C217.305 146.747 217.11 146.551 217.11 146.257C217.11 140.575 212.507 136.069 206.925 136.069C206.631 136.069 206.435 135.873 206.435 135.579C206.435 135.285 206.631 135.089 206.925 135.089C212.605 135.089 217.11 130.485 217.11 124.901C217.11 124.607 217.305 124.411 217.599 124.411C217.893 124.411 218.089 124.607 218.089 124.901C218.089 130.583 222.692 135.089 228.274 135.089C228.567 135.089 228.763 135.285 228.763 135.579C228.763 135.873 228.567 136.069 228.274 136.069C222.594 136.069 218.089 140.673 218.089 146.257C218.089 146.453 217.893 146.747 217.599 146.747ZM210.157 135.481C213.682 136.559 216.522 139.4 217.599 142.926C218.676 139.4 221.516 136.559 225.042 135.481C221.516 134.403 218.676 131.563 217.599 128.036C216.522 131.661 213.78 134.403 210.157 135.481Z" fill="#36C3FE"/>
<path d="M38.878 253.721C38.5842 253.721 38.3884 253.525 38.3884 253.231C38.3884 243.631 30.6519 235.892 21.0548 235.892C20.761 235.892 20.5652 235.696 20.5652 235.402C20.5652 235.108 20.761 234.912 21.0548 234.912C30.6519 234.912 38.3884 227.173 38.3884 217.573C38.3884 217.279 38.5842 217.083 38.878 217.083C39.1718 217.083 39.3676 217.279 39.3676 217.573C39.3676 227.173 47.1041 234.912 56.7012 234.912C56.995 234.912 57.1908 235.108 57.1908 235.402C57.1908 235.696 56.995 235.892 56.7012 235.892C47.1041 235.892 39.3676 243.631 39.3676 253.231C39.3676 253.525 39.1718 253.721 38.878 253.721ZM25.2658 235.402C32.0229 236.969 37.3111 242.259 38.878 249.019C40.4449 242.259 45.7331 236.969 52.4902 235.402C45.7331 233.835 40.4449 228.545 38.878 221.785C37.3111 228.545 32.0229 233.835 25.2658 235.402Z" fill="#36C3FE"/>
<path d="M213.486 41.4378C213.193 41.4378 212.997 41.2419 212.997 40.948C212.997 31.3477 205.26 23.6088 195.663 23.6088C195.369 23.6088 195.174 23.4128 195.174 23.1189C195.174 22.8251 195.369 22.6291 195.663 22.6291C205.26 22.6291 212.997 14.8902 212.997 5.28992C212.997 4.99603 213.193 4.80011 213.486 4.80011C213.78 4.80011 213.976 4.99603 213.976 5.28992C213.976 14.8902 221.712 22.6291 231.31 22.6291C231.603 22.6291 231.799 22.8251 231.799 23.1189C231.799 23.4128 231.603 23.6088 231.31 23.6088C221.712 23.6088 213.976 31.3477 213.976 40.948C213.976 41.2419 213.78 41.4378 213.486 41.4378ZM199.874 23.1189C206.631 24.6863 211.92 29.9763 213.486 36.7356C215.053 29.9763 220.341 24.6863 227.099 23.1189C220.341 21.5516 215.053 16.2616 213.486 9.50227C211.92 16.2616 206.631 21.5516 199.874 23.1189Z" fill="#F7B517"/>
<path d="M134.065 46.3359C139.354 44.5726 145.034 43.1031 150.42 44.5726C154.827 45.7481 158.548 48.589 162.465 50.8421C166.382 53.0952 170.985 54.9565 175.392 53.9769C178.232 53.3891 180.974 52.2136 183.324 50.5482C185.576 49.0788 185.87 47.3155 190.571 47.9033C193.019 48.1971 193.509 52.8993 191.746 54.2708C193.411 53.8789 195.565 54.7606 196.055 56.4259C196.642 58.2872 195.271 60.4424 193.411 60.9322C196.447 60.8342 199.189 63.871 199.091 66.9078C198.993 70.2385 196.055 73.0794 192.823 73.8631C193.802 81.4062 194.292 91.1044 190.277 91.6921C183.618 92.6717 183.226 75.8223 183.226 75.8223C181.757 75.4305 180.582 74.9407 179.505 74.255L174.51 68.6711C173.139 66.2221 172.356 63.969 171.377 63.2832C169.124 61.7159 159.233 64.3608 150.909 69.063C141.312 74.5488 132.107 67.9854 126.231 75.1366C124.566 77.1938 123.979 79.4469 123.685 79.4469C123.489 79.4469 123.195 78.9571 123.097 77.8795C122.999 76.8999 123.195 75.4305 124.077 74.059C124.664 73.1774 125.448 72.4916 126.231 72.0998C124.958 71.7079 122.314 71.0222 120.649 69.6507C117.417 66.9078 117.613 65.4384 117.907 65.4384C118.201 65.3404 119.768 66.6139 122.706 69.063C122.804 69.1609 122.608 68.965 122.706 69.063C121.531 67.6915 120.551 66.1241 120.062 64.3608C118.788 59.8546 120.551 58.1892 122.999 54.1728C125.546 50.1564 134.065 46.3359 134.065 46.3359Z" fill="#6591FE"/>
<path d="M125.252 273.901C124.958 273.901 124.762 273.705 124.762 273.411L124.958 253.623C124.958 253.329 125.154 253.133 125.448 253.133C125.742 253.133 125.937 253.329 125.937 253.623L125.741 273.411C125.741 273.705 125.448 273.901 125.252 273.901Z" fill="#3D3D3D"/>
<path d="M118.985 337.968C118.985 337.968 118.887 337.968 118.985 337.968C118.691 337.968 118.495 337.674 118.495 337.478L119.278 327.682C119.278 327.388 119.572 327.192 119.768 327.192C120.062 327.192 120.258 327.486 120.258 327.682L119.474 337.478C119.376 337.772 119.18 337.968 118.985 337.968Z" fill="#3D3D3D"/>
<path d="M235.031 337.968C234.737 337.968 234.541 337.772 234.541 337.478V299.665C234.541 299.371 234.737 299.175 235.031 299.175C235.325 299.175 235.521 299.371 235.521 299.665V337.478C235.521 337.674 235.227 337.968 235.031 337.968Z" fill="#3D3D3D"/>
<path d="M282.233 245.982C282.037 245.982 281.841 245.884 281.743 245.688C275.868 232.463 264.899 207.483 258.24 189.654C253.54 177.115 246.391 169.866 241.103 165.947C235.423 161.735 230.722 160.461 230.722 160.363C218.089 156.053 208.198 152.624 199.483 150.469C199.189 150.371 199.091 150.175 199.091 149.881C199.189 149.587 199.385 149.49 199.678 149.49C208.394 151.743 218.285 155.073 230.918 159.384C231.114 159.384 250.014 164.772 259.122 189.262C265.781 207.091 276.651 231.973 282.527 245.198C282.625 245.492 282.527 245.688 282.233 245.884C282.331 245.982 282.233 245.982 282.233 245.982Z" fill="#3D3D3D"/>
<path d="M72.37 271.06H72.2721C71.9783 270.962 71.8804 270.766 71.8804 270.472L85.3946 205.818C85.4926 205.524 93.0331 176.919 117.026 163.008C119.474 161.637 121.922 160.363 124.566 159.384L126.721 158.698C126.721 158.698 127.504 158.502 128.19 158.208C128.875 158.012 129.463 157.816 129.561 157.816C130.736 157.326 135.73 155.759 137.003 155.367C137.297 155.269 137.493 155.465 137.591 155.661C137.689 155.955 137.493 156.151 137.297 156.249C136.024 156.641 131.128 158.208 129.855 158.698C129.855 158.698 129.169 158.894 128.386 159.09C127.7 159.286 126.917 159.482 126.917 159.58L124.86 160.265C122.314 161.245 119.866 162.42 117.516 163.792C93.8166 177.507 86.4719 205.72 86.3739 206.013L72.8597 270.668C72.8597 270.962 72.5659 271.06 72.37 271.06Z" fill="#3D3D3D"/>
<path d="M220.929 291.73H213.486C213.192 291.73 212.997 291.534 212.997 291.24C212.997 290.946 213.192 290.75 213.486 290.75H220.929C224.356 290.75 227.784 289.575 230.428 287.42C230.624 287.224 230.918 287.322 231.114 287.518C231.309 287.713 231.211 288.007 231.016 288.203C228.176 290.456 224.552 291.73 220.929 291.73Z" fill="#3D3D3D"/>
<path d="M212.115 276.154C211.919 276.154 211.724 275.958 211.626 275.762C211.528 275.468 211.723 275.272 212.017 275.174C213.486 274.88 214.857 274.195 215.934 273.019L217.305 271.55C217.501 271.354 217.795 271.354 217.991 271.55C218.187 271.746 218.187 272.04 217.991 272.235L216.62 273.705C215.445 274.978 213.878 275.86 212.115 276.154C212.213 276.154 212.115 276.154 212.115 276.154Z" fill="#3D3D3D"/>
<path d="M119.082 278.603C118.984 278.603 118.788 278.505 118.69 278.407C118.593 278.309 118.593 278.113 118.593 278.015L120.061 267.435C120.061 267.142 120.355 266.946 120.649 267.044C120.943 267.044 121.139 267.337 121.041 267.631L119.572 277.623L127.014 277.428C127.21 277.428 127.504 277.623 127.504 277.917C127.504 278.211 127.308 278.407 127.014 278.407L119.082 278.603C119.18 278.603 119.082 278.603 119.082 278.603Z" fill="#3D3D3D"/>
<path d="M110.758 323.763C108.016 323.763 105.372 323.469 102.728 322.784C84.807 318.18 71.5865 302.212 70.6072 283.893C70.6072 283.599 70.803 283.403 71.0968 283.403C71.3906 283.403 71.5865 283.599 71.5865 283.893C72.5658 301.82 85.4925 317.396 103.022 321.902C107.722 323.078 112.815 323.176 117.711 322.098C126.231 320.335 146.992 315.926 155.218 314.457C171.181 311.616 204.673 305.934 208.786 305.249V276.056L154.043 277.623C153.749 277.623 153.553 277.428 153.553 277.134C153.553 276.84 153.749 276.644 154.043 276.644L209.275 275.076C209.373 275.076 209.569 275.076 209.667 275.174C209.765 275.272 209.863 275.37 209.863 275.566V305.64C209.863 305.836 209.667 306.13 209.471 306.13C209.079 306.228 172.356 312.4 155.512 315.437C147.384 316.906 126.623 321.216 118.103 323.078C115.557 323.567 113.109 323.763 110.758 323.763Z" fill="#3D3D3D"/>
<path d="M166.48 138.322C166.284 138.322 166.186 138.322 166.089 138.322C165.795 138.322 165.599 138.028 165.599 137.832C165.599 137.538 165.893 137.342 166.089 137.342C168.928 137.538 176.469 134.697 178.036 132.836C178.232 132.64 178.526 132.64 178.721 132.738C178.917 132.934 178.917 133.228 178.819 133.424C177.155 135.579 169.908 138.322 166.48 138.322Z" fill="#3D3D3D"/>
<path d="M154.925 138.91C151.889 138.91 144.25 138.224 138.472 134.012C134.555 131.171 132.303 127.252 131.617 122.354C129.953 110.893 128.484 88.7533 127.798 76.606C127.798 76.3121 127.994 76.1162 128.288 76.1162C128.582 76.1162 128.777 76.3121 128.777 76.606C129.561 88.7533 131.03 110.893 132.597 122.256C133.282 126.86 135.437 130.583 139.06 133.228C145.719 138.126 154.925 138.028 156.002 137.93C156.296 137.832 156.491 138.028 156.589 138.322C156.589 138.616 156.491 138.812 156.198 138.91C155.904 138.91 155.512 138.91 154.925 138.91Z" fill="#3D3D3D"/>
<path d="M192.334 142.24C192.04 142.24 191.844 142.044 191.844 141.751L189.2 93.9453C189.2 93.6514 189.396 93.4554 189.69 93.4554C189.983 93.4554 190.179 93.6514 190.179 93.9453L192.823 141.751C192.823 142.044 192.627 142.24 192.334 142.24Z" fill="#3D3D3D"/>
<path d="M144.544 112.166C144.348 112.166 144.25 112.166 144.054 112.166C143.565 112.068 142.879 111.774 142.585 111.088C142.194 110.109 142.291 109.325 142.487 108.639C142.487 108.541 142.585 108.444 142.585 108.248L143.662 103.35C145.033 97.4718 146.6 92.9656 147.09 91.4962C147.188 91.3002 147.188 91.1043 147.188 91.1043C147.286 90.8104 147.482 90.7125 147.775 90.8104C148.069 90.9084 148.167 91.2023 148.069 91.3982C148.069 91.4962 147.971 91.5941 147.873 91.888C147.384 93.3574 145.817 97.8637 144.446 103.643L143.369 108.444C143.369 108.541 143.369 108.639 143.271 108.835C143.173 109.423 142.977 110.011 143.271 110.697C143.369 110.991 143.76 111.186 144.054 111.186C144.348 111.284 144.642 111.186 144.838 111.186H144.936C147.09 110.991 148.265 110.697 148.461 110.599C148.657 110.501 148.951 110.501 149.147 110.795C149.244 110.991 149.244 111.382 148.951 111.48C148.657 111.676 146.894 111.97 145.033 112.166H144.936C144.838 112.166 144.642 112.166 144.544 112.166Z" fill="#3D3D3D"/>
<path d="M192.725 103.35C192.431 103.35 192.236 103.154 192.236 102.86C192.236 102.566 192.431 102.37 192.725 102.37C194.194 102.272 196.838 101.684 198.503 99.7249C199.776 98.1576 200.364 95.9044 200.07 93.0635C199.776 89.5369 198.405 87.3818 196.153 86.5001C195.859 86.4022 195.761 86.1083 195.859 85.8144C195.957 85.5205 196.251 85.4225 196.544 85.5205C199.189 86.5981 200.658 89.0471 201.049 92.9656C201.343 96.1004 200.755 98.5494 199.287 100.313C197.328 102.664 194.39 103.252 192.725 103.35Z" fill="#3D3D3D"/>
<path d="M194.488 99.4311C193.998 99.4311 193.509 99.2352 193.215 99.0393C193.019 98.9413 192.921 98.5495 193.019 98.3535C193.117 98.1576 193.509 98.0596 193.705 98.1576C193.998 98.3535 194.488 98.4515 195.076 98.2556C196.349 97.7658 197.23 95.7086 197.132 93.6514C197.034 92.6718 196.74 91.5942 196.251 90.8105C195.761 90.0268 194.978 89.439 194.488 89.537C194.194 89.537 193.998 89.3411 193.998 89.0472C193.998 88.7533 194.194 88.5574 194.488 88.5574C195.663 88.5574 196.643 89.537 197.132 90.3207C197.72 91.3003 198.111 92.3779 198.209 93.5534C198.405 96.1004 197.23 98.4515 195.565 99.1372C195.174 99.3331 194.782 99.4311 194.488 99.4311Z" fill="#3D3D3D"/>
<path d="M189.689 92.3779C188.71 92.3779 187.829 92.084 187.045 91.3983C183.324 88.2635 182.736 78.4673 182.736 76.3122C181.463 76.0183 180.288 75.4305 179.309 74.8427C179.113 74.7448 179.015 74.3529 179.113 74.157C179.211 73.9611 179.603 73.8631 179.799 73.9611C180.876 74.6468 182.051 75.1366 183.324 75.4305C183.52 75.5285 183.716 75.6264 183.716 75.9203C183.716 76.0183 184.009 87.4798 187.731 90.6146C188.514 91.2023 189.298 91.4962 190.179 91.3003C192.921 90.9084 193.705 84.5409 192.333 73.9611C192.333 73.6672 192.431 73.4713 192.725 73.3733C195.957 72.5896 198.503 69.8467 198.601 66.9078C198.699 65.5364 198.013 64.0669 196.936 62.8914C195.957 61.9118 194.684 61.324 193.411 61.422C193.215 61.422 192.921 61.226 192.921 61.0301C192.921 60.7362 193.019 60.5403 193.313 60.4424C194.096 60.2464 194.88 59.6587 195.271 58.875C195.663 58.0913 195.761 57.3076 195.565 56.6218C195.076 55.2504 193.313 54.3687 191.844 54.7606C191.648 54.8585 191.354 54.6626 191.256 54.4667C191.158 54.2708 191.256 53.9769 191.354 53.8789C192.04 53.3891 192.431 52.4095 192.431 51.3319C192.431 50.0584 191.942 48.9808 191.158 48.2951C188.612 46.2379 184.891 47.4134 183.422 48.0012C182.443 48.3931 181.561 48.8829 180.582 49.2747C178.917 50.0584 177.154 50.9401 175.294 51.3319C171.475 52.1156 167.264 51.136 162.073 48.0992C161.094 47.5114 160.213 46.9236 159.233 46.3359C156.393 44.5726 153.358 42.7113 150.126 41.8296C144.25 40.1643 138.178 41.8296 134.163 43.5929C133.87 43.6909 133.674 43.5929 133.478 43.2991C133.38 43.0052 133.478 42.8092 133.772 42.6133C137.983 40.85 144.25 39.0867 150.42 40.85C153.847 41.8296 156.785 43.6909 159.723 45.4542C160.702 46.042 161.584 46.6298 162.563 47.1196C167.557 50.0584 171.572 51.038 175.098 50.2543C176.861 49.8625 178.428 49.0788 180.092 48.1971C180.974 47.7073 181.953 47.2175 182.932 46.8257C184.597 46.1399 188.71 44.8664 191.648 47.2175C192.725 48.0992 193.313 49.4706 193.313 51.038C193.313 51.9197 193.117 52.7034 192.725 53.3891C194.39 53.4871 195.859 54.5647 196.349 56.0341C196.642 57.0137 196.544 58.0913 195.957 59.0709C195.663 59.5607 195.271 60.0505 194.88 60.4424C195.859 60.7362 196.74 61.226 197.426 62.0097C198.699 63.2832 199.384 65.0466 199.384 66.7119C199.286 69.9446 196.642 72.9815 193.117 73.9611C194.586 85.4226 193.607 91.3983 190.081 91.986C190.081 92.3779 189.885 92.3779 189.689 92.3779Z" fill="#3D3D3D"/>
<path d="M123.587 80.2306C123.489 80.2306 123.293 80.1326 123.195 80.1326C122.804 79.8388 122.608 78.9571 122.51 78.2714C122.412 76.8999 122.804 75.4305 123.587 74.157C123.979 73.5692 124.468 73.0794 124.958 72.5896C123.489 72.0998 121.531 71.4141 120.16 70.2385C117.613 68.0834 116.928 66.418 117.124 65.6343C117.222 65.3404 117.32 65.2425 117.613 65.1445C118.005 65.0465 118.495 65.2425 120.257 66.6139C119.964 65.9282 119.67 65.3404 119.474 64.6547C118.299 60.3444 119.376 55.2504 122.51 51.136C123.587 49.6666 124.958 48.2951 126.623 47.0216C126.819 46.8257 127.113 46.9236 127.308 47.1196C127.504 47.3155 127.406 47.6094 127.21 47.8053C125.644 48.9808 124.37 50.3523 123.293 51.7238C120.355 55.5443 119.376 60.3444 120.453 64.3608C120.943 66.0262 121.824 67.4956 122.999 68.8671C123.097 68.965 123.097 69.063 123.195 69.1609C123.195 69.2589 123.195 69.4548 123.097 69.5528C122.902 69.7487 122.608 69.7487 122.412 69.5528C120.747 68.1813 119.082 66.8099 118.299 66.32C118.495 66.9078 119.18 67.9854 120.943 69.5528C122.412 70.8263 125.056 71.61 126.329 71.9039C126.525 72.0018 126.721 72.0998 126.721 72.2957C126.721 72.4916 126.623 72.6876 126.525 72.7855C125.937 73.0794 125.154 73.6672 124.566 74.6468C123.587 76.2142 123.587 77.6836 123.685 78.0754C123.685 78.2714 123.783 78.4673 123.783 78.6632C123.783 78.5653 123.783 78.5653 123.881 78.4673C124.273 77.5856 124.86 76.2142 125.937 74.9407C129.267 70.9242 133.576 71.0222 138.081 71.1202C142.194 71.2181 146.405 71.2181 150.811 68.7691C159.233 63.969 169.222 61.226 171.768 62.9894C172.552 63.5771 173.139 64.7527 173.923 66.32C174.217 67.0058 174.608 67.7895 175.098 68.5732C175.196 68.7691 175.098 69.063 174.902 69.2589C174.706 69.3569 174.412 69.2589 174.217 69.063C173.727 68.2793 173.335 67.4956 173.041 66.8099C172.356 65.4384 171.768 64.2628 171.181 63.871C169.222 62.4995 159.625 64.8506 151.203 69.6507C146.6 72.2957 141.998 72.1977 137.983 72.0998C133.478 72.0018 129.561 72.0018 126.623 75.6264C125.644 76.8019 125.056 78.0754 124.664 78.9571C124.273 79.7408 124.077 80.1326 123.587 80.2306C123.685 80.2306 123.587 80.2306 123.587 80.2306Z" fill="#3D3D3D"/>
<path d="M136.122 95.6106C134.555 95.6106 133.282 94.4351 133.086 92.9657C132.988 92.2799 133.184 91.5942 133.576 91.1044C134.066 90.4186 134.947 89.9288 135.828 89.8309C136.612 89.7329 137.297 90.0268 137.885 90.4187C138.57 90.9085 138.962 91.6922 139.06 92.4758C139.158 93.2595 138.864 93.9453 138.374 94.533C137.885 95.1208 137.101 95.5126 136.318 95.6106C136.318 95.6106 136.22 95.6106 136.122 95.6106ZM136.122 90.8105C136.024 90.8105 136.024 90.8105 135.926 90.8105C135.339 90.8105 134.751 91.2023 134.457 91.6921C134.163 92.084 134.066 92.4758 134.163 92.9657C134.261 94.0432 135.241 94.8269 136.416 94.729C137.003 94.729 137.493 94.4351 137.787 94.0432C138.081 93.6514 138.277 93.1616 138.179 92.6718C138.081 92.182 137.885 91.5942 137.395 91.3003C137.003 91.0064 136.514 90.8105 136.122 90.8105Z" fill="#3D3D3D"/>
<path d="M160.604 92.2799C160.409 92.2799 160.213 92.2799 159.919 92.182C158.254 91.7901 157.275 90.3207 157.569 88.7533C157.667 87.9696 158.156 87.3818 158.744 86.99C159.429 86.5002 160.213 86.4022 160.996 86.5981C162.661 86.99 163.64 88.4594 163.346 90.0268C163.249 90.8105 162.759 91.3983 162.171 91.7901C161.682 92.084 161.094 92.2799 160.604 92.2799ZM158.45 88.9492C158.254 90.0268 158.94 91.0064 160.115 91.3003C160.702 91.3983 161.192 91.3003 161.682 91.0064C162.073 90.7125 162.367 90.3207 162.465 89.8309C162.661 88.7533 161.975 87.7737 160.8 87.4798C160.213 87.3818 159.723 87.4798 159.233 87.7737C158.842 88.0676 158.548 88.4594 158.45 88.9492Z" fill="#3D3D3D"/>
<path d="M156.1 187.597C156.002 187.597 155.904 187.597 155.806 187.499L137.591 173.098C136.514 172.217 136.122 170.747 136.807 169.474C137.199 168.788 137.787 168.2 138.57 168.004C139.158 167.808 139.745 167.808 140.333 168.004L138.178 165.653C137.101 164.478 136.807 162.714 137.493 161.245C138.374 159.58 140.333 158.698 142.096 159.188L139.745 157.229C138.276 156.249 137.689 154.388 138.276 152.624C138.962 150.567 141.214 149.392 143.271 150.077L148.657 151.743L137.101 141.261C136.807 140.967 133.772 138.616 133.87 136.461C133.87 135.775 134.261 135.187 134.849 134.697C136.318 133.62 149.342 142.044 157.666 147.628C157.568 146.551 157.471 144.591 157.96 141.261C158.254 139.302 158.939 137.832 160.213 136.95C162.073 135.677 164.326 136.167 164.424 136.167C164.619 136.265 164.815 136.461 164.815 136.657V149.685C164.815 152.037 167.263 156.445 171.377 161.637C173.139 163.792 175.294 166.829 176.861 168.984C177.056 169.18 176.959 169.474 176.763 169.67C176.567 169.866 176.273 169.768 176.077 169.572C174.51 167.417 172.258 164.38 170.593 162.225C166.284 156.837 163.836 152.232 163.836 149.685V137.048C163.15 136.95 161.877 136.95 160.702 137.734C159.723 138.42 159.037 139.693 158.842 141.359C158.156 146.943 158.744 148.412 158.842 148.412C158.939 148.608 158.842 148.804 158.744 149C158.548 149.098 158.352 149.196 158.156 149C148.167 142.24 136.807 135.187 135.436 135.481C135.143 135.677 134.947 135.971 134.947 136.363C134.947 137.734 137.003 139.791 137.885 140.379L151.203 152.33C151.399 152.526 151.399 152.722 151.301 152.918C151.203 153.114 150.909 153.212 150.713 153.114L143.173 150.763C141.606 150.273 139.941 151.155 139.354 152.722C138.962 153.996 139.354 155.465 140.529 156.151L145.033 160.069C145.229 160.265 145.229 160.461 145.131 160.657C145.033 160.853 144.74 160.951 144.544 160.853L142.291 159.971C140.92 159.384 139.256 159.971 138.57 161.343C137.983 162.42 138.178 163.792 139.06 164.674L143.173 168.984C143.369 169.18 143.369 169.474 143.173 169.572C143.075 169.768 142.781 169.866 142.585 169.67L140.725 168.69C140.235 168.396 139.745 168.396 139.158 168.592C138.668 168.788 138.276 169.082 137.983 169.572C137.591 170.355 137.787 171.433 138.57 172.021L156.687 186.421C156.883 186.617 156.981 186.911 156.785 187.107C156.393 187.499 156.197 187.597 156.1 187.597Z" fill="#3D3D3D"/>
<path d="M255.694 296.922C244.628 296.922 233.66 291.73 226.609 282.326L159.919 194.16C159.821 193.964 159.821 193.67 159.919 193.572L179.799 172.021C179.994 171.825 180.288 171.825 180.484 172.021C180.778 172.315 213.095 201.507 225.532 211.303C225.728 211.499 225.825 211.793 225.63 211.989C225.434 212.185 225.14 212.283 224.944 212.087C213.193 202.781 183.814 176.331 180.19 173.098L160.898 193.964L227.392 281.738C237.479 295.061 255.596 299.665 270.383 292.612C282.233 286.93 286.933 276.448 284.289 261.362C283.506 256.856 281.058 252.839 277.434 249.9C277.238 249.802 256.771 235.5 240.907 223.94C240.711 223.744 240.613 223.451 240.809 223.255C241.005 223.059 241.298 222.961 241.494 223.157C257.457 234.716 277.826 249.019 278.022 249.117C281.841 252.153 284.387 256.464 285.269 261.166C287.913 276.742 283.016 287.616 270.775 293.493C265.977 295.844 260.884 296.922 255.694 296.922Z" fill="#3D3D3D"/>
<path d="M156.002 82.5817C155.806 82.5817 155.708 82.4837 155.61 82.3857C155.512 82.1898 155.512 81.8959 155.806 81.7C159.821 79.153 165.109 78.6632 169.516 80.3285C169.81 80.4265 169.908 80.7204 169.81 80.9163C169.712 81.2102 169.418 81.3082 169.222 81.2102C165.109 79.6428 160.115 80.0346 156.394 82.4837C156.198 82.5817 156.1 82.5817 156.002 82.5817Z" fill="#3D3D3D"/>
<path d="M150.615 121.962C149.147 121.962 147.678 121.766 146.209 121.375C145.915 121.277 145.817 121.081 145.817 120.787C145.915 120.493 146.111 120.395 146.404 120.395C152.084 121.864 158.548 120.199 162.759 115.987C162.955 115.791 163.248 115.791 163.444 115.987C163.64 116.183 163.64 116.476 163.444 116.672C160.017 120.101 155.316 121.962 150.615 121.962Z" fill="#3D3D3D"/>
<path d="M154.631 124.803C154.337 124.803 154.141 124.803 153.847 124.803C153.553 124.803 153.357 124.509 153.455 124.215C153.455 123.922 153.749 123.726 154.043 123.824C156.002 124.02 158.156 123.334 159.527 121.864C159.723 121.668 160.017 121.668 160.213 121.864C160.408 122.06 160.408 122.354 160.213 122.55C158.744 123.922 156.687 124.803 154.631 124.803Z" fill="#3D3D3D"/>
<path d="M131.519 91.2023C131.323 91.2023 131.225 91.1044 131.128 90.9084C131.03 90.7125 131.128 90.4186 131.323 90.2227C134.261 88.6553 137.983 88.5574 140.92 90.0268C141.116 90.1248 141.312 90.4186 141.116 90.7125C141.018 90.9084 140.725 91.1044 140.431 90.9084C137.689 89.6349 134.359 89.6349 131.715 91.1044C131.715 91.2023 131.617 91.2023 131.519 91.2023Z" fill="#3D3D3D"/>
<path d="M165.795 88.0676C165.697 88.0676 165.599 88.0676 165.501 87.9696C162.759 86.2063 158.94 86.0104 156.1 87.6757C155.904 87.7737 155.61 87.7737 155.414 87.4798C155.316 87.2839 155.316 86.99 155.61 86.7941C158.744 84.9328 162.955 85.1287 165.99 87.088C166.186 87.2839 166.284 87.5778 166.088 87.7737C166.088 87.9696 165.893 88.0676 165.795 88.0676Z" fill="#3D3D3D"/>
<path d="M221.615 194.16C221.419 194.16 221.223 193.964 221.125 193.768C218.873 182.992 220.048 171.531 224.357 161.441C224.455 161.147 224.748 161.049 225.042 161.147C225.336 161.245 225.434 161.539 225.336 161.833C221.125 171.727 219.95 182.992 222.202 193.572C222.3 193.866 222.104 194.062 221.81 194.16C221.615 194.16 221.615 194.16 221.615 194.16Z" fill="#3D3D3D"/>
<path d="M271.167 235.892C271.069 235.892 270.971 235.892 270.971 235.794C268.033 234.324 264.606 233.932 261.472 234.912C261.178 235.01 260.982 234.814 260.884 234.618C260.786 234.422 260.982 234.128 261.178 234.03C264.606 233.051 268.327 233.443 271.461 235.01C271.656 235.108 271.754 235.402 271.656 235.696C271.559 235.794 271.363 235.892 271.167 235.892Z" fill="#3D3D3D"/>
<path d="M142.487 83.9532C142.389 83.9532 142.292 83.9532 142.194 83.8552C138.766 81.798 134.359 81.7001 130.834 83.5613C130.638 83.6593 130.344 83.5613 130.148 83.3654C130.05 83.1695 130.148 82.8756 130.344 82.6797C134.163 80.6225 138.962 80.7204 142.585 82.9736C142.781 83.0715 142.879 83.3654 142.781 83.6593C142.781 83.8552 142.683 83.9532 142.487 83.9532Z" fill="#3D3D3D"/>
<path d="M115.165 277.33C115.067 277.33 114.871 277.232 114.773 277.134C109.877 271.06 102.043 267.337 94.3061 267.337H94.2082C93.9144 267.337 93.7185 267.141 93.7185 266.848C93.7185 266.554 94.0123 266.358 94.3061 266.358C102.336 266.358 110.464 270.276 115.557 276.546C115.753 276.742 115.655 277.036 115.459 277.232C115.361 277.33 115.263 277.33 115.165 277.33Z" fill="#3D3D3D"/>
<path d="M117.418 278.897C117.418 278.897 117.32 278.897 117.418 278.897C110.954 277.819 104.491 277.623 98.0275 278.309C97.7337 278.309 97.5379 278.113 97.4399 277.917C97.4399 277.623 97.6358 277.428 97.8317 277.33C104.393 276.644 110.954 276.84 117.418 277.917C117.711 277.917 117.907 278.211 117.809 278.505C117.809 278.701 117.613 278.897 117.418 278.897Z" fill="#3D3D3D"/>
<path d="M48.1813 201.899C21.6424 201.899 0 180.25 0 153.702C0 127.154 21.6424 105.505 48.1813 105.505C67.0817 105.505 84.3173 116.672 92.1517 133.816C92.2496 134.11 92.1517 134.306 91.9558 134.501C91.7599 134.599 91.4661 134.501 91.2703 134.306C83.6318 117.456 66.7879 106.582 48.2792 106.582C22.23 106.582 1.07722 127.742 1.07722 153.8C1.07722 179.858 22.1321 200.919 48.1813 200.919C65.5148 200.919 81.3794 191.515 89.7034 176.233C89.8013 176.037 90.0951 175.939 90.3889 176.037C90.5848 176.135 90.6827 176.429 90.5848 176.723C82.0649 192.299 65.8086 201.899 48.1813 201.899Z" fill="#6591FE"/>
<path d="M91.9558 103.741C89.6054 103.741 87.1572 103.546 84.8069 103.154C61.2059 99.1372 45.2434 76.704 49.2585 53.0952C53.2736 29.4865 75.6995 13.5187 99.3005 17.5351C107.527 18.9066 115.165 22.6291 121.335 28.213C121.53 28.4089 121.628 28.8007 121.335 28.9966C121.139 29.1926 120.747 29.2905 120.551 28.9966C114.577 23.5108 107.135 19.9842 99.2025 18.6127C76.1891 14.6942 54.3508 30.2702 50.5316 53.2912C46.6144 76.3121 62.1852 98.1576 85.1986 101.978C96.8522 103.937 108.408 101.096 117.809 93.9453C118.103 93.7493 118.397 93.7493 118.593 94.0432C118.788 94.3371 118.691 94.631 118.495 94.8269C110.66 100.607 101.357 103.741 91.9558 103.741Z" fill="#F7B517"/>
<path d="M17.5295 150.567C17.5295 152.232 16.2564 153.505 14.4937 153.701C14.4937 153.701 14.3958 153.701 11.8496 153.701V157.62C11.8496 158.012 11.4579 158.403 11.0662 158.403C10.6744 158.403 10.2827 158.012 10.2827 157.62V148.215C10.2827 147.824 10.6744 147.432 11.0662 147.432C11.0662 147.432 13.3185 147.432 14.4937 147.432C16.1585 147.53 17.5295 148.901 17.5295 150.567ZM14.3958 152.134C15.2771 152.134 15.9626 151.448 16.0606 150.567C16.0606 149.685 15.2771 148.999 14.3958 148.999H11.9475V152.134H14.3958Z" fill="#6591FE" stroke="#6591FE" stroke-width="0.6669" stroke-miterlimit="10"/>
<path d="M27.1266 157.62C27.1266 158.012 26.7349 158.404 26.3431 158.404H20.957C20.5653 158.404 20.1736 158.012 20.1736 157.62V148.216C20.1736 147.824 20.5653 147.432 20.957 147.432C21.3487 147.432 21.7405 147.824 21.7405 148.216V156.837H26.4411C26.7349 156.837 27.1266 157.229 27.1266 157.62Z" fill="#6591FE" stroke="#6591FE" stroke-width="0.6669" stroke-miterlimit="10"/>
<path d="M37.2133 158.404C36.8216 158.502 36.3319 158.306 36.1361 157.816L35.5485 156.249H31.7293L31.0437 157.816C30.9458 158.208 30.652 158.404 30.2603 158.404C30.1624 158.404 30.1624 158.404 30.0645 158.404C29.5748 158.208 29.3789 157.718 29.4769 157.327L32.8065 148.02C32.9044 147.726 33.1982 147.432 33.5899 147.432C33.9816 147.432 34.2754 147.726 34.3733 148.02L37.5071 157.327C37.8009 157.718 37.703 158.208 37.2133 158.404ZM35.1568 154.682L33.7858 150.665L32.4148 154.682H35.1568Z" fill="#6591FE" stroke="#6591FE" stroke-width="0.6669" stroke-miterlimit="10"/>
<path d="M38.6824 147.432H44.9499C45.3416 147.432 45.7333 147.824 45.7333 148.216C45.7333 148.608 45.3416 149 44.9499 149H42.5995V157.718C42.5995 158.11 42.2078 158.502 41.8161 158.502C41.4244 158.502 41.0327 158.11 41.0327 157.718V149H38.6824C38.2906 149 37.8989 148.608 37.8989 148.216C37.8989 147.726 38.2906 147.432 38.6824 147.432Z" fill="#6591FE" stroke="#6591FE" stroke-width="0.6669" stroke-miterlimit="10"/>
<path d="M48.2793 157.62V148.118C48.2793 147.726 48.671 147.334 49.0627 147.334C49.4545 147.334 49.8462 147.726 49.8462 148.118V157.62C49.8462 158.012 49.4545 158.404 49.0627 158.404C48.671 158.404 48.2793 158.11 48.2793 157.62Z" fill="#6591FE" stroke="#6591FE" stroke-width="0.6669" stroke-miterlimit="10"/>
<path d="M60.2267 158.306C60.1287 158.404 59.9329 158.404 59.8349 158.404C59.5412 158.404 59.3453 158.306 59.1494 158.012L54.0571 150.665V157.62C54.0571 158.012 53.6654 158.404 53.2737 158.404C52.882 158.404 52.4902 158.012 52.4902 157.62V148.216C52.4902 147.922 52.5882 147.628 52.882 147.432C53.2737 147.236 53.7633 147.334 53.9592 147.628L59.0515 155.171V148.02C59.0515 147.628 59.4432 147.236 59.8349 147.236C60.2267 147.236 60.6184 147.628 60.6184 148.02V157.424C60.6184 157.816 60.4225 158.11 60.2267 158.306Z" fill="#6591FE" stroke="#6591FE" stroke-width="0.6669" stroke-miterlimit="10"/>
<path d="M62.9688 154.486V148.314C62.9688 147.922 63.3605 147.53 63.7522 147.53C64.1439 147.53 64.5356 147.922 64.5356 148.314V154.486C64.5356 155.759 65.6128 156.837 66.8859 156.837C68.159 156.837 69.2362 155.759 69.2362 154.486V148.314C69.2362 147.922 69.628 147.53 70.0197 147.53C70.4114 147.53 70.8031 147.922 70.8031 148.314V154.486C70.8031 156.641 69.0404 158.404 66.8859 158.404C64.7315 158.404 62.9688 156.641 62.9688 154.486Z" fill="#6591FE" stroke="#6591FE" stroke-width="0.6669" stroke-miterlimit="10"/>
<path d="M83.1422 157.718L81.7712 151.155L79.323 157.816C79.225 158.11 78.9312 158.404 78.5395 158.404C78.1478 158.404 77.854 158.208 77.7561 157.816L75.6016 151.449L74.4265 157.718C74.3286 158.11 73.9368 158.404 73.5451 158.404C73.1534 158.306 72.8596 157.914 72.8596 157.522L74.4265 148.118C74.5244 147.726 74.8182 147.53 75.2099 147.432C75.6016 147.432 75.8954 147.628 75.9934 148.02L78.5395 155.171L81.1836 148.02C81.2816 147.628 81.5753 147.432 81.9671 147.432C82.3588 147.432 82.6526 147.726 82.7505 148.118L84.7091 157.522C84.807 157.914 84.5132 158.306 84.1215 158.404C84.1215 158.404 84.0236 158.404 83.9256 158.404C83.6319 158.404 83.2401 158.11 83.1422 157.718Z" fill="#6591FE" stroke="#6591FE" stroke-width="0.6669" stroke-miterlimit="10"/>
<path d="M259.611 127.644C245.999 127.644 232.876 121.668 223.965 110.991C215.935 101.488 212.115 89.3411 213.193 76.9979C214.27 64.5567 220.146 53.3891 229.645 45.3563C249.329 28.8007 278.805 31.3477 295.257 51.038C307.009 65.0466 309.555 84.7369 301.623 101.194C301.427 101.488 301.133 101.684 300.742 101.488C300.448 101.292 300.252 100.999 300.448 100.607C308.086 84.5409 305.736 65.4384 294.278 51.8217C286.444 42.5154 275.574 36.8336 263.528 35.854C251.483 34.7764 239.731 38.4989 230.428 46.3359C221.125 54.1728 215.445 65.0466 214.466 77.0958C213.388 89.1451 217.11 100.901 224.944 110.207C235.618 122.942 252.364 128.82 268.719 125.489C269.012 125.391 269.404 125.685 269.502 125.979C269.6 126.273 269.306 126.664 269.012 126.762C265.879 127.35 262.745 127.644 259.611 127.644Z" fill="#6059F7"/>
<path d="M242.278 81.0148C242.278 81.4067 242.082 82.3863 241.298 83.072C240.907 83.4639 240.123 83.9537 238.948 83.9537H238.85C237.871 83.9537 236.989 83.6598 236.402 83.17C235.814 82.7782 235.521 82.2884 235.423 82.0924C235.325 81.9945 235.325 81.7985 235.325 81.7006C235.325 81.3087 235.716 80.9169 236.108 80.9169C236.402 80.9169 236.696 81.1128 236.794 81.4067C236.892 81.5047 236.989 81.7985 237.381 81.9945C237.773 82.2883 238.361 82.3863 239.046 82.4843C240.809 82.4843 240.907 81.0148 240.907 81.0148C240.907 80.623 240.711 80.2312 240.319 79.9373C239.927 79.6434 239.34 79.5454 238.752 79.4475C237.969 79.3495 236.99 79.2515 236.206 78.4678C235.521 77.6842 235.227 76.7045 235.521 75.627C235.814 74.5494 236.696 73.7657 237.871 73.5698C238.165 73.4718 238.458 73.4718 238.752 73.4718C239.829 73.4718 240.711 73.7657 241.396 74.3535C241.984 74.7453 242.18 75.2351 242.278 75.431C242.376 75.529 242.376 75.627 242.376 75.8229C242.376 76.2147 242.082 76.6066 241.592 76.6066C241.298 76.6066 241.005 76.4106 240.907 76.1168C240.907 76.1168 240.809 75.8229 240.515 75.529C240.221 75.3331 239.634 75.0392 238.752 74.9412C238.556 74.9412 238.361 74.9412 238.165 74.9412C237.577 75.0392 237.087 75.529 236.99 76.0188C236.892 76.3127 236.794 76.8025 237.283 77.2923C237.675 77.6842 238.165 77.7821 238.948 77.8801C239.634 77.978 240.515 78.076 241.2 78.6638C241.788 79.3495 242.278 80.2312 242.278 81.0148Z" fill="#6059F7" stroke="#6059F7" stroke-width="0.6427" stroke-miterlimit="10"/>
<path d="M244.824 83.2674V74.157C244.824 73.7651 245.118 73.3733 245.607 73.3733C245.999 73.3733 246.391 73.6672 246.391 74.157V83.2674C246.391 83.6593 246.097 84.0511 245.607 84.0511C245.215 84.0511 244.824 83.6593 244.824 83.2674Z" fill="#6059F7" stroke="#6059F7" stroke-width="0.6427" stroke-miterlimit="10"/>
<path d="M255.596 83.2675C255.596 83.6593 255.204 84.0512 254.813 84.0512H249.622C249.231 84.0512 248.839 83.7573 248.839 83.2675V74.255C248.839 73.8632 249.133 73.4713 249.622 73.4713C250.014 73.4713 250.406 73.7652 250.406 74.255V82.5817H254.911C255.204 82.4838 255.596 82.8756 255.596 83.2675Z" fill="#6059F7" stroke="#6059F7" stroke-width="0.6427" stroke-miterlimit="10"/>
<path d="M263.92 74.3529L260.395 83.4634C260.297 83.7572 260.003 83.9532 259.709 83.9532C259.415 83.9532 259.122 83.7572 259.024 83.4634L255.596 74.4509C255.4 74.059 255.596 73.6672 255.988 73.4713C256.38 73.2753 256.771 73.4713 256.967 73.8631L259.709 81.1123L262.549 73.8631C262.745 73.4713 263.137 73.2753 263.528 73.4713C263.822 73.5692 264.018 73.9611 263.92 74.3529Z" fill="#6059F7" stroke="#6059F7" stroke-width="0.6427" stroke-miterlimit="10"/>
<path d="M273.126 83.2675C273.126 83.6593 272.734 84.0512 272.342 84.0512H267.152C266.76 84.0512 266.368 83.7573 266.368 83.2675V74.255C266.368 73.8632 266.662 73.4713 267.152 73.4713H272.342C272.734 73.4713 273.126 73.7652 273.126 74.255C273.126 74.6469 272.734 75.0387 272.342 75.0387H267.837V78.0755H271.265C271.657 78.0755 272.048 78.3694 272.048 78.8592C272.048 79.251 271.657 79.6429 271.265 79.6429H267.837V82.5817H272.342C272.832 82.4838 273.126 82.7777 273.126 83.2675Z" fill="#6059F7" stroke="#6059F7" stroke-width="0.6427" stroke-miterlimit="10"/>
<path d="M280.274 79.447L282.429 82.8756C282.625 83.2675 282.527 83.6593 282.135 83.9532C282.037 84.0512 281.841 84.0512 281.743 84.0512C281.45 84.0512 281.254 83.9532 281.058 83.6593L278.512 79.5449H276.945V83.2675C276.945 83.6593 276.553 84.0512 276.161 84.0512C275.77 84.0512 275.378 83.7573 275.378 83.2675V74.255C275.378 73.8632 275.77 73.4713 276.161 73.4713H279.295C280.862 73.4713 282.331 74.7448 282.331 76.5081C282.527 77.7816 281.645 78.9572 280.274 79.447ZM281.058 76.5081C281.058 75.6265 280.372 75.0387 279.491 75.0387H277.043V78.0755H279.491C280.372 78.0755 281.058 77.3898 281.058 76.5081Z" fill="#6059F7" stroke="#6059F7" stroke-width="0.6427" stroke-miterlimit="10"/>
<path d="M314.354 223.451C292.026 223.451 273.909 205.328 273.909 182.992C273.909 160.657 292.026 142.534 314.354 142.534C314.647 142.534 314.941 142.73 314.941 143.122C314.941 143.514 314.745 143.71 314.354 143.71C292.711 143.71 274.986 161.343 274.986 183.09C274.986 204.838 292.613 222.471 314.354 222.471C328.749 222.471 341.97 214.634 348.923 201.899C349.021 201.605 349.412 201.507 349.706 201.703C350 201.801 350.098 202.193 349.902 202.487C342.753 215.32 329.141 223.451 314.354 223.451Z" fill="#36C3FE"/>
<path d="M294.768 184.365C294.768 185.736 293.691 186.814 292.32 186.912C292.32 186.912 292.515 186.912 288.892 186.912C288.5 186.912 288.207 186.618 288.207 186.226V178.389C288.207 177.997 288.5 177.703 288.892 177.703C288.892 177.703 288.598 177.703 291.438 177.703C292.809 177.801 293.984 178.879 293.984 180.348C293.984 180.936 293.789 181.524 293.397 182.013C294.18 182.503 294.768 183.385 294.768 184.365ZM291.242 179.075H289.48V181.72H291.242C292.026 181.72 292.613 181.132 292.613 180.348C292.613 179.662 292.026 179.075 291.242 179.075ZM293.397 184.365C293.397 183.679 292.809 183.091 292.124 183.091H289.48V185.638H292.222C292.809 185.638 293.397 185.05 293.397 184.365Z" fill="#36C3FE" stroke="#36C3FE" stroke-width="0.5575" stroke-miterlimit="10"/>
<path d="M300.937 182.894L302.798 185.931C302.994 186.225 302.896 186.617 302.602 186.813C302.504 186.911 302.406 186.911 302.308 186.911C302.112 186.911 301.917 186.813 301.721 186.617L299.566 183.09H298.195V186.323C298.195 186.715 297.901 187.009 297.51 187.009C297.118 187.009 296.824 186.715 296.824 186.323V178.486C296.824 178.094 297.118 177.8 297.51 177.8H300.252C301.623 177.8 302.896 178.976 302.896 180.347C302.896 181.523 302.112 182.503 300.937 182.894ZM301.525 180.347C301.525 179.662 300.937 179.074 300.154 179.074H298.097V181.719H300.154C300.937 181.719 301.525 181.131 301.525 180.347Z" fill="#36C3FE" stroke="#36C3FE" stroke-width="0.5575" stroke-miterlimit="10"/>
<path d="M304.854 182.307C304.854 179.858 306.813 177.8 309.359 177.8C311.905 177.8 313.864 179.858 313.864 182.307C313.864 184.854 311.905 186.911 309.359 186.911C306.813 186.911 304.854 184.756 304.854 182.307ZM306.128 182.307C306.128 184.168 307.597 185.637 309.359 185.637C311.122 185.637 312.591 184.168 312.591 182.307C312.591 180.543 311.122 179.074 309.359 179.074C307.597 178.976 306.128 180.445 306.128 182.307Z" fill="#36C3FE" stroke="#36C3FE" stroke-width="0.5575" stroke-miterlimit="10"/>
<path d="M322.384 186.813C322.286 186.911 322.188 186.911 321.992 186.911C321.796 186.911 321.6 186.813 321.405 186.617L317.096 180.445V186.225C317.096 186.617 316.802 186.911 316.41 186.911C316.018 186.911 315.725 186.617 315.725 186.225V178.388C315.725 178.094 315.823 177.898 316.018 177.703C316.312 177.507 316.704 177.605 316.9 177.898L321.209 184.266V178.29C321.209 177.898 321.502 177.605 321.894 177.605C322.286 177.605 322.58 177.898 322.58 178.29V186.127C322.776 186.421 322.678 186.715 322.384 186.813Z" fill="#36C3FE" stroke="#36C3FE" stroke-width="0.5575" stroke-miterlimit="10"/>
<path d="M331.883 186.225C331.883 186.617 331.589 186.911 331.198 186.911H325.224C324.93 186.911 324.734 186.813 324.636 186.519C324.538 186.323 324.538 186.029 324.734 185.833L329.925 178.976H325.322C324.93 178.976 324.636 178.682 324.636 178.29C324.636 177.898 324.93 177.604 325.322 177.604H331.198C331.491 177.604 331.687 177.702 331.785 177.996C331.883 178.192 331.883 178.486 331.687 178.682L326.497 185.539H331.1C331.589 185.637 331.883 185.931 331.883 186.225Z" fill="#36C3FE" stroke="#36C3FE" stroke-width="0.5575" stroke-miterlimit="10"/>
<path d="M339.913 186.225C339.913 186.617 339.62 186.911 339.228 186.911H334.723C334.331 186.911 334.038 186.617 334.038 186.225V178.388C334.038 177.996 334.331 177.703 334.723 177.703H339.228C339.62 177.703 339.913 177.996 339.913 178.388C339.913 178.78 339.62 179.074 339.228 179.074H335.311V181.719H338.346C338.738 181.719 339.032 182.013 339.032 182.405C339.032 182.797 338.738 183.09 338.346 183.09H335.311V185.637H339.228C339.522 185.539 339.913 185.833 339.913 186.225Z" fill="#36C3FE" stroke="#36C3FE" stroke-width="0.5575" stroke-miterlimit="10"/>
<path d="M79.127 58.9729C79.127 59.6586 79.029 60.2464 78.7352 60.8342C78.4415 61.422 78.1477 61.9118 77.658 62.4016C77.1684 62.8914 76.6787 63.1853 76.0911 63.4792C75.5036 63.773 74.8181 63.871 74.1326 63.871C73.447 63.871 72.8595 63.773 72.2719 63.4792C71.6843 63.1853 71.1947 62.8914 70.705 62.4016C70.2154 61.9118 69.9216 61.422 69.6278 60.8342C69.334 60.2464 69.2361 59.5607 69.2361 58.9729C69.2361 58.2872 69.334 57.6994 69.6278 57.0137C69.9216 56.4259 70.2154 55.9361 70.705 55.4463C71.1947 54.9565 71.6843 54.6626 72.2719 54.3687C72.8595 54.0748 73.545 53.9769 74.1326 53.9769C75.6994 53.9769 77.1684 54.5646 78.2456 56.0341C78.4415 56.328 78.3435 56.8178 77.9518 57.0137C77.5601 57.2096 77.2663 57.0137 76.9725 56.7198C76.1891 55.7402 75.2098 55.3483 74.1326 55.3483C72.174 55.3483 70.705 56.9157 70.705 58.875C70.705 60.8342 72.2719 62.4016 74.2305 62.4016C75.8953 62.4016 77.3642 61.226 77.658 59.6586H74.6222C74.2305 59.6586 73.9367 59.3648 73.9367 58.9729C73.9367 58.5811 74.2305 58.2872 74.6222 58.2872H78.4415C78.8332 58.1892 79.127 58.5811 79.127 58.9729Z" fill="#F7B517" stroke="#F7B517" stroke-width="0.5989" stroke-miterlimit="10" stroke-linecap="round" stroke-linejoin="round"/>
<path d="M81.2815 58.875C81.2815 56.23 83.4359 53.9769 86.178 53.9769C88.92 53.9769 91.0744 56.23 91.0744 58.875C91.0744 61.6179 88.92 63.871 86.178 63.871C83.4359 63.871 81.2815 61.6179 81.2815 58.875ZM82.6525 58.875C82.6525 60.8342 84.2194 62.4995 86.178 62.4995C88.1366 62.4995 89.7034 60.9321 89.7034 58.875C89.7034 56.9157 88.1366 55.3483 86.178 55.3483C84.3173 55.3483 82.6525 56.9157 82.6525 58.875Z" fill="#F7B517" stroke="#F7B517" stroke-width="0.5989" stroke-miterlimit="10" stroke-linecap="round" stroke-linejoin="round"/>
<path d="M99.5941 63.1853C99.5941 63.5771 99.3003 63.871 98.9086 63.871H94.0122C93.6204 63.871 93.3267 63.5771 93.3267 63.1853V54.7606C93.3267 54.3687 93.6204 54.0748 94.0122 54.0748C94.4039 54.0748 94.6977 54.3687 94.6977 54.7606V62.4995H98.9086C99.3003 62.4016 99.5941 62.6955 99.5941 63.1853Z" fill="#F7B517" stroke="#F7B517" stroke-width="0.5989" stroke-miterlimit="10" stroke-linecap="round" stroke-linejoin="round"/>
<path d="M102.63 63.871C102.238 63.871 101.945 63.5771 101.945 63.1853V54.7606C101.945 54.3687 102.238 54.0748 102.63 54.0748H104.687C105.47 54.0748 106.156 54.2708 106.841 54.4667C107.429 54.7606 108.016 55.1524 108.506 55.6422C108.996 56.132 109.289 56.7198 109.485 57.4055C109.681 58.0913 109.779 58.777 109.681 59.5607C109.583 60.7362 108.996 61.8138 108.016 62.6955C107.135 63.4792 105.96 63.969 104.687 63.969H102.63V63.871ZM104.687 62.4016C106.449 62.4016 108.016 61.0301 108.212 59.2668C108.31 58.1892 108.016 57.2096 107.429 56.5239C106.743 55.7402 105.764 55.3483 104.687 55.3483H103.316V62.4016H104.687Z" fill="#F7B517" stroke="#F7B517" stroke-width="0.5989" stroke-miterlimit="10" stroke-linecap="round" stroke-linejoin="round"/>
<path d="M177.938 162.714C177.742 162.714 177.546 162.616 177.448 162.42C177.35 162.127 177.546 161.931 177.742 161.833C185.576 159.188 192.823 154.584 197.622 149.098L196.055 144.004C189.298 150.077 180.974 155.073 171.866 158.404C171.572 158.502 171.377 158.404 171.279 158.11C171.181 157.816 171.279 157.62 171.572 157.522C180.778 154.192 189.298 149.098 195.957 142.828C196.055 142.73 196.251 142.632 196.447 142.73C196.642 142.73 196.74 142.926 196.74 143.024L198.601 149.098C198.699 149.294 198.601 149.392 198.503 149.587C193.607 155.269 186.164 160.167 178.036 162.812C178.036 162.714 178.036 162.714 177.938 162.714Z" fill="#3D3D3D"/>
</g>
<defs>
<clipPath id="clip0">
<rect width="350" height="352.006" fill="white"/>
</clipPath>
</defs>
</svg>
