<svg width="82" height="88" viewBox="0 0 82 88" fill="none" xmlns="http://www.w3.org/2000/svg">
<path d="M41.0382 59.791C32.3099 59.791 25.1895 52.662 25.1895 43.9234C25.1895 35.1847 32.3099 28.0558 41.0382 28.0558C46.168 28.0558 51.0681 30.5854 54.0541 34.8014C55.8916 37.4843 56.8869 40.6272 56.8869 43.8467C56.8869 46.8362 56.0447 49.7491 54.5134 52.2021C51.5275 57.0314 46.4742 59.791 41.0382 59.791ZM41.0382 28.899C32.7693 28.899 25.9551 35.6446 25.9551 44C25.9551 52.2788 32.6927 59.1011 41.0382 59.1011C46.2445 59.1011 50.9915 56.4181 53.8244 52.0488C55.3557 49.6725 56.1213 46.9129 56.1213 44.0767C56.1213 41.0105 55.2025 38.0209 53.4416 35.4913C50.5321 31.3519 45.9383 28.899 41.0382 28.899Z" fill="#3D3D3D"/>
<path d="M40.9618 26.2927C40.8087 26.2927 40.7322 26.216 40.6556 26.1394L39.4306 24.2997C37.8993 22 38.2821 19.3937 40.5025 17.324L41.0384 16.7875C42.1869 15.7143 42.7994 14.4878 42.7228 13.1847C42.7228 11.8815 42.0337 10.6551 40.8087 9.58188C38.7415 7.74216 38.129 5.2892 39.1243 3.14286L40.579 0.229966C40.6556 0.0766562 40.8853 -0.0766539 41.115 0.0766562C41.3447 0.153311 41.4212 0.383276 41.3447 0.536587L39.8899 3.44948C38.9712 5.36586 39.5071 7.35889 41.3447 9.0453C42.7228 10.2718 43.4885 11.7282 43.4885 13.2613C43.4885 14.7178 42.7994 16.1742 41.4978 17.4007L40.9618 17.9373C39.0477 19.7003 38.7415 21.9233 40.0431 23.9164L41.2681 25.7561C41.4212 25.9094 41.3447 26.1394 41.1915 26.2927C41.115 26.2927 41.0384 26.2927 40.9618 26.2927Z" fill="#3D3D3D"/>
<path d="M22.8161 35.568C20.2895 35.568 18.3754 33.9582 17.7629 31.1986L17.6098 30.4321C17.2269 28.899 16.4613 27.7491 15.3894 27.1359C14.241 26.5227 12.8628 26.446 11.255 26.9826C8.57522 27.9024 6.20174 27.2126 4.82359 25.2195L2.98606 22.5366C2.83293 22.23 2.90949 22 3.06262 21.9233C3.21575 21.77 3.44544 21.8467 3.59857 22L5.4361 24.6829C6.58456 26.446 8.65179 26.9826 10.9487 26.1394C12.7097 25.5261 14.3175 25.6028 15.6957 26.3693C16.9973 27.0592 17.916 28.439 18.2988 30.1254L18.452 30.892C19.0645 33.4216 20.8255 34.8781 23.1224 34.7247L25.3427 34.5714C25.4959 34.5714 25.7255 34.7247 25.7255 34.9547C25.7255 35.1847 25.5724 35.338 25.3427 35.338L23.1224 35.4913C23.0458 35.568 22.8927 35.568 22.8161 35.568Z" fill="#3D3D3D"/>
<path d="M3.29224 66.23C3.06255 66.23 2.90942 66.0767 2.90942 65.8467C2.90942 65.6167 3.06255 65.4634 3.29224 65.4634L6.50793 65.2335C8.57516 65.0802 10.1064 63.6237 10.5658 61.1707C10.9486 59.331 11.7908 57.9512 13.0924 57.1847C14.394 56.4181 15.9253 56.2648 17.6863 56.8014L18.4519 57.0314C20.9785 57.7979 23.0457 56.9547 24.1176 54.885L25.113 52.892C25.1895 52.7387 25.4192 52.662 25.6489 52.7387C25.802 52.8153 25.8786 53.0453 25.802 53.2753L24.8067 55.1917C23.5817 57.6446 21.1316 58.6411 18.2988 57.7979L17.5331 57.568C16.0019 57.108 14.6237 57.1847 13.5518 57.8746C12.4034 58.5645 11.7143 59.7143 11.3315 61.3241C10.7955 64.0836 9.03454 65.8467 6.58449 66L3.29224 66.23Z" fill="#3D3D3D"/>
<path d="M41.0382 88C40.9616 88 40.9616 88 40.8851 87.9233C40.7319 87.8467 40.5788 87.6167 40.7319 87.3868L42.1866 84.4739C43.1054 82.5575 42.5695 80.5645 40.7319 78.9547C39.3538 77.7282 38.5881 76.2718 38.5881 74.7387C38.5881 73.2822 39.2772 71.8258 40.5788 70.5993L41.1147 70.0627C43.0288 68.2996 43.3351 66.0767 42.0335 64.0836L40.8085 62.2439C40.6554 62.0906 40.7319 61.8606 40.8851 61.7073C41.0382 61.554 41.2679 61.6307 41.421 61.784L42.646 63.6237C44.1773 65.9233 43.7945 68.5296 41.5741 70.5993L41.0382 71.1359C39.8897 72.2091 39.2772 73.4355 39.3538 74.7387C39.3538 76.0418 40.0429 77.2683 41.2679 78.3415C43.3351 80.1812 43.9476 82.6341 42.9523 84.7805L41.4976 87.6934C41.3444 87.9233 41.1913 88 41.0382 88Z" fill="#3D3D3D"/>
<path d="M78.7842 66.1533C78.6311 66.1533 78.5545 66.0767 78.478 66L76.6404 63.3171C75.492 61.554 73.4247 61.0174 71.1278 61.8606C69.3669 62.4739 67.759 62.3972 66.3809 61.6307C65.0793 60.9408 64.1605 59.561 63.7777 57.8746L63.6246 57.108C63.012 54.5784 61.2511 53.1986 58.9542 53.2753L56.6572 53.3519C56.4275 53.3519 56.2744 53.1986 56.2744 52.9686C56.2744 52.7387 56.4275 52.5854 56.6572 52.5854L58.8776 52.4321C61.6339 52.2788 63.7011 53.8885 64.3902 56.8014L64.5433 57.568C64.9261 59.1011 65.6918 60.2509 66.7637 60.8641C67.9121 61.4774 69.2903 61.554 70.8981 61.0174C73.5779 60.0976 75.9514 60.7875 77.3295 62.7805L79.167 65.4634C79.3202 65.6167 79.2436 65.8467 79.0905 66C78.8608 66.1533 78.8608 66.1533 78.7842 66.1533Z" fill="#3D3D3D"/>
<path d="M56.5807 35.338C56.5041 35.338 56.5041 35.338 56.4275 35.2613C56.2744 35.1847 56.1979 34.9547 56.2744 34.7247L57.2698 32.7317C58.4948 30.2788 60.9448 29.2822 63.7777 30.1254L64.5433 30.3554C66.0746 30.8153 67.4528 30.7387 68.5247 30.0488C69.6731 29.3589 70.3622 28.2091 70.745 26.5993C71.281 23.8397 73.0419 22.0767 75.492 21.9234L78.7077 21.6934C78.9374 21.6934 79.0905 21.8467 79.0905 22.0767C79.0905 22.3066 78.9374 22.4599 78.7077 22.4599L75.492 22.6899C73.4248 22.8432 71.8935 24.2997 71.4341 26.7526C71.0513 28.5923 70.2091 29.9721 68.9075 30.7387C67.6059 31.5052 66.0746 31.6585 64.3136 31.122L63.548 30.892C61.0214 30.1254 58.9542 30.9686 57.8823 33.0383L56.8869 35.0314C56.8869 35.2613 56.7338 35.338 56.5807 35.338Z" fill="#3D3D3D"/>
<path d="M29.7833 27.9024C29.6302 27.9024 29.5536 27.8258 29.477 27.7491L19.0643 9.65854C18.9878 9.50523 18.9878 9.27527 19.2175 9.12196C19.3706 9.0453 19.6003 9.0453 19.7534 9.27527L30.1661 27.2892C30.2427 27.4425 30.2427 27.6725 30.013 27.8258C29.9364 27.9024 29.8599 27.9024 29.7833 27.9024Z" fill="#3D3D3D"/>
<path d="M21.1317 45.8397H0.38282C0.153128 45.8397 0 45.6864 0 45.4565C0 45.2265 0.153128 45.0732 0.38282 45.0732H21.1317C21.3613 45.0732 21.5145 45.2265 21.5145 45.4565C21.5145 45.6864 21.3613 45.8397 21.1317 45.8397Z" fill="#3D3D3D"/>
<path d="M21.9737 80.3345C21.8972 80.3345 21.8206 80.3345 21.8206 80.2578C21.6675 80.1812 21.5909 79.9512 21.6675 79.7212L32.0802 61.7073C32.1568 61.554 32.3864 61.4773 32.6161 61.554C32.7693 61.6307 32.8458 61.8606 32.7693 62.0906L22.3566 80.1045C22.2034 80.2578 22.1269 80.3345 21.9737 80.3345Z" fill="#3D3D3D"/>
<path d="M62.6292 78.878C62.4761 78.878 62.3995 78.8014 62.323 78.7247L51.9103 60.6341C51.8337 60.4808 51.8337 60.2509 52.0634 60.0975C52.2165 60.0209 52.4462 60.0209 52.5994 60.2509L63.0121 78.2648C63.0886 78.4181 63.0886 78.6481 62.8589 78.8014C62.7058 78.878 62.6292 78.878 62.6292 78.878Z" fill="#3D3D3D"/>
<path d="M81.6172 42.9268H60.8684C60.6387 42.9268 60.4856 42.7735 60.4856 42.5436C60.4856 42.3136 60.6387 42.1603 60.8684 42.1603H81.6172C81.8469 42.1603 82.0001 42.3136 82.0001 42.5436C82.0001 42.7735 81.8469 42.9268 81.6172 42.9268Z" fill="#3D3D3D"/>
<path d="M49.6901 26.446C49.6135 26.446 49.5369 26.446 49.5369 26.3693C49.3838 26.2927 49.3072 26.0627 49.3838 25.8328L59.7199 7.81882C59.7965 7.66551 60.0262 7.58885 60.2559 7.66551C60.409 7.74216 60.4856 7.97213 60.409 8.20209L49.9963 26.216C49.9197 26.3693 49.7666 26.446 49.6901 26.446Z" fill="#3D3D3D"/>
</svg>
