<svg width="249" height="212" viewBox="0 0 249 212" fill="none" xmlns="http://www.w3.org/2000/svg">
<path d="M249 25.1691V189.308C249 189.308 189.532 240.365 124.5 189.308C67.5857 144.543 12.7692 178.251 0 187.24V25.1691C0 11.3261 11.4011 0 25.4473 0H223.37C237.599 0.0898898 249 11.3261 249 25.1691Z" fill="#6059F7"/>
<g style="mix-blend-mode:multiply" opacity="0.5">
<path d="M249 187.433V189.484C249 189.484 189.771 240.145 125 189.484C181.777 145.156 236.373 178.514 249 187.433Z" fill="#6059F7"/>
</g>
<g style="mix-blend-mode:multiply" opacity="0.5">
<path d="M58.7306 42.267L55.8624 40.9209C55.8624 38.9467 55.0557 37.2417 53.7112 35.9853C54.249 34.8187 54.5179 33.4726 54.1593 32.0368C53.6215 29.6139 51.6496 27.6396 49.2295 27.1012C47.5264 26.7422 45.913 27.1012 44.6581 27.9088C42.6862 26.1141 40.0868 25.127 37.2185 25.127C31.7508 25.127 27.1795 28.9857 26.1935 34.1905C22.8771 34.6392 20.2777 37.5109 20.2777 40.9209C20.2777 41.0107 20.2777 41.1902 20.2777 41.2799L17.2301 42.267C16.1545 42.626 16.4234 44.1515 17.499 44.1515H21.0844H55.0557H58.1928H58.2825C59.3581 44.0618 59.627 42.7157 58.7306 42.267Z" fill="#6059F7"/>
</g>
<g style="mix-blend-mode:multiply" opacity="0.5">
<path d="M224.105 87.3156L217.203 85.6105C216.038 82.9184 213.528 80.9441 210.481 80.5852C210.481 80.5852 210.481 80.5852 210.481 80.4954C210.481 76.9059 207.523 73.9445 203.937 73.9445C203.22 73.9445 202.503 74.0343 201.786 74.3035C200.89 70.6242 197.663 67.8423 193.629 67.8423C189.058 67.8423 185.293 71.6113 185.293 76.188C185.293 76.2777 185.293 76.3675 185.293 76.4572C184.666 76.2777 184.039 76.188 183.411 76.188C180.184 76.188 177.406 77.9828 175.972 80.6749C175.344 80.4954 174.717 80.4057 174 80.4057C170.414 80.4057 167.456 82.6492 166.201 85.79C163.871 86.2387 161.63 86.7771 159.569 87.1361C158.583 87.3156 158.762 88.7514 159.748 88.7514H164.14H165.664H217.83H221.774H223.836C224.822 88.9309 225.001 87.5848 224.105 87.3156Z" fill="#6059F7"/>
</g>
<path d="M205.371 48.3692H184.218C183.77 48.3692 183.411 48.0102 183.411 47.5616C183.411 47.1129 183.77 46.7539 184.218 46.7539H205.371C205.819 46.7539 206.178 47.1129 206.178 47.5616C206.178 48.0102 205.819 48.3692 205.371 48.3692Z" fill="white"/>
<path d="M33.5434 90.1876H10.0594C9.61119 90.1876 9.25269 89.8286 9.25269 89.3799C9.25269 88.9312 9.61119 88.5723 10.0594 88.5723H33.5434C33.9915 88.5723 34.3501 88.9312 34.3501 89.3799C34.3501 89.8286 33.9915 90.1876 33.5434 90.1876Z" fill="white"/>
<path d="M207.254 25.4854H183.142C182.694 25.4854 182.335 25.1265 182.335 24.6778C182.335 24.2291 182.694 23.8701 183.142 23.8701H207.254C207.702 23.8701 208.06 24.2291 208.06 24.6778C208.06 25.1265 207.702 25.4854 207.254 25.4854Z" fill="white"/>
<path d="M229.214 44.8692H220.34C219.892 44.8692 219.533 44.5102 219.533 44.0616C219.533 43.6129 219.892 43.2539 220.34 43.2539H229.214C229.662 43.2539 230.021 43.6129 230.021 44.0616C230.021 44.5102 229.662 44.8692 229.214 44.8692Z" fill="white"/>
<path d="M26.6416 69.0987H17.7679C17.3197 69.0987 16.9612 68.7397 16.9612 68.291C16.9612 67.8424 17.3197 67.4834 17.7679 67.4834H26.6416C27.0897 67.4834 27.4483 67.8424 27.4483 68.291C27.4483 68.7397 27.0897 69.0987 26.6416 69.0987Z" fill="white"/>
<path d="M93.867 91.5333H84.9933C84.5451 91.5333 84.1865 91.1743 84.1865 90.7256C84.1865 90.2769 84.5451 89.918 84.9933 89.918H93.867C94.3151 89.918 94.6737 90.2769 94.6737 90.7256C94.6737 91.1743 94.3151 91.5333 93.867 91.5333Z" fill="white"/>
<path d="M51.2012 57.253H29.5994C29.1512 57.253 28.7927 56.894 28.7927 56.4453C28.7927 55.9967 29.1512 55.6377 29.5994 55.6377H51.2012C51.6494 55.6377 52.0079 55.9967 52.0079 56.4453C52.0079 56.894 51.6494 57.253 51.2012 57.253Z" fill="white"/>
<path d="M182.604 63.4454H154.997C154.549 63.4454 154.19 63.0864 154.19 62.6377C154.19 62.189 154.549 61.8301 154.997 61.8301H182.515C182.963 61.8301 183.321 62.189 183.321 62.6377C183.411 63.0864 183.053 63.4454 182.604 63.4454Z" fill="white"/>
<path d="M70.831 76.9957H41.6104C41.1623 76.9957 40.8037 76.6367 40.8037 76.188C40.8037 75.7393 41.1623 75.3804 41.6104 75.3804H70.831C71.2792 75.3804 71.6378 75.7393 71.6378 76.188C71.6378 76.6367 71.2792 76.9957 70.831 76.9957Z" fill="white"/>
<path d="M122.639 94.9432C124.97 94.315 126.763 92.2511 128.017 88.6615L140.208 52.4071C140.297 52.2276 140.387 52.0482 140.566 52.0482L164.767 40.7411C168.711 38.8566 171.669 35.8952 172.924 32.5749C173.731 30.3314 173.641 28.1777 172.745 26.2932C171.49 23.7805 168.98 21.9857 166.112 21.7165C162.795 21.1781 159.479 21.7165 156.521 23.1523L128.555 36.2542C128.376 36.3439 128.197 36.3439 128.017 36.2542L97.9901 24.4984C94.4047 23.1523 91.6261 23.1523 89.7438 24.5882C88.1304 25.8445 87.234 27.8188 87.3237 29.9725C87.3237 30.3314 87.5029 30.6904 87.8614 30.8699L108.119 44.7793C108.298 44.9588 108.388 45.1383 108.388 45.4075C108.388 45.6767 108.208 45.8562 108.029 45.9459L96.4663 51.42C96.287 51.5097 96.1974 51.5097 96.0181 51.42L76.5676 46.4844C76.0298 46.3946 75.5816 46.5741 75.3127 47.0228L70.4725 55.7274C70.2932 55.9967 70.2932 56.3556 70.3828 56.7146C70.4725 56.9838 70.7414 57.253 71.0103 57.4325L85.4414 63.3552C85.7103 63.445 85.8895 63.7142 85.8895 63.9834C85.8895 64.2526 85.7102 64.5218 85.531 64.6116L82.4834 66.0474C81.9456 66.3166 81.6767 66.9448 81.9456 67.5729L86.0688 76.3673C86.1584 76.6365 86.4273 76.9058 86.6962 76.9955C86.7858 77.0852 86.9651 77.0852 87.0548 77.0852C87.234 77.0852 87.4133 77.0852 87.5029 76.9955L118.516 62.4578C118.606 62.4578 118.695 62.3681 118.785 62.3681C118.964 62.3681 119.054 62.3681 119.144 62.4578C119.323 62.6373 119.413 62.8168 119.413 63.086L116.634 92.5203C116.634 92.8792 116.724 93.2382 116.992 93.5074C118.247 94.4945 119.771 95.1227 121.385 95.1227C121.743 95.1227 122.191 95.033 122.639 94.9432ZM90.0127 29.5238C89.8334 29.3443 89.6541 29.1648 89.7438 28.8956C89.8334 27.9982 90.3712 27.1008 91.0883 26.4727C92.3432 25.5753 94.4047 25.5753 97.273 26.6521L124.074 37.0618C124.342 37.1516 124.522 37.4208 124.522 37.69C124.522 37.9592 124.342 38.2284 124.163 38.3182L111.973 44.0614C111.883 44.0614 111.794 44.1512 111.704 44.1512C111.614 44.1512 111.435 44.1512 111.346 44.0614L90.0127 29.5238ZM119.323 92.2511C119.144 92.0716 118.964 91.8921 119.054 91.6229L122.729 53.2148C122.819 52.5866 122.281 52.0482 121.653 51.9584C121.384 51.9584 121.026 52.0482 120.847 52.2276C120.578 52.4071 120.488 52.6763 120.399 53.0353L119.861 58.8683C119.861 59.1375 119.681 59.317 119.502 59.4067L88.1304 74.0341C87.7718 74.2136 87.4133 74.0341 87.234 73.6752L84.6346 68.2011C84.545 68.0216 84.545 67.8422 84.6346 67.6627C84.7243 67.4832 84.8139 67.3935 84.9932 67.3037L90.1023 64.8808C90.5504 64.7013 90.8194 64.2526 90.8194 63.8039C90.8194 63.3552 90.5504 62.9065 90.1023 62.7271L73.789 55.9069C73.6097 55.8172 73.4304 55.7274 73.4304 55.548C73.3408 55.3685 73.4304 55.189 73.52 55.0095L76.6572 49.356C76.8365 49.0868 77.1054 48.9971 77.3743 48.9971L96.1078 53.6635C96.3767 53.7532 96.6456 53.6635 96.9145 53.5737L157.686 25.1266C160.196 23.8703 163.064 23.4216 165.843 23.8703C167.904 24.0497 169.787 25.3061 170.773 27.1008C171.669 28.9854 171.311 31.1391 169.966 33.3825C168.622 35.5363 166.47 37.331 163.871 38.4976L142.807 48.3689C142.538 48.4586 142.269 48.4586 142.09 48.2791C141.911 48.0997 141.821 47.8305 141.911 47.5612L143.166 43.7922C143.345 43.164 143.076 42.5359 142.448 42.2667C142.18 42.1769 141.821 42.1769 141.552 42.3564C141.283 42.5359 141.104 42.7154 140.925 43.0743L125.777 87.9436C124.791 90.7255 123.536 92.3408 122.102 92.7895C121.833 92.8792 121.564 92.8792 121.385 92.8792C120.578 92.7895 119.95 92.61 119.323 92.2511Z" fill="white"/>
</svg>
