<svg width="231" height="32" viewBox="0 0 231 32" fill="none" xmlns="http://www.w3.org/2000/svg">
<path d="M16.842 31.9864C16.388 31.9864 16.0097 31.6826 16.0097 31.2269C15.934 30.7712 16.3124 30.3155 16.7664 30.2396C42.1147 26.7459 67.917 26.0624 93.4167 28.2649C93.8707 28.3409 94.249 28.7206 94.1733 29.1763C94.0977 29.632 93.7193 30.0117 93.2653 30.0117C67.917 27.8092 42.1904 28.4928 16.9934 31.9864C16.9177 31.9864 16.9177 31.9864 16.842 31.9864Z" fill="#F7B517"/>
<path d="M23.3907 14.7247C23.3907 15.2563 22.9367 15.6361 22.407 15.5601C21.3477 15.4842 20.2127 15.4842 19.0777 15.4842C17.3374 18.826 15.7484 21.6361 15.6727 21.6361C15.4457 22.0918 14.8404 22.2437 14.462 21.9399C14.008 21.712 13.8567 21.1044 14.1594 20.7247C15.2187 18.9019 16.2024 17.1551 17.0347 15.4842C14.6134 15.5601 12.2677 15.6361 10.0734 15.8639C8.25736 18.0665 6.36569 20.5728 4.32269 23.231C4.17136 23.4589 3.86869 23.6108 3.56602 23.6108C3.33902 23.6108 3.18769 23.5348 3.03636 23.4589C2.65802 23.1551 2.58236 22.6234 2.88502 22.1677C2.88502 22.1677 4.92802 19.4336 7.57636 16.0918C3.79302 16.4715 1.14469 16.8513 1.06902 16.8513C0.993356 16.8513 0.993356 16.8513 0.91769 16.8513C0.46369 16.8513 0.0853562 16.5475 0.00968954 16.0918C-0.0659771 15.5601 0.312356 15.1044 0.766356 15.0285C0.842023 15.0285 4.39836 14.4968 9.08969 14.1171C9.69502 13.4336 10.2247 12.6741 10.83 11.9905C19.8344 1.43355 21.4234 2.04115 22.2557 2.34494C22.5584 2.49684 23.0124 2.72469 23.2394 3.40824C23.6177 4.31963 23.6177 6.37026 20.0614 13.6614C20.8937 13.6614 21.726 13.7373 22.5584 13.7373C23.088 13.7373 23.4664 14.193 23.3907 14.7247ZM18.0184 13.6614C20.4397 8.87659 21.8774 5.07912 21.5747 4.09178C20.4397 4.31963 16.732 7.88925 11.738 13.8892C13.781 13.7373 15.8997 13.6614 18.0184 13.6614Z" fill="#F7B517"/>
<path d="M34.5131 19.2816C34.3617 19.4335 31.5621 23.0031 28.3084 23.3829C28.1571 23.3829 28.0057 23.3829 27.7787 23.3829C26.6437 23.3829 25.6601 23.0031 24.7521 22.2436C22.8604 20.6487 23.0874 17.8386 25.3574 14.9525C27.2491 12.5221 30.2001 10.6993 31.8647 11.9145C32.8484 12.674 32.9997 13.4335 32.9241 13.9651C32.6971 15.5601 30.5027 16.4715 30.0487 16.6234C29.5947 16.7753 29.0651 16.5474 28.9137 16.0917C28.7624 15.636 28.9894 15.1044 29.4434 14.9525C30.3514 14.6487 31.1081 14.0411 31.1837 13.7373C31.1837 13.7373 31.1081 13.5854 30.8054 13.3575C30.3514 13.0537 28.3841 13.8892 26.7194 16.0158C26.2654 16.5474 24.2224 19.3575 25.8871 20.8006C26.5681 21.3322 27.2491 21.5601 28.0814 21.4841C30.2001 21.2563 32.3944 18.9778 33.0754 18.0664C33.3781 17.6867 33.9834 17.6107 34.3617 17.9145C34.7401 18.2943 34.8157 18.9018 34.5131 19.2816Z" fill="#3F3F3F"/>
<path d="M43.8958 19.6614C42.5338 21.1044 39.4314 22.8512 36.7831 22.8512C36.4804 22.8512 36.1778 22.8512 35.8751 22.7753C34.6644 22.5474 33.8321 21.8639 33.3781 20.8006C32.5458 18.75 33.1511 16.3955 35.0428 14.2689C36.5561 12.5981 39.0531 11.0791 40.9448 11.6867C42.1554 12.0664 42.3824 12.9019 42.4581 13.2816C42.6851 15.2563 39.6584 17.231 39.5828 17.3069C37.7668 18.4462 35.5724 18.4462 35.4968 18.4462C35.2698 18.4462 35.0428 18.3702 34.8914 18.2183C34.7401 18.8259 34.8158 19.4335 35.0428 20.117C35.1941 20.4208 35.4211 20.8006 36.1778 20.9525C37.9938 21.2563 41.1718 19.8133 42.5338 18.3702C42.9121 17.9905 43.4418 17.9905 43.8201 18.3702C44.1984 18.75 44.2741 19.3576 43.8958 19.6614ZM35.5724 16.6993C35.8751 16.6993 37.4641 16.6234 38.6748 15.8639C39.4314 15.4082 40.6421 14.117 40.6421 13.6614C40.6421 13.6614 40.5664 13.5854 40.3394 13.5095C40.2638 13.5095 40.1124 13.4335 40.0368 13.4335C39.1288 13.4335 37.6154 14.193 36.4048 15.5601C36.1778 15.8639 35.8751 16.2436 35.5724 16.6993Z" fill="#3F3F3F"/>
<path d="M57.2886 4.39556C56.9859 5.23101 56.4562 6.1424 55.9266 7.20569C55.0942 8.87658 53.8836 11.0791 52.5972 13.2816C51.0082 16.3196 49.7219 19.4335 50.5542 20.3449C51.3866 21.2563 53.5052 19.5095 53.5052 19.5095C53.8836 19.2057 54.4889 19.2057 54.7916 19.5854C55.0942 19.9652 55.0942 20.4968 54.7159 20.8766C53.4296 22.0158 50.8569 23.3829 49.1922 21.6361C48.6626 21.1044 48.4356 20.3449 48.5112 19.4335C47.2249 21.0285 46.0142 22.2437 44.9549 22.6234C44.6522 22.6994 44.4252 22.7753 44.1982 22.7753C43.8199 22.7753 43.5172 22.6994 43.2902 22.5475C42.8362 22.3196 42.1552 21.712 42.2309 20.269C42.3822 17.6867 45.6359 13.0538 48.3599 12.0665C49.3436 11.6867 50.2516 11.8386 50.9326 12.4462C50.9326 12.3702 51.0082 12.3702 51.0082 12.2943C51.6892 11.0791 52.3702 9.78797 53.0512 8.49683C53.5052 7.66139 53.9592 6.82594 54.4132 6.06645C54.8672 5.15506 55.2456 4.31962 55.6239 3.63607C55.8509 3.18038 56.3806 3.02848 56.8346 3.18038C57.2129 3.40822 57.4399 3.93987 57.2886 4.39556ZM49.9489 14.0411C49.8732 13.9652 49.7976 13.9652 49.7976 13.8892C49.7219 13.8133 49.6462 13.6614 49.3436 13.6614C49.2679 13.6614 49.1166 13.6614 48.8896 13.7373C46.9222 14.4209 44.1226 18.4462 43.9712 20.3449C43.9712 20.5728 43.9712 20.8006 44.0469 20.8766C44.0469 20.8766 44.1982 20.8766 44.2739 20.8766C45.6359 20.4209 47.8302 17.5348 49.9489 14.0411Z" fill="#3F3F3F"/>
<path d="M80.6696 3.93986C80.6696 4.4715 80.2156 4.85125 79.6859 4.7753C78.0969 4.69935 76.4323 4.7753 74.7676 4.9272L65.8389 20.4968C67.3523 20.269 69.0926 20.1171 71.0599 19.9652C71.5896 19.9652 71.9679 20.3449 72.0436 20.8006C72.0436 21.3323 71.6653 21.712 71.2113 21.788C63.2663 22.1677 59.7099 23.9905 59.6343 23.9905C59.4073 24.0664 59.3316 24.0664 59.1803 24.0664C58.8776 24.0664 58.4993 23.9145 58.3479 23.6107C58.1209 23.155 58.2723 22.6234 58.7263 22.3956C58.8019 22.3196 60.3909 21.5601 63.6446 20.8766C63.6446 20.7247 63.6446 20.5728 63.7959 20.4209L72.5733 5.15505C69.1683 5.61074 66.5199 6.29429 66.5199 6.29429C66.4443 6.29429 66.3686 6.29429 66.2929 6.29429C65.9146 6.29429 65.5363 5.99049 65.3849 5.61074C65.2336 5.15505 65.5363 4.69935 65.9903 4.54745C66.2929 4.4715 73.5569 2.64872 79.7616 2.95252C80.2913 3.02847 80.6696 3.40821 80.6696 3.93986Z" fill="#3F3F3F"/>
<path d="M86.723 8.95249C86.6473 9.40819 86.1176 9.78794 85.6636 9.63604C84.5286 9.40819 82.864 9.40819 81.1993 9.48414C78.551 13.6614 76.5836 17.9145 76.962 20.193C77.0376 20.7246 77.2646 21.0284 77.643 21.2563C78.778 21.9398 80.6696 19.8133 81.1236 19.2057C81.4263 18.8259 81.956 18.674 82.41 18.9778C82.7883 19.2816 82.9396 19.8133 82.637 20.2689C81.729 21.4841 79.9886 23.231 78.1726 23.231C77.7186 23.231 77.189 23.0791 76.735 22.8512C75.9026 22.3955 75.373 21.5601 75.2216 20.5727C74.692 17.8386 76.735 13.5095 79.005 9.71199C77.5673 9.86389 76.3566 10.0158 76.054 10.0917C75.9026 10.1677 75.827 10.1677 75.6756 10.1677C75.373 10.1677 74.9946 10.0158 74.8433 9.63604C74.6163 9.18034 74.7676 8.6487 75.2216 8.42085C75.6756 8.193 77.7943 7.8892 80.14 7.81325C81.502 5.76262 82.7883 3.93983 83.4693 3.02844C83.772 2.6487 84.3016 2.57275 84.7556 2.87654C85.134 3.18034 85.2096 3.71199 84.907 4.16768C84.0746 5.30692 83.1666 6.52211 82.3343 7.81325C83.6963 7.81325 85.0583 7.8892 85.9663 8.0411C86.496 7.96515 86.7986 8.42085 86.723 8.95249Z" fill="#3F3F3F"/>
<path d="M85.7392 19.8892C85.7392 19.9652 85.5122 20.4209 84.8312 21.712C84.6799 22.0158 84.3772 22.1677 84.0746 22.1677C83.9232 22.1677 83.7719 22.1677 83.6206 22.0917C83.1666 21.8639 83.0152 21.3323 83.2422 20.8766C83.8476 19.7373 83.9989 19.3576 83.9989 19.3576C84.1502 18.9019 84.6799 18.674 85.1339 18.8259C85.6636 18.9019 85.8906 19.4335 85.7392 19.8892ZM93.9112 3.33225C92.3979 6.52213 87.4796 16.8512 86.8742 17.6107C86.7229 17.8386 86.4202 17.9145 86.1932 17.9145C85.9662 17.9145 85.8149 17.8386 85.6636 17.6867C85.2852 17.3829 85.2096 16.7753 85.5122 16.3955C85.9662 15.712 89.9766 7.43352 92.3979 2.42086C92.6249 1.96517 93.1546 1.81327 93.6086 1.96517C93.9112 2.34491 94.1382 2.87656 93.9112 3.33225Z" fill="#3F3F3F"/>
<path d="M121.571 5.84812L121.344 6.07597L121.041 6.60761L120.058 6.98736L119.604 7.29115C119.528 7.3671 119.377 7.3671 119.301 7.3671L118.62 7.21521L117.031 7.13926L115.896 6.98736L114.837 7.06331L114.534 6.98736H114.383L114.231 7.519L114.307 7.8228V8.20255V8.2785L114.156 8.81014V9.26584L114.08 9.64559L114.156 9.94938C113.929 9.94938 113.853 10.0253 113.777 10.0253C113.702 10.0253 113.702 10.1772 113.702 10.4051C113.929 10.481 114.08 10.481 114.156 10.6329L114.08 11.4684V12.076C114.08 12.3038 113.929 12.6076 113.626 12.8355C113.702 12.9114 113.702 12.9874 113.702 12.9874C113.702 12.9874 113.777 13.0633 113.853 13.0633C113.929 13.0633 114.004 13.1393 114.08 13.1393L114.156 13.2912C114.08 13.3671 114.004 13.4431 113.929 13.519C113.853 13.595 113.853 13.6709 113.853 13.8228L114.156 14.1266V14.7342V15.2658C114.156 15.4177 114.08 15.4937 114.004 15.6456L114.156 15.9494L114.08 16.2532L114.156 16.7089L114.08 17.0886V17.3924V17.8481C113.777 18 113.626 18.1519 113.626 18.3798C113.626 18.6076 113.777 18.7595 114.08 18.9114L114.231 20.8861L114.08 21.038L113.853 21.1139L113.248 21.6456H113.021H112.869L112.718 21.7975C112.642 21.7215 112.567 21.7215 112.491 21.7215L112.34 21.7975L112.188 21.4937C112.188 21.4177 112.188 21.4177 112.188 21.4177V21.3418L112.264 20.8101L112.188 20.2025L112.264 19.2912L112.34 17.9241L112.491 16.9367V16.6329L112.718 16.3291L112.415 15.2658L112.567 14.5063L112.491 13.519L112.415 12.8355C112.415 12.6836 112.491 12.4557 112.642 12L112.567 11.7722C112.415 11.3165 112.34 11.0127 112.34 10.8608V10.481L112.188 9.87343V9.49369L112.037 8.65824L111.961 8.35445L112.34 7.59495C112.491 7.519 112.567 7.44305 112.567 7.29115C112.567 7.21521 112.567 7.13926 112.567 7.06331L111.886 6.91141H111.659H111.432L110.902 6.68356H109.994L108.405 6.53166L106.665 6.60761L106.362 6.53166C106.135 6.75951 105.984 6.91141 105.832 6.91141H105.757L105.378 6.83546L105 6.75951C105 6.53166 105 6.37976 105.076 6.22786C105.151 6.15191 105.227 6.00002 105.378 5.92407L106.286 5.24052C106.513 5.16457 106.892 5.08862 107.346 5.08862H107.648C107.724 5.31647 107.875 5.46837 108.027 5.46837C108.178 5.46837 108.405 5.39242 108.556 5.16457L109.086 5.24052L110.145 5.62027L111.053 5.54432L111.734 5.69622L113.096 5.77217L113.702 6.07597H114.004V6.00002H114.307C114.837 6.07596 115.139 6.07597 115.215 6.07597C115.366 6.07597 115.442 6.15191 115.593 6.30381L115.972 6.37976L116.199 6.22786H116.577L117.107 6.00002H118.015L118.62 5.84812C118.847 5.92407 119.074 6.00002 119.225 6.00002C119.982 6.00002 120.739 5.84812 121.42 5.46837L121.571 5.54432V5.84812Z" fill="black"/>
<path d="M127.7 15.9494C127.7 16.0253 127.7 16.1013 127.624 16.1772L127.473 16.481L127.019 17.2405H126.641L126.414 17.4684C126.338 17.5443 126.262 17.5443 126.111 17.5443L124.446 17.8481L124.219 17.9241L123.614 17.8481L122.782 17.9241L121.798 17.8481H121.495C121.344 17.7722 121.268 17.6962 121.268 17.6962L120.36 17.3924L120.058 17.0886L119.452 16.6329L118.998 15.9494L118.847 15.7975C118.923 15.6456 118.923 15.4937 118.923 15.4177C118.923 15.3418 118.923 15.3418 118.923 15.3418L118.696 14.9621L118.62 14.4304V13.9747C118.62 13.8228 118.62 13.6709 118.696 13.3671C118.771 12.9874 118.923 12.7595 118.923 12.6836L119.301 12.2279L119.452 11.8481L119.906 11.3924L120.36 10.7848L120.814 10.557L121.42 10.1013L121.798 9.7975L121.949 9.72155L122.252 9.6456L123.084 9.3418L123.765 9.26585L124.144 9.11395H124.371C124.673 9.11395 124.976 9.26585 125.203 9.6456C125.354 9.6456 125.43 9.56965 125.43 9.41775L125.657 9.6456L126.035 9.7975L126.792 10.557C126.868 10.7089 126.943 10.7848 127.019 10.8608C127.095 10.9367 127.095 11.0127 127.17 11.1646C127.246 11.2405 127.246 11.3924 127.322 11.4684C127.397 11.5443 127.397 11.7722 127.473 12L127.549 12.2279H127.473L127.095 12.1519L126.716 12.3038L126.414 12.2279L126.035 12.3038L125.354 12.2279H124.749L124.068 12.1519H123.009H122.479L121.193 12.3038H120.739L120.133 12.4557L119.906 12.5317V12.7595C119.906 12.9114 119.906 12.9874 119.831 13.0633C119.831 13.1393 119.755 13.2152 119.604 13.2912V13.4431C119.831 13.595 119.906 13.6709 119.906 13.7469L120.133 14.7342L120.285 14.9621C120.209 15.038 120.209 15.114 120.209 15.114L120.587 15.1899L120.663 15.4177C120.739 15.6456 120.814 15.7975 120.89 15.7975L121.42 16.0253L121.571 16.4051C121.647 16.481 121.798 16.481 122.025 16.481L122.176 16.7089H122.479L123.311 17.0127L123.992 16.8608L125.808 16.557L126.187 16.3291L126.792 15.9494L127.322 15.2659C127.397 15.1899 127.549 15.114 127.624 15.114C127.549 15.7215 127.7 15.7975 127.7 15.9494ZM125.43 11.5443C125.43 11.4684 125.279 11.2405 125.052 10.9367L124.371 10.481L124.144 10.2532H123.841L123.16 10.1772H123.009L122.63 10.4051L122.101 10.557L121.42 10.7848L121.193 10.8608L120.89 11.3165C120.739 11.4684 120.587 11.5443 120.587 11.5443V11.6203L121.722 11.6962H121.874L122.101 11.6203L122.328 11.6962L122.857 11.7722L123.463 11.6962L123.69 11.6203L123.841 11.8481H124.068L124.9 11.6962H125.203C125.354 11.7722 125.43 11.6962 125.43 11.5443Z" fill="black"/>
<path d="M136.553 15.1899C136.553 15.4177 136.477 15.6456 136.402 15.7974C136.326 15.9493 136.175 16.0253 136.099 16.0253C136.099 16.0253 136.023 16.0253 135.948 16.0253L135.796 16.2531L135.645 16.7088L135.191 17.1645L134.964 17.3924H134.737L133.829 17.8481L133.451 17.924L132.77 18.1519L132.24 18.0759L131.408 18.3038C131.332 18.3038 131.029 18.2278 130.5 18.1519C130.273 18.0759 130.046 18.0759 129.97 18L129.592 17.7721L129.138 17.5443C128.911 17.3924 128.759 17.2405 128.684 17.0886C128.532 16.8607 128.532 16.7088 128.532 16.5569C128.532 16.481 128.608 16.3291 128.835 16.1772C129.062 16.0253 129.289 15.8734 129.516 15.7215L129.743 16.0253L129.894 16.8607L130.197 17.0886L130.727 17.5443L130.954 17.6202L131.483 17.8481H131.862H132.089L132.543 17.6962L133.299 17.6202L133.678 17.3924L134.056 17.2405C134.283 17.0886 134.51 16.7848 134.737 16.405C134.964 15.9493 135.04 15.5696 135.04 15.2658C135.04 15.1139 134.964 15.038 134.888 14.8861L134.51 14.3544L134.434 14.1266L134.207 14.0506L134.056 14.2025H133.829L133.299 14.1266H132.694L132.467 13.7468C132.316 13.8987 132.24 13.9747 132.164 14.0506C132.089 14.1266 131.937 14.1266 131.71 14.2025L131.408 14.2785L131.256 14.2025H131.029L130.802 14.0506L130.5 14.1266L130.197 13.9747L129.819 13.8228C129.667 13.7468 129.516 13.6709 129.44 13.443C129.365 13.2152 129.289 13.0633 129.289 12.8354C129.289 12.5316 129.365 12.2278 129.592 11.8481C129.819 11.4683 130.121 11.1645 130.5 10.8607C130.802 10.6329 131.181 10.405 131.559 10.1772C131.937 9.94935 132.316 9.79745 132.694 9.64555C133.072 9.49365 133.375 9.49365 133.602 9.49365C133.678 9.49365 133.905 9.5696 134.283 9.7215L134.586 9.79745C135.04 9.7215 135.267 9.7215 135.418 9.7215C135.569 9.7215 135.721 9.7215 135.872 9.79745C135.948 9.8734 136.023 9.94935 136.023 10.0253C136.023 10.1012 135.948 10.2531 135.721 10.405C135.494 10.5569 135.342 10.7088 135.04 10.7848L134.737 10.9367H134.51H134.056L133.678 10.8607L133.526 10.5569H133.375L133.224 10.7088H132.921H132.618L132.24 10.7848L131.937 10.7088L131.786 10.7848L131.181 11.1645C130.727 11.5443 130.575 11.8481 130.575 12.1519C130.575 12.3797 130.651 12.5316 130.727 12.5316L131.332 12.8354L131.483 12.9114V13.1392L131.786 13.2911L132.089 12.9873H132.24L133.829 12.9114L134.586 13.0633L134.964 12.9873L135.418 13.2911L136.099 13.6709C136.25 13.7468 136.326 13.9747 136.477 14.2785L136.553 14.5063C136.477 14.5823 136.553 14.8861 136.553 15.1899Z" fill="black"/>
<path d="M144.271 9.72154L144.195 9.94939V10.1772L143.514 10.7089L143.136 11.0886H142.909H142.531C142.304 11.0886 142.077 11.0127 141.925 11.0127C141.698 10.9367 141.623 10.9367 141.623 10.9367L141.017 11.0127L140.639 10.9367C140.563 10.9367 140.488 11.0127 140.412 11.0127C140.336 11.0127 140.336 11.0886 140.336 11.1646C140.336 11.2405 140.336 11.2405 140.412 11.3165V12.5317C140.109 12.6076 140.034 12.7595 140.034 12.9114V13.1393L140.412 13.2152V14.1266V14.3545L140.336 14.6583C140.261 14.6583 140.185 14.5823 140.185 14.5823C140.034 14.5823 139.958 14.6583 139.958 14.8102C139.958 14.8861 140.034 14.9621 140.109 15.1139C140.185 15.038 140.261 14.962 140.261 14.962C140.261 14.962 140.336 15.038 140.412 15.1139V16.4051V16.557L140.639 17.0127C140.639 17.0127 140.639 17.1646 140.639 17.3165C140.79 17.3924 140.942 17.4684 141.017 17.4684C141.093 17.4684 141.244 17.4684 141.396 17.4684C141.623 17.4684 141.774 17.4684 142.001 17.3924C142.228 17.3165 142.379 17.2405 142.455 17.1646L143.363 16.3291C143.363 16.2532 143.439 16.2532 143.514 16.2532C143.59 16.2532 143.666 16.3291 143.817 16.4051L143.741 16.6329C143.59 17.1646 143.514 17.3924 143.439 17.4684L141.244 18.3038L140.866 18.5317L140.563 18.3798H140.336L140.261 18.6076H140.109C139.958 18.6076 139.731 18.5317 139.428 18.3038C139.201 18.076 139.05 17.9241 138.974 17.8481L138.899 17.5443L138.823 17.2405V16.7089V16.1013L138.974 15.4937L138.899 15.2658V14.962V14.7342V13.8228V13.595V13.2912L139.126 12.9874C139.126 12.9114 139.201 12.9114 139.201 12.9114C139.201 12.7595 139.126 12.6836 138.899 12.6836L138.823 12.6076C138.899 12.1519 138.899 11.6962 138.899 11.2405C138.596 11.1646 138.369 11.1646 138.218 11.1646C137.839 11.1646 137.461 11.2405 137.083 11.3924C137.007 11.3165 137.007 11.3165 137.007 11.2405C137.007 11.1646 137.007 11.0886 137.083 11.0127L137.461 10.7089L137.537 10.481C137.537 10.4051 137.612 10.4051 137.612 10.3291C137.688 10.3291 137.688 10.2532 137.688 10.2532H138.747H138.974V10.0253L138.899 8.05066L138.672 7.51901L138.747 6.75952C138.899 6.53167 139.126 6.30382 139.277 6.22787C139.428 6.15192 139.731 6.00003 140.034 6.00003C140.185 5.77218 140.261 5.69623 140.336 5.69623C140.488 5.69623 140.563 6.00003 140.563 6.53167C140.563 7.36711 140.488 7.97471 140.336 8.35446C140.261 8.5823 140.185 8.7342 140.109 8.7342V9.1899C140.185 9.1899 140.261 9.1899 140.261 9.1899C140.261 9.1899 140.336 9.26585 140.336 9.3418L140.261 9.56965V9.79749H140.488L141.396 10.0253C141.471 10.0253 141.547 10.0253 141.698 10.0253C141.85 10.0253 141.925 10.0253 142.001 10.0253L142.379 9.94939L143.06 9.87344L143.59 9.6456H143.741H143.817L144.271 9.72154Z" fill="black"/>
<path d="M165.685 20.5063C165.685 20.5063 165.685 20.5823 165.609 20.6582L165.155 21.038L164.701 21.7215H164.323L164.096 21.7975V21.5696L163.944 21.2658V21.038V20.8101C163.793 20.5823 163.793 20.4304 163.717 20.2025H163.566L163.49 19.9747L163.112 19.1392L163.036 18.7595L162.431 17.6962C162.355 17.5443 162.355 17.3924 162.355 17.2405V17.1645V17.0886C162.204 17.0126 162.128 16.9367 162.053 16.7848C161.75 16.3291 161.599 15.9494 161.523 15.6456L161.145 15.4937C161.069 15.8734 160.918 16.0253 160.766 16.0253H160.691L159.48 15.7975H159.026L158.723 15.7215L157.059 15.9494L156.075 15.8734L155.545 16.0253L155.167 15.8734L154.864 15.7975C154.789 15.9494 154.713 16.0253 154.637 16.0253C154.562 16.1012 154.486 16.1012 154.335 16.1012H154.259L153.2 16.0253L152.821 16.1012H152.292C152.14 16.1772 151.913 16.405 151.686 16.9367L151.459 17.3924L151.308 17.4683C151.081 18.0759 150.778 18.6076 150.4 19.1392V19.3671L150.249 19.5949L149.643 21.038C149.568 21.1899 149.416 21.2658 149.114 21.3418V21.4937C149.038 21.4937 148.887 21.4937 148.735 21.4937C148.508 21.4937 148.281 21.4177 148.054 21.2658L148.508 20.4304L148.811 20.0506L149.114 19.5949L149.265 19.3671L149.416 19.1392V19.0633C149.719 18.9873 149.87 18.8354 149.87 18.6076V18.3038L150.249 17.8481L150.778 16.7088L151.081 16.3291L151.384 15.5696L151.762 14.8101L152.216 14.0506L152.67 13.5949C152.67 13.5949 152.746 13.519 152.746 13.443C152.746 13.3671 152.67 13.2911 152.594 13.2152C152.746 13.1392 152.821 13.0633 152.897 12.9873C152.973 12.9114 153.048 12.8354 153.048 12.6835L152.897 12.4557L153.048 12.2278L153.2 11.6962C153.2 11.6202 153.351 11.5443 153.502 11.3924V11.2405L154.032 9.8734L154.41 8.73416C154.486 8.50631 154.637 8.27847 154.94 7.97467L154.864 7.74682L154.94 7.44302C155.016 7.21517 155.016 7.06328 155.091 6.98733C155.167 6.91138 155.243 6.83543 155.318 6.83543C155.394 6.75948 155.545 6.75948 155.697 6.75948L155.772 6.60758L155.621 6.22783C155.621 6.15188 155.545 6.07593 155.545 5.99998C155.545 5.92403 155.621 5.84808 155.697 5.77214L156.529 5.24049L156.68 4.86074C156.832 4.6329 157.059 4.55695 157.361 4.55695L157.513 5.01264H157.664L157.588 5.16454L157.74 5.54429L158.042 5.99998L158.496 6.83543L158.723 7.44302L159.026 7.97467L158.723 8.05062C158.723 8.12657 158.723 8.20252 158.799 8.27846C159.102 8.43036 159.253 8.58226 159.253 8.73416V8.96201L159.556 9.26581L159.858 9.79745L160.01 10.1012V10.1772L159.934 10.405L160.01 10.6329L160.161 10.8607L160.464 11.1645L160.842 12L161.069 12.3797V12.8354C161.372 13.1392 161.523 13.2911 161.523 13.443C161.523 13.443 161.523 13.519 161.447 13.5949L161.674 13.8228L162.204 14.7342C162.28 14.8101 162.28 14.8861 162.28 14.8861C162.28 14.962 162.355 15.038 162.431 15.1139C162.507 15.1899 162.507 15.3418 162.582 15.3418C162.734 15.5696 162.809 15.6456 162.809 15.7215C162.809 15.7975 162.809 15.8734 162.885 16.0253C163.188 16.1772 163.263 16.3291 163.263 16.481C163.263 16.481 163.263 16.481 163.263 16.5569L163.188 17.0886C163.188 17.0886 163.188 17.1645 163.263 17.2405L163.717 17.4683L163.869 17.6962L163.944 17.924C163.944 18.0759 164.096 18.1519 164.323 18.3038V18.6076L164.701 18.9873L165.079 19.5949L165.306 19.8228C165.382 19.9747 165.458 20.0506 165.533 20.2025C165.609 20.3544 165.685 20.4304 165.685 20.5063ZM160.918 14.5063L160.842 14.4304L160.918 14.3544L160.842 14.2025H160.615C160.539 14.1266 160.464 13.8228 160.388 13.2911V13.0633L159.934 12.9114L159.404 11.7721H159.177L158.496 10.3291L158.572 10.0253L158.496 9.7215L157.967 9.41771L157.134 7.74682C157.134 7.67087 156.907 7.44302 156.605 7.21517L156.453 7.29112L156.302 7.74682H156.226C156.151 8.05062 156.075 8.27847 155.999 8.35441C155.924 8.43036 155.848 8.50631 155.697 8.65821C155.47 8.81011 155.394 9.03796 155.394 9.18986L155.318 9.49365L154.789 10.6329C154.713 10.7848 154.713 10.8607 154.637 11.0126C154.562 11.1645 154.562 11.1645 154.562 11.2405C154.562 11.2405 154.486 11.3164 154.486 11.3924C154.41 11.4683 154.41 11.4683 154.335 11.5443L154.259 11.7721C154.183 11.924 154.183 12 154.108 12.0759C154.032 12.0759 153.956 12.1519 153.881 12.1519V12.4557C153.881 12.8354 153.805 13.1392 153.654 13.3671C153.502 13.5949 153.427 13.7468 153.124 13.8987L153.351 14.2025C153.275 14.2025 153.2 14.2025 153.124 14.2785C153.048 14.3544 153.048 14.4304 152.973 14.5063L152.897 14.8101H153.124L153.502 14.962L153.805 14.8861L154.108 14.962L154.183 14.8861H154.41L155.924 14.962L156.907 14.8861L157.286 15.038C157.361 14.962 157.361 14.962 157.437 14.962C157.437 14.962 157.513 14.962 157.664 14.962C157.815 14.962 158.042 14.962 158.345 14.8861L158.648 14.8101L158.572 14.962L158.648 15.038C158.723 15.038 158.799 14.962 158.875 14.8861H159.177C159.556 14.8101 159.934 14.8101 160.085 14.8101C160.312 14.8101 160.388 14.8101 160.464 14.7342C160.539 14.6582 160.615 14.6582 160.691 14.6582C160.691 14.6582 160.842 14.5823 160.918 14.5063Z" fill="black"/>
<path d="M174.992 16.1013V16.1772L174.916 16.6329C174.916 16.6329 174.916 16.6329 174.916 16.7089L174.538 17.2405L174.311 17.3165L173.932 17.5443H173.781L173.327 17.7722H172.722C172.646 17.7722 172.495 17.8481 172.268 17.9241L171.814 18.2279L171.057 18.3038L170.3 18.2279L170.149 18.076L169.619 18L169.014 17.8481L168.182 17.6203L167.803 17.2405L167.425 16.8608L167.501 16.557C167.349 16.6329 167.274 16.6329 167.198 16.6329H167.122L166.971 16.4051L166.744 16.0253L166.593 15.8734L166.517 15.3418L166.593 15.038L166.517 14.8861L166.29 14.6583L166.441 14.2026L166.366 13.3671L166.668 12.8355L167.047 12L167.576 11.5443L168.484 10.6329L168.787 10.4051L169.165 10.1772L169.317 10.1013L169.695 9.79749L170.906 9.41775L171.208 9.3418L171.662 9.56965L172.116 9.41775L173.024 9.56965L173.781 9.4937C173.857 9.4937 174.008 9.56965 174.084 9.56965C174.008 9.79749 174.008 9.87344 173.932 9.94939C173.857 10.0253 173.781 10.1013 173.554 10.1772V10.4051L173.176 10.6329L172.873 10.7848H172.646H172.343L170.906 10.557C170.83 10.557 170.754 10.557 170.679 10.557C170.603 10.557 170.527 10.557 170.527 10.557L169.771 10.7089H169.544C169.317 10.7089 169.09 10.9367 168.938 11.2405L168.56 11.3924L168.409 11.7722L168.106 11.8481C168.106 11.9241 168.106 11.9241 168.106 12L167.728 12.7595V13.0633V13.6709C167.728 13.9747 167.728 14.2026 167.803 14.3545C167.803 14.5064 167.879 14.7342 168.03 14.8861L167.955 15.1139C167.879 15.1899 167.879 15.2658 167.879 15.3418C167.879 15.3418 167.879 15.4177 167.955 15.4937C168.106 15.5696 168.257 15.5696 168.257 15.5696C168.333 15.6456 168.409 15.7215 168.56 15.9494L168.787 16.3291V16.4051C168.787 16.4051 168.787 16.481 168.863 16.557H169.09L169.165 16.7089L169.771 17.1646L169.998 17.3924L170.3 17.4684L170.603 17.5443H171.057L172.116 17.6203C172.192 17.6203 172.419 17.5443 172.797 17.3165L172.949 17.3924L173.63 16.9367C173.781 16.9367 173.932 16.8608 174.159 16.7089C174.311 16.6329 174.538 16.4051 174.84 16.1013C174.916 16.0253 174.992 15.9494 175.067 15.9494C175.143 15.9494 175.143 15.9494 175.219 16.0253C174.992 16.0253 174.992 16.1013 174.992 16.1013Z" fill="black"/>
<path d="M184.677 17.2405L184.601 17.3924L184.45 17.6202L184.147 17.6962L183.769 17.924L183.391 18C183.164 18.0759 183.012 18.1519 183.012 18.1519C182.937 18.1519 182.937 18.1519 182.861 18.0759C182.785 18 182.785 18 182.785 17.924C182.785 17.8481 182.785 17.6962 182.861 17.4683C182.861 17.3924 182.937 17.3164 182.937 17.1645L182.785 17.3164L181.953 17.6202C181.802 17.6962 181.65 17.7721 181.423 17.7721H181.045L180.591 18H180.288L179.38 18.1519L179.002 18.0759L178.775 18.1519H178.624H178.321L177.716 18H177.262C176.959 18 176.732 17.8481 176.505 17.6962C176.278 17.5443 176.127 17.3164 176.051 17.0886L175.824 17.0126L175.748 16.7848V16.6329L175.597 16.1772L175.975 15.4937L176.051 15.1899C176.051 15.1139 176.202 14.962 176.429 14.8101L177.186 14.2025L177.489 14.1266L178.018 13.8987C178.018 13.8987 178.018 13.8987 178.094 13.8987C178.245 13.5949 178.472 13.519 178.775 13.519L178.851 13.443H179.078C179.153 13.3671 179.229 13.2911 179.305 13.2152C179.38 13.2152 179.532 13.1392 179.759 13.0633L180.894 12.8354H181.272L181.726 12.7595L182.483 12.6835C182.785 12.6076 182.861 12.4557 182.861 12.3038V12.2278L182.785 11.7721L182.861 11.1645C182.861 11.0126 182.785 10.9367 182.71 10.8607C182.634 10.7848 182.558 10.7848 182.407 10.7089L182.256 10.481C182.104 10.2532 182.029 10.1013 181.953 10.0253C181.877 9.94936 181.726 9.87341 181.423 9.87341L180.894 9.72151H180.364H180.137C180.061 9.72151 180.061 9.64556 179.986 9.64556C179.986 9.64556 179.91 9.56961 179.91 9.49366L179.683 9.56961L179.38 9.87341L178.472 10.3291C178.245 10.4051 178.17 10.557 178.094 10.6329L177.943 10.7848C177.867 10.8607 177.791 10.9367 177.716 10.9367H177.564L177.262 10.7848L176.959 10.7089C176.883 10.7089 176.808 10.6329 176.656 10.557C176.581 10.481 176.505 10.4051 176.505 10.3291V10.2532L176.656 10.1772L176.959 9.94936L177.262 9.87341L177.791 9.64556L178.397 9.41771H178.548L178.926 9.18986L179.229 9.26581L180.364 9.03796H180.818H181.196L181.575 9.18986L182.71 9.41771L182.861 9.49366V9.64556L182.71 9.72151C182.71 9.94936 182.861 10.0253 182.937 10.0253L183.164 9.94936C183.239 9.94936 183.239 9.94936 183.315 10.0253L183.466 10.4051L183.693 10.557V10.7848V11.2405C183.693 11.4683 183.769 11.6202 183.996 11.7721L184.147 13.1392L183.92 13.519L184.223 13.8228V13.9747L184.147 14.8861L184.223 15.5696V15.7215V15.9494H184.072C184.072 16.1013 184.072 16.1772 184.072 16.2532C184.072 16.3291 184.072 16.3291 184.147 16.481C184.147 16.557 184.223 16.6329 184.299 16.7848L184.677 17.2405ZM183.164 15.6456C183.088 15.5696 183.012 15.4937 183.012 15.4177V15.038L182.937 14.2025L183.012 13.9747L182.71 13.8228H182.558L181.726 13.7468H181.348L181.045 13.519L180.894 13.5949H180.364L179.986 13.7468L179.759 13.5949L179.532 13.7468L178.094 14.4304L177.791 14.6582L177.564 15.038L177.262 15.2658C177.186 15.3418 177.186 15.3418 177.186 15.4177L177.262 15.4937V15.5696L177.489 16.4051L177.262 16.9367L177.413 17.0886L177.64 16.7848C177.716 16.8608 177.791 16.9367 177.867 16.9367C177.943 17.0126 178.018 17.0126 178.17 17.0886C178.245 17.0886 178.397 17.1645 178.548 17.1645L178.775 17.3924L179.456 17.4683L179.607 17.3164L179.759 17.3924L179.91 17.3164L179.986 17.2405C180.137 17.3164 180.213 17.3164 180.213 17.3164C180.364 17.3164 180.667 17.2405 180.969 17.0886C180.969 17.0886 181.045 17.0886 181.045 17.0126C181.045 16.9367 181.121 16.9367 181.196 16.9367C181.726 16.9367 182.104 16.7848 182.331 16.557L182.483 16.3291L182.937 15.9494V15.8734V15.7215C183.012 15.7215 183.088 15.6456 183.088 15.6456C183.088 15.6456 183.164 15.7215 183.164 15.6456Z" fill="black"/>
<path d="M196.178 17.5443V17.7722L195.951 17.8481L195.346 17.9241L194.665 18C194.665 17.7722 194.589 17.6203 194.589 17.5443C194.589 17.4684 194.514 17.3924 194.438 17.3924C194.362 17.4684 194.287 17.4684 194.287 17.5443C194.211 17.5443 194.135 17.6203 194.06 17.6203C193.984 17.6203 193.908 17.6962 193.833 17.6962C193.152 18.076 191.79 18.2278 189.898 18.2278C189.52 18.2278 189.293 18.2278 189.066 18.1519C188.914 18.076 188.763 18 188.687 17.7722C188.612 17.7722 188.46 17.8481 188.385 17.9241L188.082 17.8481C188.082 17.6962 188.006 17.6203 188.006 17.6203C188.006 17.5443 187.931 17.5443 187.779 17.4684L187.628 17.5443C187.401 17.4684 187.25 17.3924 187.174 17.3165C187.098 17.2405 186.871 17.0886 186.644 16.7848C186.644 16.7089 186.644 16.6329 186.644 16.557C186.644 16.4051 186.569 16.2532 186.417 16.1772L186.19 15.9494V15.7975L186.039 15.1139V14.962C186.039 14.7342 186.115 14.5063 186.19 14.2785V14.0506L186.266 13.8228L186.871 12.4557C186.947 12.2278 187.098 12.1519 187.25 12.1519H187.552L187.628 11.3924L188.006 11.0886L188.385 10.6329L188.687 10.481L188.839 10.3291C188.914 10.3291 188.99 10.2532 189.066 10.2532C189.141 10.2532 189.217 10.2532 189.293 10.2532C189.444 10.2532 189.52 10.2532 189.52 10.3291C189.595 10.3291 189.595 10.4051 189.671 10.481C189.747 10.3291 189.898 10.2532 190.125 10.1772V9.87342L190.428 9.79747C190.655 9.72152 190.806 9.64557 190.882 9.64557C190.957 9.64557 191.033 9.56962 191.109 9.56962H191.411L191.865 9.41772L192.092 9.56962C192.168 9.64557 192.244 9.64557 192.319 9.64557V9.72152C192.395 9.79747 192.395 9.79747 192.471 9.79747C192.546 9.79747 192.622 9.72152 192.698 9.49367L193.227 9.56962C193.606 9.64557 193.833 9.72152 193.908 9.72152C193.984 9.79747 194.06 9.87342 194.211 9.94937H194.741L194.665 9.79747L194.589 9.64557L194.514 8.96203L194.438 8.73418L194.514 8.27848L194.438 6.98734V6.83544L194.741 6.75949L194.589 6.6076L194.514 6.37975L194.362 5.92405C194.287 5.77215 194.287 5.62025 194.287 5.46836V5.31646L194.362 3.94937L194.287 3.34177L194.362 3.11392C194.438 3.11392 194.514 3.03798 194.589 2.96203L194.438 2.81013C194.287 2.81013 194.211 2.73418 194.06 2.65823V2.58228V2.43038L193.984 1.82279V1.21519C193.984 1.13924 193.908 0.987342 193.757 0.911392C193.833 0.683544 193.908 0.531646 194.06 0.531646L194.665 0.379747L195.043 0.151899L195.497 0.0759494L195.724 0C195.876 0.151899 195.951 0.303797 195.951 0.455696V0.683544L195.876 1.21519V1.51899L195.8 2.35443V2.96203L195.724 3.34177V4.17722C195.724 4.25317 195.649 4.40506 195.497 4.55696L195.8 5.31646L195.724 5.5443V6L195.649 6.1519L195.724 6.75949C195.724 6.83544 195.724 6.98734 195.649 7.13924H195.422C195.346 7.36709 195.346 7.44304 195.346 7.59494V7.67089L195.649 8.12658V8.81013L195.724 9.56962V9.87342V10.0253V10.1772L195.573 10.3291L195.649 11.2405V11.8481L195.724 12.4557V12.8354L195.8 13.2911V14.0506L195.951 14.8101V15.4177L196.027 15.8734V16.2532V16.6329C196.103 16.7089 196.178 16.7848 196.178 17.0127C196.178 17.2405 196.178 17.3924 196.178 17.5443ZM194.665 13.6709L194.589 13.0633C194.438 12.9873 194.362 12.9114 194.362 12.8354L194.438 12.4557L194.362 11.6962V11.5443L194.287 11.3165V11.0886C194.287 11.0127 194.287 10.9367 194.211 10.9367C194.211 10.9367 194.135 10.9367 194.135 10.8608L193.757 10.9367H193.681H193.53L191.79 10.481H191.184H190.957C190.882 10.481 190.882 10.481 190.882 10.481L190.579 10.6329H190.125L189.595 11.0127L189.217 11.0886L188.914 11.2405L188.536 11.6203C188.385 11.7722 188.309 11.9241 188.309 12V12.2278L187.931 12.6076L187.552 13.2152C187.477 13.443 187.401 13.5949 187.401 13.7468C187.401 13.8987 187.401 13.9747 187.477 14.1266L187.552 14.2785L187.779 15.038L188.006 15.4177V15.6456V15.7975L188.233 15.8734C188.385 16.1013 188.612 16.3291 188.763 16.481C188.99 16.7089 189.141 16.7848 189.368 16.9367L189.822 17.0886L189.974 17.1646H190.276H190.503L191.033 17.3924H191.184H191.638H192.546C192.698 17.3924 192.925 17.3165 193.227 17.2405C193.53 17.1646 193.757 17.0886 193.908 17.0127L194.362 16.6329L194.589 16.4051L194.514 16.1772L194.589 15.9494V15.6456V15.2658V14.8101V14.7342V14.4304L194.514 13.9747C194.287 13.8228 194.438 13.7468 194.665 13.6709Z" fill="black"/>
<path d="M206.999 15.9494C206.999 16.0253 206.999 16.1013 206.923 16.1772L206.772 16.481L206.318 17.2405H205.939L205.712 17.4684C205.637 17.5443 205.561 17.5443 205.41 17.5443L203.745 17.8481L203.518 17.9241L202.913 17.8481L202.08 17.9241L201.097 17.8481H200.794C200.643 17.7722 200.567 17.6962 200.567 17.6962L199.659 17.3924L199.356 17.0886L198.751 16.6329L198.297 15.9494L198.146 15.7975C198.221 15.6456 198.221 15.4937 198.221 15.4177C198.221 15.3418 198.221 15.3418 198.221 15.3418L197.994 14.9621L197.919 14.4304V13.9747C197.919 13.8228 197.919 13.6709 197.994 13.3671C198.07 12.9874 198.221 12.7595 198.221 12.6836L198.6 12.2279L198.751 11.8481L199.205 11.3924L199.659 10.7848L200.113 10.557L200.718 10.1013L201.097 9.7975L201.248 9.72155L201.551 9.6456L202.383 9.3418L203.064 9.26585L203.442 9.11395H203.669C203.972 9.11395 204.275 9.26585 204.502 9.6456C204.653 9.6456 204.729 9.56965 204.729 9.41775L204.956 9.6456L205.334 9.7975L206.091 10.557C206.166 10.7089 206.242 10.7848 206.318 10.8608C206.393 10.9367 206.393 11.0127 206.469 11.1646C206.545 11.2405 206.545 11.3924 206.62 11.4684C206.696 11.5443 206.696 11.7722 206.772 12L206.847 12.2279H206.772L206.393 12.1519L206.015 12.3038L205.712 12.2279L205.334 12.3038L204.653 12.2279H204.048L203.367 12.1519H202.307H201.778L200.491 12.3038H200.037L199.432 12.4557L199.205 12.5317V12.7595C199.205 12.9114 199.205 12.9874 199.129 13.0633C199.129 13.1393 199.054 13.2152 198.902 13.2912V13.4431C199.129 13.595 199.205 13.6709 199.205 13.7469L199.432 14.7342L199.583 14.9621C199.508 15.038 199.508 15.114 199.508 15.114L199.886 15.1899L199.962 15.4177C200.037 15.6456 200.113 15.7975 200.189 15.7975L200.718 16.0253L200.87 16.4051C200.945 16.481 201.097 16.481 201.324 16.481L201.475 16.7089H201.778L202.61 17.0127L203.291 16.8608L205.107 16.557L205.485 16.3291L206.091 15.9494L206.62 15.2659C206.696 15.1899 206.847 15.114 206.923 15.114C206.923 15.7215 206.999 15.7975 206.999 15.9494ZM204.804 11.5443C204.804 11.4684 204.653 11.2405 204.426 10.9367L203.745 10.481L203.518 10.2532H203.215L202.534 10.1772H202.383L202.005 10.4051L201.475 10.557L200.794 10.7848L200.567 10.8608L200.264 11.3165C200.113 11.4684 199.962 11.5443 199.962 11.5443V11.6203L201.097 11.6962H201.248L201.475 11.6203L201.702 11.6962L202.232 11.7722L202.837 11.6962L203.064 11.6203L203.215 11.8481H203.442L204.275 11.6962H204.577C204.729 11.7722 204.804 11.6962 204.804 11.5443Z" fill="black"/>
<path d="M219.938 17.4684L219.711 17.6203L219.257 17.8481L218.727 18.2279C218.727 18.2279 218.651 18.2279 218.576 18.2279C218.5 18.2279 218.424 18.2279 218.273 18.2279V17.7722V17.5443L218.424 17.0886L218.349 16.1772L218.424 15.6456V15.1899L218.576 14.7342V14.6582C218.576 14.5823 218.5 14.5063 218.424 14.4304V14.2025V13.2152C218.424 13.1392 218.424 13.0633 218.424 13.0633L218.651 12.3798L218.424 12L218.273 11.1646L218.197 10.9367L218.046 10.8608L217.592 10.6329C217.516 10.557 217.365 10.557 217.138 10.557C216.835 10.557 216.608 10.557 216.381 10.6329C216.154 10.7089 215.927 10.7848 215.625 10.8608C215.171 11.0886 214.944 11.3165 214.944 11.4684V12.1519L214.717 12.3038C214.717 12.3798 214.792 12.5317 214.944 12.6076L215.019 14.7342C214.944 14.8101 214.868 14.8101 214.868 14.8101C214.868 14.8101 214.792 14.8101 214.717 14.8101V15.038L215.019 15.5696L214.944 15.8734V16.0253C215.019 16.1772 215.019 16.4051 215.095 16.7089C215.171 17.0127 215.171 17.2405 215.171 17.3924C215.171 17.3924 215.171 17.4684 215.095 17.4684L214.944 17.5443L214.565 17.7722L214.036 18L213.884 18.076C213.884 18.076 213.809 18 213.657 17.9241V17.8481L213.733 16.8608V16.0253C213.733 15.8734 213.733 15.7975 213.809 15.7215C213.809 15.6456 213.884 15.5696 214.036 15.4937V15.3418L213.884 15.038V14.8101L213.733 14.5823V14.2785V13.519L214.036 13.1392V13.0633C214.036 12.9114 213.96 12.8354 213.884 12.8354C213.809 12.8354 213.809 12.8354 213.809 12.8354L213.733 12.6836V12.4557V12.076V11.8481C213.733 11.0886 213.506 10.6329 213.128 10.6329C213.052 10.6329 212.976 10.6329 212.825 10.7089L212.598 10.4051L212.371 10.481L212.22 10.6329L211.766 10.7089L211.312 10.8608L210.933 10.9367L210.706 11.0127L210.631 11.2405C210.479 11.5443 210.328 11.8481 210.328 12C210.252 12.1519 210.252 12.3798 210.252 12.6836V12.8354V14.1266V14.3544L210.025 14.4304L210.101 14.6582L210.328 14.962V15.9494L210.479 17.6203C210.479 17.6203 210.479 17.6962 210.404 17.6962C210.328 17.7722 210.328 17.7722 210.252 17.8481L209.647 18.1519C209.571 18.1519 209.496 18.2279 209.42 18.2279C209.344 18.2279 209.269 18.2279 209.117 18.1519V17.9241V17.6962V16.7848L209.042 16.4051L209.193 16.1013L209.269 15.8734L209.117 15.7215V15.4937V15.3418V15.1899L209.269 14.962L209.344 14.7342V14.5063C209.269 14.5063 209.193 14.4304 209.117 14.3544C209.042 14.2785 209.042 14.1266 209.042 13.8228C209.042 13.6709 209.042 13.443 209.042 13.3671V12.9114V12.6836H209.193V12.2279V11.9241L209.042 11.5443L208.966 10.8608L208.89 10.481V10.2532L208.815 10.3291L208.588 10.1772C208.663 9.94937 208.815 9.79748 209.042 9.64558C209.269 9.49368 209.496 9.34178 209.95 9.18988C210.101 9.34178 210.252 9.41773 210.252 9.49368C210.328 9.56963 210.328 9.72153 210.328 9.87343V10.2532V10.6329L210.706 10.557L211.085 10.1772L211.312 10.1013L211.69 9.79748L212.749 9.41773L212.901 9.34178L213.128 9.26583C213.203 9.34178 213.279 9.49368 213.279 9.64558L213.43 9.72153L213.582 9.64558V9.41773C213.733 9.34178 213.884 9.26583 213.96 9.26583C213.96 9.26583 214.036 9.26583 214.111 9.26583L214.187 9.18988C214.263 9.18988 214.338 9.18988 214.414 9.18988C214.641 9.18988 214.792 9.26583 214.944 9.41773C215.095 9.56963 215.171 9.79748 215.246 10.0253C215.246 10.1013 215.322 10.1772 215.322 10.2532C215.322 10.3291 215.398 10.3291 215.473 10.4051L215.625 10.2532L215.927 9.94937L216.306 9.79748L216.835 9.49368L217.062 9.41773H217.441L217.819 9.34178H218.349H218.651L218.954 9.49368L219.332 9.56963C219.711 9.64558 219.862 9.87342 219.862 10.1772C219.786 10.2532 219.711 10.3291 219.711 10.4051C219.711 10.4051 219.711 10.481 219.786 10.481L219.862 10.557C219.938 10.557 219.938 10.557 220.013 10.557V10.7848V11.3165L220.089 11.5443V11.6962V12.3038V12.8354V13.0633L220.013 13.2152C219.938 13.2911 219.938 13.3671 219.938 13.443L220.013 14.4304V14.7342V15.3418V15.6456C220.013 15.7215 219.938 15.7975 219.786 15.8734V16.1772L219.938 16.1013V16.3291V17.0127V17.4684Z" fill="black"/>
<path d="M230.304 15.9494L230.001 16.8607V17.0126L230.153 17.2405L230.077 17.7721V18.5316L230.001 18.7595V19.7468L229.85 20.0506L229.774 20.5063L229.623 20.8101V21.2658L229.32 22.1013L229.245 22.3291L228.942 22.481L228.261 23.3924L227.807 24C227.656 24.2278 227.504 24.3797 227.353 24.4557L227.126 24.6076L226.899 24.8354L226.596 24.9873L226.445 25.1392L226.067 25.2152C226.067 25.2152 225.84 25.2911 225.461 25.519L224.856 25.7468L224.024 25.9747L223.116 25.8987L222.662 25.8228C222.435 25.8228 222.283 25.7468 222.056 25.6709L221.451 25.2911L221.148 25.2152L220.921 24.8354L220.392 24.5316C220.24 24.4557 220.24 24.2278 220.24 24C220.24 23.7721 220.316 23.4683 220.543 23.2405C220.619 23.1645 220.694 23.1645 220.921 23.0886L220.997 23.3924L221.073 23.6202L221.451 24.1519L221.829 24.7595C221.981 24.9114 222.056 24.9873 222.132 24.9873H222.283L223.04 25.2911L223.721 25.3671C223.797 25.443 223.872 25.443 223.948 25.443C224.024 25.443 224.099 25.3671 224.175 25.2911H224.402C224.629 25.2911 225.007 25.2152 225.537 24.9873C225.991 24.7595 226.218 24.6076 226.294 24.5316L226.975 23.7721L227.429 23.4683C227.58 23.3164 227.731 23.0886 227.807 22.7848L228.034 22.0253L228.412 21.4937L228.337 21.1139L228.488 20.3544V19.5949C228.488 19.3671 228.564 19.0633 228.639 18.8354L228.791 18.3038L228.715 17.8481L228.639 16.5569V16.3291V16.2532L228.791 15.7215L228.715 15.5696L228.412 15.7215L228.11 15.8734L227.807 16.1772L226.899 16.7848L226.445 17.2405L225.764 17.7721C225.537 17.924 225.386 18 225.31 18L224.705 18.0759L224.402 18.2278C224.251 18.2278 224.175 18.3038 224.099 18.3038C223.872 18.3038 223.494 18.2278 223.116 18.0759C222.737 17.924 222.435 17.7721 222.283 17.6202C222.056 17.3924 221.905 17.0886 221.905 16.7088V16.481C222.056 16.405 222.132 16.3291 222.132 16.2532L221.905 15.9494V15.6456L221.981 15.4177L222.359 14.5823L222.283 14.2785V14.1266C222.283 14.0506 222.283 13.8987 222.359 13.6709L222.51 12.9873C222.51 12.8354 222.586 12.6835 222.586 12.5316V11.7721L222.737 11.0126C222.737 10.9367 222.662 10.7848 222.586 10.7088H222.359V10.5569L222.737 10.1772L222.964 10.1013L223.267 10.0253L224.175 9.49366H224.251C224.326 9.49366 224.402 9.49366 224.478 9.56961C224.553 9.64555 224.553 9.7215 224.553 9.8734V9.79745L224.251 10.5569L224.099 11.2405L223.872 12.3038L223.797 12.9114C223.797 12.9873 223.721 13.0633 223.645 13.0633L223.343 13.1392C223.267 13.1392 223.191 13.2152 223.191 13.3671C223.191 13.519 223.343 13.5949 223.57 13.5949L223.267 15.5696L223.191 16.1013L223.267 16.2532L223.418 16.405L223.721 16.8607L224.251 17.0886L224.478 17.3924L224.629 17.4683H224.705L225.007 17.2405L225.915 16.9367L226.294 16.6329L226.975 16.1772L227.58 15.5696L227.958 15.3418L228.11 15.2658L228.488 14.3544H228.564V14.2025L228.791 13.9747L228.715 13.443L228.791 13.2911L228.715 12.9114L228.791 12.6835L228.639 11.8481L228.564 10.7088L228.261 10.1772C228.261 10.1772 228.261 10.1013 228.261 10.0253V9.8734L228.639 9.7215L228.942 9.41771L229.472 9.34176L229.699 9.26581C229.85 9.41771 230.001 9.49366 230.001 9.56961V9.64555L229.926 9.94935V10.6329L229.85 10.9367V11.1645L229.774 11.6202V11.7721C229.85 12 229.926 12.1519 230.001 12.3038C230.077 12.3797 230.077 12.5316 230.077 12.5316V12.8354V13.443L229.926 13.7468C229.926 13.8228 229.926 13.8987 229.926 13.8987C229.926 14.0506 230.001 14.2785 230.228 14.4304V14.6582L230.304 15.9494Z" fill="black"/>
</svg>
