<svg width="118" height="216" viewBox="0 0 118 216" fill="none" xmlns="http://www.w3.org/2000/svg">
<path d="M50.6 166.2H49.6C49.6 161.6 45.8 157.8 41.2 157.8V156.8C45.8 156.8 49.6 153 49.6 148.4H50.6C50.6 153 54.4 156.8 59 156.8V157.8C54.4 157.8 50.6 161.6 50.6 166.2ZM44.2 157.3C47 158.2 49.1 160.4 50.1 163.2C51 160.4 53.2 158.3 56 157.3C53.2 156.4 51.1 154.2 50.1 151.4C49.1 154.2 47 156.4 44.2 157.3Z" fill="white"/>
<path d="M109.6 21.1999H108.6C108.6 16.5999 104.8 12.7999 100.2 12.7999V11.7999C104.8 11.7999 108.6 7.9999 108.6 3.3999H109.6C109.6 7.9999 113.4 11.7999 118 11.7999V12.7999C113.4 12.7999 109.6 16.5999 109.6 21.1999ZM103.2 12.2999C106 13.1999 108.1 15.3999 109.1 18.1999C110 15.3999 112.2 13.2999 115 12.2999C112.2 11.3999 110.1 9.1999 109.1 6.3999C108.1 9.1999 106 11.3999 103.2 12.2999Z" fill="white"/>
<path d="M35.7 207.7C35.4 207.7 35.2 207.5 35.2 207.2C35.2 201.1 30.3 196.2 24.2 196.2C23.9 196.2 23.7 196 23.7 195.7C23.7 195.4 23.9 195.2 24.2 195.2C30.3 195.2 35.2 190.3 35.2 184.2C35.2 183.9 35.4 183.7 35.7 183.7C36 183.7 36.2 183.9 36.2 184.2C36.2 190.3 41.1 195.2 47.2 195.2C47.5 195.2 47.7 195.4 47.7 195.7C47.7 196 47.5 196.2 47.2 196.2C41.1 196.2 36.2 201.1 36.2 207.2C36.2 207.5 36 207.7 35.7 207.7ZM27.6 195.7C31.5 196.9 34.5 199.9 35.7 203.8C36.9 199.9 39.9 196.9 43.8 195.7C39.9 194.5 36.9 191.5 35.7 187.6C34.5 191.5 31.5 194.6 27.6 195.7Z" fill="white"/>
<path d="M16.7 24.7C16.4 24.7 16.2 24.5 16.2 24.2C16.2 18.1 11.3 13.2 5.19995 13.2C4.89995 13.2 4.69995 13 4.69995 12.7C4.69995 12.4 4.89995 12.2 5.19995 12.2C11.3 12.2 16.2 7.29995 16.2 1.19995C16.2 0.899951 16.4 0.699951 16.7 0.699951C17 0.699951 17.2 0.899951 17.2 1.19995C17.2 7.29995 22.1 12.2 28.2 12.2C28.5 12.2 28.7 12.4 28.7 12.7C28.7 13 28.5 13.2 28.2 13.2C22.1 13.2 17.2 18.1 17.2 24.2C17.2 24.5 17 24.7 16.7 24.7ZM8.59998 12.7C12.5 13.9 15.5 16.9 16.7 20.7999C17.9 16.9 20.9 13.9 24.8 12.7C20.9 11.5 17.9 8.49995 16.7 4.59995C15.5 8.49995 12.5 11.6 8.59998 12.7Z" fill="white"/>
<path d="M94 76C93.7 76 93.5 75.8 93.5 75.5C93.5 69.4 88.6 64.5 82.5 64.5C82.2 64.5 82 64.3 82 64C82 63.7 82.2 63.5 82.5 63.5C88.6 63.5 93.5 58.6 93.5 52.5C93.5 52.2 93.7 52 94 52C94.3 52 94.5 52.2 94.5 52.5C94.5 58.6 99.4 63.5 105.5 63.5C105.8 63.5 106 63.7 106 64C106 64.3 105.8 64.5 105.5 64.5C99.4 64.5 94.5 69.4 94.5 75.5C94.5 75.8 94.3 76 94 76ZM85.9 64C89.8 65.2 92.8 68.2 94 72.1C95.2 68.2 98.2001 65.2 102.1 64C98.2001 62.8 95.2 59.8 94 55.9C92.8 59.8 89.8 62.9 85.9 64Z" fill="white"/>
<path d="M5 212.2C2.5 212.2 0.5 210.2 0.5 207.7C0.5 205.2 2.5 203.2 5 203.2C7.5 203.2 9.5 205.2 9.5 207.7C9.5 210.2 7.5 212.2 5 212.2ZM5 204.1C3.1 204.1 1.5 205.7 1.5 207.6C1.5 209.5 3.1 211.1 5 211.1C6.9 211.1 8.5 209.5 8.5 207.6C8.5 205.7 6.9 204.1 5 204.1Z" fill="white"/>
<path d="M105 146.2C102.5 146.2 100.5 144.2 100.5 141.7C100.5 139.2 102.5 137.2 105 137.2C107.5 137.2 109.5 139.2 109.5 141.7C109.5 144.2 107.5 146.2 105 146.2ZM105 138.1C103.1 138.1 101.5 139.7 101.5 141.6C101.5 143.5 103.1 145.1 105 145.1C106.9 145.1 108.5 143.5 108.5 141.6C108.5 139.7 106.9 138.1 105 138.1Z" fill="white"/>
<path d="M32 41.2C29.5 41.2 27.5 39.2 27.5 36.7C27.5 34.2 29.5 32.2 32 32.2C34.5 32.2 36.5 34.2 36.5 36.7C36.5 39.2 34.5 41.2 32 41.2ZM32 33.0999C30.1 33.0999 28.5 34.6999 28.5 36.5999C28.5 38.4999 30.1 40.0999 32 40.0999C33.9 40.0999 35.5 38.4999 35.5 36.5999C35.5 34.6999 33.9 33.0999 32 33.0999Z" fill="white"/>
<path d="M64 17.2C61.5 17.2 59.5 15.2 59.5 12.7C59.5 10.2 61.5 8.19995 64 8.19995C66.5 8.19995 68.5 10.2 68.5 12.7C68.5 15.2 66.5 17.2 64 17.2ZM64 9.09995C62.1 9.09995 60.5 10.7 60.5 12.6C60.5 14.5 62.1 16.1 64 16.1C65.9 16.1 67.5 14.5 67.5 12.6C67.5 10.7 65.9 9.09995 64 9.09995Z" fill="white"/>
<path d="M80 33.2C77.5 33.2 75.5 31.2 75.5 28.7C75.5 26.2 77.5 24.2 80 24.2C82.5 24.2 84.5 26.2 84.5 28.7C84.5 31.2 82.5 33.2 80 33.2ZM80 25.1C78.1 25.1 76.5 26.6999 76.5 28.5999C76.5 30.4999 78.1 32.0999 80 32.0999C81.9 32.0999 83.5 30.4999 83.5 28.5999C83.5 26.6999 81.9 25.1 80 25.1Z" fill="white"/>
<path d="M68.1 181.7C66 181.7 64.3 180 64.3 177.9C64.3 175.8 66 174.1 68.1 174.1C70.2 174.1 71.9 175.8 71.9 177.9C71.9 180 70.1 181.7 68.1 181.7ZM68.1 175.2C66.6 175.2 65.3 176.4 65.3 178C65.3 179.6 66.5 180.8 68.1 180.8C69.7 180.8 70.9 179.6 70.9 178C70.9 176.4 69.6 175.2 68.1 175.2Z" fill="white"/>
<path d="M103 206.7C100.9 206.7 99.2 205 99.2 202.9C99.2 200.8 100.9 199.1 103 199.1C105.1 199.1 106.8 200.8 106.8 202.9C106.8 205 105.1 206.7 103 206.7ZM103 200.2C101.5 200.2 100.2 201.4 100.2 203C100.2 204.6 101.4 205.8 103 205.8C104.6 205.8 105.8 204.6 105.8 203C105.8 201.4 104.5 200.2 103 200.2Z" fill="white"/>
<path d="M90.7 196.8C86.6 196.8 83.2 193.5 83.2 189.3C83.2 185.1 86.5 181.8 90.7 181.8C94.9 181.8 98.2 185.1 98.2 189.3C98.2 193.5 94.8 196.8 90.7 196.8ZM90.7 182.8C87.1 182.8 84.2 185.7 84.2 189.3C84.2 192.9 87.1 195.8 90.7 195.8C94.3 195.8 97.2 192.9 97.2 189.3C97.2 185.7 94.3 182.8 90.7 182.8Z" fill="white"/>
<path d="M90.7 202.3C90.6 202.3 90.5001 202.3 90.4001 202.2L86.6 199.2L81.8001 198.6C81.6001 198.6 81.4001 198.4 81.4001 198.2L80.8001 193.4L77.8001 189.6C77.7001 189.4 77.7001 189.2 77.8001 189L80.8001 185.2L81.4001 180.4C81.4001 180.2 81.6001 180 81.8001 180L86.6 179.4L90.4001 176.4C90.6001 176.3 90.8 176.3 91 176.4L94.8001 179.4L99.6 180C99.8 180 100 180.2 100 180.4L100.6 185.2L103.6 189C103.7 189.2 103.7 189.4 103.6 189.6L100.6 193.4L100 198.2C100 198.4 99.8 198.6 99.6 198.6L94.8001 199.2L91 202.2C90.9 202.3 90.8 202.3 90.7 202.3ZM82.3001 197.7L86.9001 198.2C87.0001 198.2 87.1 198.2 87.1 198.3L90.7 201.1L94.3001 198.3C94.4001 198.2 94.5 198.2 94.5 198.2L99 197.7L99.5 193.1C99.5 193 99.5 192.9 99.6 192.9L102.4 189.3L99.6 185.7C99.5 185.6 99.5 185.5 99.5 185.5L99 180.9L94.4001 180.4C94.3001 180.4 94.2 180.4 94.2 180.3L90.6 177.5L87 180.3C86.9 180.4 86.8001 180.4 86.8001 180.4L82.2 180.9L81.7 185.4C81.7 185.5 81.7 185.6 81.6 185.6L78.8001 189.2L81.6 192.8C81.7 192.9 81.7 193 81.7 193L82.3001 197.7Z" fill="white"/>
<path d="M90.7 208.5C80.1 208.5 71.5 199.9 71.5 189.3C71.5 178.7 80.1 170.1 90.7 170.1C101.3 170.1 109.9 178.7 109.9 189.3C109.9 193.6 108.5 197.7 105.8 201.1C105.7 201.2 105.6 201.3 105.4 201.3C105.3 201.3 105.1 201.2 105 201.1C104.5 200.5 103.7 200.2 102.9 200.2C101.4 200.2 100.1 201.4 100.1 203C100.1 203.7 100.4 204.4 100.8 204.9C100.9 205 100.9 205.2 100.9 205.3C100.9 205.4 100.8 205.6 100.7 205.7C97.8 207.5 94.3 208.5 90.7 208.5ZM90.7 171.1C80.7 171.1 72.5 179.3 72.5 189.3C72.5 199.3 80.7 207.5 90.7 207.5C93.9 207.5 97.1 206.6 99.8 205C99.4 204.4 99.2 203.7 99.2 202.9C99.2 200.8 100.9 199.1 103 199.1C103.9 199.1 104.7 199.4 105.4 200C107.7 196.9 108.9 193.2 108.9 189.2C108.9 179.3 100.7 171.1 90.7 171.1Z" fill="white"/>
<path d="M90.6998 215.1C76.4998 215.1 64.8999 203.5 64.8999 189.3C64.8999 186.4 65.3999 183.5 66.2999 180.8C66.2999 180.7 66.3999 180.6 66.5999 180.5C66.6999 180.4 66.8999 180.4 66.9999 180.5C67.2999 180.6 67.6999 180.7 68.0999 180.7C69.5999 180.7 70.8999 179.5 70.8999 177.9C70.8999 176.9 70.3999 176 69.4999 175.5C69.3999 175.4 69.2999 175.3 69.2999 175.2C69.2999 175.1 69.2999 174.9 69.3999 174.8C74.1999 167.7 82.1999 163.4 90.7999 163.4C105 163.4 116.6 175 116.6 189.2C116.6 203.4 104.9 215.1 90.6998 215.1ZM67.0999 181.6C66.2999 184.1 65.8999 186.7 65.8999 189.3C65.8999 203 76.9998 214.1 90.6998 214.1C104.4 214.1 115.5 203 115.5 189.3C115.5 175.6 104.4 164.5 90.6998 164.5C82.5998 164.5 75.0999 168.4 70.3999 175C71.2999 175.7 71.7999 176.8 71.7999 177.9C71.7999 180 70.0999 181.7 67.9999 181.7C67.6999 181.7 67.3999 181.7 67.0999 181.6Z" fill="white"/>
<path d="M63.9 42.3001C63.7 42.3001 63.5 42.3001 63.3 42.2001C62.5 42.0001 61.9 41.6001 61.5 40.9001C61.1 40.2001 60.8999 39.5001 61.0999 38.7001C61.2999 37.9001 61.7 37.3001 62.4 36.9001C63.1 36.5001 63.7999 36.3001 64.5999 36.5001C66.1999 36.9001 67.2 38.4001 66.8 40.0001C66.6 40.8001 66.2 41.4001 65.5 41.8001C65 42.2001 64.5 42.3001 63.9 42.3001ZM63.9 37.5001C63.5 37.5001 63.2 37.6001 62.9 37.8001C62.5 38.1001 62.1999 38.5001 62.0999 39.0001C61.9999 39.5001 62.1 40.0001 62.4 40.4001C62.7 40.8001 63.0999 41.1001 63.5999 41.2001C64.0999 41.3001 64.6 41.2001 65 40.9001C65.4 40.6001 65.7 40.2001 65.8 39.7001C66 38.7001 65.4 37.6001 64.3 37.4001C64.2 37.5001 64 37.5001 63.9 37.5001Z" fill="white"/>
<path d="M65.1998 51.9C64.9998 51.9 64.7999 51.9 64.5999 51.8L52.0999 48.9C51.3999 48.7 50.8999 48.3 50.4999 47.7C50.0999 47.1 49.9998 46.4 50.1998 45.7L50.2999 45.2C50.5999 43.8 51.9999 42.9 53.3999 43.3L65.8999 46.2C66.5999 46.4 67.0999 46.8 67.4999 47.4C67.8999 48 67.9999 48.7 67.7999 49.4L67.6998 49.9C67.4998 51.1 66.3998 51.9 65.1998 51.9ZM64.8999 50.9C65.7999 51.1 66.5999 50.6 66.7999 49.7L66.8999 49.2C66.9999 48.8 66.8998 48.4 66.6998 48C66.4998 47.6 66.0998 47.4 65.6998 47.3L53.1998 44.4C52.2998 44.2 51.4999 44.7 51.2999 45.6L51.1998 46.1C51.0998 46.5 51.1999 46.9 51.3999 47.3C51.5999 47.7 51.9999 47.9 52.3999 48L64.8999 50.9Z" fill="white"/>
<path d="M50.6999 91.4C50.1999 91.4 49.8 91.4 49.3 91.3C46 90.6 43.8999 87.3 44.5999 83.9L52.5999 48.2L64.5999 50.9L56.5999 86.5999C56.1999 88.1999 55.2999 89.5999 53.8999 90.5C52.9999 91.0999 51.7999 91.4 50.6999 91.4ZM45.5999 84.0999C44.9999 86.8999 46.6999 89.6 49.4999 90.3C50.7999 90.6 52.1999 90.3999 53.3999 89.5999C54.5999 88.7999 55.3999 87.7 55.6999 86.4L63.3999 51.7L53.3 49.5L45.5999 84.0999Z" fill="white"/>
<path d="M50.6999 91.4C50.1999 91.4 49.8 91.4 49.3 91.3C46 90.6 43.8999 87.3 44.5999 83.9L52.5999 48.2L64.5999 50.9L56.5999 86.5999C56.1999 88.1999 55.2999 89.5999 53.8999 90.5C52.9999 91.0999 51.7999 91.4 50.6999 91.4ZM45.5999 84.0999C44.9999 86.8999 46.6999 89.6 49.4999 90.3C50.7999 90.6 52.1999 90.3999 53.3999 89.5999C54.5999 88.7999 55.3999 87.7 55.6999 86.4L63.3999 51.7L53.3 49.5L45.5999 84.0999Z" fill="white"/>
<path d="M57.4999 76.2999C55.8999 76.2999 54.3999 75.6999 52.9999 74.4999C51.3999 73.0999 49.5999 72.2999 47.8999 72.1999C47.5999 72.1999 47.3999 71.8999 47.4999 71.6999C47.4999 71.3999 47.7999 71.1999 47.9999 71.2999C49.9999 71.4999 51.8998 72.3999 53.6998 73.8999C55.1998 75.1999 56.8999 75.6999 58.5999 75.2999C58.8999 75.1999 59.0998 75.3999 59.1998 75.6999C59.2998 75.9999 59.0999 76.1999 58.7999 76.2999C58.2999 76.2999 57.8999 76.2999 57.4999 76.2999Z" fill="white"/>
<path d="M100.7 106.1C100.6 106.1 100.5 106.1 100.5 106L96.8999 103.9C96.6999 103.8 96.5999 103.5 96.6999 103.2C96.7999 103 97.0999 102.9 97.3999 103L101 105.1C101.2 105.2 101.3 105.5 101.2 105.8C101.1 106 100.9 106.1 100.7 106.1Z" fill="white"/>
<path d="M94.1999 117.5C94.0999 117.5 93.9999 117.5 93.9999 117.4L90.3999 115.3C90.1999 115.2 90.0999 114.9 90.1999 114.6C90.2999 114.4 90.5999 114.3 90.8999 114.4L94.4999 116.5C94.6999 116.6 94.7999 116.9 94.6999 117.2C94.4999 117.4 94.2999 117.5 94.1999 117.5Z" fill="white"/>
<path d="M87.6 128.9C87.5 128.9 87.4001 128.9 87.4001 128.8L83.8001 126.7C83.6001 126.6 83.5 126.3 83.6 126C83.7 125.8 84.0001 125.7 84.3001 125.8L87.9001 127.9C88.1001 128 88.2 128.3 88.1 128.6C88 128.8 87.8 128.9 87.6 128.9Z" fill="white"/>
<path d="M105.1 98.4999C105 98.4999 104.9 98.4999 104.9 98.3999L103.1 97.3999C102.9 97.2999 102.8 96.9999 102.9 96.6999C103 96.4999 103.3 96.3999 103.6 96.4999L105.4 97.4999C105.6 97.5999 105.7 97.8999 105.6 98.1999C105.4 98.3999 105.3 98.4999 105.1 98.4999Z" fill="white"/>
<path d="M102.9 102.3C102.8 102.3 102.7 102.3 102.7 102.2L100.9 101.2C100.7 101.1 100.6 100.8 100.7 100.5C100.8 100.3 101.1 100.2 101.4 100.3L103.2 101.3C103.4 101.4 103.5 101.7 103.4 102C103.3 102.2 103.1 102.3 102.9 102.3Z" fill="white"/>
<path d="M98.4999 109.9C98.3999 109.9 98.3 109.9 98.3 109.8L96.4999 108.8C96.2999 108.7 96.2 108.4 96.3 108.1C96.4 107.9 96.6999 107.8 96.9999 107.9L98.8 108.9C99 109 99.0999 109.3 98.9999 109.6C98.8999 109.8 98.6999 109.9 98.4999 109.9Z" fill="white"/>
<path d="M96.3999 113.7C96.2999 113.7 96.1999 113.7 96.1999 113.6L94.3999 112.6C94.1999 112.5 94.0999 112.2 94.1999 111.9C94.2999 111.7 94.5999 111.6 94.8999 111.7L96.6999 112.7C96.8999 112.8 96.9999 113.1 96.8999 113.4C96.6999 113.6 96.4999 113.7 96.3999 113.7Z" fill="white"/>
<path d="M91.9999 121.3C91.8999 121.3 91.8 121.3 91.8 121.2L89.9999 120.2C89.7999 120.1 89.7 119.8 89.8 119.5C89.9 119.3 90.1999 119.2 90.4999 119.3L92.3 120.3C92.5 120.4 92.5999 120.7 92.4999 121C92.2999 121.2 92.1999 121.3 91.9999 121.3Z" fill="white"/>
<path d="M85.3001 132.9C85.2001 132.9 85.1 132.9 85.1 132.8L83.3001 131.8C83.1001 131.7 83 131.4 83.1 131.1C83.2 130.8 83.5001 130.8 83.8001 130.9L85.6 131.9C85.8 132 85.9001 132.3 85.8001 132.6C85.7001 132.8 85.5001 132.9 85.3001 132.9Z" fill="white"/>
<path d="M89.8001 125.1C89.7001 125.1 89.6 125.1 89.6 125L87.8001 124C87.6001 123.9 87.5 123.6 87.6 123.3C87.7 123.1 88.0001 123 88.3001 123.1L90.1 124.1C90.3 124.2 90.4001 124.5 90.3001 124.8C90.1001 125 90.0001 125.1 89.8001 125.1Z" fill="white"/>
<path d="M82.4 137.9C82.3 137.9 82.2 137.9 82.2 137.8L55.9 122.6C55.7 122.5 55.7 122.4 55.6 122.2C55.5 122 55.7001 121.9 55.8001 121.8L110.4 87.8999C110.6 87.7999 110.8 87.7999 111 87.9999C111.2 88.1999 111.2 88.3999 111.1 88.5999L82.8001 137.7C82.7001 137.9 82.6 137.9 82.4 137.9ZM57.1 122.3L82.3001 136.8L109.3 89.8999L57.1 122.3Z" fill="white"/>
<path d="M79.4002 126.7C79.3002 126.7 79.2001 126.7 79.2001 126.6L72.0001 122.5C71.8001 122.4 71.8001 122.3 71.7001 122.1C71.6001 121.9 71.8002 121.8 71.9002 121.7L86.8002 112.4C87.0002 112.3 87.2002 112.3 87.4002 112.5C87.6002 112.7 87.6001 112.9 87.5001 113.1L79.8002 126.5C79.7002 126.6 79.6001 126.7 79.5001 126.7H79.4002ZM73.1001 122L79.1001 125.5L85.6001 114.2L73.1001 122Z" fill="white"/>
</svg>
