<svg width="102" height="218" viewBox="0 0 102 218" fill="none" xmlns="http://www.w3.org/2000/svg">
<path d="M33.6001 51.4999C31.3001 51.4999 29.2001 51.2999 27.3001 50.7999C22.9001 49.7999 20.1001 47.6999 19.5001 44.8999C18.3001 39.2999 26.4001 32.7999 38.0001 30.2999C43.5001 29.0999 48.8001 28.9999 53.1001 29.9999C57.5001 30.9999 60.3001 33.0999 60.9001 35.8999C62.1001 41.4999 54.0001 47.9999 42.4001 50.4999C39.3001 51.0999 36.4001 51.4999 33.6001 51.4999ZM46.7001 30.2999C44.0001 30.2999 41.1001 30.5999 38.1001 31.2999C27.2001 33.6999 19.3001 39.6999 20.4001 44.6999C20.9001 47.0999 23.4001 48.8999 27.4001 49.7999C31.5001 50.7999 36.8001 50.5999 42.1001 49.4999C53.0001 47.0999 61.0001 41.0999 59.9001 36.0999C59.4001 33.6999 56.9001 31.8999 52.9001 30.9999C51.0001 30.4999 48.9001 30.2999 46.7001 30.2999Z" fill="white"/>
<path d="M35 60.7C34.4 60.7 33.8 60.6 33.2 60.4C27.7 58.5 26.5 48.3 30.3 37C34.2 25.8 41.6 18.5 47 20.4C52.5 22.3 53.7 32.5 49.9 43.8C48.1 49.1 45.4 53.7 42.3 56.9C39.8 59.4 37.3 60.7 35 60.7ZM45.2 21.1C40.5 21.1 34.6 27.9 31.3 37.4C27.7 47.9 28.7 57.9 33.6 59.5C35.9 60.3 38.7 59.1 41.6 56.1C44.6 53.1 47.2 48.5 48.9 43.4C52.5 32.9 51.5 22.9 46.6 21.3C46.2 21.1 45.7 21.1 45.2 21.1Z" fill="white"/>
<path d="M50.2 57.3001C45.4 57.3001 38.6 53.7001 32.7 47.5001C28.8 43.5001 25.9 38.9001 24.5 34.8001C23.1 30.5001 23.4 27.1001 25.4 25.1001C27.4 23.1001 30.9 23.0001 35.1 24.6001C39.2 26.2001 43.6 29.3001 47.5 33.3001C55.7 41.9001 58.9 51.7001 54.7 55.7001C53.6 56.8001 52.1 57.3001 50.2 57.3001ZM33.4 46.8001C41.1 54.8001 50.4 58.5001 54.1 55.0001C57.8 51.5001 54.6 42.0001 46.9 34.0001C43.1 30.1001 38.9 27.1001 34.9 25.5001C31.1 24.0001 28 24.1001 26.2 25.8001C24.4 27.5001 24.2 30.5001 25.5 34.5001C26.8 38.5001 29.6 42.9001 33.4 46.8001Z" fill="white"/>
<path d="M40.1001 43.4999C38.7001 43.4999 37.4001 42.4999 37.1001 41.0999C36.7001 39.3999 37.8001 37.7999 39.5001 37.3999C41.2001 36.9999 42.8001 38.0999 43.2001 39.7999C43.6001 41.4999 42.5001 43.0999 40.8001 43.4999C40.6001 43.4999 40.4001 43.4999 40.1001 43.4999ZM40.1001 38.2999C40.0001 38.2999 39.8001 38.2999 39.7001 38.2999C38.6001 38.4999 37.9001 39.6999 38.1001 40.7999C38.3001 41.8999 39.5001 42.5999 40.6001 42.3999C41.7001 42.1999 42.4001 40.9999 42.2001 39.8999C42.0001 38.9999 41.1001 38.2999 40.1001 38.2999Z" fill="white"/>
<path d="M81.7 24.7C81.4 24.7 81.2 24.5 81.2 24.2C81.2 18.1 76.3 13.2 70.2 13.2C69.9 13.2 69.7 13 69.7 12.7C69.7 12.4 69.9 12.2 70.2 12.2C76.3 12.2 81.2 7.29995 81.2 1.19995C81.2 0.899951 81.4 0.699951 81.7 0.699951C82 0.699951 82.2 0.899951 82.2 1.19995C82.2 7.29995 87.1 12.2 93.2 12.2C93.5 12.2 93.7 12.4 93.7 12.7C93.7 13 93.5 13.2 93.2 13.2C87.1 13.2 82.2 18.1 82.2 24.2C82.2 24.5 82 24.7 81.7 24.7ZM73.6 12.7C77.5 13.9 80.5 16.9 81.7 20.7999C82.9 16.9 85.9 13.9 89.8 12.7C85.9 11.5 82.9 8.49995 81.7 4.59995C80.5 8.49995 77.5 11.6 73.6 12.7Z" fill="white"/>
<path d="M46.7 172.7C46.4 172.7 46.2 172.5 46.2 172.2C46.2 166.1 41.3 161.2 35.2 161.2C34.9 161.2 34.7 161 34.7 160.7C34.7 160.4 34.9 160.2 35.2 160.2C41.3 160.2 46.2 155.3 46.2 149.2C46.2 148.9 46.4 148.7 46.7 148.7C47 148.7 47.2 148.9 47.2 149.2C47.2 155.3 52.1 160.2 58.2 160.2C58.5 160.2 58.7 160.4 58.7 160.7C58.7 161 58.5 161.2 58.2 161.2C52.1 161.2 47.2 166.1 47.2 172.2C47.2 172.5 47 172.7 46.7 172.7ZM38.5999 160.7C42.4999 161.9 45.5 164.9 46.7 168.8C47.9 164.9 50.9 161.9 54.7999 160.7C50.9 159.5 47.9 156.5 46.7 152.6C45.5 156.5 42.4999 159.6 38.5999 160.7Z" fill="white"/>
<path d="M93.6 217.2H92.6C92.6 212.6 88.8 208.8 84.2 208.8V207.8C88.8 207.8 92.6 204 92.6 199.4H93.6C93.6 204 97.4 207.8 102 207.8V208.8C97.4 208.8 93.6 212.6 93.6 217.2ZM87.2 208.3C90 209.2 92.1 211.4 93.1 214.2C94 211.4 96.2 209.3 99 208.3C96.2 207.4 94.1 205.2 93.1 202.4C92.1 205.2 90 207.4 87.2 208.3Z" fill="white"/>
<path d="M9.59995 70.1999H8.59995C8.59995 65.5999 4.79995 61.7999 0.199951 61.7999V60.7999C4.79995 60.7999 8.59995 56.9999 8.59995 52.3999H9.59995C9.59995 56.9999 13.4 60.7999 18 60.7999V61.7999C13.4 61.7999 9.59995 65.5999 9.59995 70.1999ZM3.19995 61.2999C5.99995 62.1999 8.09995 64.3999 9.09995 67.1999C9.99995 64.3999 12.2 62.2999 15 61.2999C12.2 60.3999 10.1 58.1999 9.09995 55.3999C8.09995 58.1999 5.99995 60.3999 3.19995 61.2999Z" fill="white"/>
<path d="M11 14.2C8.5 14.2 6.5 12.2 6.5 9.69995C6.5 7.19995 8.5 5.19995 11 5.19995C13.5 5.19995 15.5 7.19995 15.5 9.69995C15.5 12.2 13.5 14.2 11 14.2ZM11 6.09995C9.1 6.09995 7.5 7.69995 7.5 9.59995C7.5 11.5 9.1 13.1 11 13.1C12.9 13.1 14.5 11.5 14.5 9.59995C14.5 7.69995 12.9 6.09995 11 6.09995Z" fill="white"/>
<path d="M70 200.2C67.5 200.2 65.5 198.2 65.5 195.7C65.5 193.2 67.5 191.2 70 191.2C72.5 191.2 74.5 193.2 74.5 195.7C74.5 198.2 72.5 200.2 70 200.2ZM70 192.1C68.1 192.1 66.5 193.7 66.5 195.6C66.5 197.5 68.1 199.1 70 199.1C71.9 199.1 73.5 197.5 73.5 195.6C73.5 193.7 71.9 192.1 70 192.1Z" fill="white"/>
<path d="M11 97.2C8.5 97.2 6.5 95.2 6.5 92.7C6.5 90.2 8.5 88.2 11 88.2C13.5 88.2 15.5 90.2 15.5 92.7C15.5 95.2 13.5 97.2 11 97.2ZM11 89.1C9.1 89.1 7.5 90.7 7.5 92.6C7.5 94.5 9.1 96.1 11 96.1C12.9 96.1 14.5 94.5 14.5 92.6C14.5 90.7 12.9 89.1 11 89.1Z" fill="white"/>
<path d="M9.19995 168C8.79995 168 8.39995 167.9 8.09995 167.7C7.49995 167.4 7.09995 166.9 6.89995 166.3C6.69995 165.7 6.79995 165 7.09995 164.4C7.39995 163.8 7.89995 163.4 8.49995 163.2C9.79995 162.8 11.2 163.5 11.6 164.8C11.8 165.4 11.7 166.1 11.4 166.7C11.0999 167.3 10.6 167.7 9.99995 167.9C9.69995 168 9.49995 168 9.19995 168ZM9.19995 164.1C9.09995 164.1 8.89995 164.1 8.79995 164.2C8.39995 164.3 8.09995 164.6 7.89995 164.9C7.69995 165.2 7.69995 165.6 7.79995 166C7.89995 166.4 8.19995 166.7 8.49995 166.9C8.79995 167.1 9.19995 167.1 9.59995 167C9.99995 166.9 10.3 166.6 10.5 166.3C10.7 166 10.7 165.6 10.6 165.2C10.4 164.5 9.89995 164.1 9.19995 164.1Z" fill="white"/>
<path d="M14.0999 159.3C13.6999 159.3 13.2999 159.2 12.9999 159C12.3999 158.7 11.9999 158.2 11.7999 157.6C11.5999 157 11.6999 156.3 11.9999 155.7C12.2999 155.1 12.7999 154.7 13.3999 154.5C13.9999 154.3 14.6999 154.4 15.2999 154.7C15.8999 155 16.2999 155.5 16.4999 156.1C16.8999 157.4 16.1999 158.8 14.8999 159.2C14.5999 159.2 14.2999 159.3 14.0999 159.3ZM14.0999 155.4C13.9999 155.4 13.7999 155.4 13.6999 155.5C13.2999 155.6 12.9999 155.9 12.7999 156.2C12.5999 156.5 12.5999 156.9 12.6999 157.3C12.7999 157.7 13.0999 158 13.3999 158.2C13.6999 158.4 14.0999 158.4 14.4999 158.3C14.8999 158.2 15.1999 157.9 15.3999 157.6C15.5999 157.3 15.5999 156.9 15.4999 156.5C15.3999 156.1 15.0999 155.8 14.7999 155.6C14.5999 155.4 14.2999 155.4 14.0999 155.4Z" fill="white"/>
<path d="M11.1 177.1C10.7 177.1 10.4 177 10.1 176.8C9.59995 176.5 9.19995 176.1 8.99995 175.5L8.89995 175.1C8.69995 174.5 8.79995 173.9 9.09995 173.4C9.39995 172.9 9.79995 172.5 10.4 172.3L20.2999 169.3C20.9 169.1 21.5 169.2 22 169.5C22.5 169.8 22.9 170.2 23.1 170.8L23.2 171.2C23.4 171.8 23.3 172.4 23 172.9C22.7 173.4 22.3 173.8 21.7 174L11.8 177C11.5 177.1 11.3 177.1 11.1 177.1ZM20.9 170.3C20.7999 170.3 20.7 170.3 20.6 170.4L10.7 173.4C10.4 173.5 10.1 173.7 9.99995 174C9.89995 174.3 9.79995 174.6 9.89995 174.9L9.99995 175.3C10.1 175.6 10.3 175.9 10.6 176C10.9 176.1 11.2 176.2 11.5 176.1L21.4 173.1C21.7 173 22 172.8 22.1 172.5C22.2 172.2 22.3 171.9 22.2 171.6L22.1 171.2C22 170.9 21.8 170.6 21.5 170.5C21.3 170.3 21.0999 170.3 20.9 170.3Z" fill="white"/>
<path d="M20.5999 209.3C18.4999 209.3 16.5999 207.9 15.8999 205.8V205.7L15.2999 187.7L11.5999 176L21.2999 173L24.9999 184.7L34.7999 199.9C35.1999 201.2 35.0999 202.5 34.4999 203.7C33.8999 204.9 32.8999 205.7 31.5999 206.1L22.1999 209.1C21.5999 209.2 21.0999 209.3 20.5999 209.3ZM16.8999 205.6C17.5999 207.6 19.7999 208.8 21.7999 208.1L31.1999 205.1C32.1999 204.8 32.9999 204.1 33.4999 203.2C33.9999 202.3 34.0999 201.3 33.7999 200.3L23.9999 185.1L20.5999 174.3L12.7999 176.7L16.1999 187.6L16.8999 205.6Z" fill="white"/>
<path d="M15.9999 196.3C15.8999 196.3 15.7999 196.3 15.6999 196.2C15.4999 196 15.4999 195.7 15.5999 195.5C15.6999 195.4 17.8999 192.8 22.5999 193.6C26.5999 194.3 27.7999 190.9 27.7999 190.8C27.8999 190.5 28.1999 190.4 28.3999 190.5C28.6999 190.6 28.7999 190.9 28.6999 191.1C28.6999 191.1 27.1999 195.5 22.2999 194.6C18.1999 193.9 16.2999 196.1 16.1999 196.1C16.2999 196.2 16.1999 196.3 15.9999 196.3Z" fill="white"/>
<path d="M27.1392 136.539C27.0392 136.539 27.0392 136.539 26.9392 136.439L15.2392 129.939C15.0392 129.839 14.9392 129.539 15.0392 129.339L41.8392 81.2392C41.9392 81.0392 42.2392 80.9392 42.4392 81.0392L54.1392 87.6392C54.2392 87.7392 54.3392 87.7392 54.3392 87.9392C54.3392 88.0392 54.3392 88.1392 54.3392 88.2392L27.5392 136.339C27.4392 136.439 27.3392 136.539 27.1392 136.539ZM16.0392 129.439L26.9392 135.539L53.2392 88.2392L42.3392 82.1392L16.0392 129.439Z" fill="white"/>
<path d="M50.7392 94.2393C50.6392 94.2393 50.6392 94.2393 50.5392 94.1393L44.7392 90.9393C44.5392 90.8393 44.4392 90.5393 44.5392 90.3393C44.6392 90.1393 44.9392 90.0393 45.1392 90.1393L50.9392 93.3393C51.1392 93.4393 51.2392 93.7393 51.1392 93.9393C51.0392 94.1393 50.8392 94.2393 50.7392 94.2393Z" fill="white"/>
<path d="M44.5393 105.339C44.4393 105.339 44.4393 105.339 44.3393 105.239L38.5393 102.039C38.3393 101.939 38.2393 101.639 38.3393 101.439C38.4393 101.239 38.7393 101.139 38.9393 101.239L44.7393 104.439C44.9393 104.539 45.0393 104.839 44.9393 105.039C44.8393 105.239 44.6393 105.339 44.5393 105.339Z" fill="white"/>
<path d="M38.3393 116.439C38.2393 116.439 38.2393 116.439 38.1393 116.339L32.3393 113.139C32.1393 113.039 32.0393 112.739 32.1393 112.539C32.2393 112.339 32.5393 112.239 32.7393 112.339L38.5393 115.539C38.7393 115.639 38.8393 115.939 38.7393 116.139C38.6393 116.439 38.4393 116.439 38.3393 116.439Z" fill="white"/>
<path d="M32.1391 127.639C32.0391 127.639 32.0391 127.639 31.9391 127.539L26.1391 124.339C25.9391 124.239 25.8391 123.939 25.9391 123.739C26.0391 123.539 26.3391 123.439 26.5391 123.539L32.3391 126.739C32.5391 126.839 32.6391 127.139 32.5391 127.339C32.4391 127.539 32.2391 127.639 32.1391 127.639Z" fill="white"/>
<path d="M48.6393 97.8393C48.5393 97.8393 48.5393 97.8393 48.4393 97.7393L45.5393 96.1393C45.3393 96.0393 45.2393 95.7393 45.3393 95.5393C45.4393 95.3393 45.7393 95.2393 45.9393 95.3393L48.8393 96.9393C49.0393 97.0393 49.1393 97.3393 49.0393 97.5393C48.9393 97.8393 48.8393 97.8393 48.6393 97.8393Z" fill="white"/>
<path d="M46.5392 101.639C46.4392 101.639 46.4392 101.639 46.3392 101.539L43.4392 99.9393C43.2392 99.8393 43.1392 99.5393 43.2392 99.3393C43.3392 99.1393 43.6392 99.0393 43.8392 99.1393L46.7392 100.739C46.9392 100.839 47.0392 101.139 46.9392 101.339C46.8392 101.539 46.7392 101.639 46.5392 101.639Z" fill="white"/>
<path d="M42.4393 109.039C42.3393 109.039 42.3393 109.039 42.2393 108.939L39.3393 107.339C39.1393 107.239 39.0393 106.939 39.1393 106.739C39.2393 106.539 39.5393 106.439 39.7393 106.539L42.6393 108.139C42.8393 108.239 42.9393 108.539 42.8393 108.739C42.7393 108.939 42.5393 109.039 42.4393 109.039Z" fill="white"/>
<path d="M40.3392 112.739C40.2392 112.739 40.2392 112.739 40.1392 112.639L37.2392 111.039C37.0392 110.939 36.9392 110.639 37.0392 110.439C37.1392 110.239 37.4392 110.139 37.6392 110.239L40.5392 111.839C40.7392 111.939 40.8392 112.239 40.7392 112.439C40.6392 112.739 40.5392 112.739 40.3392 112.739Z" fill="white"/>
<path d="M36.2391 120.239C36.1391 120.239 36.1391 120.239 36.0391 120.139L33.1391 118.539C32.9391 118.439 32.8391 118.139 32.9391 117.939C33.0391 117.739 33.3391 117.639 33.5391 117.739L36.4391 119.339C36.6391 119.439 36.7391 119.739 36.6391 119.939C36.5391 120.139 36.3391 120.239 36.2391 120.239Z" fill="white"/>
<path d="M34.1393 123.939C34.0393 123.939 34.0393 123.939 33.9393 123.839L31.0393 122.239C30.8393 122.139 30.7393 121.839 30.8393 121.639C30.9393 121.439 31.2393 121.339 31.4393 121.439L34.3393 123.039C34.5393 123.139 34.6393 123.439 34.5393 123.639C34.4393 123.839 34.3393 123.939 34.1393 123.939Z" fill="white"/>
</svg>
