<svg width="75" height="25" viewBox="0 0 75 25" fill="none" xmlns="http://www.w3.org/2000/svg">
<path d="M0.520752 24.9077C0.453043 24.9077 0.385335 24.9077 0.317627 24.8404C0.18221 24.7058 0.18221 24.5038 0.317627 24.3692C10.203 15.4832 25.3697 13.4636 37.2864 19.253C44.4635 6.26059 59.8333 -1.54831 74.6614 0.269278C74.8645 0.269278 74.9999 0.471233 74.9322 0.673187C74.9322 0.875141 74.7291 1.00978 74.526 0.942459C59.8333 -0.87513 44.6666 6.93377 37.6249 19.8589C37.5572 19.9935 37.3541 20.0608 37.151 19.9935C25.5051 14.1368 10.5416 16.089 0.791585 24.8404C0.723877 24.9077 0.656168 24.9077 0.520752 24.9077Z" fill="#3D3D3D"/>
</svg>
