<svg width="8" height="8" viewBox="0 0 8 8" fill="none" xmlns="http://www.w3.org/2000/svg">
<path d="M3.9998 2.69853C3.283 2.69853 2.69804 3.28349 2.69804 4.00029C2.69804 4.71709 3.283 5.30205 3.9998 5.30205C4.7166 5.30205 5.30156 4.71709 5.30156 4.00029C5.30156 3.28349 4.7166 2.69853 3.9998 2.69853ZM7.9041 4.00029C7.9041 3.46123 7.90898 2.92705 7.87871 2.38896C7.84843 1.76396 7.70586 1.20927 7.24883 0.752244C6.79082 0.294236 6.23711 0.152634 5.61211 0.122361C5.07304 0.0920873 4.53886 0.0969702 4.00078 0.0969702C3.46172 0.0969702 2.92754 0.0920873 2.38945 0.122361C1.76445 0.152634 1.20976 0.295212 0.752732 0.752244C0.294724 1.21025 0.153122 1.76396 0.122849 2.38896C0.0925756 2.92803 0.0974584 3.4622 0.0974584 4.00029C0.0974584 4.53838 0.0925756 5.07353 0.122849 5.61162C0.153122 6.23662 0.295701 6.79131 0.752732 7.24834C1.21074 7.70635 1.76445 7.84795 2.38945 7.87822C2.92851 7.90849 3.46269 7.90361 4.00078 7.90361C4.53984 7.90361 5.07402 7.90849 5.61211 7.87822C6.23711 7.84795 6.79179 7.70537 7.24883 7.24834C7.70683 6.79033 7.84843 6.23662 7.87871 5.61162C7.90996 5.07353 7.9041 4.53935 7.9041 4.00029ZM3.9998 6.00322C2.8914 6.00322 1.99687 5.10869 1.99687 4.00029C1.99687 2.89189 2.8914 1.99736 3.9998 1.99736C5.1082 1.99736 6.00273 2.89189 6.00273 4.00029C6.00273 5.10869 5.1082 6.00322 3.9998 6.00322ZM6.08476 2.3831C5.82597 2.3831 5.61699 2.17412 5.61699 1.91533C5.61699 1.65654 5.82597 1.44756 6.08476 1.44756C6.34355 1.44756 6.55254 1.65654 6.55254 1.91533C6.55261 1.97678 6.54057 2.03764 6.51709 2.09443C6.49361 2.15122 6.45915 2.20282 6.4157 2.24627C6.37225 2.28972 6.32065 2.32417 6.26386 2.34765C6.20708 2.37113 6.14621 2.38318 6.08476 2.3831Z" fill="white"/>
</svg>
