<svg width="100" height="31" viewBox="0 0 100 31" fill="none" xmlns="http://www.w3.org/2000/svg">
<path d="M23.7862 12.6406C23.7564 13.1424 23.3159 13.5158 22.8099 13.4924C21.7146 13.4282 20.5776 13.3991 19.4287 13.3932C17.6548 16.748 15.988 19.5368 15.9701 19.5718C15.7082 20.0035 15.1427 20.1494 14.7022 19.8927C14.2617 19.6359 14.1129 19.0817 14.3748 18.65C15.4463 16.8647 16.4464 15.091 17.3512 13.4049C14.8986 13.4516 12.452 13.5858 10.2257 13.7608C8.39818 15.9603 6.42781 18.4282 4.35623 21.1354C4.1717 21.3746 3.89787 21.4971 3.61213 21.4971C3.41569 21.4971 3.2252 21.4387 3.05852 21.3162C2.64778 21.0128 2.56444 20.4469 2.87399 20.0443C2.90375 20.0093 4.95747 17.3256 7.69575 13.9708C3.84429 14.3326 1.12386 14.7235 1.06434 14.7351C1.01671 14.741 0.975043 14.7468 0.927421 14.7468C0.475008 14.7468 0.0821237 14.4259 0.0106901 13.9708C-0.0666962 13.4749 0.284519 13.014 0.790507 12.9382C0.855987 12.9265 4.48719 12.4072 9.31491 12.0105C9.90424 11.3046 10.5114 10.5869 11.1246 9.87516C20.1311 -0.597422 21.7444 -0.0256597 22.6135 0.277724C22.9468 0.39441 23.3992 0.668623 23.6314 1.30456C23.9826 2.24972 24.0124 4.35007 20.3514 11.5904C21.2205 11.6079 22.0718 11.6313 22.9111 11.6838C23.423 11.713 23.8159 12.1389 23.7862 12.6406ZM18.3036 11.5846C20.7383 6.82965 22.2206 3.03152 21.9289 2.01635C20.7383 2.26139 16.9821 5.82031 11.8449 11.8355C13.9164 11.6955 16.119 11.6021 18.3036 11.5846Z" fill="#F7B517"/>
<path d="M35.1142 17.2318C34.9952 17.3835 32.1021 20.9833 28.7507 21.3158C28.5781 21.3333 28.4114 21.3392 28.2388 21.3392C27.1077 21.3392 26.066 20.9483 25.1433 20.1781C23.1967 18.5504 23.4289 15.7499 25.7445 12.8677C27.6732 10.4698 30.6734 8.59704 32.4414 9.85725C33.4832 10.5982 33.6141 11.3858 33.5427 11.9168C33.3284 13.4745 31.0604 14.3963 30.608 14.5597C30.1317 14.7347 29.596 14.5014 29.4115 14.0346C29.2329 13.5679 29.471 13.0428 29.9472 12.8619C30.858 12.5235 31.6735 11.9226 31.7033 11.6717C31.7033 11.6717 31.6616 11.5434 31.3521 11.3217C30.9056 11.0008 28.8876 11.8876 27.203 13.9879C26.7625 14.5422 24.6373 17.3602 26.3458 18.7954C27.0125 19.3555 27.7387 19.5889 28.5602 19.5072C30.6913 19.2972 32.9593 16.9868 33.6498 16.1116C33.9653 15.7149 34.5487 15.6449 34.9476 15.9541C35.3583 16.2633 35.4297 16.8351 35.1142 17.2318Z" fill="white"/>
<path d="M44.7459 17.6345C43.3589 19.0639 40.1801 20.8375 37.5014 20.8375C37.1799 20.8375 36.8704 20.8142 36.5727 20.7617C35.3584 20.5458 34.4773 19.8749 34.0309 18.8247C33.1499 16.771 33.7749 14.3906 35.7512 12.2844C37.3109 10.6275 39.8527 9.1164 41.7576 9.72901C42.9779 10.1199 43.2518 10.9075 43.2994 11.3451C43.5315 13.2821 40.4182 15.3124 40.3885 15.3358C38.5133 16.4618 36.2751 16.4735 36.1798 16.4735C35.9417 16.4735 35.7274 16.3859 35.5667 16.2459C35.4417 16.841 35.4655 17.4828 35.7393 18.1246C35.8703 18.4221 36.1322 18.8422 36.9061 18.9764C38.7872 19.3148 42.0017 17.8387 43.4065 16.3918C43.7578 16.0301 44.3471 16.0126 44.7161 16.3568C45.0852 16.701 45.1031 17.2728 44.7459 17.6345ZM36.2275 14.6532C36.537 14.6415 38.1324 14.554 39.4182 13.7838C40.2218 13.3054 41.4421 12.0452 41.454 11.5843C41.4243 11.561 41.3409 11.5085 41.1742 11.456C41.073 11.4268 40.9599 11.4093 40.829 11.4093C39.9301 11.4093 38.3764 12.1677 37.1025 13.5155C36.8704 13.7663 36.537 14.1631 36.2275 14.6532Z" fill="white"/>
<path d="M58.4135 2.37762C58.0682 3.17692 57.5682 4.12792 56.9908 5.16642C56.1217 6.8117 54.9252 9.01123 53.5917 11.2283C51.9964 14.2446 50.6511 17.3543 51.5202 18.2761C52.4012 19.2096 54.5561 17.436 54.5799 17.4185C54.9668 17.0859 55.5502 17.1267 55.8836 17.5001C56.2229 17.8735 56.1872 18.4453 55.8002 18.7779C54.5025 19.898 51.8595 21.3158 50.157 19.5071C49.6331 18.9529 49.4188 18.2178 49.4307 17.3426C48.1211 18.9587 46.8591 20.1431 45.7995 20.499C45.5138 20.5923 45.2578 20.6273 45.0257 20.6273C44.6447 20.6273 44.347 20.5282 44.1327 20.4173C43.6803 20.1898 42.9362 19.5947 43.0374 18.1769C43.222 15.604 46.4841 10.9424 49.2819 9.99723C50.2998 9.653 51.2225 9.79303 51.925 10.394C51.9488 10.3473 51.9785 10.3064 52.0023 10.2598C52.6631 9.01707 53.3953 7.74519 54.1215 6.47331C54.5978 5.639 55.068 4.8222 55.4847 4.06957C55.9491 3.19443 56.3658 2.36596 56.7229 1.63083C56.9372 1.18743 57.4789 0.98906 57.9373 1.19326C58.4016 1.39746 58.61 1.92255 58.4135 2.37762ZM50.9427 11.9809C50.8832 11.9401 50.8237 11.8934 50.7761 11.835C50.7046 11.7592 50.5915 11.6367 50.3237 11.6367C50.2106 11.6367 50.0677 11.66 49.8831 11.7183C47.8413 12.4068 45.0257 16.4033 44.8828 18.3111C44.8649 18.527 44.8887 18.7662 44.9721 18.807C45.0078 18.8245 45.0971 18.8129 45.1983 18.7779C46.5436 18.3344 48.7402 15.4465 50.9427 11.9809Z" fill="white"/>
<path d="M82.3378 1.888C82.3081 2.38975 81.8735 2.76898 81.3616 2.74564C79.7305 2.6523 78.0042 2.72231 76.3434 2.86816L67.1761 18.3991C68.694 18.1774 70.4679 17.9907 72.5157 17.8857C73.0277 17.8565 73.4622 18.2474 73.486 18.7433C73.5098 19.2451 73.1169 19.671 72.605 19.6943C64.4437 20.0969 60.8125 21.888 60.7768 21.9055C60.6399 21.9755 60.497 22.0047 60.3541 22.0047C60.0208 22.0047 59.6934 21.8238 59.5327 21.5146C59.2945 21.0712 59.4731 20.5228 59.9255 20.2952C60.0267 20.2427 61.5983 19.4551 64.9497 18.7783C64.9497 18.6266 64.9854 18.4749 65.0688 18.3349L74.0515 3.11904C70.5811 3.57995 67.8725 4.24506 67.8249 4.25673C67.7475 4.27423 67.6701 4.2859 67.5927 4.2859C67.182 4.2859 66.801 4.01169 66.6939 3.60329C66.5689 3.11904 66.8665 2.62312 67.3606 2.5006C67.6761 2.42476 75.129 0.575282 81.4568 0.931175C81.9747 0.960347 82.3676 1.39209 82.3378 1.888Z" fill="white"/>
<path d="M88.5346 6.87588C88.4394 7.36596 87.9513 7.68685 87.4512 7.5935C86.3142 7.37763 84.5879 7.3543 82.8914 7.41847C80.2007 11.6192 78.1351 15.8665 78.5756 18.0836C78.6768 18.5853 78.903 18.9237 79.284 19.1513C80.4626 19.8455 82.3854 17.7277 82.8319 17.1209C83.1295 16.7125 83.7129 16.625 84.1236 16.9226C84.5403 17.2143 84.6296 17.786 84.326 18.1886C83.4093 19.4255 81.6175 21.1116 79.784 21.1116C79.2959 21.1116 78.8018 20.9891 78.3256 20.709C77.4981 20.2189 76.9505 19.4313 76.754 18.4336C76.2123 15.7149 78.3137 11.3508 80.6353 7.55266C79.1411 7.67518 77.9446 7.82687 77.647 7.92606C77.522 7.97857 77.391 8.00774 77.266 8.00774C76.9267 8.00774 76.5993 7.82104 76.4386 7.50599C76.2123 7.05675 76.3969 6.51415 76.8552 6.28662C77.3493 6.04158 79.4923 5.7732 81.8496 5.65068C83.2188 3.57366 84.5224 1.81754 85.2725 0.84321C85.582 0.440642 86.1595 0.364796 86.5702 0.662346C86.981 0.96573 87.0643 1.53166 86.7548 1.93422C85.8797 3.07775 84.9808 4.31462 84.1117 5.58067C85.5404 5.569 86.8798 5.63317 87.8084 5.81404C88.3025 5.90739 88.6299 6.3858 88.5346 6.87588Z" fill="white"/>
<path d="M87.5467 17.8329C87.5169 17.9146 87.3264 18.393 86.6299 19.6299C86.4633 19.9275 86.1478 20.0966 85.8204 20.0966C85.6715 20.0966 85.5168 20.0616 85.3739 19.9858C84.9274 19.7408 84.7608 19.1923 85.0108 18.7489C85.6418 17.6346 85.8025 17.2145 85.8085 17.2087C85.9871 16.7419 86.5228 16.5027 86.999 16.6777C87.4753 16.8528 87.7193 17.3662 87.5467 17.8329ZM95.8865 1.29852C94.3567 4.44904 89.3147 14.7816 88.6539 15.5984C88.4694 15.8201 88.2015 15.9368 87.9277 15.9368C87.7253 15.9368 87.5229 15.8726 87.3502 15.7384C86.9514 15.4234 86.8859 14.8516 87.2074 14.4607C87.7074 13.7781 91.7732 5.54589 94.2198 0.516719C94.44 0.0674772 94.9936 -0.125055 95.452 0.0849801C95.9104 0.300849 96.1068 0.84344 95.8865 1.29852Z" fill="white"/>
<path d="M14.9485 30.3256C14.4785 30.3256 14.0721 29.9896 14.0086 29.5228C13.9388 29.0124 14.3007 28.5394 14.8214 28.471C42.5019 24.7118 70.6524 24.0023 98.4916 26.3611C99.0187 26.4047 99.406 26.859 99.3616 27.3693C99.3171 27.8859 98.8536 28.2593 98.3328 28.222C70.6333 25.8756 42.6226 26.5851 15.0882 30.3194C15.0374 30.3256 14.9929 30.3256 14.9485 30.3256Z" fill="#F7B517"/>
</svg>
