<svg width="41" height="42" viewBox="0 0 41 42" fill="none" xmlns="http://www.w3.org/2000/svg">
<path d="M26.7151 25.6529C25.7673 25.6529 24.9963 24.9856 24.9963 24.1653C24.9963 23.345 25.7673 22.6777 26.7151 22.6777C27.6628 22.6777 28.4338 23.345 28.4338 24.1653C28.4338 24.5967 28.7837 24.9466 29.2151 24.9466C29.6465 24.9466 29.9963 24.5967 29.9963 24.1653C29.9963 22.7337 28.9296 21.53 27.4963 21.2032V20.7969C27.4963 20.3655 27.1465 20.0157 26.7151 20.0157C26.2837 20.0157 25.9338 20.3655 25.9338 20.7969V21.2032C24.5006 21.53 23.4338 22.7337 23.4338 24.1653C23.4338 25.8471 24.9058 27.2154 26.7151 27.2154C27.6628 27.2154 28.4338 27.8827 28.4338 28.7031C28.4338 29.5234 27.6628 30.1907 26.7151 30.1907C25.7673 30.1907 24.9963 29.5234 24.9963 28.7031C24.9963 28.2717 24.6465 27.9218 24.2151 27.9218C23.7837 27.9218 23.4338 28.2717 23.4338 28.7031C23.4338 30.1347 24.5006 31.3384 25.9338 31.6652V32.0027C25.9338 32.4341 26.2837 32.7839 26.7151 32.7839C27.1465 32.7839 27.4963 32.4341 27.4963 32.0027V31.6652C28.9296 31.3384 29.9963 30.1347 29.9963 28.7031C29.9963 27.0212 28.5244 25.6529 26.7151 25.6529Z" fill="#6059F7"/>
<path d="M35.2721 21.0059C34.2515 19.4157 32.8137 18.1432 31.1141 17.3261C30.7251 17.1391 30.2583 17.3029 30.0715 17.6918C29.8845 18.0807 30.0482 18.5474 30.4371 18.7343C33.3989 20.1581 35.3126 23.2002 35.3126 26.4844C35.3126 27.8897 34.9661 29.2834 34.3109 30.5149C34.1083 30.8958 34.2527 31.3689 34.6336 31.5716C34.7505 31.6338 34.8761 31.6633 34.9999 31.6633C35.2794 31.6633 35.5498 31.5128 35.6903 31.2489C36.4654 29.7923 36.8751 28.1447 36.8751 26.4844C36.8751 24.5344 36.3208 22.64 35.2721 21.0059Z" fill="#6059F7"/>
<path d="M27.9432 16.3283L27.8906 16.3282C27.4592 16.3282 27.1094 16.678 27.1094 17.1094C27.1094 17.5409 27.4592 17.8907 27.8906 17.8907L27.9359 17.8908C27.9371 17.8908 27.9383 17.8908 27.9396 17.8908C28.3694 17.8908 28.7188 17.5434 28.7208 17.1132C28.7227 16.6817 28.3746 16.3303 27.9432 16.3283Z" fill="#6059F7"/>
<path d="M23.0006 34.2345C20.0389 32.8106 18.1252 29.7685 18.1252 26.4844C18.1252 25.0791 18.4716 23.6854 19.1269 22.4539C19.3295 22.073 19.1851 21.5999 18.8041 21.3972C18.4234 21.1946 17.9501 21.339 17.7475 21.7199C16.9724 23.1766 16.5627 24.8241 16.5627 26.4844C16.5627 28.4344 17.117 30.3288 18.1657 31.9629C19.1863 33.5531 20.6241 34.8256 22.3237 35.6427C22.4328 35.6952 22.5481 35.72 22.6616 35.72C22.9526 35.72 23.2318 35.5568 23.3663 35.2771C23.5531 34.8882 23.3895 34.4214 23.0006 34.2345Z" fill="#6059F7"/>
<path d="M25.547 35.0781L25.5018 35.078C25.0684 35.0772 24.719 35.424 24.717 35.8556C24.715 36.287 25.0633 36.6384 25.4947 36.6405L25.547 36.6406C25.9785 36.6406 26.3283 36.2908 26.3283 35.8594C26.3283 35.428 25.9785 35.0781 25.547 35.0781Z" fill="#6059F7"/>
<path d="M30.4457 13.7647C30.3501 13.5368 30.2329 13.322 30.0965 13.1228H32.1425C34.1358 13.1228 35.7576 11.5011 35.7576 9.50776C35.7576 7.51446 34.1358 5.89271 32.1425 5.89271H25.8492C26.2493 5.31101 26.4842 4.60725 26.4842 3.84942C26.4842 1.85612 24.8624 0.234375 22.8691 0.234375H3.61505C1.62174 0.234375 0 1.85612 0 3.84942C0 5.84273 1.62174 7.46447 3.61505 7.46447H9.90838C9.50829 8.04618 9.27339 8.74994 9.27339 9.50776C9.27339 10.2656 9.50821 10.9693 9.90838 11.5511H7.8588C5.8655 11.5511 4.24375 13.1728 4.24375 15.1661C4.24375 16.3109 4.77925 17.3325 5.61236 17.9953C4.77925 18.6581 4.24375 19.6796 4.24375 20.8244C4.24375 21.9692 4.77925 22.9908 5.61236 23.6536C4.77925 24.3164 4.24375 25.338 4.24375 26.4828C4.24375 27.6276 4.77925 28.6491 5.61236 29.3119C4.77925 29.9748 4.24375 30.9963 4.24375 32.1411C4.24375 34.1344 5.8655 35.7562 7.8588 35.7562H17.1204C19.5602 38.3658 23.0312 40 26.8772 40C34.2439 40 40.2372 34.0067 40.2372 26.64C40.2372 20.5088 36.0853 15.3298 30.4457 13.7647ZM32.1425 7.46447C33.2692 7.46447 34.1858 8.38113 34.1858 9.50776C34.1858 10.6344 33.2692 11.5511 32.1425 11.5511H27.1129H12.8884C11.7617 11.5511 10.8451 10.6344 10.8451 9.50776C10.8451 8.38113 11.7617 7.46447 12.8884 7.46447H32.1425ZM3.61505 5.89271C2.48833 5.89271 1.57176 4.97606 1.57176 3.84942C1.57176 2.72279 2.48833 1.80614 3.61505 1.80614H22.8691C23.9958 1.80614 24.9124 2.72279 24.9124 3.84942C24.9124 4.97606 23.9958 5.89271 22.8691 5.89271H3.61505ZM7.8588 13.1228H27.1129C27.4294 13.1228 27.7325 13.1964 28.0045 13.3281C27.6327 13.2969 27.2569 13.2801 26.8772 13.2801C23.1879 13.2801 19.8432 14.7834 17.4231 17.2094H7.8588C6.73217 17.2094 5.81552 16.2927 5.81552 15.1661C5.81552 14.0395 6.73217 13.1228 7.8588 13.1228ZM7.8588 18.7812H16.0803C15.1882 20.0034 14.4984 21.382 14.0603 22.8677H7.8588C6.73209 22.8677 5.81552 21.9512 5.81552 20.8244C5.81552 19.6978 6.73209 18.7812 7.8588 18.7812ZM7.8588 24.4395H13.6995C13.5802 25.1557 13.5172 25.8905 13.5172 26.64C13.5172 27.2802 13.5635 27.9097 13.651 28.5261H7.8588C6.73209 28.5261 5.81552 27.6095 5.81552 26.4828C5.81552 25.3561 6.73209 24.4395 7.8588 24.4395ZM7.8588 34.1844C6.73209 34.1844 5.81552 33.2678 5.81552 32.1411C5.81552 31.0144 6.73209 30.0978 7.8588 30.0978H13.9719C14.3684 31.5763 15.0126 32.9542 15.8574 34.1844H7.8588ZM26.8772 38.4282C20.3772 38.4282 15.089 33.1401 15.089 26.64C15.089 20.14 20.3772 14.8518 26.8772 14.8518C33.3772 14.8518 38.6654 20.14 38.6654 26.64C38.6654 33.1401 33.3772 38.4282 26.8772 38.4282Z" fill="#6059F7"/>
</svg>
