<svg width="40" height="40" viewBox="0 0 40 40" fill="none" xmlns="http://www.w3.org/2000/svg">
<path d="M21.9841 17.0673H23.0397V17.1341V17.7625C23.0397 18.2898 23.3736 18.7879 23.8707 19.0018C23.9843 19.0509 24.1765 19.1132 24.4188 19.1132C24.7454 19.1132 25.1628 18.9997 25.5992 18.5868L26.5709 17.67C26.5764 17.6651 26.5816 17.6599 26.5865 17.6547C27.1807 17.0511 27.181 17.0511 27.9818 17.063C28.1121 17.0651 28.2573 17.0673 28.4218 17.0673H31.1415C31.9796 17.0673 32.6616 16.3852 32.6616 15.5466V9.8276C32.6616 8.98806 31.9799 8.30477 31.1415 8.30477H21.9841C21.1461 8.30477 20.4644 8.98806 20.4644 9.8276V15.5466C20.4644 16.3852 21.1461 17.0673 21.9841 17.0673ZM21.6451 9.8279C21.6451 9.64236 21.8004 9.4858 21.9841 9.4858H31.1415C31.3286 9.4858 31.4809 9.6393 31.4809 9.8279V15.5466C31.4809 15.7309 31.3256 15.8866 31.1415 15.8866H28.4221C28.264 15.8866 28.1243 15.8844 27.9995 15.8826C26.9884 15.8673 26.6552 15.9036 25.7527 16.8186L24.7884 17.7286C24.6141 17.8934 24.4457 17.9639 24.3376 17.9172C24.2614 17.8845 24.2208 17.8061 24.2208 17.7622V17.1341C24.2208 16.706 24.2208 16.4234 24.009 16.1756C23.7621 15.8863 23.4255 15.8863 23.069 15.8863H21.9844C21.8004 15.8863 21.6451 15.7306 21.6451 15.5466V9.8279Z" fill="#6059F7"/>
<path d="M24.1583 13.2776H24.176C24.5023 13.2776 24.7665 13.0133 24.7665 12.6874C24.7665 12.3612 24.5023 12.0969 24.176 12.0969H24.1583C23.8324 12.0969 23.5681 12.3612 23.5681 12.6874C23.5681 13.0133 23.8324 13.2776 24.1583 13.2776Z" fill="#6059F7"/>
<path d="M26.5053 13.2776H26.523C26.8492 13.2776 27.1135 13.0133 27.1135 12.6874C27.1135 12.3612 26.8492 12.0969 26.523 12.0969H26.5053C26.1791 12.0969 25.9148 12.3612 25.9148 12.6874C25.9148 13.0133 26.1791 13.2776 26.5053 13.2776Z" fill="#6059F7"/>
<path d="M28.8547 13.2776H28.8699C29.1962 13.2776 29.4604 13.0133 29.4604 12.6874C29.4604 12.3612 29.1962 12.0969 28.8699 12.0969H28.8547C28.5284 12.0969 28.2642 12.3612 28.2642 12.6874C28.2642 13.0133 28.5284 13.2776 28.8547 13.2776Z" fill="#6059F7"/>
<path d="M14.067 22.5754H14.0515C13.7252 22.5754 13.4609 22.84 13.4609 23.1659C13.4609 23.4921 13.7252 23.7564 14.0515 23.7564H14.067C14.3929 23.7564 14.6572 23.4918 14.6572 23.1659C14.6572 22.84 14.3929 22.5754 14.067 22.5754Z" fill="#6059F7"/>
<path d="M13.996 21.7004H14.0116C14.3375 21.7004 14.6018 21.4362 14.6018 21.1102C14.6018 20.784 14.3375 20.5197 14.0116 20.5197H13.996C13.6698 20.5197 13.4055 20.7843 13.4055 21.1102C13.4058 21.4362 13.6701 21.7004 13.996 21.7004Z" fill="#6059F7"/>
<path d="M37.3727 1.2122C37.3687 1.21189 37.365 1.21189 37.3611 1.21189L20.0778 1.17191C20.0769 1.17191 20.076 1.17191 20.075 1.17191L2.64007 1.21189C1.18438 1.21189 0 2.39689 0 3.85379V29.4089C0 30.8655 1.18438 32.0505 2.64007 32.0505H14.0283L13.493 34.1043H12.0947C10.8151 34.1043 9.77415 35.1459 9.77415 36.4264V37.3767C9.77415 38.1341 10.3891 38.7506 11.1453 38.7506H29.7177C30.4736 38.7506 31.0888 38.1341 31.0888 37.3767V36.4264C31.0888 35.1459 30.0469 34.1043 28.7658 34.1043H27.3675L26.8322 32.0505H37.3599C38.8155 32.0505 39.9999 30.8655 39.9999 29.4089V3.85379C39.9999 2.42832 38.8213 1.24332 37.3727 1.2122ZM29.9081 36.4264V37.3767C29.9081 37.4814 29.8208 37.5699 29.7177 37.5699H11.1453C11.0422 37.5699 10.9549 37.4814 10.9549 37.3767V36.4264C10.9549 35.7971 11.4663 35.2853 12.0947 35.2853H13.9474H13.9499H13.9514H26.9091H26.911H26.9131H28.7658C29.3957 35.2853 29.9081 35.7971 29.9081 36.4264ZM26.1474 34.1043H14.7134L15.2487 32.0505H25.6121L26.1474 34.1043ZM37.3599 30.8697H2.64007C1.83532 30.8697 1.18072 30.2142 1.18072 29.4089V28.4051H18.699C19.0249 28.4051 19.2892 28.1409 19.2892 27.8149C19.2892 27.4887 19.0249 27.2244 18.699 27.2244H1.18072V3.85379C1.18072 3.04813 1.83532 2.39261 2.6416 2.39261L20.0766 2.35264L37.3522 2.39261C38.1615 2.41306 38.8192 3.06736 38.8192 3.85349V27.2241H21.4074C21.0815 27.2241 20.8172 27.4884 20.8172 27.8146C20.8172 28.1409 21.0815 28.4051 21.4074 28.4051H38.8192V29.4086C38.8192 30.2142 38.1646 30.8697 37.3599 30.8697Z" fill="#6059F7"/>
<path d="M35.9844 25.701C36.5508 25.701 37.012 25.2402 37.012 24.6735V5.23013C37.012 4.6622 36.5508 4.20016 35.9844 4.20016H21.5008C21.1746 4.20016 20.9103 4.46445 20.9103 4.79037C20.9103 5.11661 21.1746 5.38089 21.5008 5.38089H35.8309V24.5203H22.4667C22.0394 21.1676 19.5934 19.2865 17.0922 18.5071C18.2839 17.6187 18.9877 16.3227 18.9877 14.9915V13.3634C19.0014 13.1778 18.9965 12.9724 18.9916 12.7893C18.9898 12.7286 18.9883 12.6712 18.9877 12.6239C18.9691 9.28775 16.5591 7.79697 14.1735 7.79697C14.1683 7.79697 14.1628 7.79697 14.1577 7.79697C12.8912 7.80063 11.6335 8.22665 10.707 8.96609C9.65204 9.80807 9.07098 11.0096 9.07098 12.3496V14.9915C9.07098 16.373 9.83179 17.6609 10.9777 18.5126C9.84857 18.8727 8.78259 19.4406 7.91681 20.159C6.5014 21.334 5.68475 22.8321 5.53094 24.52H4.15094V5.38089H18.7744C19.1003 5.38089 19.3646 5.11661 19.3646 4.79068C19.3646 4.46445 19.1003 4.20016 18.7744 4.20016H3.99774C3.43134 4.20016 2.97021 4.6622 2.97021 5.23013V24.6735C2.97021 25.2402 3.43134 25.7013 3.99774 25.7013H35.9844V25.701ZM10.2517 12.3499C10.2517 10.167 12.2659 8.98349 14.161 8.978H14.1729C15.8428 8.978 17.7917 9.93381 17.8066 12.6337C17.8073 12.6725 17.8082 12.7143 17.8094 12.7585H15.8993C14.3499 12.7585 13.7411 12.3889 13.2034 12.0624C13.0947 11.9965 12.9977 11.9327 12.9037 11.8711C12.6006 11.6718 12.3129 11.4823 11.9567 11.4823C11.9149 11.4823 11.8719 11.485 11.8279 11.4905C11.3433 11.5515 11.004 11.9529 10.7089 12.3773C10.473 12.7176 10.3723 12.7539 10.2514 12.7579V12.3499H10.2517ZM10.2517 14.9918V13.9377C10.9741 13.9206 11.3653 13.5028 11.679 13.0506C11.8316 12.8308 11.9265 12.7295 11.9769 12.6841C12.0489 12.7219 12.1609 12.7954 12.2552 12.8574C12.3531 12.9221 12.4645 12.9953 12.5915 13.0719C13.1942 13.4381 14.0197 13.9392 15.8993 13.9392H17.8069V14.9915C17.8069 16.0105 17.2091 17.0179 16.2072 17.6868C15.9112 17.8855 15.5929 18.0429 15.2651 18.1565C15.2203 18.1656 15.1769 18.18 15.1357 18.1989C14.7717 18.3112 14.3981 18.3689 14.0328 18.3661C13.6501 18.364 13.2745 18.3014 12.9171 18.1903C12.8851 18.1766 12.8518 18.1656 12.8173 18.1577C11.3726 17.6673 10.2517 16.3752 10.2517 14.9918ZM12.6232 19.3372C13.0718 19.4702 13.5427 19.5441 14.0249 19.5471C14.0359 19.5471 14.0472 19.5475 14.0585 19.5475C14.5187 19.5475 14.9856 19.4754 15.4406 19.3396C17.907 19.6994 20.7693 21.2586 21.2725 24.5203H19.3514V23.5434C19.3514 23.2172 19.0872 22.9529 18.7609 22.9529C18.435 22.9529 18.1707 23.2172 18.1707 23.5434V24.5203H9.85468V23.5434C9.85468 23.2172 9.59039 22.9529 9.26416 22.9529C8.93793 22.9529 8.67365 23.2172 8.67365 23.5434V24.5203H6.71747C7.07513 21.3068 10.3216 19.6808 12.6232 19.3372Z" fill="#6059F7"/>
</svg>
