<svg width="40" height="40" viewBox="0 0 40 40" fill="none" xmlns="http://www.w3.org/2000/svg">
<path d="M37.1825 36.797L36.8656 35.0245C36.5889 33.4799 35.5009 32.1879 34.0261 31.6529L32.7779 31.2002V29.1809C32.7843 29.1746 32.7912 29.1688 32.7977 29.1623C33.553 28.4214 33.9862 27.3934 33.9862 26.3421V24.0097C33.9862 22.9092 33.5211 21.9159 32.7779 21.214V9.95344C32.7779 9.47055 32.5821 8.99852 32.2407 8.65844L24.0782 0.529922C23.9325 0.386484 23.767 0.27125 23.5884 0.185078C23.579 0.179844 23.5286 0.156172 23.522 0.153516C23.2903 0.0519531 23.0446 0 22.7911 0H5.57113C4.02902 0 2.77441 1.25453 2.77441 2.79648V33.5159C2.77441 33.8396 3.03676 34.1019 3.36035 34.1019C3.68395 34.1019 3.94629 33.8396 3.94629 33.5159V2.79648C3.94629 1.90062 4.6752 1.17188 5.57113 1.17188H22.7176V6.20172C22.7176 8.30922 24.4323 10.0238 26.54 10.0238H28.4831C28.8067 10.0238 29.069 9.76148 29.069 9.43781C29.069 9.11414 28.8067 8.85188 28.4831 8.85188H26.54C25.0786 8.85188 23.8895 7.66297 23.8895 6.20172V1.99586L31.4137 9.48875C31.5359 9.61055 31.606 9.77992 31.606 9.95344V20.4536C31.1534 20.2662 30.6578 20.1621 30.1382 20.1621C28.0164 20.1621 26.2903 21.8881 26.2903 24.0097V26.4152C26.2903 27.5069 26.7565 28.5003 27.4997 29.2045V31.2327L26.3117 31.6632C24.8568 32.1912 23.7725 33.4631 23.4822 34.9824L23.1411 36.7647C23.0022 37.4891 23.1619 38.2286 23.5786 38.8281H5.57113C4.6752 38.8281 3.94629 38.0994 3.94629 37.2035V35.914C3.94629 35.5903 3.68395 35.328 3.36035 35.328C3.03676 35.328 2.77441 35.5903 2.77441 35.914V37.2035C2.77441 38.7455 4.02902 40 5.57113 40H34.5016C35.3102 40 36.0714 39.6445 36.5903 39.0246C37.109 38.4046 37.3249 37.5927 37.1825 36.797ZM27.4621 24.0097C27.4621 22.5343 28.6626 21.334 30.1382 21.334C31.4622 21.334 32.5641 22.3006 32.7766 23.5649C32.5983 23.662 32.4107 23.7508 32.2159 23.8288C31.1078 24.2726 30.1304 24.2459 29.7735 23.9958C29.5086 23.8099 29.1432 23.8741 28.9574 24.1391C28.7716 24.4041 28.8357 24.7695 29.1007 24.9552C29.4728 25.2161 29.9948 25.3461 30.5939 25.3461C31.2231 25.3461 31.9372 25.2027 32.6515 24.9167C32.7063 24.8948 32.7604 24.8715 32.8143 24.8482V26.3422C32.8143 27.0809 32.5091 27.8038 31.977 28.3258C31.4604 28.8326 30.7877 29.1073 30.0855 29.0906C28.639 29.0628 27.462 27.8626 27.462 26.4152V24.0097H27.4621ZM30.063 30.2623C30.0875 30.2627 30.1119 30.263 30.1364 30.263C30.6474 30.263 31.1446 30.1593 31.606 29.9625V31.3332C30.7337 31.9511 29.545 31.952 28.6714 31.3323V29.9682C29.1024 30.1483 29.5716 30.2528 30.063 30.2623ZM35.6915 38.2725C35.396 38.6256 34.9622 38.8281 34.5015 38.8281H25.8159C25.3515 38.8281 24.9155 38.6228 24.6197 38.2649C24.324 37.9073 24.2046 37.4409 24.2919 36.9852L24.6331 35.2027C24.8464 34.0868 25.6428 33.1527 26.7112 32.7648L28.0047 32.2961C28.6408 32.7434 29.39 32.9668 30.1392 32.9668C30.9005 32.9668 31.6617 32.7358 32.3036 32.2748L33.6265 32.7547C34.7097 33.1477 35.5089 34.0966 35.7121 35.2311L36.0289 37.0034C36.11 37.4567 35.9872 37.9193 35.6915 38.2725Z" fill="#6059F7"/>
<path d="M10.0183 10.8075C9.78947 10.5786 9.41846 10.5787 9.18971 10.8074L8.41916 11.5778L7.64861 10.8074C7.41979 10.5785 7.04877 10.5786 6.82002 10.8075C6.59119 11.0363 6.59127 11.4073 6.8201 11.6361L7.59049 12.4063L6.8201 13.1766C6.59127 13.4054 6.59119 13.7764 6.82002 14.0052C6.93439 14.1196 7.08439 14.1768 7.23439 14.1768C7.38432 14.1768 7.53424 14.1196 7.64869 14.0052L8.41924 13.2348L9.18979 14.0052C9.30416 14.1197 9.45408 14.1768 9.60408 14.1768C9.75408 14.1768 9.90401 14.1196 10.0185 14.0052C10.2473 13.7763 10.2472 13.4053 10.0184 13.1766L9.24799 12.4063L10.0184 11.6361C10.2471 11.4073 10.2471 11.0363 10.0183 10.8075Z" fill="#6059F7"/>
<path d="M10.0208 18.7089C9.7935 18.4786 9.42249 18.4763 9.19226 18.7037L7.86944 20.01L7.64858 19.7892C7.41976 19.5605 7.04874 19.5604 6.81999 19.7893C6.59124 20.0182 6.59124 20.3891 6.82007 20.6179L7.45265 21.2503C7.56702 21.3647 7.71694 21.4219 7.86694 21.4219C8.01569 21.4219 8.16452 21.3655 8.27866 21.2529L10.0157 19.5376C10.2459 19.3101 10.2483 18.9391 10.0208 18.7089Z" fill="#6059F7"/>
<path d="M12.323 11.7789H23.3035C23.6271 11.7789 23.8894 11.5166 23.8894 11.193C23.8894 10.8693 23.6271 10.607 23.3035 10.607H12.323C11.9994 10.607 11.7371 10.8693 11.7371 11.193C11.7371 11.5166 11.9994 11.7789 12.323 11.7789Z" fill="#6059F7"/>
<path d="M12.323 14.2259H15.978C16.3016 14.2259 16.5639 13.9636 16.5639 13.6399C16.5639 13.3163 16.3016 13.054 15.978 13.054H12.323C11.9994 13.054 11.7371 13.3163 11.7371 13.6399C11.7371 13.9636 11.9994 14.2259 12.323 14.2259Z" fill="#6059F7"/>
<path d="M10.0183 32.5423C9.78947 32.3134 9.41846 32.3135 9.18971 32.5422L8.41916 33.3126L7.64861 32.5422C7.41979 32.3133 7.04877 32.3134 6.82002 32.5423C6.59119 32.7712 6.59127 33.1422 6.8201 33.3709L7.59049 34.1412L6.8201 34.9114C6.59127 35.1402 6.59119 35.5112 6.82002 35.74C6.93439 35.8544 7.08439 35.9116 7.23439 35.9116C7.38432 35.9116 7.53424 35.8544 7.64869 35.7401L8.41924 34.9697L9.18979 35.7401C9.30416 35.8545 9.45408 35.9116 9.60408 35.9116C9.75408 35.9116 9.90401 35.8544 10.0185 35.74C10.2473 35.5112 10.2472 35.1401 10.0184 34.9114L9.24799 34.1412L10.0184 33.3709C10.2471 33.1422 10.2471 32.7712 10.0183 32.5423Z" fill="#6059F7"/>
<path d="M12.323 33.5138H21.5232C21.8468 33.5138 22.1092 33.2515 22.1092 32.9278C22.1092 32.6042 21.8468 32.3419 21.5232 32.3419H12.323C11.9994 32.3419 11.7371 32.6042 11.7371 32.9278C11.7371 33.2515 11.9994 33.5138 12.323 33.5138Z" fill="#6059F7"/>
<path d="M12.323 35.9606H15.978C16.3016 35.9606 16.5639 35.6984 16.5639 35.3747C16.5639 35.051 16.3016 34.7888 15.978 34.7888H12.323C11.9994 34.7888 11.7371 35.051 11.7371 35.3747C11.7371 35.6984 11.9994 35.9606 12.323 35.9606Z" fill="#6059F7"/>
<path d="M12.323 19.3076H26.8761C27.1997 19.3076 27.4621 19.0453 27.4621 18.7216C27.4621 18.398 27.1997 18.1357 26.8761 18.1357H12.323C11.9994 18.1357 11.7371 18.398 11.7371 18.7216C11.7371 19.0453 11.9994 19.3076 12.323 19.3076Z" fill="#6059F7"/>
<path d="M12.323 21.7545H19.8291C20.1527 21.7545 20.415 21.4922 20.415 21.1685C20.415 20.8448 20.1527 20.5826 19.8291 20.5826H12.323C11.9994 20.5826 11.7371 20.8448 11.7371 21.1685C11.7371 21.4922 11.9994 21.7545 12.323 21.7545Z" fill="#6059F7"/>
<path d="M10.0209 25.6899C9.79354 25.4596 9.42252 25.4573 9.19229 25.6847L7.86955 26.9909L7.64869 26.7701C7.41979 26.5414 7.04885 26.5413 6.82002 26.7702C6.59119 26.999 6.59127 27.3701 6.8201 27.5988L7.45268 28.2313C7.56705 28.3457 7.71697 28.4029 7.86697 28.4029C8.01572 28.4029 8.16455 28.3465 8.27869 28.2339L10.0157 26.5186C10.246 26.2911 10.2483 25.9201 10.0209 25.6899Z" fill="#6059F7"/>
<path d="M12.323 26.2885H23.9307C24.2542 26.2885 24.5166 26.0262 24.5166 25.7026C24.5166 25.3789 24.2542 25.1166 23.9307 25.1166H12.323C11.9994 25.1166 11.7371 25.3789 11.7371 25.7026C11.7371 26.0262 11.9994 26.2885 12.323 26.2885Z" fill="#6059F7"/>
<path d="M12.323 28.7354H19.8291C20.1527 28.7354 20.415 28.4731 20.415 28.1494C20.415 27.8258 20.1527 27.5635 19.8291 27.5635H12.323C11.9994 27.5635 11.7371 27.8258 11.7371 28.1494C11.7371 28.4731 11.9994 28.7354 12.323 28.7354Z" fill="#6059F7"/>
<path d="M8.41924 3.3968C7.29877 3.3968 6.38721 4.30829 6.38721 5.42868C6.38721 6.54899 7.29877 7.46048 8.41924 7.46048C9.53971 7.46048 10.4513 6.54899 10.4513 5.42868C10.4513 4.30829 9.53971 3.3968 8.41924 3.3968ZM8.41924 6.2886C7.94494 6.2886 7.55908 5.90282 7.55908 5.42868C7.55908 4.95454 7.94494 4.56868 8.41924 4.56868C8.89354 4.56868 9.2794 4.95446 9.2794 5.42868C9.2794 5.9029 8.89354 6.2886 8.41924 6.2886Z" fill="#6059F7"/>
</svg>
