<svg width="8" height="8" viewBox="0 0 8 8" fill="none" xmlns="http://www.w3.org/2000/svg">
<path d="M4.35185 5.66677C5.00617 5.66677 5.51235 5.45073 5.87037 5.01863C6.22839 4.58653 6.40741 4.08036 6.40741 3.50011C6.40741 2.85813 6.16667 2.30566 5.68519 1.8427C5.2037 1.37974 4.62654 1.14826 3.9537 1.14826C3.28086 1.14826 2.7037 1.37974 2.22222 1.8427C1.74074 2.30566 1.5 2.85813 1.5 3.50011C1.5 3.91986 1.61111 4.30875 1.83333 4.66677C1.90741 4.80258 2.01852 4.87048 2.16667 4.87048C2.27778 4.87048 2.37346 4.83036 2.4537 4.75011C2.53395 4.66986 2.57407 4.58036 2.57407 4.48159C2.57407 4.41986 2.54938 4.35196 2.5 4.27789C2.3642 4.03097 2.2963 3.77171 2.2963 3.50011C2.2963 3.06801 2.45679 2.70073 2.77778 2.39826C3.09877 2.09579 3.48765 1.94455 3.94444 1.94455C4.40123 1.94455 4.79321 2.09579 5.12037 2.39826C5.44753 2.70073 5.61111 3.06801 5.61111 3.50011C5.61111 3.87048 5.50926 4.18838 5.30556 4.45381C5.10185 4.71924 4.78395 4.85196 4.35185 4.85196C4.2037 4.85196 4.08025 4.79949 3.98148 4.69455C3.88272 4.58961 3.83333 4.46307 3.83333 4.31492C3.83333 4.20381 3.89198 4.02789 4.00926 3.78715C4.12654 3.5464 4.18519 3.32727 4.18519 3.12974C4.18519 2.78406 3.99383 2.61122 3.61111 2.61122C3.43827 2.61122 3.28704 2.68221 3.15741 2.82418C3.02778 2.96616 2.96296 3.19147 2.96296 3.50011C2.96296 3.59887 2.96914 3.69764 2.98148 3.7964C2.99383 3.89517 3.00617 3.96924 3.01852 4.01863L3.03704 4.07418L2.31481 6.27789L2.2963 6.35196V6.40752C2.2963 6.53097 2.33642 6.63591 2.41667 6.72233C2.49691 6.80875 2.59877 6.85196 2.72222 6.85196C2.89506 6.85196 3.01852 6.77789 3.09259 6.62974L3.11111 6.64826L3.12963 6.57418L3.5 5.2964C3.73457 5.54332 4.01852 5.66677 4.35185 5.66677ZM7.11111 0.0556641C7.33333 0.0556641 7.52161 0.132825 7.67593 0.287146C7.83025 0.441466 7.90741 0.623565 7.90741 0.833442V7.16677C7.90741 7.37665 7.83025 7.55875 7.67593 7.71307C7.52161 7.86739 7.33333 7.94455 7.11111 7.94455H0.796296C0.574074 7.94455 0.385802 7.86739 0.231481 7.71307C0.0771605 7.55875 0 7.37665 0 7.16677V0.833442C0 0.623565 0.0771605 0.441466 0.231481 0.287146C0.385802 0.132825 0.574074 0.0556641 0.796296 0.0556641H7.11111Z" fill="white"/>
</svg>
