<svg width="250" height="212" viewBox="0 0 250 212" fill="none" xmlns="http://www.w3.org/2000/svg">
<path d="M250 25.1691V189.308C250 189.308 190.293 240.365 125 189.308C67.8571 144.543 12.8205 178.251 0 187.24V25.1691C0 11.3261 11.4469 0 25.5495 0H224.267C238.553 0.0898898 250 11.3261 250 25.1691Z" fill="#F7B517"/>
<g style="mix-blend-mode:multiply" opacity="0.5">
<path d="M250 187.433V189.484C250 189.484 190.293 240.145 125 189.484C182.234 145.156 237.271 178.514 250 187.433Z" fill="#F7B517"/>
</g>
<g style="mix-blend-mode:multiply" opacity="0.5">
<path d="M219.076 88.1401L216.208 86.794C216.208 84.8197 215.401 83.1147 214.057 81.8584C214.594 80.6918 214.863 79.3457 214.505 77.9099C213.967 75.4869 211.995 73.5127 209.575 72.9742C207.872 72.6153 206.259 72.9742 205.004 73.7819C203.032 71.9871 200.432 71 197.564 71C192.096 71 187.525 74.8588 186.539 80.0636C183.223 80.5123 180.623 83.3839 180.623 86.794C180.623 86.8837 180.623 87.0632 180.623 87.153L177.576 88.1401C176.5 88.499 176.769 90.0246 177.845 90.0246H181.43H215.401H218.538H218.628C219.704 89.9348 219.972 88.5888 219.076 88.1401Z" fill="#F7B517"/>
</g>
<g style="mix-blend-mode:multiply" opacity="0.5">
<path d="M76.1104 88.4733L69.2087 86.7682C68.0434 84.0761 65.5337 82.1018 62.4862 81.7429C62.4862 81.7429 62.4862 81.7429 62.4862 81.6531C62.4862 78.0636 59.5282 75.1022 55.9428 75.1022C55.2258 75.1022 54.5087 75.192 53.7917 75.4612C52.8953 71.7819 49.6685 69 45.635 69C41.0636 69 37.299 72.769 37.299 77.3457C37.299 77.4354 37.299 77.5252 37.299 77.6149C36.6716 77.4354 36.0442 77.3457 35.4167 77.3457C32.1899 77.3457 29.4113 79.1405 27.9772 81.8326C27.3497 81.6531 26.7223 81.5634 26.0052 81.5634C22.4198 81.5634 19.4619 83.8069 18.2071 86.9477C15.8766 87.3964 13.6357 87.9348 11.5741 88.2938C10.5882 88.4733 10.7674 89.9091 11.7534 89.9091H16.1455H17.6693H69.8361H73.78H75.8416C76.8276 90.0886 77.0068 88.7425 76.1104 88.4733Z" fill="#F7B517"/>
</g>
<path d="M193.62 54.6505H172.467C172.019 54.6505 171.66 54.2915 171.66 53.8428C171.66 53.3941 172.019 53.0352 172.467 53.0352H193.62C194.068 53.0352 194.427 53.3941 194.427 53.8428C194.427 54.2915 194.068 54.6505 193.62 54.6505Z" fill="white"/>
<path d="M219.704 38.0489H195.592C195.144 38.0489 194.786 37.6899 194.786 37.2412C194.786 36.7925 195.144 36.4336 195.592 36.4336H219.704C220.152 36.4336 220.51 36.7925 220.51 37.2412C220.51 37.6899 220.152 38.0489 219.704 38.0489Z" fill="white"/>
<path d="M48.055 33.2032H39.1812C38.7331 33.2032 38.3745 32.8442 38.3745 32.3955C38.3745 31.9468 38.7331 31.5879 39.1812 31.5879H48.055C48.5031 31.5879 48.8617 31.9468 48.8617 32.3955C48.8617 32.8442 48.5031 33.2032 48.055 33.2032Z" fill="white"/>
<path d="M34.6101 52.9459H25.7364C25.2882 52.9459 24.9297 52.5869 24.9297 52.1382C24.9297 51.6895 25.2882 51.3306 25.7364 51.3306H34.6101C35.0583 51.3306 35.4169 51.6895 35.4169 52.1382C35.4169 52.5869 35.0583 52.9459 34.6101 52.9459Z" fill="white"/>
<path d="M224.634 56.5352H215.76C215.312 56.5352 214.953 56.1763 214.953 55.7276C214.953 55.2789 215.312 54.9199 215.76 54.9199H224.634C225.082 54.9199 225.44 55.2789 225.44 55.7276C225.44 56.1763 225.082 56.5352 224.634 56.5352Z" fill="white"/>
<path d="M168.523 77.8931H146.921C146.473 77.8931 146.115 77.5342 146.115 77.0855C146.115 76.6368 146.473 76.2778 146.921 76.2778H168.523C168.971 76.2778 169.33 76.6368 169.33 77.0855C169.33 77.5342 168.971 77.8931 168.523 77.8931Z" fill="white"/>
<path d="M100.043 32.9341H72.4354C71.9872 32.9341 71.6287 32.5752 71.6287 32.1265C71.6287 31.6778 71.9872 31.3188 72.4354 31.3188H99.953C100.401 31.3188 100.76 31.6778 100.76 32.1265C100.849 32.5752 100.491 32.9341 100.043 32.9341Z" fill="white"/>
<path d="M80.5921 48.2794H51.3714C50.9233 48.2794 50.5647 47.9204 50.5647 47.4717C50.5647 47.023 50.9233 46.6641 51.3714 46.6641H80.5921C81.0402 46.6641 81.3988 47.023 81.3988 47.4717C81.3988 47.9204 81.0402 48.2794 80.5921 48.2794Z" fill="white"/>
<path d="M127.023 53.7535C130.966 57.702 137.42 57.702 141.454 53.7535C145.397 49.805 145.397 43.3438 141.454 39.3056C139.571 37.4211 136.972 36.3442 134.283 36.3442C131.594 36.3442 128.994 37.4211 127.112 39.3056C123.079 43.3438 123.079 49.805 127.023 53.7535ZM128.546 40.8312C130.07 39.3056 132.132 38.498 134.283 38.498C136.434 38.498 138.496 39.3056 140.019 40.8312C141.543 42.3567 142.35 44.4207 142.35 46.5744C142.35 48.7282 141.543 50.7922 140.019 52.3177C138.496 53.8433 136.434 54.6509 134.283 54.6509C132.132 54.6509 130.07 53.8433 128.546 52.3177C125.409 49.0871 125.409 43.972 128.546 40.8312Z" fill="white"/>
<path d="M161.173 20.5504C161.083 20.1017 160.725 19.653 160.277 19.653C143.694 17.7685 128.457 23.781 115.191 37.511C111.964 40.8313 108.827 44.6003 105.959 48.8181L105.6 49.3565H104.883C100.67 49.177 96.0092 51.1513 92.7823 54.3819L86.3288 60.843C85.9702 61.202 85.8806 61.7404 86.1495 62.0994C86.4184 62.5481 86.8665 62.7275 87.3147 62.5481C88.8385 62.0994 91.4379 61.6507 93.858 61.5609C94.7544 61.5609 95.4714 61.5609 96.1885 61.5609L98.0708 61.7404L97.1744 63.3557C96.547 64.612 96.0092 65.6889 95.4714 66.676C94.8439 67.9324 94.4855 68.74 94.2166 69.099C93.9477 69.5477 94.0373 70.0861 94.3958 70.4451L98.8775 74.932L98.2501 75.8294C92.9617 83.0085 92.9617 86.4185 92.9617 86.8672C92.9617 87.4057 93.3201 87.8543 94.1269 87.8543C95.0232 87.8543 98.4294 87.4954 104.973 82.5598L105.869 81.9316L110.53 86.598C110.888 86.957 111.426 87.0467 111.874 86.7775C112.323 86.5083 113.219 86.0596 114.563 85.3417C115.37 84.893 116.356 84.4443 117.342 83.9058L119.135 83.0085V84.9827C119.135 86.957 118.955 89.8286 118.328 93.7771C118.238 94.495 118.776 94.7642 118.866 94.854C119.045 94.9437 119.583 95.1232 120.121 94.6745L126.574 88.2133C129.622 85.1622 131.504 80.4958 131.325 76.1883V75.5602L131.863 75.2012C136.255 72.0604 140.288 68.8298 143.694 65.4197C157.05 52.1384 162.966 37.0623 161.173 20.5504ZM143.336 22.7041C148.086 21.5375 153.016 21.1786 158.036 21.5375L159.111 21.6273L159.201 22.7041C159.56 27.7295 159.201 32.6651 158.036 37.4213L157.677 38.6776L156.422 38.3186C153.464 37.3315 150.507 35.5368 147.907 32.9343C145.308 30.3319 143.425 27.3705 142.439 24.3194L142.081 23.0631L143.336 22.7041ZM93.6787 59.4072L90.4519 59.5867L94.2166 55.8177C96.1885 53.8434 98.6983 52.4076 101.387 51.7794L104.345 51.0615L102.732 53.6639C101.656 55.369 100.491 57.2535 99.5049 59.138L99.0567 59.9456L98.1604 59.7662C96.8159 59.4072 95.3817 59.3175 93.6787 59.4072ZM96.3677 69.3682L97.0848 67.8426C97.533 66.9453 98.0708 65.8684 98.9671 64.2531L99.7738 62.8173L104.793 67.8426L103.987 68.74C102.911 69.9066 101.925 71.0732 101.029 72.1501L100.132 73.1372L96.3677 69.3682ZM97.9811 84.3545L94.7544 85.8801L96.2781 82.6495C97.7122 79.6881 100.939 74.573 108.11 67.3939C109.992 65.5094 111.874 65.0607 114.205 65.0607H115.46V66.3171C115.37 68.5606 115.012 70.5348 113.129 72.4193C105.869 79.6881 100.939 82.9187 97.9811 84.3545ZM116.446 81.8419C115.012 82.6495 114.115 83.0982 113.309 83.4572L111.426 84.4443L107.482 80.4958L108.468 79.5984C109.544 78.701 110.709 77.6241 111.874 76.5473L112.771 75.7396L117.97 80.9445L116.446 81.8419ZM128.815 79.5087C128.188 82.2008 126.843 84.7135 125.051 86.598L120.927 90.726L121.107 87.4057C121.286 85.3417 121.196 83.8161 121.017 82.6495L120.838 81.7521L121.555 81.3034C123.437 80.2266 125.23 79.1497 126.933 78.0728L129.443 76.4575L128.815 79.5087ZM120.659 79.5087L119.852 79.9573L114.294 74.3936L115.101 73.4962C117.701 70.6245 117.701 67.8426 117.701 64.4326V64.0736C117.701 63.5352 117.252 62.9968 116.625 62.9968H116.087C112.86 62.9968 110.082 62.9968 107.213 65.5992L106.317 66.4068L100.939 61.0225L101.387 60.2149C112.143 41.28 124.782 29.1653 138.944 24.1399L140.109 23.6913L140.468 24.9476C141.543 28.2679 143.605 31.5883 146.473 34.4599C149.341 37.3315 152.568 39.3955 155.974 40.3826L157.229 40.7416L156.781 41.9082C151.672 55.9971 139.571 68.6503 120.659 79.5087Z" fill="white"/>
</svg>
