<svg width="40" height="40" viewBox="0 0 40 40" fill="none" xmlns="http://www.w3.org/2000/svg">
<path d="M39.3333 4C39.5101 4 39.6797 3.92976 39.8047 3.80474C39.9298 3.67971 40 3.51014 40 3.33333V0.666667C40 0.489856 39.9298 0.320286 39.8047 0.195262C39.6797 0.0702379 39.5101 0 39.3333 0H0.666667C0.489856 0 0.320286 0.0702379 0.195262 0.195262C0.0702379 0.320286 0 0.489856 0 0.666667V3.33333C0 3.51014 0.0702379 3.67971 0.195262 3.80474C0.320286 3.92976 0.489856 4 0.666667 4H1.33333V24H0.666667C0.489856 24 0.320286 24.0702 0.195262 24.1953C0.0702379 24.3203 0 24.4899 0 24.6667V27.3333C0 27.5101 0.0702379 27.6797 0.195262 27.8047C0.320286 27.9298 0.489856 28 0.666667 28H5.282L4.04733 31.0853C4.00678 31.1865 3.99166 31.2961 4.0033 31.4045C4.01495 31.5129 4.053 31.6168 4.11413 31.7071C4.17526 31.7974 4.2576 31.8713 4.35393 31.9224C4.45026 31.9734 4.55764 32.0001 4.66667 32H8V38C8 38.5304 8.21071 39.0391 8.58579 39.4142C8.96086 39.7893 9.46957 40 10 40H12.6667C13.1971 40 13.7058 39.7893 14.0809 39.4142C14.456 39.0391 14.6667 38.5304 14.6667 38V32H18C18.109 32.0001 18.2164 31.9734 18.3127 31.9224C18.4091 31.8713 18.4914 31.7974 18.5525 31.7071C18.6137 31.6168 18.6517 31.5129 18.6634 31.4045C18.675 31.2961 18.6599 31.1865 18.6193 31.0853L17.3847 28H34.6667V34.7893C34.2219 34.9466 33.847 35.256 33.6082 35.663C33.3695 36.0699 33.2824 36.5482 33.3621 37.0132C33.4419 37.4782 33.6835 37.9 34.0442 38.2041C34.4049 38.5082 34.8615 38.675 35.3333 38.675C35.8051 38.675 36.2617 38.5082 36.6224 38.2041C36.9832 37.9 37.2248 37.4782 37.3045 37.0132C37.3843 36.5482 37.2971 36.0699 37.0584 35.663C36.8197 35.256 36.4448 34.9466 36 34.7893V28H39.3333C39.5101 28 39.6797 27.9298 39.8047 27.8047C39.9298 27.6797 40 27.5101 40 27.3333V24.6667C40 24.4899 39.9298 24.3203 39.8047 24.1953C39.6797 24.0702 39.5101 24 39.3333 24H38.6667V4H39.3333ZM35.3333 37.3333C35.2015 37.3333 35.0726 37.2942 34.963 37.221C34.8533 37.1477 34.7679 37.0436 34.7174 36.9218C34.667 36.8 34.6538 36.6659 34.6795 36.5366C34.7052 36.4073 34.7687 36.2885 34.8619 36.1953C34.9552 36.102 35.074 36.0385 35.2033 36.0128C35.3326 35.9871 35.4666 36.0003 35.5885 36.0508C35.7103 36.1012 35.8144 36.1867 35.8876 36.2963C35.9609 36.4059 36 36.5348 36 36.6667C36 36.8435 35.9298 37.0131 35.8047 37.1381C35.6797 37.2631 35.5101 37.3333 35.3333 37.3333ZM1.33333 1.33333H38.6667V2.66667H1.33333V1.33333ZM1.33333 26.6667V25.3333H6.34867L5.81533 26.6667H1.33333ZM8.66667 11.3333V9.912L9.63 10.5547C9.73956 10.6277 9.86831 10.6667 10 10.6667C10.0618 10.6667 10.1233 10.6579 10.1827 10.6407L14 9.55067V11.3333C14 11.8638 13.7893 12.3725 13.4142 12.7475C13.0391 13.1226 12.5304 13.3333 12 13.3333H10.6667C10.1362 13.3333 9.62753 13.1226 9.25245 12.7475C8.87738 12.3725 8.66667 11.8638 8.66667 11.3333ZM8.70067 8.33333C8.77927 7.86832 9.01966 7.44605 9.3794 7.14108C9.73913 6.83612 10.1951 6.66809 10.6667 6.66667H12C12.445 6.66827 12.8767 6.81823 13.2269 7.09281C13.5771 7.36739 13.8257 7.75091 13.9333 8.18267L10.1133 9.27467L8.70067 8.33333ZM10.088 14.6667L8.112 17.63L9.22133 18.37L10.6667 16.2V19.3333H12V16.2L13.4453 18.368L14.5547 17.628L12.5787 14.6667H15.3333C15.5101 14.6667 15.6797 14.7369 15.8047 14.8619C15.9298 14.987 16 15.1565 16 15.3333C16 15.5101 16.0702 15.6797 16.1953 15.8047C16.3203 15.9298 16.4899 16 16.6667 16H18.2287C18.364 15.9998 18.4961 15.9584 18.6073 15.8813L22.474 13.208L23.4193 14.1527L19.114 17.3333H15.3333C15.1565 17.3333 14.987 17.4036 14.8619 17.5286C14.7369 17.6536 14.6667 17.8232 14.6667 18V21.3333H8V18H6.66667V24H5.33333V16.6667C5.33333 16.1362 5.54405 15.6275 5.91912 15.2525C6.29419 14.8774 6.8029 14.6667 7.33333 14.6667H10.088ZM8 22.6667H9.33333V24H8V22.6667ZM10.6667 22.6667H12V24H10.6667V22.6667ZM13.3333 22.6667H14.6667V24H13.3333V22.6667ZM9.33333 38V32H10.6667V38.6667H10C9.82319 38.6667 9.65362 38.5964 9.52859 38.4714C9.40357 38.3464 9.33333 38.1768 9.33333 38ZM13.3333 38C13.3333 38.1768 13.2631 38.3464 13.1381 38.4714C13.013 38.5964 12.8435 38.6667 12.6667 38.6667H12V32H13.3333V38ZM5.65133 30.6667L7.78467 25.3333H14.882L17.0153 30.6667H5.65133ZM38.6667 26.6667H16.8513L16.318 25.3333H38.6667V26.6667ZM37.3333 24H16V18.6667H19.3333C19.4763 18.6661 19.6152 18.6194 19.7293 18.5333L24.834 14.762C24.9111 14.705 24.975 14.6321 25.0214 14.5481C25.0677 14.4642 25.0954 14.3712 25.1026 14.2756C25.1097 14.18 25.0961 14.0839 25.0628 13.994C25.0295 13.9041 24.9771 13.8225 24.9093 13.7547L24.3807 13.226L29.6093 8H34.6667V6.66667H30.9427L31.8047 5.80467L30.862 4.862L29.0573 6.66667H24V8H27.724L23.438 12.286L23.0233 11.872C22.9131 11.7617 22.7676 11.6936 22.6123 11.6795C22.457 11.6653 22.3017 11.7061 22.1733 11.7947L18.02 14.6667H17.22C17.0816 14.2769 16.8259 13.9395 16.4881 13.7008C16.1503 13.462 15.747 13.3337 15.3333 13.3333H14.6493C15.0905 12.7597 15.3309 12.057 15.3333 11.3333V8.66667C15.3323 7.78294 14.9807 6.93571 14.3559 6.31081C13.731 5.68592 12.8837 5.33439 12 5.33333H10.6667C10.0817 5.3353 9.50765 5.49169 9.00253 5.78669C8.4974 6.08168 8.07913 6.50483 7.79 7.01333C7.50692 6.8165 7.17792 6.69589 6.83469 6.66314C6.49147 6.63039 6.14559 6.6866 5.8304 6.82635C5.51521 6.9661 5.24132 7.18468 5.03514 7.46102C4.82897 7.73737 4.69744 8.06216 4.65325 8.4041C4.60905 8.74604 4.65368 9.0936 4.78282 9.41328C4.91197 9.73297 5.12128 10.014 5.39059 10.2293C5.65989 10.4446 5.98011 10.5869 6.32038 10.6425C6.66066 10.6981 7.00952 10.6651 7.33333 10.5467V11.3333C7.33578 12.057 7.57613 12.7597 8.01733 13.3333H7.33333C6.4496 13.3344 5.60237 13.6859 4.97748 14.3108C4.35259 14.9357 4.00106 15.7829 4 16.6667V24H2.66667V4H37.3333V24ZM7.33333 8.66667C7.33333 8.79852 7.29423 8.92741 7.22098 9.03705C7.14773 9.14668 7.04361 9.23213 6.92179 9.28259C6.79997 9.33305 6.66593 9.34625 6.53661 9.32052C6.40729 9.2948 6.2885 9.23131 6.19526 9.13807C6.10203 9.04484 6.03853 8.92605 6.01281 8.79673C5.98709 8.66741 6.00029 8.53336 6.05075 8.41154C6.10121 8.28973 6.18665 8.18561 6.29629 8.11235C6.40592 8.0391 6.53481 8 6.66667 8C6.84348 8 7.01305 8.07024 7.13807 8.19526C7.2631 8.32029 7.33333 8.48986 7.33333 8.66667Z" fill="#6059F7"/>
<path d="M22.6667 6.66666H20V8H22.6667V6.66666Z" fill="#6059F7"/>
<path d="M34.6667 10.6667H30.6667V12H34.6667V10.6667Z" fill="#6059F7"/>
<path d="M34.6667 16H26.6667V17.3333H34.6667V16Z" fill="#6059F7"/>
<path d="M34.6667 20H24V21.3333H34.6667V20Z" fill="#6059F7"/>
</svg>
