<svg width="39" height="32" viewBox="0 0 39 32" fill="none" xmlns="http://www.w3.org/2000/svg">
<path d="M26.1322 15.621L29.7243 15.621C29.3899 21.3538 26.5923 22.3003 24.4555 22.4948C23.8459 22.5503 23.3792 23.0613 23.3792 23.6735L23.3792 30.3004C23.3792 30.6257 23.5132 30.9369 23.7496 31.1605C23.9861 31.3841 24.3046 31.5 24.6292 31.4821C29.3732 31.2152 33.0043 29.5706 35.4219 26.5939C37.7962 23.6704 39 19.4271 39 13.9817L39 4.02867C39 1.80728 37.1928 3.7673e-05 34.9714 3.70904e-05L26.1321 3.47721e-05C23.9107 3.41895e-05 22.1035 1.80728 22.1036 4.02878L22.1036 11.5924C22.1036 13.8137 23.9108 15.621 26.1322 15.621ZM24.4707 4.02866C24.4707 3.11255 25.216 2.36724 26.1321 2.36724L34.9714 2.36724C35.8875 2.36724 36.6328 3.11256 36.6328 4.02866L36.6328 13.9817C36.6328 18.8696 35.6071 22.6109 33.5843 25.1015C31.7863 27.3153 29.2143 28.6004 25.7463 29.0106L25.7463 24.6941C28.8697 24.0501 32.1246 21.6481 32.1246 14.4373C32.1246 13.7837 31.5947 13.2537 30.941 13.2537L26.1321 13.2537C25.216 13.2537 24.4707 12.5083 24.4707 11.5922L24.4707 4.02866Z" fill="#6059F7"/>
<path d="M4.0286 15.621L7.62072 15.621C7.28623 21.3536 4.48866 22.3003 2.35191 22.4948C1.74223 22.5503 1.27554 23.0613 1.27554 23.6735L1.27554 30.3004C1.27554 30.6257 1.40952 30.9369 1.646 31.1605C1.88249 31.3841 2.201 31.5 2.52554 31.4821C7.26966 31.2152 10.9008 29.5706 13.3183 26.5939C15.6925 23.6704 16.8964 19.4271 16.8964 13.9817L16.8964 13.572C16.8964 12.9185 16.3665 12.3884 15.7128 12.3884C15.0591 12.3884 14.5292 12.9185 14.5292 13.572L14.5292 13.9817C14.5292 18.8696 13.5036 22.6109 11.4808 25.1015C9.68278 27.3153 7.11093 28.6004 3.64274 29.0106L3.64274 24.6942C6.76615 24.0501 10.0211 21.6482 10.0211 14.4374C10.0211 13.7838 9.49116 13.2538 8.83746 13.2538L4.0286 13.2538C3.11249 13.2538 2.36718 12.5085 2.36718 11.5924L2.36718 4.02878C2.36718 3.11267 3.1125 2.36736 4.0286 2.36736L12.8679 2.36736C13.784 2.36736 14.5293 3.11267 14.5293 4.02878L14.5293 4.67538C14.5293 5.32897 15.0592 5.85899 15.7129 5.85899C16.3666 5.85899 16.8965 5.32897 16.8965 4.67538L16.8965 4.02878C16.8965 1.8074 15.0893 0.000154021 12.8679 0.000153439L4.02861 0.00015112C1.80722 0.000150538 -2.46417e-05 1.80739 -2.52243e-05 4.02878L-2.7208e-05 11.5924C-2.77906e-05 13.8137 1.80722 15.621 4.0286 15.621Z" fill="#6059F7"/>
<path d="M15.7129 10.5835C16.3666 10.5835 16.8965 10.0535 16.8965 9.39989L16.8965 9.35054C16.8965 8.69695 16.3666 8.16694 15.7129 8.16694C15.0592 8.16694 14.5293 8.69695 14.5293 9.35054L14.5293 9.39989C14.5293 10.0535 15.0592 10.5835 15.7129 10.5835Z" fill="#6059F7"/>
</svg>
