<svg width="39" height="32" viewBox="0 0 39 32" fill="none" xmlns="http://www.w3.org/2000/svg">
<path d="M12.8678 15.8629L9.27565 15.8629C9.61014 10.1301 12.4077 9.1836 14.5445 8.98913C15.1541 8.93362 15.6208 8.42254 15.6208 7.81038L15.6208 1.18351C15.6208 0.858137 15.4868 0.546969 15.2504 0.323387C15.0139 0.0998043 14.6954 -0.0160708 14.3708 0.00180155C9.62683 0.268703 5.99566 1.91332 3.57815 4.88996C1.20384 7.81346 -2.10808e-06 12.0568 -3.06018e-06 17.5022L-4.80042e-06 27.4552C-5.18882e-06 29.6766 1.80724 31.4838 4.02862 31.4838L12.8679 31.4839C15.0893 31.4839 16.8965 29.6766 16.8964 27.4551L16.8964 19.8915C16.8964 17.6701 15.0892 15.8629 12.8678 15.8629ZM14.5293 27.4552C14.5293 28.3713 13.784 29.1166 12.8679 29.1166L4.02862 29.1166C3.11251 29.1166 2.3672 28.3713 2.3672 27.4552L2.3672 17.5022C2.3672 12.6143 3.39291 8.87302 5.41569 6.38236C7.2137 4.16855 9.78567 2.88352 13.2537 2.47328L13.2537 6.78976C10.1303 7.43376 6.87543 9.83576 6.87543 17.0466C6.87543 17.7002 7.40532 18.2302 8.05903 18.2302L12.8679 18.2302C13.784 18.2302 14.5293 18.9755 14.5293 19.8916L14.5293 27.4552Z" fill="#6059F7"/>
<path d="M34.9714 15.8629L31.3793 15.8629C31.7138 10.1302 34.5113 9.1836 36.6481 8.98913C37.2578 8.93362 37.7245 8.42254 37.7245 7.81038L37.7245 1.18351C37.7245 0.858138 37.5905 0.546969 37.354 0.323387C37.1175 0.0998043 36.799 -0.0160708 36.4745 0.00180155C31.7303 0.268703 28.0992 1.91332 25.6817 4.88996C23.3075 7.81346 22.1036 12.0568 22.1036 17.5022L22.1036 17.9118C22.1036 18.5654 22.6335 19.0954 23.2872 19.0954C23.9409 19.0954 24.4708 18.5654 24.4708 17.9118L24.4708 17.5022C24.4708 12.6143 25.4964 8.87302 27.5192 6.38236C29.3172 4.16855 31.8891 2.88352 35.3573 2.47328L35.3573 6.78964C32.2338 7.43376 28.9789 9.83564 28.9789 17.0465C28.9789 17.7001 29.5088 18.2301 30.1625 18.2301L34.9714 18.2301C35.8875 18.2301 36.6328 18.9754 36.6328 19.8915L36.6328 27.4551C36.6328 28.3712 35.8875 29.1165 34.9714 29.1165L26.1321 29.1165C25.216 29.1165 24.4707 28.3712 24.4707 27.4551L24.4707 26.8085C24.4707 26.1549 23.9408 25.6249 23.2871 25.6249C22.6334 25.6249 22.1035 26.1549 22.1035 26.8085L22.1035 27.4551C22.1035 29.6765 23.9108 31.4837 26.1321 31.4837L34.9714 31.4837C37.1928 31.4837 39 29.6765 39 27.4551L39 19.8915C39 17.6701 37.1928 15.8629 34.9714 15.8629Z" fill="#6059F7"/>
<path d="M23.2871 20.9004C22.6334 20.9004 22.1035 21.4304 22.1035 22.084L22.1035 22.1333C22.1035 22.7869 22.6334 23.317 23.2871 23.317C23.9408 23.317 24.4707 22.7869 24.4707 22.1333L24.4707 22.084C24.4707 21.4304 23.9408 20.9004 23.2871 20.9004Z" fill="#6059F7"/>
</svg>
