<svg width="421" height="421" viewBox="0 0 421 421" fill="none" xmlns="http://www.w3.org/2000/svg">
<g clip-path="url(#clip0)">
<g clip-path="url(#clip1)">
<path d="M412.3 200.7C412.3 200.8 412.2 200.9 412.1 201C412.1 201.1 411.9 201.2 411.8 201.2L294.6 201.5C294.3 201.4 294.1 201.2 294.1 201C293.4 188.1 289.7 175.9 283.3 164.6C276.8 153.2 268.1 143.8 257.3 136.7C257.1 136.5 257 136.2 257.1 136L315.5 34.3C315.5 34.2 315.7 34.1 315.8 34C315.8 34 315.9 35 316 35C322.8 39.2 328.8 42.8 335 47.7C335.5 48.1 336 48.5 336.5 48.9C337.3 49.5 338 50.1 338.7 50.7C338.7 50.7 338.8 50.7 338.8 50.8C357.4 66.3 374.3 86.4 386.4 107.6C403.2 136.7 411.6 167.1 412.3 200.7Z" fill="white"/>
<path d="M412.4 201.6H294.3C294 201.6 293.8 201.4 293.8 201.1C293.8 200.8 294 200.6 294.3 200.6H411.9C410 132.5 374.2 70.7001 316 34.9L257.1 136.1C270.6 145 281.2 157.4 287.7 172.1C287.8 172.4 287.7 172.6 287.4 172.8C287.1 172.9 286.9 172.8 286.7 172.5C280.1 157.8 269.5 145.4 256 136.7C255.8 136.6 255.7 136.3 255.8 136L315.2 34C315.3 33.9 315.4 33.8 315.5 33.8C315.6 33.8 315.8 33.8 315.9 33.9C374.8 69.8 411 132.4 412.7 201.2C412.7 201.3 412.7 201.5 412.6 201.6C412.7 201.5 412.5 201.6 412.4 201.6Z" fill="#3D3D3D"/>
<path d="M356.3 128.7C355.9 127.7 354.8 127.3 353.8 127.6C352.8 128 352.4 129.1 352.7 130.1C353.7 132.5 354.1 135.1 354.1 137.7C354.1 149.1 344.8 158.4 333.4 158.4C322 158.4 312.7 149.1 312.7 137.7C312.7 126.3 322 117 333.4 117C336 117 338.6 117.5 341 118.5C342 118.9 343.1 118.4 343.5 117.4C343.9 116.4 343.4 115.3 342.4 114.9C339.5 113.8 336.5 113.2 333.4 113.2C319.9 113.2 308.9 124.2 308.9 137.7C308.9 151.2 319.9 162.2 333.4 162.2C346.9 162.2 357.9 151.2 357.9 137.7C358 134.6 357.4 131.6 356.3 128.7Z" fill="#F7B517"/>
<path d="M367.9 127.8C367.6 126.8 366.6 126.2 365.6 126.5C364.6 126.8 364 127.8 364.3 128.8C365.1 131.7 365.5 134.6 365.5 137.6C365.5 155.3 351.1 169.6 333.5 169.6C315.8 169.6 301.5 155.2 301.5 137.6C301.5 120 315.9 105.6 333.5 105.6C336.5 105.6 339.5 106 342.3 106.8C343.3 107.1 344.3 106.5 344.6 105.5C344.9 104.5 344.3 103.5 343.3 103.2C340.1 102.3 336.8 101.8 333.4 101.8C313.6 101.8 297.6 117.9 297.6 137.6C297.6 157.3 313.7 173.4 333.4 173.4C353.2 173.4 369.2 157.3 369.2 137.6C369.3 134.3 368.8 131 367.9 127.8Z" fill="#F7B517"/>
<path d="M346.6 136.5C346.5 135.5 345.6 134.7 344.6 134.8C343.6 134.9 342.8 135.8 342.9 136.8C342.9 137.1 342.9 137.3 342.9 137.6C342.9 142.8 338.7 147 333.5 147C328.3 147 324.1 142.8 324.1 137.6C324.1 132.4 328.3 128.2 333.5 128.2C333.8 128.2 334.1 128.2 334.3 128.2C335.3 128.3 336.3 127.5 336.4 126.5C336.5 125.5 335.7 124.5 334.7 124.4C334.3 124.4 333.9 124.3 333.5 124.3C326.2 124.3 320.3 130.2 320.3 137.5C320.3 144.8 326.2 150.7 333.5 150.7C340.8 150.7 346.7 144.8 346.7 137.5C346.7 137.3 346.7 136.9 346.6 136.5Z" fill="#F7B517"/>
<path d="M377.5 106.4C376.9 105 375.6 104.1 374 104H367.4V97.4C367.4 95.9 366.5 94.5 365.1 93.9C363.7 93.3 362.1 93.6 361 94.7L349.9 105.6C348.8 106.7 348.2 108.1 348.2 109.6L348.1 120.3L332.6 135.5C331.9 136.2 331.8 137.4 332.6 138.2C333 138.6 333.4 138.8 333.9 138.8C334.4 138.8 334.9 138.6 335.2 138.3L350.7 123.1L361.4 123.2C362.9 123.2 364.3 122.6 365.4 121.6L376.5 110.7C377.7 109.4 378.1 107.8 377.5 106.4ZM352 109.6C352 109.1 352.2 108.6 352.6 108.3L363.6 97.3V105L352 116.6V109.6ZM362.9 118.6C362.5 119 362.1 119.2 361.6 119.2H354.7L366.3 107.6H374L362.9 118.6Z" fill="#F7B517"/>
<path d="M164.4 276.2L105.4 377.5C105.4 377.6 105.2 377.7 105.1 377.8C105.1 377.8 105 377.8 104.9 377.8C98.0999 373.6 92.5999 370.1 86.3999 365.2C85.8999 364.8 85.3999 364.4 84.8999 364C84.0999 363.4 83.3999 362.8 82.6999 362.2C82.6999 362.2 82.5999 362.2 82.5999 362.1C63.9999 346.6 48.0999 327.9 36.0999 306.7C19.2999 277.4 10.0999 245.2 9.3999 211.5C9.3999 211.4 9.4999 211.3 9.5999 211.2C9.5999 211.1 9.7999 211 9.8999 211L127 210.6C127.3 210.7 127.5 210.9 127.5 211.1C128.2 224 132.9 236.2 139.3 247.5C145.8 258.9 153.5 268.3 164.3 275.4C164.5 275.7 164.6 276 164.4 276.2Z" fill="white"/>
<path d="M105.5 378.5C105.4 378.5 105.3 378.5 105.2 378.4C46.5 342.3 10.5 279.7 9 210.9C9 210.8 9 210.6 9.1 210.5C9.2 210.4 9.3 210.3 9.5 210.3L127.5 209.9C127.8 209.9 128 210.1 128 210.4C128.4 217.9 129.8 225.3 132.1 232.4C132.2 232.7 132 232.9 131.8 233C131.5 233.1 131.3 232.9 131.2 232.7C128.9 225.7 127.5 218.4 127 210.9L9.9 211.3C11.6 279.3 47.2 341.3 105.2 377.2L164.2 276.1C158.3 272.2 152.9 267.5 148.2 262.2C148 262 148 261.7 148.2 261.5C148.4 261.3 148.7 261.3 148.9 261.5C153.7 266.8 159.1 271.5 165.1 275.5C165.3 275.6 165.4 275.9 165.3 276.2C165.3 276.2 121.1 353 105.8 378.2C105.7 378.5 105.6 378.5 105.5 378.5Z" fill="#3D3D3D"/>
<path d="M127.5 247H123.4V242.9C123.4 242.1 122.8 241.5 122 241.5H93.2C91 241.5 89 242.5 87.7 244.3C86.4 242.6 84.4 241.5 82.2 241.5H53.4C52.6 241.5 52 242.1 52 242.9V247H47.9C47.1 247 46.5 247.6 46.5 248.4V303.2C46.5 304 47.1 304.6 47.9 304.6H127.3C128.1 304.6 128.7 304 128.7 303.2V248.4C128.8 247.7 128.2 247 127.5 247ZM49.4 301.8V249.8H52.1V297.7C52.1 298.5 52.7 299.1 53.5 299.1H82.3C84 299.1 85.6 300.2 86.2 301.8H49.4ZM86.4 297.8C85.2 296.9 83.8 296.4 82.3 296.4H54.9V244.4H82.3C84.6 244.4 86.4 246.2 86.4 248.5V297.8ZM89.1 248.4C89.1 246.1 90.9 244.3 93.2 244.3H120.6V296.3H93.2C91.7 296.3 90.3 296.8 89.1 297.7V248.4ZM126.1 301.8H89.4C90 300.2 91.5 299.1 93.3 299.1H122.1C122.9 299.1 123.5 298.5 123.5 297.7V249.8H126.2L126.1 301.8Z" fill="#F7B517"/>
<path d="M108.3 247C105.3 247 102.8 249.5 102.8 252.5V285.4C102.8 285.6 102.9 285.9 103 286.1L107.1 292.9C107.5 293.6 108.3 293.8 109 293.4C109.2 293.3 109.4 293.1 109.5 292.9L113.6 286.1C113.7 285.9 113.8 285.6 113.8 285.4V252.5C113.8 249.5 111.3 247 108.3 247ZM108.3 289.6L106 285.8L108.3 284.3L110.6 285.8L108.3 289.6ZM111 282.8L109.6 281.9V263.5H106.9V281.9L105.5 282.8V260.7H111V282.8ZM111 258H105.5V255.3H111V258ZM105.6 252.5C105.6 251 106.8 249.8 108.3 249.8C109.8 249.8 111 251 111 252.5H105.6Z" fill="#F7B517"/>
<path d="M57.6001 248.4H83.6001V251.1H57.6001V248.4Z" fill="#F7B517"/>
<path d="M57.6001 253.9H72.7001V256.6H57.6001V253.9Z" fill="#F7B517"/>
<path d="M75.3999 253.9H83.5999V256.6H75.3999V253.9Z" fill="#F7B517"/>
<path d="M57.6001 259.4H63.1001V262.1H57.6001V259.4Z" fill="#F7B517"/>
<path d="M65.8 259.4H83.6V262.1H65.8V259.4Z" fill="#F7B517"/>
<path d="M114.9 30.1C114.8 30 114.8 29.8 114.9 29.7C115 29.6 115 29.5 115.1 29.4C144.6 13.3 177.2 4 211 4C244.9 4 277.5 12.6 307.1 28.8C307.2 28.9 307.3 29 307.3 29.1C307.3 29.2 307.3 29.4 307.2 29.5L247.7 131.5C247.6 131.7 248.3 131.8 248 131.7C236.5 125.9 224 123 210.9 123C197.9 123 185.4 125.9 173.9 131.7C173.7 131.8 173.8 131.5 173.6 131.3L114.9 30.1Z" fill="white"/>
<path d="M173.9 132C173.7 132 173.6 131.9 173.5 131.8L113.9 29.7999C113.8 29.6999 113.8 29.4999 113.8 29.3999C113.8 29.2999 113.9 29.1999 114 29.0999C143.5 12.8999 177 4.3999 210.9 4.3999C221 4.3999 231.2 5.1999 241.1 6.5999C241.4 6.5999 241.6 6.8999 241.5 7.1999C241.5 7.4999 241.2 7.6999 240.9 7.5999C231 6.0999 220.9 5.3999 210.8 5.3999C177.3 5.3999 144.1 13.7999 114.9 29.6999L174.1 130.8C185.6 125.1 198 122.3 211 122.3C223.8 122.3 236.1 125.1 247.5 130.6L306.5 29.2999C297.7 24.4999 288.4 20.3999 279 16.9999C278.7 16.8999 278.6 16.5999 278.7 16.3999C278.8 16.0999 279.1 15.9999 279.3 16.0999C288.9 19.5999 298.4 23.7999 307.4 28.6999C307.5 28.7999 307.6 28.8999 307.6 28.9999C307.6 29.0999 307.6 29.2999 307.6 29.3999L248.1 131.5C248 131.7 247.7 131.8 247.4 131.7C236 126.1 223.7 123.3 210.9 123.3C198 123.3 185.6 126.2 174.1 131.9C174 132 174 132 173.9 132Z" fill="#6059F7"/>
<path d="M238.9 29.8999H199.9C199.5 29.8999 199.1 29.9999 198.9 30.2999L184 43.8999C183.7 44.0999 183.6 44.4999 183.6 44.7999V99.9999C183.6 100.7 184.2 101.3 185 101.3H238.9C239.7 101.3 240.3 100.7 240.3 99.9999V31.2999C240.3 30.4999 239.6 29.8999 238.9 29.8999ZM198.5 34.2999V43.4999H188.4L198.5 34.2999ZM237.4 98.6999H186.4V46.0999H199.9C200.7 46.0999 201.3 45.4999 201.3 44.7999V32.4999H237.4V98.6999Z" fill="#36C3FE"/>
<path d="M225.6 75.7C225.6 75.1 225.1 74.5 224.5 74.5H199.4C198.8 74.5 198.3 75 198.3 75.7C198.3 76.4 198.8 76.9 199.4 76.9H224.5C225.1 76.9 225.6 76.4 225.6 75.7Z" fill="#36C3FE"/>
<path d="M215.9 80.7H199.3C198.7 80.7 198.2 81.2 198.2 81.9C198.2 82.6 198.7 83.1 199.3 83.1H215.9C216.5 83.1 217 82.6 217 81.9C217 81.2 216.5 80.7 215.9 80.7Z" fill="#36C3FE"/>
<path d="M221 51.3C220.4 51.3 219.9 51.8 219.9 52.5V54.8H217.7C217.1 54.8 216.6 55.3 216.6 56C216.6 56.7 217.1 57.2001 217.7 57.2001H219.9V59.5C219.9 60.1 220.4 60.7001 221 60.7001C221.6 60.7001 222.1 60.2 222.1 59.5V57.2001H224.3C224.9 57.2001 225.4 56.7 225.4 56C225.4 55.3 224.9 54.8 224.3 54.8H222.1V52.5C222.2 51.8 221.7 51.3 221 51.3Z" fill="#36C3FE"/>
<path d="M198.8 68.6999C199.1 68.7999 199.4 68.7999 199.7 68.6999C200 68.5999 200.2 68.3999 200.4 68.0999L202.6 63.2H209.9L212.1 68.0999C212.2 68.3999 212.5 68.5999 212.8 68.6999C213.1 68.7999 213.4 68.7999 213.7 68.6999C214 68.5999 214.2 68.2999 214.3 68C214.4 67.7 214.4 67.3999 214.3 67.0999L207.5 51.9C207.3 51.5 206.9 51.2 206.5 51.2C206.1 51.2 205.7 51.5 205.5 51.9L198.6 67.0999C198 67.6999 198.3 68.3999 198.8 68.6999ZM206.2 55.2L208.8 60.9H203.6L206.2 55.2Z" fill="#36C3FE"/>
<path d="M412.5 211.3C412.5 211.4 412.6 211.5 412.7 211.6C412 245.2 402.8 277.4 386 306.8C369.2 336.2 345.3 360.6 316.6 378.3C316.5 378.3 316.3 378.4 316.2 378.3C316.1 378.3 315.9 378.1 315.9 378L256.6 276.2C256.5 276 256.5 275.7 256.8 275.5C267.5 268.4 276.3 259 282.8 247.6C289.3 236.3 293.9 224 294.6 211.2C294.6 211 294.8 210.8 295.1 210.7L412.1 211.1C412.3 211 412.5 211.1 412.5 211.3Z" fill="white"/>
<path d="M316.1 378.7H316C315.9 378.7 315.8 378.6 315.7 378.5L305.2 360.4C305.1 360.2 305.1 359.9 305.4 359.7C305.6 359.6 305.9 359.6 306.1 359.9L316.3 377.5C374.5 341.7 410.2 279.7 411.9 211.5H294.8C293.2 237.5 279.3 261.6 257.6 276.1L282.7 319.4C282.8 319.6 282.8 319.9 282.5 320.1C282.3 320.2 282 320.2 281.8 319.9L256.5 276.2C256.4 276 256.4 275.7 256.7 275.5C278.5 261.1 292.4 237 293.9 210.9C293.9 210.6 294.1 210.4 294.4 210.4H412.5C412.6 210.4 412.8 210.5 412.9 210.6C413 210.7 413 210.8 413 211C411.4 279.9 375.3 342.5 316.5 378.6C316.3 378.7 316.2 378.7 316.1 378.7Z" fill="#3D3D3D"/>
<path d="M367.1 300.2C367.1 300.1 367.1 300.1 367.1 300.2C367.2 300.1 367.2 300.1 367.1 300.2C367.2 300.1 367.2 300.1 367.2 300V299.9V299.8V299.7V299.6V299.5V242.8C367.2 242.1 366.7 241.6 366 241.6H311.7C311 241.6 310.5 242.1 310.5 242.8V314.4C310.5 315.1 311 315.6 311.7 315.6H351.1H351.2H351.3H351.4H351.5H351.6H351.7C351.7 315.6 351.7 315.6 351.8 315.6C351.8 315.6 351.9 315.6 351.9 315.5L366.9 300.5C367 300.2 367.1 300.2 367.1 300.2ZM313 243.9H365V298.2H351.2C350.5 298.2 350 298.7 350 299.4V313.2H313V243.9ZM363.3 300.6L352.4 311.5V300.6H363.3Z" fill="#6059F7"/>
<path d="M334.1 256.5H356.7C357.4 256.5 357.9 256 357.9 255.3C357.9 254.6 357.4 254.1 356.7 254.1H334.1C333.4 254.1 332.9 254.6 332.9 255.3C332.9 256 333.4 256.5 334.1 256.5Z" fill="#6059F7"/>
<path d="M323.6 259.3C323.8 259.5 324.1 259.6 324.4 259.6C324.7 259.6 325 259.5 325.2 259.3L331.5 253C332 252.5 332 251.8 331.5 251.3C331 250.8 330.3 250.8 329.8 251.3L324.3 256.8L322.8 255.3C322.3 254.8 321.6 254.8 321.1 255.3C320.6 255.8 320.6 256.5 321.1 257L323.6 259.3Z" fill="#6059F7"/>
<path d="M331.1 266.4C331.1 267.1 331.6 267.6 332.3 267.6H356.7C357.4 267.6 357.9 267.1 357.9 266.4C357.9 265.7 357.4 265.2 356.7 265.2H332.3C331.7 265.2 331.1 265.7 331.1 266.4Z" fill="#6059F7"/>
<path d="M327.6 262H321.3C320.6 262 320.1 262.5 320.1 263.2V269.5C320.1 270.2 320.6 270.7 321.3 270.7H327.6C328.3 270.7 328.8 270.2 328.8 269.5V263.2C328.8 262.6 328.2 262 327.6 262ZM326.4 268.3H322.5V264.4H326.4V268.3Z" fill="#6059F7"/>
<path d="M356.7 276.2H332.3C331.6 276.2 331.1 276.7 331.1 277.4C331.1 278.1 331.6 278.6 332.3 278.6H356.7C357.4 278.6 357.9 278.1 357.9 277.4C357.9 276.7 357.4 276.2 356.7 276.2Z" fill="#6059F7"/>
<path d="M327.6 273.1H321.3C320.6 273.1 320.1 273.6 320.1 274.3V280.6C320.1 281.3 320.6 281.8 321.3 281.8H327.6C328.3 281.8 328.8 281.3 328.8 280.6V274.3C328.8 273.6 328.2 273.1 327.6 273.1ZM326.4 279.4H322.5V275.5H326.4V279.4Z" fill="#6059F7"/>
<path d="M356.7 287.2H332.3C331.6 287.2 331.1 287.7 331.1 288.4C331.1 289.1 331.6 289.6 332.3 289.6H356.7C357.4 289.6 357.9 289.1 357.9 288.4C357.9 287.7 357.4 287.2 356.7 287.2Z" fill="#6059F7"/>
<path d="M327.6 284.1H321.3C320.6 284.1 320.1 284.6 320.1 285.3V291.6C320.1 292.3 320.6 292.8 321.3 292.8H327.6C328.3 292.8 328.8 292.3 328.8 291.6V285.3C328.8 284.6 328.2 284.1 327.6 284.1ZM326.4 290.4H322.5V286.5H326.4V290.4Z" fill="#6059F7"/>
<path d="M346.5 298.2H332.3C331.6 298.2 331.1 298.7 331.1 299.4C331.1 300.1 331.6 300.6 332.3 300.6H346.5C347.2 300.6 347.7 300.1 347.7 299.4C347.7 298.8 347.1 298.2 346.5 298.2Z" fill="#6059F7"/>
<path d="M327.6 295.1H321.3C320.6 295.1 320.1 295.6 320.1 296.3V302.6C320.1 303.3 320.6 303.8 321.3 303.8H327.6C328.3 303.8 328.8 303.3 328.8 302.6V296.3C328.8 295.6 328.2 295.1 327.6 295.1ZM326.4 301.4H322.5V297.5H326.4V301.4Z" fill="#6059F7"/>
<path d="M307.3 382.9C307.4 383 307.4 383.2 307.3 383.3C307.2 383.4 307.2 383.5 307.1 383.6C277.6 399.7 245.3 408.1 211.5 408.1C177.6 408.1 144 399.5 114.4 383.3C114.3 383.2 114.2 383.1 114.2 383C114.2 382.9 114.2 382.7 114.3 382.6L173.3 281.4C173.4 281.2 173.7 281.1 174 281.2C185.5 287 198.5 289.1 211.6 289.1C224.6 289.1 236.1 287.2 247.6 281.4C247.8 281.3 248.1 281.4 248.3 281.6L307.3 382.9Z" fill="white"/>
<path d="M211 408.3C177.1 408.3 143.5 399.7 113.9 383.5C113.8 383.4 113.7 383.3 113.7 383.2C113.7 383.1 113.7 382.9 113.8 382.8L173.3 280.8C173.4 280.6 173.7 280.5 174 280.6C185.5 286.4 198 289.3 211.1 289.3C224.1 289.3 236.6 286.4 248.1 280.6C248.3 280.5 248.6 280.6 248.8 280.8L307.9 383C308 383.1 308 383.4 307.9 383.5C307.8 383.6 307.8 383.6 307.7 383.7C278.2 399.8 244.8 408.3 211 408.3Z" stroke="#3D3D3D" stroke-miterlimit="10"/>
<path d="M189.1 333.7C186.7 333.7 184.8 335.6 184.8 338C184.8 340.4 186.7 342.3 189.1 342.3C191.5 342.3 193.4 340.4 193.4 338C193.4 335.6 191.5 333.7 189.1 333.7ZM189.1 339.5C188.3 339.5 187.7 338.9 187.7 338.1C187.7 337.3 188.3 336.7 189.1 336.7C189.9 336.7 190.5 337.3 190.5 338.1C190.6 338.8 189.9 339.5 189.1 339.5Z" fill="#36C3FE"/>
<path d="M204 333.7C201.6 333.7 199.7 335.6 199.7 338C199.7 340.4 201.6 342.3 204 342.3C206.4 342.3 208.3 340.4 208.3 338C208.3 335.6 206.4 333.7 204 333.7ZM204 339.5C203.2 339.5 202.6 338.9 202.6 338.1C202.6 337.3 203.2 336.7 204 336.7C204.8 336.7 205.4 337.3 205.4 338.1C205.4 338.8 204.8 339.5 204 339.5Z" fill="#36C3FE"/>
<path d="M218.9 333.7C216.5 333.7 214.6 335.6 214.6 338C214.6 340.4 216.5 342.3 218.9 342.3C221.3 342.3 223.2 340.4 223.2 338C223.2 335.6 221.3 333.7 218.9 333.7ZM218.9 339.5C218.1 339.5 217.5 338.9 217.5 338.1C217.5 337.3 218.1 336.7 218.9 336.7C219.7 336.7 220.3 337.3 220.3 338.1C220.3 338.8 219.7 339.5 218.9 339.5Z" fill="#36C3FE"/>
<path d="M189.1 351C186.7 351 184.8 352.9 184.8 355.3C184.8 357.7 186.7 359.6 189.1 359.6C191.5 359.6 193.4 357.7 193.4 355.3C193.4 353 191.5 351 189.1 351ZM189.1 356.8C188.3 356.8 187.7 356.2 187.7 355.4C187.7 354.6 188.3 354 189.1 354C189.9 354 190.5 354.6 190.5 355.4C190.6 356.1 189.9 356.8 189.1 356.8Z" fill="#36C3FE"/>
<path d="M204 351C201.6 351 199.7 352.9 199.7 355.3C199.7 357.7 201.6 359.6 204 359.6C206.4 359.6 208.3 357.7 208.3 355.3C208.3 353 206.4 351 204 351ZM204 356.8C203.2 356.8 202.6 356.2 202.6 355.4C202.6 354.6 203.2 354 204 354C204.8 354 205.4 354.6 205.4 355.4C205.4 356.1 204.8 356.8 204 356.8Z" fill="#36C3FE"/>
<path d="M189.1 368.4C186.7 368.4 184.8 370.3 184.8 372.7C184.8 375.1 186.7 377 189.1 377C191.5 377 193.4 375.1 193.4 372.7C193.4 370.3 191.5 368.4 189.1 368.4ZM189.1 374.1C188.3 374.1 187.7 373.5 187.7 372.7C187.7 371.9 188.3 371.3 189.1 371.3C189.9 371.3 190.5 371.9 190.5 372.7C190.6 373.5 189.9 374.1 189.1 374.1Z" fill="#36C3FE"/>
<path d="M204 368.4C201.6 368.4 199.7 370.3 199.7 372.7C199.7 375.1 201.6 377 204 377C206.4 377 208.3 375.1 208.3 372.7C208.3 370.3 206.4 368.4 204 368.4ZM204 374.1C203.2 374.1 202.6 373.5 202.6 372.7C202.6 371.9 203.2 371.3 204 371.3C204.8 371.3 205.4 371.9 205.4 372.7C205.4 373.5 204.8 374.1 204 374.1Z" fill="#36C3FE"/>
<path d="M218.9 368.4C216.5 368.4 214.6 370.3 214.6 372.7C214.6 375.1 216.5 377 218.9 377C221.3 377 223.2 375.1 223.2 372.7C223.2 370.3 221.3 368.4 218.9 368.4ZM218.9 374.1C218.1 374.1 217.5 373.5 217.5 372.7C217.5 371.9 218.1 371.3 218.9 371.3C219.7 371.3 220.3 371.9 220.3 372.7C220.3 373.5 219.7 374.1 218.9 374.1Z" fill="#36C3FE"/>
<path d="M248.2 359.7H236.6C235.8 359.7 235.2 360.3 235.2 361.1V385.1C235.2 385.9 235.8 386.5 236.6 386.5H248.2C249 386.5 249.6 385.9 249.6 385.1V361.1C249.7 360.3 249 359.7 248.2 359.7ZM246.8 383.7H238.1V371.3H246.8V383.7ZM246.8 368.4H238.1V362.6H246.8V368.4Z" fill="#36C3FE"/>
<path d="M248.4 331.4L246.4 329.4C245.6 328.6 244.5 328.1 243.3 328.1C242.1 328.1 241.1 328.6 240.2 329.4L236.1 333.5L231.8 337.7V326C231.8 326 231.8 326 231.8 325.9V325.8C231.8 325.8 231.8 325.8 231.8 325.7C231.8 325.7 231.8 325.7 231.8 325.6C231.8 325.6 231.8 325.6 231.8 325.5C231.8 325.5 231.8 325.5 231.8 325.4C231.8 325.4 231.8 325.4 231.8 325.3C231.8 325.3 231.8 325.3 231.8 325.2C231.8 325.2 231.8 325.2 231.8 325.1C231.8 325.1 231.8 325.1 231.8 325C231.8 325 231.8 325 231.8 324.9C231.8 324.9 231.8 324.9 231.8 324.8C231.8 324.8 231.8 324.8 231.8 324.7C231.8 324.7 231.8 324.7 231.8 324.6C231.8 324.6 231.8 324.6 231.7 324.5L220.1 312.5C220.1 312.5 220.1 312.5 220 312.4C220 312.4 220 312.4 219.9 312.4C219.9 312.4 219.9 312.4 219.8 312.4C219.8 312.4 219.8 312.4 219.7 312.4C219.7 312.4 219.7 312.4 219.6 312.4C219.6 312.4 219.6 312.4 219.5 312.4C219.5 312.4 219.5 312.4 219.4 312.4H219.3C219.3 312.4 219.3 312.4 219.2 312.4H219.1C219.1 312.4 219.1 312.4 219 312.4C219 312.4 219 312.4 218.9 312.4C218.9 312.4 218.9 312.4 218.8 312.4C218.8 312.4 218.8 312.4 218.7 312.4H218.6H179.7C177.3 312.4 175.4 314.3 175.4 316.7V382C175.4 384.4 177.3 386.3 179.7 386.3H227.3C229.7 386.3 231.6 384.4 231.6 382V353.6L244 341.4L248.1 337.3C248.9 336.5 249.4 335.4 249.4 334.2C249.7 333.3 249.2 332.2 248.4 331.4ZM220.3 317.6L227 324.6H221.7C220.9 324.6 220.3 324 220.3 323.2V317.6ZM229 382.2C229 383 228.4 383.6 227.6 383.6H180C179.2 383.6 178.6 383 178.6 382.2V316.9C178.6 316.1 179.2 315.5 180 315.5H217.4V323.2C217.4 325.6 219.3 327.5 221.7 327.5H228.9V340.5L212 357.1L211.9 357.2C211.8 357.3 211.8 357.4 211.7 357.5L208.2 366.7C208 367.2 208.1 367.8 208.5 368.2C208.8 368.5 209.2 368.7 209.6 368.7C209.7 368.7 209.9 368.7 210 368.6L219.6 365.5C219.6 365.5 219.7 365.5 219.7 365.4C219.7 365.4 219.8 365.4 219.8 365.3L219.9 365.2C219.9 365.2 219.9 365.2 220 365.1L228.8 356.5L229 382.2ZM213.6 360.8L216.5 363.7L212 365.1L213.6 360.8ZM230 351.7C229.6 351.8 229.3 352.2 229.1 352.6L219.2 362.3L215.1 358.2L237.2 336.5L241.3 340.6L230 351.7ZM246.4 335.5L243.3 338.6L239.2 334.5L242.3 331.4C242.6 331.1 242.9 331 243.3 331C243.7 331 244 331.2 244.3 331.4L246.3 333.4C246.6 333.7 246.7 334 246.7 334.4C246.8 334.9 246.7 335.2 246.4 335.5Z" fill="#36C3FE"/>
<path d="M191.9 327.9C190.6 329.4 188.5 329.3 187.1 328.4C186.6 328.1 186.5 327.4 186.8 326.9C187 326.6 187.3 326.4 187.6 326.4C188 326.4 188.3 326.6 188.7 326.8C189.2 327 189.8 326.9 190.1 326.5C190.5 326 190.4 325.3 189.8 325C189.3 324.7 188.3 324.6 187.5 323.9C186.9 323.3 186.6 322.6 186.6 321.8C186.6 320.7 187.2 319.8 188.2 319.2C189.2 318.6 190.6 318.6 191.6 319.2C192.1 319.5 192.3 320.2 192 320.7C191.7 321.2 191.1 321.3 190.4 321.1C189.5 320.8 188.6 321.4 188.9 322.1C189.1 322.7 190.2 322.8 190.8 323.1C191.8 323.6 192.5 324.6 192.6 325.7C192.8 326.3 192.5 327.2 191.9 327.9Z" fill="#36C3FE"/>
<path d="M202.5 328.8C202 329 201.3 328.9 201 328.2L200.5 327.1H196.2L195.7 328.2C195.4 328.8 194.7 329 194.2 328.8C193.6 328.6 193.4 327.9 193.6 327.3L197.2 319.3C197.3 319 197.5 318.8 197.8 318.7C198.1 318.6 198.4 318.6 198.7 318.7C199 318.8 199.2 319 199.3 319.3L202.9 327.3C203.3 327.9 203 328.6 202.5 328.8ZM199.5 325L198.4 322.5L197.3 325H199.5Z" fill="#36C3FE"/>
<path d="M209.7 319.8C209.7 320.4 209.2 320.9 208.6 320.9H207.5V327.8C207.5 328.4 207 328.9 206.4 328.9C205.8 328.9 205.3 328.4 205.3 327.8V320.9H204.2C203.6 320.9 203.1 320.4 203.1 319.8C203.1 319.2 203.6 318.7 204.2 318.7H208.6C209.2 318.7 209.7 319.2 209.7 319.8Z" fill="#36C3FE"/>
<path d="M9.5999 200.8C9.5999 200.7 9.4999 200.6 9.3999 200.5C10.0999 166.9 18.6999 135.7 35.4999 106.4C52.2999 76.9999 76.4999 52.0999 105.2 34.3999C105.3 34.3999 105.5 34.2999 105.6 34.3999C105.7 34.3999 105.9 34.5999 105.9 34.6999L164.9 136C165 136.2 165 136.5 164.7 136.7C154 143.8 145.2 154.2 138.7 165.6C132.2 176.9 128.5 187 127.8 199.9C127.8 200.1 127.6 200.3 127.3 200.4L9.8999 201C9.7999 201 9.5999 200.9 9.5999 200.8Z" fill="white"/>
<path d="M9.5 201.5C9.4 201.5 9.2 201.4 9.1 201.3C9 201.2 9 201.1 9 200.9C9.1 197.3 9.3 193.7 9.6 190.2C9.6 189.9 9.9 189.7 10.1 189.7C10.4 189.7 10.6 190 10.6 190.2C10.3 193.6 10.2 197 10.1 200.4L127.2 200C129.1 174.3 143 150.5 164.6 136.2L105.6 35.0999C61.2 62.4999 29.6 105.2 16.5 155.4C16.4 155.7 16.2 155.8 15.9 155.8C15.6 155.7 15.5 155.5 15.5 155.2C28.7 104.5 60.6 61.4999 105.5 33.9999C105.6 33.8999 105.8 33.8999 105.9 33.8999C106 33.8999 106.1 33.9999 106.2 34.0999L165.7 136.1C165.8 136.3 165.8 136.6 165.5 136.8C143.8 151 129.9 174.8 128.2 200.6C128.2 200.9 128 201.1 127.7 201.1L9.5 201.5Z" fill="#3D3D3D"/>
<path d="M116.6 139.3V133C116.6 132.3 116.1 131.8 115.4 131.8H113.8V110L115.8 109.3C116.4 109.1 116.8 108.4 116.6 107.8C116.5 107.4 116.2 107.2 115.8 107L84.5999 96.4998C84.3999 96.3998 84.1 96.3998 83.8 96.4998L52.5999 107C51.9999 107.2 51.5999 107.9 51.7999 108.5C51.8999 108.9 52.1999 109.1 52.5999 109.3L62.7999 112.7V131.3C62.7999 132.1 62.8 133.2 69.7 134.5C74.5 135.3 79.2999 135.7 84.1999 135.7C89.0999 135.7 93.8999 135.3 98.6999 134.5C105.6 133.3 105.6 132.1 105.6 131.3V112.8L111.4 110.9V131.9H109.8C109.1 131.9 108.6 132.4 108.6 133.1V139.1H53.2999H53.2C49.6 139.2 46.7 144 46.7 150.1C46.7 156.2 49.4999 161 53.0999 161.1H53.2H75.4L71.9 170C71.7 170.6 71.9999 171.3 72.5999 171.6C72.8999 171.7 73.2999 171.7 73.6999 171.5L77.5999 169.1L79.0999 171.2C79.2999 171.5 79.6999 171.7 80.0999 171.7C80.1999 171.7 80.2 171.7 80.3 171.7C80.7 171.6 81.1 171.4 81.3 170.9L84.3 163.2L87.3 170.9C87.5 171.3 87.8 171.6 88.3 171.7C88.3 171.7 88.4 171.7 88.5 171.7C88.9 171.7 89.2 171.5 89.5 171.2L91 169.1L94.9 171.5C95.5 171.8 96.2 171.7 96.5 171.1C96.7 170.8 96.6999 170.4 96.5999 170L93.0999 161.1H115.3C119 161.1 121.9 156.3 121.9 150.1C121.7 144.7 119.5 140.4 116.6 139.3ZM84.1999 98.9998L111.6 108.2L84.1999 117.4L56.7999 108.2L84.1999 98.9998ZM103.2 130.9C101.6 131.7 94.1999 133.3 84.1999 133.3C74.1999 133.3 66.8 131.7 65.2 130.9V113.6L83.8 119.9C84 120 84.2999 120 84.5999 119.9L103.2 113.6V130.9ZM111 134.2H114.2V141.9L113.4 141.2C112.9 140.8 112.3 140.8 111.8 141.2L111 141.9V134.2ZM91.5 150.1C91.5 155.2 89.3 158.7 87.3 158.7H85.0999C86.5999 156.7 87.5 153.6 87.5 150.1C87.5 146.6 86.5999 143.5 85.0999 141.5H87.3C89.3 141.4 91.5 145 91.5 150.1ZM57.4 158.7C58.9 156.7 59.7999 153.6 59.7999 150.1C59.7999 146.6 58.9 143.5 57.4 141.5H81C83 141.5 85.1999 145 85.1999 150.1C85.1999 155.2 83 158.7 81 158.7H57.4ZM53.9 151.3H57.4C57.1 155.1 55.6 157.9 54 158.6C52.5 154.4 53.4 152.1 53.9 151.3ZM49.0999 150.1C49.0999 145 51.2999 141.5 53.2999 141.5C55.0999 141.5 57.1 144.5 57.4 148.9H53.2999C52.9999 148.9 52.6 149 52.4 149.3C52.3 149.4 49.9 152.1 51.2 157.5C50 156 49.0999 153.3 49.0999 150.1ZM79.6999 167.9L78.9 166.7C78.5 166.2 77.8 166.1 77.3 166.4L75.5 167.5L78 161.1H82.4L79.6999 167.9ZM92.9 167.5L91.0999 166.4C90.5999 166.1 89.9 166.2 89.5 166.7L88.6999 167.9L86 161.1H90.4L92.9 167.5ZM115.1 158.7H91.5C93 156.7 93.9 153.6 93.9 150.1C93.9 146.6 93 143.5 91.5 141.5H108.6V144.6C108.6 145.3 109.1 145.8 109.8 145.8C110.1 145.8 110.4 145.7 110.6 145.5L112.6 143.7L114.6 145.5C115.1 145.9 115.9 145.9 116.3 145.4C116.5 145.2 116.6 144.9 116.6 144.6V142.1C118.1 143.3 119.3 146.3 119.3 150.1C119.3 155.1 117.1 158.7 115.1 158.7Z" fill="#6591FE"/>
<path d="M282 205.4C282 232.3 267 255.6 244.9 267.6C234.9 273 223.4 276.1 211.3 276.1C172.3 276.1 140.6 244.5 140.6 205.4C140.6 166.3 172.2 134.7 211.3 134.7C250.4 134.7 282 166.4 282 205.4Z" fill="white"/>
<path d="M211.3 276.6C172 276.6 140.1 244.7 140.1 205.4C140.1 166.1 172 134.2 211.3 134.2C250.6 134.2 282.5 166.1 282.5 205.4C282.5 205.7 282.3 205.9 282 205.9C281.7 205.9 281.5 205.7 281.5 205.4C281.5 166.7 250 135.2 211.3 135.2C172.6 135.2 141.1 166.7 141.1 205.4C141.1 244.1 172.6 275.6 211.3 275.6C223 275.6 234.5 272.7 244.7 267.2C252.9 262.7 260.1 256.8 266 249.5C266.2 249.3 266.5 249.3 266.7 249.4C266.9 249.6 266.9 249.9 266.8 250.1C260.8 257.5 253.6 263.6 245.2 268.1C234.8 273.6 223.1 276.6 211.3 276.6Z" fill="#3D3D3D"/>
<path d="M198.1 208.2C198 208.4 195.1 212 191.7 212.3C191.5 212.3 191.4 212.3 191.2 212.3C190.1 212.3 189 211.9 188.1 211.1C186.2 209.5 186.4 206.7 188.7 203.8C190.6 201.4 193.6 199.5 195.4 200.8C196.4 201.5 196.6 202.3 196.5 202.9C196.3 204.5 194 205.4 193.6 205.5C193.1 205.7 192.6 205.4 192.4 205C192.2 204.5 192.5 204 192.9 203.8C193.8 203.5 194.6 202.9 194.7 202.6C194.7 202.6 194.7 202.5 194.3 202.3C193.9 202 191.8 202.9 190.2 205C189.8 205.6 187.6 208.4 189.3 209.8C190 210.4 190.7 210.6 191.5 210.5C193.6 210.3 195.9 208 196.6 207.1C196.9 206.7 197.5 206.6 197.9 206.9C198.4 207.3 198.4 207.8 198.1 208.2Z" fill="#3D3D3D"/>
<path d="M186.8 203.6C186.8 204.1 186.3 204.5 185.8 204.5C184.7 204.4 183.6 204.4 182.4 204.4C180.6 207.8 179 210.5 178.9 210.6C178.6 211 178.1 211.2 177.6 210.9C177.2 210.6 177 210.1 177.3 209.7C178.4 207.9 179.4 206.1 180.3 204.5C177.8 204.5 175.4 204.7 173.2 204.9C171.4 207.1 169.4 209.6 167.3 212.3C167.1 212.5 166.8 212.7 166.6 212.7C166.4 212.7 166.2 212.6 166 212.5C165.6 212.2 165.5 211.6 165.8 211.2C165.8 211.2 167.9 208.5 170.6 205.1C166.7 205.5 164 205.9 164 205.9H163.9C163.4 205.9 163.1 205.6 163 205.1C162.9 204.6 163.3 204.1 163.8 204.1C163.9 204.1 167.5 203.6 172.3 203.2C172.9 202.5 173.5 201.8 174.1 201.1C183.1 190.6 184.7 191.2 185.6 191.5C185.9 191.6 186.4 191.9 186.6 192.5C187 193.4 187 195.5 183.3 202.8C184.2 202.8 185 202.8 185.9 202.9C186.4 202.7 186.8 203.1 186.8 203.6ZM181.3 202.6C183.7 197.8 185.2 194 184.9 193C183.7 193.2 180 196.8 174.8 202.8C176.9 202.7 179.1 202.6 181.3 202.6Z" fill="#F7B517"/>
<path d="M221.4 193.4C221.1 194.2 220.6 195.2 220 196.2C219.1 197.8 217.9 200 216.6 202.3C215 205.3 213.7 208.4 214.5 209.3C215.4 210.2 217.5 208.5 217.6 208.4C218 208.1 218.6 208.1 218.9 208.5C219.2 208.9 219.2 209.4 218.8 209.8C217.5 210.9 214.9 212.3 213.2 210.5C212.7 209.9 212.5 209.2 212.5 208.3C211.2 209.9 209.9 211.1 208.9 211.5C208.6 211.6 208.4 211.6 208.1 211.6C207.7 211.6 207.4 211.5 207.2 211.4C206.7 211.2 206 210.6 206.1 209.2C206.3 206.6 209.5 202 212.3 201C213.3 200.7 214.2 200.8 214.9 201.4L215 201.3C215.7 200.1 216.4 198.8 217.1 197.5C217.6 196.7 218 195.8 218.5 195.1C219 194.2 219.4 193.4 219.7 192.7C219.9 192.3 220.5 192.1 220.9 192.3C221.4 192.4 221.6 192.9 221.4 193.4ZM213.9 203C213.8 203 213.8 202.9 213.7 202.9C213.6 202.8 213.5 202.7 213.2 202.7C213.1 202.7 212.9 202.7 212.8 202.8C210.8 203.5 207.9 207.5 207.8 209.4C207.8 209.6 207.8 209.9 207.9 209.9C207.9 209.9 208 209.9 208.1 209.9C209.5 209.3 211.7 206.4 213.9 203Z" fill="#3D3D3D"/>
<path d="M245.3 192.9C245.3 193.4 244.8 193.8 244.3 193.8C242.7 193.7 240.9 193.8 239.3 193.9L230.1 209.4C231.6 209.2 233.4 209 235.4 208.9C235.9 208.9 236.3 209.3 236.4 209.8C236.4 210.3 236 210.7 235.5 210.8C227.3 211.2 223.7 213 223.7 213C223.6 213.1 223.4 213.1 223.3 213.1C223 213.1 222.6 212.9 222.5 212.6C222.3 212.2 222.4 211.6 222.9 211.4C223 211.3 224.6 210.6 227.9 209.9C227.9 209.7 227.9 209.6 228 209.5L237 194.3C233.5 194.8 230.8 195.4 230.8 195.4C230.7 195.4 230.6 195.4 230.6 195.4C230.2 195.4 229.8 195.1 229.7 194.7C229.6 194.2 229.9 193.7 230.4 193.6C230.7 193.5 238.2 191.7 244.5 192C245 192 245.4 192.4 245.3 192.9Z" fill="#3D3D3D"/>
<path d="M207.7 208.6C206.3 210 203.1 211.8 200.5 211.8C200.2 211.8 199.9 211.8 199.6 211.7C198.4 211.5 197.5 210.8 197.1 209.8C196.2 207.7 196.8 205.4 198.8 203.3C200.4 201.6 202.9 200.1 204.8 200.7C206 201.1 206.3 201.9 206.3 202.3C206.5 204.2 203.4 206.3 203.4 206.3C201.5 207.4 199.3 207.4 199.2 207.4C199 207.4 198.7 207.3 198.6 207.2C198.5 207.8 198.5 208.4 198.8 209.1C198.9 209.4 199.2 209.8 200 210C201.9 210.3 205.1 208.9 206.5 207.4C206.9 207 207.4 207 207.8 207.4C208.1 207.7 208.1 208.3 207.7 208.6ZM199.2 205.7C199.5 205.7 201.1 205.6 202.4 204.8C203.2 204.3 204.4 203.1 204.4 202.6C204.4 202.6 204.3 202.5 204.1 202.5C204 202.5 203.9 202.5 203.8 202.5C202.9 202.5 201.3 203.3 200.1 204.6C199.9 204.8 199.5 205.2 199.2 205.7Z" fill="#3D3D3D"/>
<path d="M251.5 197.9C251.4 198.4 250.9 198.7 250.4 198.6C249.3 198.4 247.5 198.4 245.8 198.4C243.1 202.6 241 206.8 241.5 209.1C241.6 209.6 241.8 209.9 242.2 210.2C243.4 210.9 245.3 208.8 245.7 208.2C246 207.8 246.6 207.7 247 208C247.4 208.3 247.5 208.9 247.2 209.3C246.3 210.5 244.5 212.2 242.7 212.2C242.2 212.2 241.7 212.1 241.2 211.8C240.4 211.3 239.8 210.5 239.6 209.5C239.1 206.8 241.2 202.4 243.5 198.6C242 198.7 240.8 198.9 240.5 199C240.4 199.1 240.2 199.1 240.1 199.1C239.8 199.1 239.4 198.9 239.3 198.6C239.1 198.2 239.3 197.6 239.7 197.4C240.2 197.2 242.3 196.9 244.7 196.8C246.1 194.7 247.4 193 248.1 192C248.4 191.6 249 191.5 249.4 191.8C249.8 192.1 249.9 192.7 249.6 193.1C248.7 194.2 247.8 195.5 247 196.7C248.4 196.7 249.8 196.8 250.7 196.9C251.3 196.9 251.6 197.4 251.5 197.9Z" fill="#3D3D3D"/>
<path d="M178.3 221C177.9 221 177.5 220.7 177.4 220.2C177.3 219.7 177.7 219.3 178.2 219.2C204.1 215.7 230.5 215 256.6 217.2C257.1 217.2 257.5 217.7 257.4 218.1C257.4 218.6 256.9 218.9 256.4 218.9C230.4 216.7 204.2 217.4 178.4 220.9C178.4 221 178.3 221 178.3 221Z" fill="#F7B517"/>
<path d="M250.5 208.8C250.5 208.9 250.3 209.4 249.6 210.6C249.4 210.9 249.1 211.1 248.8 211.1C248.7 211.1 248.5 211.1 248.4 211C248 210.8 247.8 210.2 248 209.8C248.6 208.7 248.8 208.3 248.8 208.3C249 207.8 249.5 207.6 250 207.8C250.5 207.9 250.7 208.4 250.5 208.8ZM258.9 192.3C257.4 195.5 252.3 205.8 251.7 206.6C251.5 206.8 251.2 206.9 251 206.9C250.8 206.9 250.6 206.8 250.4 206.7C250 206.4 249.9 205.8 250.3 205.4C250.8 204.7 254.9 196.5 257.3 191.5C257.5 191.1 258.1 190.9 258.5 191.1C258.9 191.3 259.1 191.8 258.9 192.3Z" fill="#3D3D3D"/>
</g>
</g>
<defs>
<clipPath id="clip0">
<rect width="421" height="421" fill="white"/>
</clipPath>
<clipPath id="clip1">
<rect width="404" height="404.8" fill="white" transform="translate(9 4)"/>
</clipPath>
</defs>
</svg>
