<svg width="250" height="212" viewBox="0 0 250 212" fill="none" xmlns="http://www.w3.org/2000/svg">
<path d="M250 25.1691V189.308C250 189.308 190.293 240.365 125 189.308C67.8571 144.543 12.8205 178.251 0 187.24V25.1691C0 11.3261 11.4469 0 25.5494 0H224.267C238.553 0.0898898 250 11.3261 250 25.1691Z" fill="#6591FE"/>
<g style="mix-blend-mode:multiply" opacity="0.5">
<path d="M250 187.433V189.484C250 189.484 190.771 240.145 126 189.484C182.777 145.156 237.373 178.514 250 187.433Z" fill="#6591FE"/>
</g>
<g style="mix-blend-mode:multiply" opacity="0.5">
<path d="M208.005 30.601L205.137 29.2549C205.137 27.2807 204.33 25.5756 202.986 24.3193C203.524 23.1527 203.793 21.8066 203.434 20.3708C202.896 17.9479 200.924 15.9736 198.504 15.4352C196.801 15.0762 195.188 15.4352 193.933 16.2428C191.961 14.4481 189.362 13.4609 186.493 13.4609C181.026 13.4609 176.454 17.3197 175.468 22.5245C172.152 22.9732 169.553 25.8449 169.553 29.2549C169.553 29.3447 169.553 29.5241 169.553 29.6139L166.505 30.601C165.429 30.96 165.698 32.4855 166.774 32.4855H170.359H204.33H207.468H207.557C208.633 32.3958 208.902 31.0497 208.005 30.601Z" fill="#6591FE"/>
</g>
<g style="mix-blend-mode:multiply" opacity="0.5">
<path d="M86.5516 84.6237L79.6498 82.9186C78.4846 80.2265 75.9748 78.2522 72.9273 77.8933C72.9273 77.8933 72.9273 77.8933 72.9273 77.8035C72.9273 74.214 69.9694 71.2526 66.384 71.2526C65.667 71.2526 64.9499 71.3424 64.2328 71.6116C63.3365 67.9323 60.1097 65.1504 56.0761 65.1504C51.5048 65.1504 47.7402 68.9194 47.7402 73.4961C47.7402 73.5858 47.7402 73.6756 47.7402 73.7653C47.1128 73.5858 46.4853 73.4961 45.8579 73.4961C42.6311 73.4961 39.8524 75.2909 38.4183 77.983C37.7908 77.8035 37.1634 77.7138 36.4464 77.7138C32.861 77.7138 29.9031 79.9573 28.6482 83.0981C26.3177 83.5468 24.0769 84.0852 22.0153 84.4442C21.0293 84.6237 21.2086 86.0595 22.1946 86.0595H26.5866H28.1104H80.2773H84.2212H86.2827C87.2687 86.239 87.448 84.8929 86.5516 84.6237Z" fill="#6591FE"/>
</g>
<path d="M74.0926 47.4717H52.939C52.4909 47.4717 52.1323 47.1128 52.1323 46.6641C52.1323 46.2154 52.4909 45.8564 52.939 45.8564H74.0926C74.5408 45.8564 74.8993 46.2154 74.8993 46.6641C74.8993 47.1128 74.5408 47.4717 74.0926 47.4717Z" fill="white"/>
<path d="M223.871 79.3292H199.759C199.311 79.3292 198.952 78.9702 198.952 78.5215C198.952 78.0728 199.311 77.7139 199.759 77.7139H223.871C224.319 77.7139 224.677 78.0728 224.677 78.5215C224.677 78.9702 224.319 79.3292 223.871 79.3292Z" fill="white"/>
<path d="M83.5935 26.9219H74.7198C74.2716 26.9219 73.9131 26.563 73.9131 26.1143C73.9131 25.6656 74.2716 25.3066 74.7198 25.3066H83.5935C84.0417 25.3066 84.4003 25.6656 84.4003 26.1143C84.4003 26.563 84.0417 26.9219 83.5935 26.9219Z" fill="white"/>
<path d="M26.2281 66.4063H17.3543C16.9061 66.4063 16.5476 66.0474 16.5476 65.5987C16.5476 65.15 16.9061 64.791 17.3543 64.791H26.2281C26.6762 64.791 27.0348 65.15 27.0348 65.5987C27.0348 66.0474 26.6762 66.4063 26.2281 66.4063Z" fill="white"/>
<path d="M170.538 52.0484H161.665C161.216 52.0484 160.858 51.6894 160.858 51.2408C160.858 50.7921 161.216 50.4331 161.665 50.4331H170.538C170.987 50.4331 171.345 50.7921 171.345 51.2408C171.345 51.6894 170.987 52.0484 170.538 52.0484Z" fill="white"/>
<path d="M40.0317 28.5372H18.43C17.9818 28.5372 17.6233 28.1782 17.6233 27.7295C17.6233 27.2808 17.9818 26.9219 18.43 26.9219H40.0317C40.4799 26.9219 40.8384 27.2808 40.8384 27.7295C40.8384 28.1782 40.4799 28.5372 40.0317 28.5372Z" fill="white"/>
<path d="M175.917 79.5982H148.309C147.861 79.5982 147.503 79.2392 147.503 78.7906C147.503 78.3419 147.861 77.9829 148.309 77.9829H175.827C176.275 77.9829 176.634 78.3419 176.634 78.7906C176.723 79.2392 176.365 79.5982 175.917 79.5982Z" fill="white"/>
<path d="M213.832 60.8428H184.611C184.163 60.8428 183.804 60.4839 183.804 60.0352C183.804 59.5865 184.163 59.2275 184.611 59.2275H213.832C214.28 59.2275 214.638 59.5865 214.638 60.0352C214.638 60.4839 214.28 60.8428 213.832 60.8428Z" fill="white"/>
<path d="M118.461 95.1229H126.528C128.5 95.1229 130.114 93.5076 130.114 91.5333V83.7261L130.203 83.6363C131.548 81.3928 143.2 61.6504 148.13 47.5614C149.564 44.2411 150.281 41.1002 150.281 37.7799C150.281 33.9211 149.474 30.0624 147.951 26.5626C146.427 23.1525 144.276 20.1014 141.587 17.499C136.388 12.5634 129.665 9.96094 122.584 9.96094C122.046 9.96094 121.419 9.96094 120.881 10.0507C114.338 10.4096 108.153 13.2813 103.403 17.9477C98.6521 22.6141 95.6942 28.806 94.9771 35.357C94.8875 36.1646 94.8875 36.9722 94.8875 37.7799C94.8875 41.19 95.6045 44.3308 97.0387 47.5614C101.969 61.6504 113.621 81.4826 114.965 83.6363L115.055 83.7261V91.5333C114.786 93.5076 116.4 95.1229 118.461 95.1229ZM128.231 91.5333C128.231 92.5204 127.425 93.3281 126.439 93.3281H118.372C117.386 93.3281 116.579 92.5204 116.579 91.5333V89.7385H128.142V91.5333H128.231ZM128.231 87.9438H116.668V84.444H128.231V87.9438ZM127.425 73.6753L127.335 74.0343C126.618 77.8033 126.08 80.7647 125.811 82.2902L125.721 82.5595H119.178L119.089 82.2902C118.82 80.8544 118.192 77.8033 117.565 74.0343L117.475 73.6753H127.425ZM117.206 71.7908L117.117 71.5216C115.055 60.1248 112.635 45.0487 112.635 37.7799C112.635 36.5236 116.489 34.639 122.495 34.639C128.5 34.639 132.354 36.5236 132.354 37.7799C132.354 45.0487 129.934 60.1248 127.873 71.5216L127.783 71.7908H117.206ZM141.049 59.3172C136.119 69.5474 130.382 79.5083 128.679 82.38L128.59 82.5595H127.514L127.604 82.2005C127.962 80.4955 128.5 77.4444 129.217 73.6753V73.4959L129.396 73.4061C129.755 73.2266 130.024 72.9574 130.293 72.5985C132.892 68.3808 135.85 64.7015 138.718 61.1119C139.256 60.394 139.884 59.6761 140.421 58.9582L142.214 56.7147L141.049 59.3172ZM137.374 59.9453C135.223 62.6375 132.982 65.4194 130.831 68.3808L129.934 69.6371L130.203 68.1115C131.996 58.0608 134.057 44.6 134.057 37.6902C134.057 36.2543 137.105 34.5493 141.228 34.5493C145.351 34.5493 148.399 36.1646 148.399 37.6902C148.399 46.3948 143.29 52.6765 137.374 59.9453ZM122.495 11.8454C124.467 11.8454 126.439 13.5505 128.142 16.6913C128.231 16.8708 128.41 17.0503 128.679 17.14C128.948 17.2298 129.128 17.2298 129.396 17.0503C129.845 16.7811 130.024 16.2426 129.755 15.7939C129.217 14.7171 128.59 13.73 127.873 12.9223L127.245 12.2044L128.231 12.3839C132.713 13.371 136.926 15.6145 140.242 18.8451C144.545 22.8833 147.234 28.0881 148.13 33.8314L148.22 34.4596L147.592 34.1006C145.979 33.2032 143.648 32.6648 141.228 32.6648C138.539 32.6648 136.209 33.2032 134.506 34.2801L134.057 34.5493V34.0109C133.789 29.4342 133.071 24.9473 131.996 21.1783C131.906 20.909 131.727 20.7296 131.548 20.6398C131.368 20.5501 131.099 20.4604 130.831 20.5501C130.562 20.6398 130.382 20.8193 130.293 20.9988C130.203 21.1783 130.114 21.4475 130.203 21.7167C131.279 25.396 131.996 29.6137 132.265 34.1904V34.8185L131.727 34.5493C129.576 33.3827 126.17 32.7545 122.495 32.7545C118.82 32.7545 115.414 33.4724 113.262 34.5493L112.725 34.8185V34.1904C112.993 28.3573 114.069 23.1525 115.682 18.9348C117.565 14.4479 119.985 11.8454 122.495 11.8454ZM96.5009 37.6902C96.5905 36.8825 97.3076 36.1646 98.6521 35.6262C99.1002 35.4467 99.2795 34.9083 99.1002 34.3698C99.0106 34.1006 98.8313 34.0109 98.5624 33.9211C98.2935 33.8314 98.1143 33.8314 97.8454 33.9211C97.6661 34.0109 97.4868 34.1006 97.3076 34.1904L96.6801 34.5493L96.7698 33.8314C97.6661 28.3573 100.355 23.1525 104.389 19.204C107.795 15.8837 112.008 13.5505 116.579 12.4736L117.565 12.2941L116.937 13.1018C115.772 14.4479 114.786 16.3324 113.89 18.4861C112.187 22.7936 111.111 28.2676 110.753 34.1904V34.7288L110.304 34.4596C108.601 33.3827 106.271 32.8443 103.582 32.8443C103.044 32.8443 102.686 33.293 102.686 33.7417C102.686 34.1904 103.134 34.639 103.582 34.639C107.705 34.639 110.753 36.2543 110.753 37.7799C110.753 44.6 112.814 58.0608 114.607 68.2013L114.876 69.7268L113.979 68.4705C111.918 65.4194 109.677 62.7272 107.436 60.0351C101.61 52.6765 96.5009 46.3051 96.5009 37.6902ZM103.851 59.3172L102.596 56.7147L104.389 58.9582C104.926 59.5864 105.464 60.3043 106.002 60.9325L106.181 61.1119C109.05 64.7015 112.007 68.3808 114.607 72.5985C114.786 72.9574 115.145 73.2266 115.503 73.4061L115.682 73.4959V73.6753C116.4 77.4444 116.937 80.4955 117.296 82.2005L117.386 82.5595H116.31L116.22 82.38C114.517 79.5981 108.781 69.6371 103.851 59.3172Z" fill="white"/>
</svg>
