<svg width="391" height="384" viewBox="0 0 391 384" fill="none" xmlns="http://www.w3.org/2000/svg">
<path d="M234 218.83L319.444 294.886C327.758 295.044 332.035 291.245 331.48 286.734L328.55 257.451L323.482 211.628L315.959 139.845C311.842 143.961 234 218.83 234 218.83Z" fill="#6059F7"/>
<path d="M174.372 227.139L109.834 317.916C101.756 319.894 96.7676 317.124 96.2925 312.692L92.6498 283.489L87.5026 237.665L79.5046 167.94C84.4143 170.948 174.372 227.139 174.372 227.139Z" fill="#6059F7"/>
<path d="M96.3715 320.29C94.471 320.29 92.5705 319.657 91.0659 318.391C89.2446 316.966 88.136 314.908 87.8984 312.692L71.0314 163.35C70.9522 162.875 71.269 162.48 71.7441 162.401L320.315 134.463C320.79 134.384 321.186 134.701 321.265 135.176L329.738 210.678C329.738 210.915 329.58 211.073 329.421 211.152C329.184 211.152 329.025 210.994 328.946 210.836L320.394 135.255L71.9025 163.271L79.9005 234.42L88.6903 312.534C89.1654 316.808 93.0456 319.894 97.2426 319.34L330.451 293.065C332.51 292.828 334.331 291.799 335.598 290.216C336.865 288.633 337.498 286.575 337.261 284.518L333.222 248.429C333.222 248.191 333.381 248.033 333.539 247.954C333.697 247.954 333.935 248.112 334.014 248.27L338.053 284.359C338.29 286.575 337.657 288.871 336.231 290.612C334.806 292.353 332.826 293.54 330.53 293.777L97.401 320.211C97.005 320.211 96.6883 320.29 96.3715 320.29Z" fill="#3D3D3D"/>
<path d="M81.4844 153.299L174.609 61.2566C180.707 55.1626 190.209 54.1337 197.574 58.6449L304.636 125.125" fill="#36C3FE"/>
<path d="M78 157.177C77.9208 157.177 77.7624 157.177 77.6832 157.098C77.5249 156.94 77.5249 156.703 77.6832 156.544L174.292 61.0191C180.548 54.7668 190.209 53.6588 197.732 58.3283L315.326 131.298C315.484 131.377 315.563 131.693 315.484 131.852C315.405 132.01 315.088 132.089 314.93 132.01L197.336 58.9614C190.13 54.5294 180.865 55.5583 174.847 61.494L78.2376 157.019C78.1584 157.177 78.0792 157.177 78 157.177Z" fill="#3D3D3D"/>
<path d="M84.4143 89.2731L246.829 70.9911C257.44 69.804 266.942 76.2937 267.972 85.5534L278.187 176.251L234 218.909L173.58 226.348L114.664 189.468L104.528 99.799L84.4143 89.2731Z" fill="white"/>
<path d="M173.58 226.743C173.501 226.743 173.421 226.743 173.342 226.664L114.426 189.784C114.347 189.705 114.268 189.625 114.268 189.467L109.358 145.939C109.358 145.701 109.517 145.543 109.675 145.464C109.913 145.464 110.071 145.622 110.15 145.78L115.06 189.071L173.817 225.794C173.976 225.873 174.055 226.189 173.976 226.348C173.817 226.664 173.659 226.743 173.58 226.743Z" fill="#3D3D3D"/>
<path d="M278.187 176.646C277.949 176.646 277.791 176.488 277.791 176.33L267.576 85.6323C266.546 76.61 257.281 70.2786 246.828 71.4657L111.892 86.6611C111.655 86.6611 111.496 86.5028 111.417 86.3445C111.417 86.1071 111.576 85.9488 111.734 85.8697L246.67 70.6743C257.519 69.4872 267.18 76.1351 268.288 85.5531L278.504 176.251C278.583 176.409 278.424 176.567 278.187 176.646Z" fill="#3D3D3D"/>
<path d="M319.602 294.331L220.38 206.8C210.006 197.698 194.089 199.44 186.012 210.678L109.833 317.837" fill="#6059F7"/>
<path d="M115.773 308.656C115.694 308.656 115.614 308.656 115.535 308.577C115.377 308.419 115.298 308.181 115.456 308.023L185.616 210.44C189.497 204.979 195.594 201.497 202.246 200.706C208.898 199.993 215.549 202.051 220.617 206.483L319.84 294.015C319.998 294.173 319.998 294.41 319.84 294.569C319.681 294.727 319.444 294.727 319.285 294.569L220.063 207.116C215.233 202.842 208.739 200.785 202.325 201.497C195.911 202.209 190.051 205.612 186.25 210.915L116.089 308.498C116.01 308.577 115.931 308.656 115.773 308.656Z" fill="#3D3D3D"/>
<path d="M108.963 141.111L80.6133 144.277L76.0204 103.835C75.1493 96.3957 80.5341 89.6686 88.0569 88.798L89.3239 88.6397C96.7676 87.7691 103.499 93.1508 104.37 100.669L108.963 141.111Z" fill="white"/>
<path d="M80.6133 144.673C80.5341 144.673 80.4549 144.673 80.3757 144.594C80.2965 144.514 80.2173 144.435 80.2173 144.356L75.6244 103.914C75.2285 100.194 76.2579 96.5539 78.5544 93.6257C80.8508 90.6974 84.2559 88.8771 87.9777 88.4814L89.2447 88.3231C92.9666 87.9274 96.6092 88.9562 99.5391 91.2514C102.469 93.5465 104.29 96.9497 104.686 100.669L109.279 141.111C109.279 141.349 109.121 141.507 108.962 141.586C108.725 141.586 108.567 141.428 108.487 141.27L103.894 100.828C103.499 97.3454 101.756 94.1797 98.9848 91.9637C96.2133 89.7477 92.8082 88.798 89.2447 89.1937L87.9777 89.352C84.4935 89.7477 81.3259 91.4888 79.1087 94.2588C76.8914 97.0288 75.9412 100.432 76.3371 103.993L80.8508 144.04L98.5097 142.061C98.7473 142.061 98.9056 142.219 98.9848 142.378C98.9848 142.615 98.8265 142.773 98.6681 142.852L80.6133 144.673C80.6924 144.673 80.6924 144.673 80.6133 144.673Z" fill="#3D3D3D"/>
<path d="M127.492 119.031C127.572 119.426 127.888 119.743 128.284 119.664L245.957 106.447C246.353 106.368 246.67 106.051 246.591 105.656C246.591 105.418 246.433 105.26 246.353 105.181C246.195 105.102 246.037 105.022 245.878 105.022H245.799L128.126 118.239C127.73 118.239 127.413 118.635 127.492 119.031Z" fill="#6059F7"/>
<path d="M186.25 176.567C186.646 176.488 186.963 176.171 186.883 175.776C186.804 175.38 186.487 175.143 186.171 175.143H186.091L135.253 180.841C134.857 180.92 134.54 181.237 134.619 181.632C134.699 182.028 135.015 182.345 135.411 182.265L186.25 176.567Z" fill="#6059F7"/>
<path d="M132.798 159.631L250.471 146.414C250.867 146.335 251.184 146.018 251.105 145.622C251.105 145.385 250.946 145.227 250.788 145.148C250.629 145.068 250.471 144.989 250.313 144.989H250.234L132.64 158.206C132.244 158.285 131.927 158.602 132.006 158.997C132.085 159.393 132.402 159.71 132.798 159.631Z" fill="#6059F7"/>
<path d="M130.581 139.449L181.419 133.751C181.815 133.672 182.132 133.356 182.053 132.96C181.974 132.564 181.657 132.327 181.34 132.327H181.261L130.422 138.025C130.026 138.104 129.71 138.421 129.789 138.816C129.789 139.212 130.106 139.449 130.581 139.449Z" fill="#6059F7"/>
<path d="M193.852 131.535C193.931 131.931 194.248 132.248 194.644 132.168L248.175 126.154C248.571 126.074 248.887 125.758 248.808 125.362C248.729 124.966 248.412 124.729 248.095 124.729H248.016L194.485 130.744C194.169 130.744 193.852 131.14 193.852 131.535Z" fill="#6059F7"/>
<path d="M36.7431 256.343C36.6639 256.343 36.5847 256.264 36.6639 256.185C36.5847 256.027 36.5055 255.868 36.5847 255.71L40.94 246.055L35.5552 236.241C35.4761 236.083 35.4761 235.924 35.5552 235.845C35.6344 235.687 35.7928 235.687 35.9512 235.687L46.0872 238.219L53.0557 229.435C53.2141 229.356 53.2933 229.276 53.4517 229.276C53.6101 229.356 53.6893 229.435 53.7684 229.593L55.8273 240.673L65.9634 243.205C66.1217 243.285 66.2009 243.364 66.2801 243.522C66.2801 243.68 66.2009 243.839 66.1217 243.918L56.6984 249.933L55.9065 260.538C55.9065 260.696 55.7481 260.854 55.6689 260.854C55.5898 260.933 55.3522 260.933 55.273 260.775L47.3542 253.652L37.0598 256.106C36.8222 256.422 36.7431 256.422 36.7431 256.343ZM36.5055 236.716L41.4943 245.896C41.5735 245.975 41.5735 246.134 41.4943 246.213L37.3766 255.393L47.1167 253.019C47.1958 252.94 47.3542 253.019 47.5126 253.098L54.9563 259.825L55.7481 249.853C55.7481 249.774 55.8273 249.616 55.9065 249.616L64.6964 243.918L55.1938 241.464C55.0354 241.385 54.9563 241.306 54.8771 241.148L52.9766 230.701L46.3248 239.011C46.1664 239.09 46.0872 239.169 45.9288 239.169L36.5055 236.716Z" fill="#F7B517"/>
<path d="M187.2 31.5779C187.042 31.5779 186.883 31.4196 186.883 31.2613L184.428 20.9728L174.213 16.4617C174.055 16.4617 173.976 16.3034 173.976 16.1451C173.976 15.9868 174.055 15.9077 174.213 15.7494L183.795 11.634L184.032 0.395713C184.032 0.237428 184.112 0.158285 184.27 0C184.428 0 184.587 0 184.666 0.0791426L193.06 7.67683L202.642 3.56142C202.8 3.56142 202.958 3.56142 203.037 3.64056C203.117 3.79885 203.196 3.95713 203.117 4.03627L199.316 14.5622L205.096 23.4262C205.176 23.5845 205.176 23.7428 205.096 23.8219C205.017 23.9011 204.938 24.0594 204.7 23.9802L194.089 23.1888L187.438 31.4196C187.517 31.5779 187.2 31.6571 187.2 31.5779ZM175.243 16.1451L184.824 20.4188C184.903 20.4979 184.983 20.4979 185.062 20.6562L187.358 30.4699L193.614 22.6348C193.693 22.5556 193.852 22.4765 194.01 22.4765L203.988 23.2679L198.524 14.8788C198.524 14.7997 198.445 14.6414 198.524 14.5622L202.087 4.66941L193.06 8.5474C192.901 8.5474 192.743 8.5474 192.664 8.46826L184.824 1.34542L184.587 12.0297C184.587 12.188 184.508 12.2671 184.349 12.4254L175.243 16.1451Z" fill="#F7B517"/>
<path d="M126.225 58.6443C125.75 58.6443 125.354 58.5651 124.958 58.3277C124.246 58.0112 123.691 57.378 123.454 56.6657L116.327 35.9304C116.089 35.2181 116.089 34.3475 116.485 33.7144C116.802 33.0021 117.436 32.4481 118.148 32.2107L120.524 31.4192C120.761 31.3401 120.92 31.4192 120.999 31.6567C121.078 31.8941 120.92 32.0524 120.761 32.1315L118.386 32.9229C117.831 33.0812 117.436 33.4769 117.119 34.0309C116.881 34.5849 116.802 35.1389 117.04 35.6929L124.167 56.4283C124.325 56.9823 124.721 57.378 125.275 57.6946C125.829 57.932 126.384 58.0111 126.938 57.7737L150.694 49.7012C151.249 49.5429 151.645 49.1472 151.961 48.5932C152.199 48.0392 152.278 47.4852 152.041 46.9312L144.914 26.1958C144.755 25.6418 144.359 25.2461 143.805 24.9295C143.251 24.6921 142.696 24.613 142.142 24.8504L139.687 25.721C139.45 25.8001 139.291 25.6418 139.212 25.4835C139.133 25.3252 139.291 25.0878 139.45 25.0087L141.905 24.1381C142.617 23.9007 143.488 23.9007 144.122 24.2964C144.755 24.6921 145.389 25.2461 145.626 25.9584L152.753 46.6938C153.308 48.1975 152.437 49.9386 150.932 50.4135L127.176 58.486C126.938 58.5651 126.542 58.6443 126.225 58.6443Z" fill="#6059F7"/>
<path d="M124.404 30.8656C124.246 30.8656 124.087 30.7865 124.008 30.6282C123.929 30.3907 124.087 30.2325 124.246 30.1533L135.886 26.1962C136.124 26.117 136.282 26.1962 136.361 26.4336C136.441 26.671 136.282 26.8293 136.124 26.9085L124.483 30.8656C124.562 30.7865 124.483 30.8656 124.404 30.8656Z" fill="#6059F7"/>
<path d="M122.979 34.5853C122.028 34.5853 121.237 34.0313 120.92 33.0816L119.89 30.0742C119.732 29.5202 119.732 28.887 119.97 28.4122C120.207 27.8582 120.682 27.4624 121.237 27.3042C121.791 27.1459 122.424 27.1459 122.9 27.3833C123.454 27.6207 123.85 28.0956 124.008 28.6496L125.038 31.657C125.434 32.765 124.8 34.0313 123.691 34.427C123.454 34.5061 123.216 34.5853 122.979 34.5853ZM121.949 27.9373C121.791 27.9373 121.633 27.9373 121.474 28.0164C121.157 28.1747 120.841 28.4122 120.682 28.7287C120.524 29.0453 120.524 29.441 120.603 29.8367L121.633 32.8441C121.87 33.5564 122.662 33.9521 123.454 33.7147C124.167 33.4773 124.562 32.6859 124.325 31.8944L123.295 28.887C123.137 28.5704 122.9 28.2539 122.583 28.0956C122.345 28.0164 122.187 27.9373 121.949 27.9373Z" fill="#6059F7"/>
<path d="M138.341 29.2825C138.024 29.2825 137.708 29.2034 137.391 29.0451C136.837 28.8077 136.441 28.3328 136.282 27.7788L135.253 24.7714C134.857 23.6634 135.49 22.3971 136.599 22.0014C137.153 21.8431 137.787 21.8431 138.262 22.0806C138.816 22.318 139.212 22.7929 139.371 23.3469L140.4 26.3543C140.558 26.9083 140.558 27.5414 140.321 28.0163C140.083 28.5703 139.608 28.966 139.054 29.1243C138.816 29.2825 138.579 29.2825 138.341 29.2825ZM137.312 22.7137C137.153 22.7137 136.995 22.7137 136.837 22.7929C136.124 23.0303 135.728 23.8217 135.965 24.6131L136.995 27.6206C137.153 27.9371 137.391 28.2537 137.708 28.412C138.024 28.5703 138.42 28.5703 138.816 28.4911C139.133 28.3328 139.45 28.0954 139.608 27.7788C139.766 27.4623 139.766 27.0666 139.687 26.6708L138.658 23.6634C138.499 23.3469 138.262 23.0303 137.945 22.872C137.708 22.7929 137.549 22.7137 137.312 22.7137Z" fill="#6059F7"/>
<path d="M129.234 51.9171C129.076 51.9171 128.997 51.838 128.918 51.7589C128.759 51.4423 128.601 51.2049 128.522 50.9674C128.443 50.73 128.363 50.3343 128.363 50.0177C128.363 49.8594 128.443 49.7011 128.601 49.622L130.264 49.068C130.422 48.9889 130.581 48.9889 130.818 48.9097H130.897C130.818 48.5932 130.66 48.3557 130.66 48.0392L129.234 44.0029C129.155 43.7655 128.997 43.3697 128.918 42.8949V42.8157C128.443 43.6863 127.809 44.3986 127.413 44.7943C127.334 44.8734 127.176 44.9526 127.096 44.8734C126.463 44.7943 125.909 44.3195 125.592 43.7655C125.513 43.6072 125.513 43.4489 125.671 43.3697C126.859 41.866 127.651 40.2832 127.73 39.0169C127.73 38.8586 127.809 38.7795 127.967 38.7003C128.284 38.542 128.601 38.3838 128.918 38.3046C129.155 38.2255 129.472 38.1463 129.789 38.0672C129.947 37.988 130.185 38.1463 130.264 38.3046L133.273 47.1686C133.352 47.3269 133.431 47.5643 133.511 47.8017C133.511 47.8809 133.511 47.96 133.59 47.96C133.669 47.96 133.669 47.96 133.748 47.8809C133.986 47.8017 134.144 47.7226 134.302 47.6434L135.569 47.2477C135.728 47.1686 135.886 47.2477 136.045 47.406C136.203 47.7226 136.361 47.96 136.441 48.3557C136.52 48.514 136.599 48.9097 136.599 49.2263C136.599 49.3846 136.52 49.5429 136.361 49.622L129.63 51.9171C129.314 51.9171 129.314 51.9171 129.234 51.9171ZM129.234 50.2551C129.234 50.4134 129.314 50.4926 129.314 50.6509C129.393 50.8091 129.393 50.8883 129.472 50.9674L135.569 48.9097C135.569 48.7514 135.49 48.6723 135.49 48.514C135.411 48.3557 135.411 48.1974 135.332 48.0392L134.382 48.3557C134.302 48.3557 134.065 48.4349 133.907 48.514C133.669 48.5932 133.511 48.6723 133.352 48.7514C133.115 48.8306 132.956 48.7514 132.877 48.514C132.798 48.2766 132.719 48.1183 132.64 47.8809C132.56 47.7226 132.56 47.4852 132.481 47.3269L129.551 38.7795C129.393 38.8586 129.234 38.8586 129.076 38.9378C128.918 39.0169 128.68 39.096 128.443 39.1752C128.284 40.5206 127.572 42.0243 126.384 43.528C126.542 43.6863 126.7 43.8446 126.938 43.9237C127.73 43.1323 128.284 42.1826 128.601 41.3912C128.68 41.2329 128.759 41.1537 128.997 41.1537C129.155 41.1537 129.314 41.2329 129.393 41.4703C129.472 41.866 129.63 42.2617 129.71 42.5783C129.789 42.974 129.947 43.3697 130.026 43.6863L131.452 47.8017C131.531 48.1974 131.689 48.5932 131.848 48.9889C131.927 49.068 131.848 49.2263 131.848 49.3054C131.768 49.3846 131.689 49.4637 131.61 49.5429C131.452 49.622 131.293 49.622 131.056 49.7011C130.897 49.7803 130.66 49.7803 130.581 49.8594L129.234 50.2551ZM139.608 48.1974C138.895 48.1974 138.262 48.0392 137.708 47.8017C137.549 47.7226 137.47 47.6434 137.47 47.4852C137.391 46.9312 137.549 46.1397 137.945 45.6649C138.024 45.5066 138.183 45.5066 138.341 45.5066C139.291 45.744 140.083 45.744 140.875 45.5066C141.746 45.19 142.538 44.3195 142.063 42.5783C141.825 41.9452 141.509 41.4703 141.033 41.2329C140.479 40.9955 139.925 41.1537 139.608 41.2329C139.133 41.3912 138.499 41.7077 138.103 42.4992C138.024 42.5783 137.945 42.6575 137.866 42.6575C137.391 42.7366 136.757 42.5783 136.361 42.2617C136.282 42.1826 136.282 42.1826 136.282 42.1035L134.698 36.6426C134.698 36.5635 134.698 36.4843 134.698 36.326L134.778 36.1678C134.857 36.0886 134.936 36.0095 135.015 35.9303L141.113 33.8726C141.271 33.7935 141.35 33.8726 141.509 33.9518C141.588 34.0309 141.667 34.1101 141.667 34.2683C141.667 34.5849 141.825 34.8223 141.825 34.9806V35.0598C141.905 35.4555 141.905 35.772 141.825 36.0095C141.746 36.2469 141.509 36.4843 141.033 36.6426L137.628 37.7506L137.787 38.2255L138.183 39.4126C138.499 39.1752 138.895 39.0169 139.291 38.8586C141.825 38.0672 143.884 39.096 144.676 41.5495C145.151 42.8949 145.151 44.1612 144.597 45.2692C144.043 46.3772 143.013 47.2477 141.746 47.7226C141.033 48.0392 140.321 48.1974 139.608 48.1974ZM138.262 47.1686C139.212 47.4852 140.321 47.4852 141.509 47.0894C142.617 46.6937 143.488 45.9814 143.884 45.1109C144.359 44.2403 144.359 43.1323 143.963 42.0243C143.251 39.9666 141.588 39.1752 139.529 39.8083C138.975 40.0457 138.579 40.204 138.183 40.5997C138.103 40.6789 137.945 40.758 137.787 40.6789C137.628 40.5997 137.549 40.5206 137.549 40.3623L137.47 39.8875L136.757 37.8298C136.757 37.7506 136.757 37.5923 136.757 37.5132C136.757 37.434 136.916 37.3549 136.995 37.2758L140.796 36.0095C140.954 35.9303 141.033 35.9303 141.113 35.772C141.192 35.6929 141.113 35.5346 141.113 35.3763C141.033 35.2972 140.954 35.1389 140.954 34.9015L135.569 36.7218L136.995 41.866C137.153 41.9452 137.312 42.0243 137.549 42.0243C137.945 41.3912 138.658 40.8372 139.37 40.5997C140.083 40.3623 140.796 40.3623 141.429 40.5997C142.063 40.9163 142.617 41.5495 142.934 42.42C143.647 44.636 142.459 45.9023 141.271 46.298C140.4 46.5354 139.529 46.6146 138.579 46.3772C138.341 46.6146 138.262 46.9312 138.262 47.1686Z" fill="#6059F7"/>
<path d="M77.9999 60.1485C77.7624 60.1485 77.604 59.9903 77.604 59.7528C77.604 54.1337 73.0903 49.6226 67.468 49.6226C67.2304 49.6226 67.072 49.4643 67.072 49.2269C67.072 48.9894 67.2304 48.8311 67.468 48.8311C73.0903 48.8311 77.604 44.32 77.604 38.7009C77.604 38.4635 77.7624 38.3052 77.9999 38.3052C78.2375 38.3052 78.3959 38.4635 78.3959 38.7009C78.3959 44.32 82.9096 48.8311 88.5319 48.8311C88.7695 48.8311 88.9279 48.9894 88.9279 49.2269C88.9279 49.4643 88.7695 49.6226 88.5319 49.6226C82.9096 49.6226 78.3959 54.1337 78.3959 59.7528C78.3959 59.9903 78.2375 60.1485 77.9999 60.1485ZM70.3979 49.2269C74.1197 50.2557 76.9705 53.184 77.9999 56.8245C79.0294 53.1048 81.9593 50.2557 85.602 49.2269C81.8801 48.198 79.0294 45.2697 77.9999 41.6292C76.9705 45.2697 74.0406 48.198 70.3979 49.2269Z" fill="#6591FE"/>
<path d="M217.687 383.921C217.45 383.921 217.291 383.763 217.291 383.525C217.291 377.906 212.778 373.395 207.155 373.395C206.918 373.395 206.759 373.237 206.759 372.999C206.759 372.762 206.918 372.604 207.155 372.604C212.778 372.604 217.291 368.092 217.291 362.473C217.291 362.236 217.45 362.078 217.687 362.078C217.925 362.078 218.083 362.236 218.083 362.473C218.083 368.092 222.597 372.604 228.219 372.604C228.457 372.604 228.615 372.762 228.615 372.999C228.615 373.237 228.457 373.395 228.219 373.395C222.597 373.395 218.083 377.906 218.083 383.525C218.083 383.763 217.925 383.921 217.687 383.921ZM210.085 372.999C213.807 374.028 216.658 376.956 217.687 380.597C218.717 376.877 221.647 374.028 225.289 372.999C221.567 371.97 218.717 369.042 217.687 365.402C216.658 369.042 213.728 371.97 210.085 372.999Z" fill="#6591FE"/>
<path d="M319.602 328.758C319.364 328.758 319.206 328.6 319.206 328.363C319.206 322.744 314.692 318.232 309.07 318.232C308.832 318.232 308.674 318.074 308.674 317.837C308.674 317.599 308.832 317.441 309.07 317.441C314.692 317.441 319.206 312.93 319.206 307.311C319.206 307.073 319.364 306.915 319.602 306.915C319.84 306.915 319.998 307.073 319.998 307.311C319.998 312.93 324.512 317.441 330.134 317.441C330.372 317.441 330.53 317.599 330.53 317.837C330.53 318.074 330.372 318.232 330.134 318.232C324.512 318.232 319.998 322.744 319.998 328.363C319.998 328.521 319.84 328.758 319.602 328.758ZM312 317.758C315.722 318.786 318.573 321.715 319.602 325.355C320.631 321.636 323.561 318.786 327.204 317.758C323.482 316.729 320.631 313.8 319.602 310.16C318.573 313.88 315.722 316.808 312 317.758Z" fill="#F7B517"/>
<path d="M369.649 123.225C369.411 123.225 369.253 123.067 369.253 122.829C369.253 117.21 364.739 112.699 359.117 112.699C358.879 112.699 358.721 112.541 358.721 112.304C358.721 112.066 358.879 111.908 359.117 111.908C364.739 111.908 369.253 107.397 369.253 101.778C369.253 101.54 369.411 101.382 369.649 101.382C369.886 101.382 370.045 101.54 370.045 101.778C370.045 107.397 374.558 111.908 380.181 111.908C380.418 111.908 380.577 112.066 380.577 112.304C380.577 112.541 380.418 112.699 380.181 112.699C374.558 112.699 370.045 117.21 370.045 122.829C370.045 123.067 369.886 123.225 369.649 123.225ZM362.047 112.304C365.768 113.332 368.619 116.261 369.649 119.901C370.678 116.182 373.608 113.332 377.251 112.304C373.529 111.275 370.678 108.346 369.649 104.706C368.619 108.346 365.768 111.275 362.047 112.304Z" fill="#F7B517"/>
<path d="M354.207 178.229C353.969 178.229 353.811 178.071 353.811 177.834C353.811 170.078 347.555 163.825 339.795 163.825C339.557 163.825 339.399 163.667 339.399 163.43C339.399 163.192 339.557 163.034 339.795 163.034C347.555 163.034 353.811 156.782 353.811 149.026C353.811 148.788 353.969 148.63 354.207 148.63C354.445 148.63 354.603 148.788 354.603 149.026C354.603 156.782 360.859 163.034 368.619 163.034C368.857 163.034 369.015 163.192 369.015 163.43C369.015 163.667 368.857 163.825 368.619 163.825C360.859 163.825 354.603 170.078 354.603 177.834C354.603 178.071 354.445 178.229 354.207 178.229ZM343.2 163.43C348.664 164.696 352.94 168.97 354.207 174.43C355.474 168.97 359.75 164.696 365.214 163.43C359.75 162.163 355.474 157.89 354.207 152.429C352.94 157.89 348.664 162.163 343.2 163.43Z" fill="#36C3FE"/>
<path d="M186.883 349.889C186.646 349.889 186.487 349.731 186.487 349.494C186.487 341.738 180.232 335.485 172.471 335.485C172.234 335.485 172.075 335.327 172.075 335.09C172.075 334.852 172.234 334.694 172.471 334.694C180.232 334.694 186.487 328.442 186.487 320.686C186.487 320.448 186.646 320.29 186.883 320.29C187.121 320.29 187.279 320.448 187.279 320.686C187.279 328.442 193.535 334.694 201.295 334.694C201.533 334.694 201.691 334.852 201.691 335.09C201.691 335.327 201.533 335.485 201.295 335.485C193.535 335.485 187.279 341.738 187.279 349.494C187.279 349.731 187.121 349.889 186.883 349.889ZM175.876 335.09C181.34 336.356 185.616 340.63 186.883 346.091C188.15 340.63 192.426 336.356 197.89 335.09C192.426 333.823 188.15 329.55 186.883 324.089C185.616 329.55 181.34 333.823 175.876 335.09Z" fill="#36C3FE"/>
<path d="M52.9766 97.82C52.739 97.82 52.5806 97.6618 52.5806 97.4243C52.5806 89.6684 46.3248 83.4161 38.5644 83.4161C38.3268 83.4161 38.1685 83.2578 38.1685 83.0204C38.1685 82.7829 38.3268 82.6247 38.5644 82.6247C46.3248 82.6247 52.5806 76.3724 52.5806 68.6164C52.5806 68.379 52.739 68.2207 52.9766 68.2207C53.2141 68.2207 53.3725 68.379 53.3725 68.6164C53.3725 76.3724 59.6283 82.6247 67.3888 82.6247C67.6263 82.6247 67.7847 82.7829 67.7847 83.0204C67.7847 83.2578 67.6263 83.4161 67.3888 83.4161C59.6283 83.4161 53.3725 89.6684 53.3725 97.4243C53.3725 97.5826 53.2141 97.82 52.9766 97.82ZM42.0487 83.0204C47.5126 84.2867 51.7888 88.5604 53.0558 94.0212C54.3228 88.5604 58.5989 84.2867 64.0629 83.0204C58.5989 81.7541 54.3228 77.4804 53.0558 72.0195C51.7096 77.4012 47.4334 81.7541 42.0487 83.0204Z" fill="#F7B517"/>
<path d="M70.9524 335.09C70.8732 335.09 70.7148 335.011 70.6356 335.011L63.0336 327.413H47.1168C44.3453 327.413 42.0488 325.118 42.0488 322.348V305.57C42.0488 302.8 44.3453 300.504 47.1168 300.504H73.2488C76.0204 300.504 78.3168 302.8 78.3168 305.57V322.269C78.3168 325.039 76.0204 327.334 73.2488 327.334H71.2691V334.615C71.2691 334.773 71.1899 334.931 71.0316 335.011C71.0316 335.09 70.9524 335.09 70.9524 335.09ZM47.1168 301.217C44.7412 301.217 42.8407 303.116 42.8407 305.49V322.269C42.8407 324.643 44.7412 326.542 47.1168 326.542H63.192C63.2712 326.542 63.4295 326.621 63.5087 326.621L70.5564 333.665V326.938C70.5564 326.701 70.7148 326.542 70.9524 326.542H73.328C75.7036 326.542 77.6042 324.643 77.6042 322.269V305.49C77.6042 303.116 75.7036 301.217 73.328 301.217H47.1168Z" fill="#36C3FE"/>
<path d="M50.8386 317.441C49.0173 317.441 47.5127 315.937 47.5127 314.117C47.5127 312.297 49.0173 310.793 50.8386 310.793C52.6599 310.793 54.1645 312.297 54.1645 314.117C54.1645 315.937 52.5807 317.441 50.8386 317.441ZM50.8386 311.664C49.4924 311.664 48.3046 312.772 48.3046 314.196C48.3046 315.621 49.4132 316.729 50.8386 316.729C52.1848 316.729 53.3726 315.621 53.3726 314.196C53.3726 312.772 52.1848 311.664 50.8386 311.664Z" fill="#36C3FE"/>
<path d="M60.1828 317.441C58.3615 317.441 56.8569 315.937 56.8569 314.117C56.8569 312.297 58.3615 310.793 60.1828 310.793C62.0041 310.793 63.5087 312.297 63.5087 314.117C63.5087 315.937 62.0041 317.441 60.1828 317.441ZM60.1828 311.664C58.8366 311.664 57.6488 312.772 57.6488 314.196C57.6488 315.621 58.7574 316.729 60.1828 316.729C61.529 316.729 62.7168 315.621 62.7168 314.196C62.7168 312.772 61.529 311.664 60.1828 311.664Z" fill="#36C3FE"/>
<path d="M69.5268 317.441C67.7055 317.441 66.2009 315.937 66.2009 314.117C66.2009 312.297 67.7055 310.793 69.5268 310.793C71.3481 310.793 72.8527 312.297 72.8527 314.117C72.8527 315.937 71.3481 317.441 69.5268 317.441ZM69.5268 311.664C68.1806 311.664 66.9928 312.772 66.9928 314.196C66.9928 315.621 68.1014 316.729 69.5268 316.729C70.9522 316.729 72.0608 315.621 72.0608 314.196C72.0608 312.772 70.9522 311.664 69.5268 311.664Z" fill="#36C3FE"/>
<path d="M290.778 62.2062C290.698 62.2062 290.698 62.2062 290.619 62.2062L274.861 55.3999H266.309C263.775 55.3999 261.795 53.3422 261.003 49.8599C260.924 49.6225 261.082 49.4642 261.32 49.3851C261.557 49.3059 261.716 49.4642 261.795 49.7017C262.032 50.8888 263.22 54.6085 266.388 54.6085H275.019C275.098 54.6085 275.098 54.6085 275.178 54.6085L290.461 61.2565V55.0042C290.461 54.7668 290.619 54.6085 290.857 54.6085H296.242C299.647 54.6085 301.943 50.0974 301.943 47.09V28.1749C301.943 25.0883 299.726 23.1889 296.242 23.1889H281.513C281.275 23.1889 281.117 23.0306 281.117 22.7932C281.117 22.5557 281.275 22.3975 281.513 22.3975H296.162C300.201 22.3975 302.656 24.6135 302.656 28.1749V47.09C302.656 50.4931 300.122 55.3999 296.162 55.3999H291.174V61.8896C291.174 62.0479 291.094 62.127 291.015 62.2062C290.936 62.2062 290.857 62.2062 290.778 62.2062Z" fill="#3D3D3D"/>
<path d="M289.748 40.996C291.279 40.996 292.52 39.7559 292.52 38.226C292.52 36.6962 291.279 35.4561 289.748 35.4561C288.217 35.4561 286.977 36.6962 286.977 38.226C286.977 39.7559 288.217 40.996 289.748 40.996Z" fill="#6591FE"/>
<path d="M281.433 40.996C282.964 40.996 284.205 39.7559 284.205 38.226C284.205 36.6962 282.964 35.4561 281.433 35.4561C279.903 35.4561 278.662 36.6962 278.662 38.226C278.662 39.7559 279.903 40.996 281.433 40.996Z" fill="#6591FE"/>
<path d="M238.672 55.0831C238.593 55.0831 238.514 55.0831 238.435 55.004C238.355 54.9248 238.276 54.8457 238.276 54.6874V46.4566H232.1C227.269 46.4566 224.26 40.6792 224.26 36.5637V13.2958C224.26 8.78468 227.348 5.93555 232.1 5.93555H236.613C236.851 5.93555 237.009 6.09383 237.009 6.33126C237.009 6.56869 236.851 6.72697 236.613 6.72697H232.1C227.823 6.72697 225.052 9.33868 225.052 13.2958V36.5637C225.052 40.2834 227.823 45.6651 232.1 45.6651H238.672C238.91 45.6651 239.068 45.8234 239.068 46.0609V54.0543L257.994 45.6651C258.073 45.6651 258.073 45.6651 258.152 45.6651H268.764C273.119 45.6651 275.574 40.2834 275.574 36.5637V13.2958C275.574 9.25954 272.961 6.72697 268.764 6.72697H253.639C253.401 6.72697 253.243 6.56869 253.243 6.33126C253.243 6.09383 253.401 5.93555 253.639 5.93555H268.764C273.356 5.93555 276.366 8.86382 276.366 13.2958V36.5637C276.366 40.6 273.673 46.4566 268.764 46.4566H258.232L238.831 55.0831C238.751 55.0831 238.751 55.0831 238.672 55.0831Z" fill="#3D3D3D"/>
<path d="M242.426 27.9806C243.756 26.6516 243.756 24.4969 242.426 23.1679C241.096 21.8389 238.94 21.8389 237.611 23.1679C236.281 24.4968 236.281 26.6516 237.611 27.9806C238.94 29.3096 241.096 29.3096 242.426 27.9806Z" fill="#F7B517"/>
<path d="M252.648 27.9967C253.978 26.6677 253.978 24.513 252.648 23.184C251.318 21.855 249.162 21.855 247.833 23.184C246.503 24.513 246.503 26.6677 247.833 27.9967C249.162 29.3257 251.318 29.3257 252.648 27.9967Z" fill="#F7B517"/>
<path d="M263.981 26.3217C264.411 24.4922 263.276 22.6602 261.446 22.2298C259.615 21.7994 257.782 22.9336 257.352 24.7631C256.921 26.5926 258.056 28.4246 259.886 28.855C261.717 29.2854 263.55 28.1512 263.981 26.3217Z" fill="#F7B517"/>
<path d="M237.326 215.901C237.247 215.901 237.088 215.822 237.009 215.743C236.851 215.584 236.851 215.347 237.009 215.189L320.473 134.938C320.632 134.78 320.869 134.78 321.027 134.938C321.186 135.096 321.186 135.334 321.027 135.492L237.643 215.743C237.563 215.822 237.405 215.901 237.326 215.901Z" fill="#3D3D3D"/>
<path d="M164.315 220.966C164.236 220.966 164.156 220.966 164.077 220.887L71.1899 163.192C71.0316 163.113 70.9524 162.796 71.0316 162.638C71.1107 162.48 71.4275 162.401 71.5859 162.48L164.473 220.175C164.632 220.254 164.711 220.57 164.632 220.729C164.552 220.887 164.473 220.966 164.315 220.966Z" fill="#3D3D3D"/>
<path d="M134.54 375.057C134.144 375.057 133.828 374.978 133.511 374.741C133.352 374.661 129.393 372.05 125.354 367.38C119.97 361.207 117.119 354.322 117.119 347.436C117.119 337.781 124.958 330.025 134.54 330.025C144.201 330.025 151.962 337.86 151.962 347.436C151.962 354.243 149.111 361.128 143.726 367.38C139.687 372.05 135.728 374.661 135.57 374.741C135.332 374.978 134.936 375.057 134.54 375.057ZM134.54 330.816C125.354 330.816 117.911 338.256 117.911 347.436C117.911 354.084 120.682 360.732 125.988 366.826C129.947 371.417 133.986 374.028 133.986 374.028C134.382 374.266 134.857 374.266 135.253 374.028C135.332 374.028 139.291 371.417 143.251 366.826C148.477 360.732 151.328 354.084 151.328 347.436C151.249 338.335 143.726 330.816 134.54 330.816ZM134.54 354.638C130.581 354.638 127.413 351.393 127.413 347.515C127.413 343.558 130.66 340.393 134.54 340.393C138.5 340.393 141.667 343.637 141.667 347.515C141.746 351.473 138.5 354.638 134.54 354.638ZM134.54 341.105C131.056 341.105 128.205 343.954 128.205 347.436C128.205 350.919 131.056 353.768 134.54 353.768C138.024 353.768 140.875 350.919 140.875 347.436C140.954 343.954 138.104 341.105 134.54 341.105Z" fill="#F7B517"/>
<path d="M340.824 102.41H331.797C331.559 102.41 331.401 102.252 331.401 102.015V92.5175C331.401 92.2009 331.163 91.9635 330.847 91.9635H326.016C325.699 91.9635 325.462 92.2009 325.462 92.5175V102.015C325.462 102.252 325.303 102.41 325.066 102.41H316.118C315.405 102.41 314.771 101.856 314.771 101.065V85.3947C314.771 84.9989 314.93 84.6032 315.326 84.3658L327.679 75.027C328.154 74.7104 328.788 74.7104 329.263 75.027L341.616 84.3658C341.933 84.6032 342.17 84.9989 342.17 85.3947V101.065C342.17 101.856 341.537 102.41 340.824 102.41ZM332.193 101.619H340.745C341.062 101.619 341.299 101.381 341.299 101.065V85.3947C341.299 85.2364 341.22 85.0781 341.062 84.9989L328.709 75.6601C328.55 75.5018 328.233 75.5018 328.075 75.6601L315.722 84.9989C315.563 85.0781 315.484 85.2364 315.484 85.3947V101.065C315.484 101.381 315.722 101.619 316.038 101.619H324.67V92.5175C324.67 91.8052 325.303 91.1721 326.016 91.1721H330.847C331.559 91.1721 332.193 91.8052 332.193 92.5175V101.619Z" fill="#6059F7"/>
<path d="M369.649 240.752C369.569 240.752 369.49 240.752 369.411 240.673C366.56 239.011 364.185 236.32 362.443 233.075C362.363 232.917 362.363 232.838 362.443 232.68C362.522 232.521 362.68 232.521 362.759 232.521H376.459C376.617 232.521 376.696 232.6 376.776 232.68C376.855 232.838 376.855 232.917 376.776 233.075C375.033 236.399 372.579 239.011 369.807 240.673C369.807 240.752 369.728 240.752 369.649 240.752ZM363.472 233.313C365.056 236.162 367.194 238.378 369.649 239.961C372.103 238.457 374.242 236.162 375.825 233.313H363.472ZM374.479 240.356C374.321 240.356 374.242 240.277 374.162 240.119C374.083 239.961 374.083 239.802 374.242 239.644C376.221 237.745 377.884 235.37 379.072 232.68C379.151 232.521 379.31 232.442 379.468 232.442H385.407C385.565 232.442 385.724 232.521 385.724 232.68C385.803 232.838 385.803 232.996 385.645 233.075C382.873 236.637 378.914 239.169 374.558 240.277C374.558 240.356 374.558 240.356 374.479 240.356ZM379.705 233.313C378.676 235.529 377.33 237.507 375.825 239.169C379.151 238.061 382.24 236.004 384.536 233.313H379.705ZM364.818 240.356H364.739C360.384 239.248 356.424 236.716 353.653 233.154C353.574 232.996 353.574 232.838 353.574 232.759C353.653 232.6 353.811 232.521 353.89 232.521H359.829C359.988 232.521 360.146 232.6 360.225 232.759C361.492 235.45 363.155 237.824 365.056 239.723C365.214 239.882 365.214 240.04 365.135 240.198C365.056 240.277 364.897 240.356 364.818 240.356ZM354.761 233.313C357.058 236.004 360.146 238.061 363.472 239.169C361.967 237.507 360.621 235.529 359.592 233.313H354.761ZM387.149 230.622H380.497C380.339 230.622 380.26 230.543 380.181 230.464C380.101 230.384 380.101 230.226 380.101 230.068C380.972 227.456 381.527 224.686 381.606 221.837C381.606 221.6 381.764 221.441 382.002 221.441H389.525C389.604 221.441 389.762 221.52 389.842 221.6C389.921 221.679 389.921 221.758 389.921 221.916C389.762 224.924 388.891 227.773 387.387 230.384C387.387 230.543 387.308 230.622 387.149 230.622ZM381.052 229.83H386.912C388.179 227.456 388.97 224.924 389.208 222.312H382.477C382.319 224.924 381.844 227.456 381.052 229.83ZM377.726 230.622H361.651C361.492 230.622 361.334 230.543 361.255 230.384C360.225 227.773 359.671 224.924 359.513 221.916C359.513 221.837 359.513 221.679 359.592 221.6C359.671 221.52 359.75 221.441 359.909 221.441H379.389C379.468 221.441 379.626 221.52 379.705 221.6C379.785 221.679 379.785 221.758 379.785 221.916C379.626 224.844 379.072 227.694 378.043 230.384C377.963 230.543 377.884 230.622 377.726 230.622ZM361.888 229.83H377.409C378.28 227.456 378.834 224.924 378.993 222.312H360.304C360.463 224.924 361.017 227.456 361.888 229.83ZM358.8 230.622H352.148C351.99 230.622 351.911 230.543 351.831 230.384C350.406 227.773 349.535 224.924 349.297 221.916C349.297 221.837 349.297 221.679 349.377 221.6C349.456 221.52 349.535 221.441 349.693 221.441H357.216C357.454 221.441 357.612 221.6 357.612 221.837C357.77 224.686 358.246 227.456 359.117 230.068C359.196 230.226 359.117 230.305 359.037 230.464C359.037 230.622 358.879 230.622 358.8 230.622ZM352.386 229.83H358.246C357.454 227.456 356.979 224.924 356.899 222.312H350.168C350.327 225.003 351.119 227.535 352.386 229.83ZM389.604 219.7H382.081C381.844 219.7 381.685 219.542 381.685 219.304C381.527 216.455 381.052 213.685 380.181 211.074C380.101 210.915 380.181 210.836 380.26 210.678C380.339 210.599 380.418 210.52 380.577 210.52H387.228C387.387 210.52 387.466 210.599 387.545 210.757C388.97 213.369 389.842 216.218 390.079 219.225C390.079 219.304 390.079 219.463 390 219.542C389.921 219.621 389.683 219.7 389.604 219.7ZM382.398 218.909H389.129C388.891 216.218 388.099 213.685 386.832 211.39H380.972C381.844 213.764 382.319 216.297 382.398 218.909ZM379.389 219.7H359.909C359.829 219.7 359.671 219.621 359.592 219.542C359.513 219.463 359.513 219.384 359.513 219.225C359.671 216.297 360.225 213.448 361.255 210.757C361.334 210.599 361.492 210.52 361.651 210.52H377.726C377.884 210.52 378.043 210.599 378.122 210.757C379.151 213.369 379.705 216.218 379.864 219.225C379.864 219.304 379.864 219.463 379.785 219.542C379.626 219.621 379.468 219.7 379.389 219.7ZM360.304 218.909H378.993C378.834 216.297 378.28 213.764 377.409 211.39H361.888C361.017 213.685 360.463 216.218 360.304 218.909ZM357.216 219.7H349.693C349.614 219.7 349.456 219.621 349.377 219.542C349.297 219.463 349.297 219.384 349.297 219.225C349.456 216.218 350.327 213.369 351.831 210.757C351.911 210.599 352.069 210.52 352.148 210.52H358.8C358.958 210.52 359.037 210.599 359.117 210.678C359.196 210.757 359.196 210.915 359.196 211.074C358.325 213.685 357.77 216.455 357.691 219.304C357.612 219.463 357.454 219.7 357.216 219.7ZM350.089 218.909H356.82C356.979 216.297 357.454 213.764 358.166 211.39H352.386C351.119 213.685 350.327 216.218 350.089 218.909ZM385.407 208.699H379.468C379.31 208.699 379.151 208.62 379.072 208.462C377.805 205.771 376.142 203.397 374.242 201.497C374.083 201.339 374.083 201.181 374.162 201.022C374.242 200.864 374.4 200.785 374.637 200.864C378.993 201.972 382.952 204.505 385.724 208.066C385.803 208.224 385.803 208.383 385.803 208.462C385.645 208.62 385.486 208.699 385.407 208.699ZM379.705 207.908H384.536C382.24 205.217 379.151 203.159 375.825 202.051C377.33 203.713 378.676 205.692 379.705 207.908ZM376.459 208.699H362.759C362.601 208.699 362.522 208.62 362.443 208.541C362.363 208.383 362.363 208.304 362.443 208.145C364.185 204.821 366.639 202.21 369.411 200.548C369.569 200.468 369.728 200.468 369.807 200.548C372.658 202.21 375.033 204.9 376.776 208.145C376.855 208.304 376.855 208.383 376.776 208.541C376.776 208.62 376.617 208.699 376.459 208.699ZM363.472 207.908H375.825C374.242 205.059 372.103 202.843 369.649 201.26C367.194 202.764 365.056 205.059 363.472 207.908ZM359.829 208.699H353.89C353.732 208.699 353.574 208.62 353.574 208.462C353.494 208.304 353.494 208.145 353.653 208.066C356.424 204.505 360.384 201.972 364.739 200.864C364.897 200.785 365.056 200.864 365.214 201.022C365.293 201.181 365.293 201.339 365.135 201.497C363.155 203.397 361.492 205.771 360.304 208.462C360.146 208.62 359.988 208.699 359.829 208.699ZM354.761 207.908H359.592C360.621 205.692 361.967 203.713 363.472 202.051C360.067 203.159 357.058 205.138 354.761 207.908Z" fill="#6591FE"/>
<path d="M252.53 363.027C252.213 363.027 251.817 362.948 251.5 362.79C251.421 362.711 251.342 362.631 251.263 362.552C251.263 362.473 251.263 362.315 251.342 362.236L261.874 345.537C261.953 345.457 262.032 345.378 262.112 345.378C262.191 345.378 262.349 345.378 262.428 345.457L270.347 350.443C271.535 351.235 272.96 351.472 274.307 351.156C275.653 350.839 276.841 350.048 277.632 348.781L282.621 340.867C282.7 340.709 283.017 340.63 283.176 340.709L299.884 351.235C299.963 351.314 300.043 351.393 300.043 351.472C300.043 351.551 300.043 351.71 299.963 351.789C299.647 352.185 299.172 352.501 298.617 352.659L252.926 363.027C252.847 362.948 252.688 363.027 252.53 363.027ZM252.292 362.157C252.451 362.157 252.688 362.157 252.847 362.157L298.538 351.789C298.696 351.71 298.934 351.631 299.092 351.551L283.096 341.5L278.266 349.098C277.395 350.443 276.049 351.393 274.465 351.789C272.881 352.185 271.218 351.868 269.872 350.997L262.27 346.249L252.292 362.157ZM249.917 358.437C249.679 358.437 249.6 358.279 249.521 358.12L244.215 334.694C244.215 334.536 244.215 334.378 244.374 334.298C244.532 334.219 244.69 334.219 244.849 334.298L259.182 343.321C259.261 343.4 259.34 343.479 259.34 343.558C259.34 343.637 259.34 343.795 259.261 343.875L250.233 358.279C250.154 358.358 250.075 358.437 249.917 358.437ZM245.245 335.486L250.154 357.012L258.469 343.795L245.245 335.486ZM273.119 348.148C272.723 348.148 272.248 347.99 271.931 347.832L244.057 330.262C243.978 330.183 243.898 330.104 243.898 330.025C243.898 329.946 243.898 329.787 243.978 329.708V329.629L244.294 329.866L243.978 329.629L244.057 329.55L244.136 329.471L244.215 329.392L244.294 329.312L244.374 329.233L244.453 329.154C244.453 329.154 244.532 329.154 244.532 329.075L244.611 328.996L244.69 328.917L244.77 328.838L244.849 328.758H244.928C244.928 328.758 245.007 328.758 245.007 328.679H245.086C245.165 328.679 245.165 328.679 245.245 328.6L290.936 318.232C291.015 318.232 291.094 318.232 291.094 318.232H291.253H291.332H291.411H291.49H291.57H291.649H291.728H291.807H291.886L292.045 318.312H292.124L292.203 318.391C292.282 318.47 292.441 318.549 292.441 318.628C292.441 318.707 292.441 318.866 292.441 318.945L274.861 346.803C274.544 347.357 273.99 347.673 273.435 347.832C273.435 348.148 273.277 348.148 273.119 348.148ZM244.928 329.866L272.327 347.119C272.644 347.357 273.04 347.436 273.435 347.278C273.831 347.199 274.148 346.961 274.386 346.645L291.728 319.103V318.786L291.649 319.182H291.49H291.332H291.174C291.094 319.182 291.015 319.182 291.015 319.182L245.324 329.55C245.324 329.55 245.245 329.55 245.165 329.55L245.007 329.629L244.928 329.708L244.69 329.392L244.928 329.866C245.007 329.787 244.928 329.866 244.928 329.866ZM299.33 347.199C299.251 347.199 299.172 347.199 299.092 347.119L284.759 338.097C284.601 338.018 284.522 337.702 284.601 337.543L293.628 323.218C293.708 323.06 293.866 322.981 294.024 323.06C294.183 323.06 294.341 323.218 294.341 323.377L299.647 346.724C299.647 346.882 299.647 347.04 299.488 347.119C299.488 347.199 299.409 347.199 299.33 347.199ZM285.551 337.622L298.696 345.932L293.787 324.485L285.551 337.622Z" fill="#36C3FE"/>
<path d="M40.5442 209.332C40.3858 209.332 40.2274 209.332 39.9898 209.332C34.7635 208.857 29.7746 207.512 25.1025 205.217C20.5096 203.08 16.3919 200.152 12.8284 196.511C9.26498 192.87 6.33503 188.755 4.11777 184.244C1.90051 179.495 0.475127 174.509 0 169.286C0 169.128 0 168.969 0 168.732C0 167.307 0.554315 165.883 1.50457 164.854C2.6132 163.667 4.11777 162.955 5.78071 162.955H12.9868C15.9168 162.955 18.3716 165.171 18.6883 168.02C18.8467 169.603 19.1635 171.106 19.6386 172.61C20.2721 174.668 19.7178 176.884 18.2132 178.387L15.5208 181.078C18.5299 186.381 22.8853 190.813 28.1909 193.741L30.8832 191.05C32.3878 189.547 34.6051 188.993 36.664 189.626C38.1685 190.101 39.7523 190.417 41.2569 190.575C44.1868 190.892 46.3249 193.345 46.3249 196.274V203.476C46.3249 205.058 45.6122 206.641 44.4244 207.749C43.3949 208.778 41.9695 209.332 40.5442 209.332ZM5.78071 163.825C4.35533 163.825 3.08833 164.379 2.13807 165.408C1.26701 166.358 0.871066 167.545 0.871066 168.732C0.871066 168.89 0.871066 169.049 0.871066 169.207C1.34619 174.272 2.69239 179.258 4.90964 183.848C7.04772 188.359 9.89848 192.396 13.4619 195.957C17.0254 199.518 21.064 202.368 25.5777 204.504C30.1706 206.72 35.1594 208.066 40.2274 208.541C41.6528 208.699 42.999 208.224 44.0284 207.274C45.0579 206.325 45.6122 204.979 45.6122 203.634V196.432C45.6122 193.899 43.7117 191.763 41.2569 191.525C39.6731 191.367 38.0102 191.05 36.5056 190.575C34.7635 190.021 32.8629 190.496 31.5168 191.762L28.5076 194.612C28.3492 194.77 28.1909 194.77 28.0325 194.691C22.331 191.604 17.7381 186.935 14.5706 181.237C14.4914 181.078 14.4914 180.92 14.6497 180.762L17.5797 177.833C18.8467 176.567 19.3218 174.668 18.7675 172.847C18.2924 171.265 17.9756 169.682 17.8173 168.099C17.5005 165.566 15.4416 163.746 12.9076 163.746H5.78071V163.825Z" fill="#6059F7"/>
<path d="M35.2378 127.578C34.0499 127.578 32.8621 127.261 31.7535 126.707C29.9322 125.758 28.6652 124.254 28.0317 122.196C27.3982 120.218 27.5565 118.239 28.586 116.419C29.6154 114.599 31.0408 113.332 33.0997 112.699C35.0794 112.066 37.0591 112.224 38.8804 113.253C40.7017 114.203 41.9687 115.707 42.6022 117.764C43.2357 119.743 43.0774 121.721 42.0479 123.542C41.0977 125.362 39.5931 126.628 37.5342 127.261C36.7423 127.42 36.0296 127.578 35.2378 127.578ZM35.3169 113.095C34.6043 113.095 33.9708 113.174 33.2581 113.411C31.4367 113.965 30.0906 115.073 29.2195 116.735C28.3484 118.397 28.19 120.139 28.7444 121.959C29.2987 123.779 30.4073 125.125 32.0703 125.995C33.7332 126.866 35.4753 127.024 37.2966 126.47C39.118 125.916 40.4642 124.808 41.3352 123.146C42.2063 121.484 42.3647 119.743 41.8104 117.923C41.256 116.102 40.1474 114.757 38.4845 113.886C37.455 113.332 36.4256 113.095 35.3169 113.095Z" fill="#36C3FE"/>
<path d="M33.4964 144.435C32.7045 144.435 31.9126 144.277 31.1208 143.881C29.7746 143.248 28.9035 142.061 28.3492 140.478C28.1908 139.924 28.0324 139.291 27.8741 138.737C27.7157 138.183 27.6365 137.471 27.5573 136.838C27.4781 136.125 27.3989 135.492 27.3989 134.859C27.3989 134.226 27.4781 133.514 27.6365 132.88C27.7949 132.168 28.0324 131.535 28.3492 130.981C28.6659 130.348 29.1411 129.794 29.7746 129.319C30.3289 128.844 31.0416 128.448 31.8334 128.211C32.2294 128.053 32.7045 128.132 33.338 128.369C33.734 128.448 34.2091 128.607 34.7634 128.765C35.1593 128.844 35.7136 128.923 36.3472 128.923C36.9807 128.923 37.6142 128.844 38.1685 128.686C38.7228 128.528 39.2771 128.211 39.8314 127.894C40.3857 127.499 40.7817 127.182 41.0984 126.786C41.4152 126.391 41.7319 125.995 42.0487 125.678C42.4446 125.124 42.7614 124.887 43.2365 124.729C44.0284 124.491 44.8202 124.412 45.5329 124.412C46.3248 124.491 46.9583 124.65 47.5918 124.966C48.1461 125.283 48.7796 125.678 49.2548 126.153C49.7299 126.628 50.205 127.103 50.601 127.657C50.9969 128.211 51.3136 128.765 51.6304 129.398C51.9471 130.031 52.2639 130.585 52.4223 131.139C52.6598 131.693 52.8182 132.247 53.0558 132.801C53.5309 134.384 53.4517 135.888 52.739 137.154C52.0263 138.42 50.8385 139.291 49.2548 139.766L35.4761 144.039C34.7634 144.356 34.1299 144.435 33.4964 144.435ZM32.3086 128.923C32.2294 128.923 32.1502 128.923 32.071 128.923C31.3583 129.161 30.7248 129.477 30.2497 129.873C29.7746 130.269 29.2994 130.744 29.0619 131.298C28.7451 131.772 28.5867 132.406 28.4284 133.039C28.27 133.672 28.1908 134.305 28.1908 134.859C28.1908 135.492 28.1908 136.125 28.3492 136.758C28.4284 137.391 28.5076 138.025 28.6659 138.579C28.8243 139.133 28.9827 139.687 29.1411 140.241C29.537 141.665 30.3289 142.615 31.4375 143.169C32.5461 143.723 33.8131 143.802 35.2385 143.327L49.0172 139.054C50.4426 138.658 51.3928 137.866 52.0263 136.758C52.6598 135.65 52.739 134.384 52.2639 133.039C52.1055 132.485 51.868 131.931 51.7096 131.377C51.472 130.823 51.2345 130.269 50.9177 129.715C50.601 129.082 50.2842 128.607 49.9675 128.053C49.6507 127.578 49.1756 127.103 48.7796 126.628C48.3045 126.153 47.8294 125.837 47.2751 125.599C46.7208 125.362 46.1664 125.204 45.4538 125.124C44.8202 125.045 44.1076 125.124 43.3949 125.362C43.2365 125.441 42.9989 125.52 42.603 126.074C42.3654 126.391 42.0487 126.786 41.6527 127.182C41.336 127.578 40.8609 127.974 40.3065 128.369C39.7522 128.765 39.1187 129.082 38.406 129.319C37.7725 129.556 37.0598 129.636 36.3472 129.636C35.6345 129.636 35.001 129.556 34.5258 129.398C33.9715 129.24 33.4964 129.161 33.1004 129.002C32.7045 129.002 32.4669 128.923 32.3086 128.923Z" fill="#36C3FE"/>
</svg>
