<svg width="7" height="8" viewBox="0 0 7 8" fill="none" xmlns="http://www.w3.org/2000/svg">
<path d="M2.91875 3.15781L4.40625 4.00313L2.91875 4.84844V3.15781ZM7 1.25V6.75C7 7.16406 6.66406 7.5 6.25 7.5H0.75C0.335938 7.5 0 7.16406 0 6.75V1.25C0 0.835938 0.335938 0.5 0.75 0.5H6.25C6.66406 0.5 7 0.835938 7 1.25ZM6.34375 4.00469C6.34375 4.00469 6.34375 3.07344 6.225 2.62656C6.15937 2.37969 5.96719 2.18594 5.72188 2.12031C5.27969 2 3.5 2 3.5 2C3.5 2 1.72031 2 1.27813 2.12031C1.03281 2.18594 0.840625 2.37969 0.775 2.62656C0.65625 3.07188 0.65625 4.00469 0.65625 4.00469C0.65625 4.00469 0.65625 4.93594 0.775 5.38281C0.840625 5.62969 1.03281 5.81562 1.27813 5.88125C1.72031 6 3.5 6 3.5 6C3.5 6 5.27969 6 5.72188 5.87969C5.96719 5.81406 6.15937 5.62812 6.225 5.38125C6.34375 4.93594 6.34375 4.00469 6.34375 4.00469Z" fill="white"/>
</svg>
